<?xml version="1.0" encoding="utf-8" standalone="no"?>
<!DOCTYPE svg PUBLIC "-//W3C//DTD SVG 1.1//EN"
  "http://www.w3.org/Graphics/SVG/1.1/DTD/svg11.dtd">
<!-- Created with matplotlib (http://matplotlib.org/) -->
<svg height="345.6pt" version="1.1" viewBox="0 0 460.8 345.6" width="460.8pt" xmlns="http://www.w3.org/2000/svg" xmlns:xlink="http://www.w3.org/1999/xlink">
 <defs>
  <style type="text/css">
*{stroke-linecap:butt;stroke-linejoin:round;}
  </style>
 </defs>
 <g id="figure_1">
  <g id="patch_1">
   <path d="M 0 345.6 
L 460.8 345.6 
L 460.8 0 
L 0 0 
z
" style="fill:#ffffff;"/>
  </g>
  <g id="axes_1">
   <g id="patch_2">
    <path d="M 57.6 307.584 
L 414.72 307.584 
L 414.72 41.472 
L 57.6 41.472 
z
" style="fill:#ffffff;"/>
   </g>
   <g id="PathCollection_1"/>
   <g id="PathCollection_2"/>
   <g id="patch_3">
    <path clip-path="url(#p02b9322a95)" d="M 73.832727 138.523798 
L 80.740271 138.523798 
L 80.740271 188.979573 
L 73.832727 188.979573 
z
" style="fill:#477ca8;opacity:0.5;"/>
   </g>
   <g id="patch_4">
    <path clip-path="url(#p02b9322a95)" d="M 91.101586 138.523798 
L 98.00913 138.523798 
L 98.00913 250.838385 
L 91.101586 250.838385 
z
" style="fill:#477ca8;opacity:0.5;"/>
   </g>
   <g id="patch_5">
    <path clip-path="url(#p02b9322a95)" d="M 108.370445 138.523798 
L 115.277988 138.523798 
L 115.277988 179.012309 
L 108.370445 179.012309 
z
" style="fill:#477ca8;opacity:0.5;"/>
   </g>
   <g id="patch_6">
    <path clip-path="url(#p02b9322a95)" d="M 125.639304 138.523798 
L 132.546847 138.523798 
L 132.546847 159.410625 
L 125.639304 159.410625 
z
" style="fill:#477ca8;opacity:0.5;"/>
   </g>
   <g id="patch_7">
    <path clip-path="url(#p02b9322a95)" d="M 142.908162 138.523798 
L 149.815706 138.523798 
L 149.815706 103.45219 
L 142.908162 103.45219 
z
" style="fill:#477ca8;opacity:0.5;"/>
   </g>
   <g id="patch_8">
    <path clip-path="url(#p02b9322a95)" d="M 160.177021 138.523798 
L 167.084565 138.523798 
L 167.084565 183.070603 
L 160.177021 183.070603 
z
" style="fill:#477ca8;opacity:0.5;"/>
   </g>
   <g id="patch_9">
    <path clip-path="url(#p02b9322a95)" d="M 177.44588 138.523798 
L 184.353424 138.523798 
L 184.353424 135.928932 
L 177.44588 135.928932 
z
" style="fill:#477ca8;opacity:0.5;"/>
   </g>
   <g id="patch_10">
    <path clip-path="url(#p02b9322a95)" d="M 194.714739 138.523798 
L 201.622282 138.523798 
L 201.622282 152.901298 
L 194.714739 152.901298 
z
" style="fill:#477ca8;opacity:0.5;"/>
   </g>
   <g id="patch_11">
    <path clip-path="url(#p02b9322a95)" d="M 211.983598 138.523798 
L 218.891141 138.523798 
L 218.891141 137.415882 
L 211.983598 137.415882 
z
" style="fill:#477ca8;opacity:0.5;"/>
   </g>
   <g id="patch_12">
    <path clip-path="url(#p02b9322a95)" d="M 229.252456 138.523798 
L 236.16 138.523798 
L 236.16 182.635468 
L 229.252456 182.635468 
z
" style="fill:#477ca8;opacity:0.5;"/>
   </g>
   <g id="patch_13">
    <path clip-path="url(#p02b9322a95)" d="M 246.521315 138.523798 
L 253.428859 138.523798 
L 253.428859 180.431181 
L 246.521315 180.431181 
z
" style="fill:#477ca8;opacity:0.5;"/>
   </g>
   <g id="patch_14">
    <path clip-path="url(#p02b9322a95)" d="M 263.790174 138.523798 
L 270.697718 138.523798 
L 270.697718 169.857316 
L 263.790174 169.857316 
z
" style="fill:#477ca8;opacity:0.5;"/>
   </g>
   <g id="patch_15">
    <path clip-path="url(#p02b9322a95)" d="M 281.059033 138.523798 
L 287.966576 138.523798 
L 287.966576 149.926272 
L 281.059033 149.926272 
z
" style="fill:#477ca8;opacity:0.5;"/>
   </g>
   <g id="patch_16">
    <path clip-path="url(#p02b9322a95)" d="M 298.327892 138.523798 
L 305.235435 138.523798 
L 305.235435 151.619487 
L 298.327892 151.619487 
z
" style="fill:#477ca8;opacity:0.5;"/>
   </g>
   <g id="patch_17">
    <path clip-path="url(#p02b9322a95)" d="M 315.59675 138.523798 
L 322.504294 138.523798 
L 322.504294 287.264724 
L 315.59675 287.264724 
z
" style="fill:#477ca8;opacity:0.5;"/>
   </g>
   <g id="patch_18">
    <path clip-path="url(#p02b9322a95)" d="M 332.865609 138.523798 
L 339.773153 138.523798 
L 339.773153 179.569037 
L 332.865609 179.569037 
z
" style="fill:#477ca8;opacity:0.5;"/>
   </g>
   <g id="patch_19">
    <path clip-path="url(#p02b9322a95)" d="M 350.134468 138.523798 
L 357.042012 138.523798 
L 357.042012 151.280793 
L 350.134468 151.280793 
z
" style="fill:#477ca8;opacity:0.5;"/>
   </g>
   <g id="patch_20">
    <path clip-path="url(#p02b9322a95)" d="M 367.403327 138.523798 
L 374.31087 138.523798 
L 374.31087 146.4084 
L 367.403327 146.4084 
z
" style="fill:#477ca8;opacity:0.5;"/>
   </g>
   <g id="patch_21">
    <path clip-path="url(#p02b9322a95)" d="M 384.672186 138.523798 
L 391.579729 138.523798 
L 391.579729 178.081141 
L 384.672186 178.081141 
z
" style="fill:#477ca8;opacity:0.5;"/>
   </g>
   <g id="patch_22">
    <path clip-path="url(#p02b9322a95)" d="M 80.740271 138.523798 
L 87.647814 138.523798 
L 87.647814 189.291825 
L 80.740271 189.291825 
z
" style="fill:#df7f20;opacity:0.5;"/>
   </g>
   <g id="patch_23">
    <path clip-path="url(#p02b9322a95)" d="M 98.00913 138.523798 
L 104.916673 138.523798 
L 104.916673 265.424062 
L 98.00913 265.424062 
z
" style="fill:#df7f20;opacity:0.5;"/>
   </g>
   <g id="patch_24">
    <path clip-path="url(#p02b9322a95)" d="M 115.277988 138.523798 
L 122.185532 138.523798 
L 122.185532 178.942801 
L 115.277988 178.942801 
z
" style="fill:#df7f20;opacity:0.5;"/>
   </g>
   <g id="patch_25">
    <path clip-path="url(#p02b9322a95)" d="M 132.546847 138.523798 
L 139.454391 138.523798 
L 139.454391 150.23217 
L 132.546847 150.23217 
z
" style="fill:#df7f20;opacity:0.5;"/>
   </g>
   <g id="patch_26">
    <path clip-path="url(#p02b9322a95)" d="M 149.815706 138.523798 
L 156.72325 138.523798 
L 156.72325 133.441364 
L 149.815706 133.441364 
z
" style="fill:#df7f20;opacity:0.5;"/>
   </g>
   <g id="patch_27">
    <path clip-path="url(#p02b9322a95)" d="M 167.084565 138.523798 
L 173.992108 138.523798 
L 173.992108 194.419542 
L 167.084565 194.419542 
z
" style="fill:#df7f20;opacity:0.5;"/>
   </g>
   <g id="patch_28">
    <path clip-path="url(#p02b9322a95)" d="M 184.353424 138.523798 
L 191.260967 138.523798 
L 191.260967 140.305387 
L 184.353424 140.305387 
z
" style="fill:#df7f20;opacity:0.5;"/>
   </g>
   <g id="patch_29">
    <path clip-path="url(#p02b9322a95)" d="M 201.622282 138.523798 
L 208.529826 138.523798 
L 208.529826 148.908881 
L 201.622282 148.908881 
z
" style="fill:#df7f20;opacity:0.5;"/>
   </g>
   <g id="patch_30">
    <path clip-path="url(#p02b9322a95)" d="M 218.891141 138.523798 
L 225.798685 138.523798 
L 225.798685 138.911725 
L 218.891141 138.911725 
z
" style="fill:#df7f20;opacity:0.5;"/>
   </g>
   <g id="patch_31">
    <path clip-path="url(#p02b9322a95)" d="M 236.16 138.523798 
L 243.067544 138.523798 
L 243.067544 182.34097 
L 236.16 182.34097 
z
" style="fill:#df7f20;opacity:0.5;"/>
   </g>
   <g id="patch_32">
    <path clip-path="url(#p02b9322a95)" d="M 253.428859 138.523798 
L 260.336402 138.523798 
L 260.336402 186.503987 
L 253.428859 186.503987 
z
" style="fill:#df7f20;opacity:0.5;"/>
   </g>
   <g id="patch_33">
    <path clip-path="url(#p02b9322a95)" d="M 270.697718 138.523798 
L 277.605261 138.523798 
L 277.605261 178.650581 
L 270.697718 178.650581 
z
" style="fill:#df7f20;opacity:0.5;"/>
   </g>
   <g id="patch_34">
    <path clip-path="url(#p02b9322a95)" d="M 287.966576 138.523798 
L 294.87412 138.523798 
L 294.87412 151.127565 
L 287.966576 151.127565 
z
" style="fill:#df7f20;opacity:0.5;"/>
   </g>
   <g id="patch_35">
    <path clip-path="url(#p02b9322a95)" d="M 305.235435 138.523798 
L 312.142979 138.523798 
L 312.142979 149.776557 
L 305.235435 149.776557 
z
" style="fill:#df7f20;opacity:0.5;"/>
   </g>
   <g id="patch_36">
    <path clip-path="url(#p02b9322a95)" d="M 322.504294 138.523798 
L 329.411838 138.523798 
L 329.411838 274.180895 
L 322.504294 274.180895 
z
" style="fill:#df7f20;opacity:0.5;"/>
   </g>
   <g id="patch_37">
    <path clip-path="url(#p02b9322a95)" d="M 339.773153 138.523798 
L 346.680696 138.523798 
L 346.680696 185.210855 
L 339.773153 185.210855 
z
" style="fill:#df7f20;opacity:0.5;"/>
   </g>
   <g id="patch_38">
    <path clip-path="url(#p02b9322a95)" d="M 357.042012 138.523798 
L 363.949555 138.523798 
L 363.949555 150.111456 
L 357.042012 150.111456 
z
" style="fill:#df7f20;opacity:0.5;"/>
   </g>
   <g id="patch_39">
    <path clip-path="url(#p02b9322a95)" d="M 374.31087 138.523798 
L 381.218414 138.523798 
L 381.218414 144.9466 
L 374.31087 144.9466 
z
" style="fill:#df7f20;opacity:0.5;"/>
   </g>
   <g id="patch_40">
    <path clip-path="url(#p02b9322a95)" d="M 391.579729 138.523798 
L 398.487273 138.523798 
L 398.487273 177.933632 
L 391.579729 177.933632 
z
" style="fill:#df7f20;opacity:0.5;"/>
   </g>
   <g id="matplotlib.axis_1">
    <g id="xtick_1">
     <g id="line2d_1">
      <defs>
       <path d="M 0 0 
L 0 3.5 
" id="m0a4e57517f" style="stroke:#1a1a1a;stroke-width:0.8;"/>
      </defs>
      <g>
       <use style="fill:#1a1a1a;stroke:#1a1a1a;stroke-width:0.8;" x="80.740271" xlink:href="#m0a4e57517f" y="307.584"/>
      </g>
     </g>
     <g id="text_1">
      <!-- ala -->
      <defs>
       <path d="M 4 13.71875 
Q 4 21 8.546875 25 
Q 13.09375 29 20.453125 29.9375 
L 34.46875 31.6875 
Q 37.5 32.078125 38.53125 34.234375 
Q 39.109375 35.40625 39.109375 37.59375 
Q 39.109375 42.09375 35.90625 44.109375 
Q 32.71875 46.140625 26.765625 46.140625 
Q 19.875 46.140625 17 42.4375 
Q 15.375 40.375 14.890625 36.328125 
L 6.6875 36.328125 
Q 6.9375 46 12.96875 49.78125 
Q 19 53.5625 26.953125 53.5625 
Q 36.1875 53.5625 41.9375 50.046875 
Q 47.65625 46.53125 47.65625 39.109375 
L 47.65625 8.984375 
Q 47.65625 7.625 48.21875 6.78125 
Q 48.78125 5.953125 50.59375 5.953125 
Q 51.171875 5.953125 51.90625 6.03125 
Q 52.640625 6.109375 53.46875 6.25 
L 53.46875 -0.25 
Q 51.421875 -0.828125 50.34375 -0.96875 
Q 49.265625 -1.125 47.40625 -1.125 
Q 42.875 -1.125 40.828125 2.09375 
Q 39.75 3.8125 39.3125 6.9375 
Q 36.625 3.421875 31.59375 0.828125 
Q 26.5625 -1.765625 20.515625 -1.765625 
Q 13.234375 -1.765625 8.609375 2.65625 
Q 4 7.078125 4 13.71875 
z
M 13.1875 13.921875 
Q 13.1875 10.109375 15.96875 7.90625 
Q 18.75 5.71875 22.5625 5.71875 
Q 27.203125 5.71875 31.546875 7.859375 
Q 38.875 11.421875 38.875 19.53125 
L 38.875 26.609375 
Q 37.25 25.59375 34.703125 24.90625 
Q 32.171875 24.21875 29.734375 23.921875 
L 24.421875 23.25 
Q 19.625 22.609375 17.234375 21.234375 
Q 13.1875 18.953125 13.1875 13.921875 
z
M 27.203125 53.5625 
z
" id="Helvetica-61"/>
       <path d="M 6.6875 0 
L 6.6875 71.734375 
L 15.484375 71.734375 
L 15.484375 0 
z
" id="Helvetica-6c"/>
      </defs>
      <g style="fill:#1a1a1a;" transform="translate(67.649073 331.993411)rotate(-45)scale(0.12 -0.12)">
       <use xlink:href="#Helvetica-61"/>
       <use x="55.615234" xlink:href="#Helvetica-6c"/>
       <use x="77.832031" xlink:href="#Helvetica-61"/>
      </g>
     </g>
    </g>
    <g id="xtick_2">
     <g id="line2d_2">
      <g>
       <use style="fill:#1a1a1a;stroke:#1a1a1a;stroke-width:0.8;" x="98.00913" xlink:href="#m0a4e57517f" y="307.584"/>
      </g>
     </g>
     <g id="text_2">
      <!-- arg -->
      <defs>
       <path d="M 6.6875 0 
L 6.6875 52.296875 
L 15.046875 52.296875 
L 15.046875 43.265625 
Q 16.0625 45.90625 20.0625 49.6875 
Q 24.078125 53.46875 29.296875 53.46875 
Q 29.546875 53.46875 30.125 53.421875 
Q 30.71875 53.375 32.125 53.21875 
L 32.125 43.953125 
Q 31.34375 44.09375 30.6875 44.140625 
Q 30.03125 44.1875 29.25 44.1875 
Q 22.609375 44.1875 19.046875 39.90625 
Q 15.484375 35.640625 15.484375 30.078125 
L 15.484375 0 
z
" id="Helvetica-72"/>
       <path d="M 2.984375 25.34375 
Q 2.984375 38.484375 9.40625 45.84375 
Q 15.828125 53.21875 24.90625 53.21875 
Q 31.0625 53.21875 35.640625 50.203125 
Q 38.140625 48.484375 40.71875 45.21875 
L 40.71875 51.8125 
L 48.828125 51.8125 
L 48.828125 4.25 
Q 48.828125 -5.71875 45.90625 -11.46875 
Q 40.4375 -22.125 25.25 -22.125 
Q 16.796875 -22.125 11.03125 -18.328125 
Q 5.28125 -14.546875 4.59375 -6.5 
L 13.53125 -6.5 
Q 14.15625 -10.015625 16.0625 -11.921875 
Q 19.046875 -14.84375 25.4375 -14.84375 
Q 35.546875 -14.84375 38.671875 -7.71875 
Q 40.375 -3.8125 40.375 5.71875 
Q 40.375 6.5 40.375 7.28125 
Q 37.75 3.265625 34.03125 1.3125 
Q 30.328125 -0.640625 24.21875 -0.640625 
Q 15.71875 -0.640625 9.34375 5.390625 
Q 2.984375 11.421875 2.984375 25.34375 
z
M 12.015625 24.609375 
Q 12.015625 15.765625 15.59375 11.15625 
Q 19.1875 6.546875 25.25 6.546875 
Q 34.71875 6.546875 38.578125 15.09375 
Q 40.71875 19.921875 40.71875 26.375 
Q 40.71875 36.078125 36.71875 40.765625 
Q 32.71875 45.453125 26.515625 45.453125 
Q 17.234375 45.453125 13.8125 36.765625 
Q 12.015625 32.125 12.015625 24.609375 
z
M 25.921875 53.5625 
z
" id="Helvetica-67"/>
      </defs>
      <g style="fill:#1a1a1a;" transform="translate(83.869204 332.824703)rotate(-45)scale(0.12 -0.12)">
       <use xlink:href="#Helvetica-61"/>
       <use x="55.615234" xlink:href="#Helvetica-72"/>
       <use x="88.916016" xlink:href="#Helvetica-67"/>
      </g>
     </g>
    </g>
    <g id="xtick_3">
     <g id="line2d_3">
      <g>
       <use style="fill:#1a1a1a;stroke:#1a1a1a;stroke-width:0.8;" x="115.277988" xlink:href="#m0a4e57517f" y="307.584"/>
      </g>
     </g>
     <g id="text_3">
      <!-- asn -->
      <defs>
       <path d="M 3.21875 16.40625 
L 11.671875 16.40625 
Q 12.0625 12.015625 13.875 9.671875 
Q 17.1875 5.421875 25.390625 5.421875 
Q 30.28125 5.421875 33.984375 7.546875 
Q 37.703125 9.671875 37.703125 14.109375 
Q 37.703125 17.484375 34.71875 19.234375 
Q 32.8125 20.3125 27.203125 21.734375 
L 20.21875 23.484375 
Q 13.53125 25.140625 10.359375 27.203125 
Q 4.6875 30.765625 4.6875 37.0625 
Q 4.6875 44.484375 10.03125 49.0625 
Q 15.375 53.65625 24.421875 53.65625 
Q 36.234375 53.65625 41.453125 46.734375 
Q 44.625 42.484375 44.625 37.546875 
Q 44.625 37.40625 44.625 37.25 
L 36.328125 37.25 
Q 36.078125 40.234375 34.234375 42.671875 
Q 31.203125 46.140625 23.734375 46.140625 
Q 18.75 46.140625 16.1875 44.234375 
Q 13.625 42.328125 13.625 39.203125 
Q 13.625 35.796875 17 33.734375 
Q 18.953125 32.515625 22.75 31.59375 
L 28.5625 30.171875 
Q 38.03125 27.875 41.265625 25.734375 
Q 46.390625 22.359375 46.390625 15.140625 
Q 46.390625 8.15625 41.09375 3.078125 
Q 35.796875 -2 24.953125 -2 
Q 13.28125 -2 8.421875 3.296875 
Q 3.5625 8.59375 3.21875 16.40625 
z
M 24.65625 53.5625 
z
" id="Helvetica-73"/>
       <path d="M 6.453125 0 
L 6.453125 52.296875 
L 14.796875 52.296875 
L 14.796875 44.875 
Q 18.5 49.46875 22.65625 51.46875 
Q 26.8125 53.46875 31.890625 53.46875 
Q 43.015625 53.46875 46.921875 45.703125 
Q 49.078125 41.453125 49.078125 33.546875 
L 49.078125 0 
L 40.140625 0 
L 40.140625 32.953125 
Q 40.140625 37.75 38.71875 40.671875 
Q 36.375 45.5625 30.21875 45.5625 
Q 27.09375 45.5625 25.09375 44.921875 
Q 21.484375 43.84375 18.75 40.625 
Q 16.546875 38.03125 15.890625 35.265625 
Q 15.234375 32.515625 15.234375 27.390625 
L 15.234375 0 
z
M 27.09375 53.5625 
z
" id="Helvetica-6e"/>
      </defs>
      <g style="fill:#1a1a1a;" transform="translate(99.829473 334.350728)rotate(-45)scale(0.12 -0.12)">
       <use xlink:href="#Helvetica-61"/>
       <use x="55.615234" xlink:href="#Helvetica-73"/>
       <use x="105.615234" xlink:href="#Helvetica-6e"/>
      </g>
     </g>
    </g>
    <g id="xtick_4">
     <g id="line2d_4">
      <g>
       <use style="fill:#1a1a1a;stroke:#1a1a1a;stroke-width:0.8;" x="132.546847" xlink:href="#m0a4e57517f" y="307.584"/>
      </g>
     </g>
     <g id="text_4">
      <!-- asp -->
      <defs>
       <path d="M 5.765625 -20.84375 
L 5.765625 52.046875 
L 14.3125 52.046875 
L 14.3125 45.125 
Q 16.9375 48.6875 20.0625 50.640625 
Q 24.515625 53.5625 30.515625 53.5625 
Q 39.40625 53.5625 45.609375 46.75 
Q 51.8125 39.9375 51.8125 27.296875 
Q 51.8125 10.203125 42.875 2.875 
Q 37.203125 -1.765625 29.6875 -1.765625 
Q 23.78125 -1.765625 19.78125 0.828125 
Q 17.4375 2.296875 14.546875 5.859375 
L 14.546875 -20.84375 
z
M 14.203125 24.3125 
Q 14.203125 18.265625 16.015625 14.015625 
Q 19.4375 5.90625 28.515625 5.90625 
Q 34.671875 5.90625 38.75 11.0625 
Q 42.828125 16.21875 42.828125 26.46875 
Q 42.828125 32.71875 41.015625 37.203125 
Q 37.59375 45.84375 28.515625 45.84375 
Q 19.390625 45.84375 16.015625 36.71875 
Q 14.203125 31.84375 14.203125 24.3125 
z
" id="Helvetica-70"/>
      </defs>
      <g style="fill:#1a1a1a;" transform="translate(117.098332 334.350728)rotate(-45)scale(0.12 -0.12)">
       <use xlink:href="#Helvetica-61"/>
       <use x="55.615234" xlink:href="#Helvetica-73"/>
       <use x="105.615234" xlink:href="#Helvetica-70"/>
      </g>
     </g>
    </g>
    <g id="xtick_5">
     <g id="line2d_5">
      <g>
       <use style="fill:#1a1a1a;stroke:#1a1a1a;stroke-width:0.8;" x="149.815706" xlink:href="#m0a4e57517f" y="307.584"/>
      </g>
     </g>
     <g id="text_5">
      <!-- cys -->
      <defs>
       <path d="M 2.875 24.703125 
Q 2.875 38.484375 9.5625 46.140625 
Q 16.265625 53.8125 26.609375 53.8125 
Q 35.453125 53.8125 40.984375 49.515625 
Q 46.53125 45.21875 47.65625 34.71875 
L 39.109375 34.71875 
Q 38.328125 39.546875 35.546875 42.75 
Q 32.765625 45.953125 26.609375 45.953125 
Q 18.21875 45.953125 14.59375 37.75 
Q 12.25 32.421875 12.25 24.609375 
Q 12.25 16.75 15.5625 11.375 
Q 18.890625 6 26.03125 6 
Q 31.5 6 34.6875 9.34375 
Q 37.890625 12.703125 39.109375 18.5 
L 47.65625 18.5 
Q 46.1875 8.109375 40.328125 3.296875 
Q 34.46875 -1.515625 25.34375 -1.515625 
Q 15.09375 -1.515625 8.984375 5.984375 
Q 2.875 13.484375 2.875 24.703125 
z
M 25.25 53.5625 
z
" id="Helvetica-63"/>
       <path d="M 1.03125 52.296875 
L 10.984375 52.296875 
L 25 9.71875 
L 39.109375 52.296875 
L 48.828125 52.296875 
Q 46.96875 47.265625 40.578125 29.34375 
Q 35.796875 15.875 32.5625 7.375 
Q 24.953125 -12.640625 21.828125 -17.03125 
Q 18.703125 -21.4375 11.078125 -21.4375 
Q 9.234375 -21.4375 8.234375 -21.28125 
Q 7.234375 -21.140625 5.765625 -20.75 
L 5.765625 -12.75 
Q 8.0625 -13.375 9.078125 -13.515625 
Q 10.109375 -13.671875 10.890625 -13.671875 
Q 13.328125 -13.671875 14.46875 -12.859375 
Q 15.625 -12.0625 16.40625 -10.890625 
Q 16.65625 -10.5 18.15625 -6.875 
Q 19.671875 -3.265625 20.359375 -1.515625 
z
M 24.953125 53.5625 
z
" id="Helvetica-79"/>
      </defs>
      <g style="fill:#1a1a1a;" transform="translate(135.268752 333.348404)rotate(-45)scale(0.12 -0.12)">
       <use xlink:href="#Helvetica-63"/>
       <use x="50" xlink:href="#Helvetica-79"/>
       <use x="100" xlink:href="#Helvetica-73"/>
      </g>
     </g>
    </g>
    <g id="xtick_6">
     <g id="line2d_6">
      <g>
       <use style="fill:#1a1a1a;stroke:#1a1a1a;stroke-width:0.8;" x="167.084565" xlink:href="#m0a4e57517f" y="307.584"/>
      </g>
     </g>
     <g id="text_6">
      <!-- gln -->
      <g style="fill:#1a1a1a;" transform="translate(153.884649 331.993411)rotate(-45)scale(0.12 -0.12)">
       <use xlink:href="#Helvetica-67"/>
       <use x="55.615234" xlink:href="#Helvetica-6c"/>
       <use x="77.832031" xlink:href="#Helvetica-6e"/>
      </g>
     </g>
    </g>
    <g id="xtick_7">
     <g id="line2d_7">
      <g>
       <use style="fill:#1a1a1a;stroke:#1a1a1a;stroke-width:0.8;" x="184.353424" xlink:href="#m0a4e57517f" y="307.584"/>
      </g>
     </g>
     <g id="text_7">
      <!-- glu -->
      <defs>
       <path d="M 6.25 16.75 
L 6.25 52.296875 
L 15.234375 52.296875 
L 15.234375 17.578125 
Q 15.234375 13.578125 16.5 11.03125 
Q 18.84375 6.34375 25.25 6.34375 
Q 34.421875 6.34375 37.75 14.546875 
Q 39.546875 18.953125 39.546875 26.609375 
L 39.546875 52.296875 
L 48.34375 52.296875 
L 48.34375 0 
L 40.046875 0 
L 40.140625 7.71875 
Q 38.421875 4.734375 35.890625 2.6875 
Q 30.859375 -1.421875 23.6875 -1.421875 
Q 12.5 -1.421875 8.453125 6.0625 
Q 6.25 10.0625 6.25 16.75 
z
M 27.296875 53.5625 
z
" id="Helvetica-75"/>
      </defs>
      <g style="fill:#1a1a1a;" transform="translate(171.153508 331.993411)rotate(-45)scale(0.12 -0.12)">
       <use xlink:href="#Helvetica-67"/>
       <use x="55.615234" xlink:href="#Helvetica-6c"/>
       <use x="77.832031" xlink:href="#Helvetica-75"/>
      </g>
     </g>
    </g>
    <g id="xtick_8">
     <g id="line2d_8">
      <g>
       <use style="fill:#1a1a1a;stroke:#1a1a1a;stroke-width:0.8;" x="201.622282" xlink:href="#m0a4e57517f" y="307.584"/>
      </g>
     </g>
     <g id="text_8">
      <!-- gly -->
      <g style="fill:#1a1a1a;" transform="translate(188.898338 331.51744)rotate(-45)scale(0.12 -0.12)">
       <use xlink:href="#Helvetica-67"/>
       <use x="55.615234" xlink:href="#Helvetica-6c"/>
       <use x="77.832031" xlink:href="#Helvetica-79"/>
      </g>
     </g>
    </g>
    <g id="xtick_9">
     <g id="line2d_9">
      <g>
       <use style="fill:#1a1a1a;stroke:#1a1a1a;stroke-width:0.8;" x="218.891141" xlink:href="#m0a4e57517f" y="307.584"/>
      </g>
     </g>
     <g id="text_9">
      <!-- his -->
      <defs>
       <path d="M 6.453125 0 
L 6.453125 71.96875 
L 15.234375 71.96875 
L 15.234375 45.21875 
Q 18.359375 49.171875 20.84375 50.78125 
Q 25.09375 53.5625 31.453125 53.5625 
Q 42.828125 53.5625 46.875 45.609375 
Q 49.078125 41.265625 49.078125 33.546875 
L 49.078125 0 
L 40.046875 0 
L 40.046875 32.953125 
Q 40.046875 38.71875 38.578125 41.40625 
Q 36.1875 45.703125 29.59375 45.703125 
Q 24.125 45.703125 19.671875 41.9375 
Q 15.234375 38.1875 15.234375 27.734375 
L 15.234375 0 
z
" id="Helvetica-68"/>
       <path d="M 6.453125 0 
L 6.453125 52.046875 
L 15.375 52.046875 
L 15.375 0 
z
M 6.453125 61.765625 
L 6.453125 71.734375 
L 15.375 71.734375 
L 15.375 61.765625 
z
" id="Helvetica-69"/>
      </defs>
      <g style="fill:#1a1a1a;" transform="translate(206.275914 331.51744)rotate(-45)scale(0.12 -0.12)">
       <use xlink:href="#Helvetica-68"/>
       <use x="55.615234" xlink:href="#Helvetica-69"/>
       <use x="77.832031" xlink:href="#Helvetica-73"/>
      </g>
     </g>
    </g>
    <g id="xtick_10">
     <g id="line2d_10">
      <g>
       <use style="fill:#1a1a1a;stroke:#1a1a1a;stroke-width:0.8;" x="236.16" xlink:href="#m0a4e57517f" y="307.584"/>
      </g>
     </g>
     <g id="text_10">
      <!-- ile -->
      <defs>
       <path d="M 3.515625 25.140625 
Q 3.515625 37.75 10.34375 45.609375 
Q 17.1875 53.46875 28.21875 53.46875 
Q 33.796875 53.46875 39.015625 50.859375 
Q 44.234375 48.25 46.96875 44.09375 
Q 49.609375 40.140625 50.484375 34.859375 
Q 51.265625 31.25 51.265625 23.34375 
L 12.9375 23.34375 
Q 13.1875 15.375 16.703125 10.5625 
Q 20.21875 5.765625 27.59375 5.765625 
Q 34.46875 5.765625 38.578125 10.296875 
Q 40.921875 12.9375 41.890625 16.40625 
L 50.53125 16.40625 
Q 50.203125 13.53125 48.265625 9.984375 
Q 46.34375 6.453125 43.953125 4.203125 
Q 39.9375 0.296875 34.03125 -1.078125 
Q 30.859375 -1.859375 26.859375 -1.859375 
Q 17.09375 -1.859375 10.296875 5.25 
Q 3.515625 12.359375 3.515625 25.140625 
z
M 13.1875 30.328125 
L 42.234375 30.328125 
Q 41.703125 36.03125 39.75 39.453125 
Q 36.140625 45.796875 27.6875 45.796875 
Q 21.625 45.796875 17.515625 41.421875 
Q 13.421875 37.0625 13.1875 30.328125 
z
M 27.390625 53.5625 
z
" id="Helvetica-65"/>
      </defs>
      <g style="fill:#1a1a1a;" transform="translate(225.90209 329.160122)rotate(-45)scale(0.12 -0.12)">
       <use xlink:href="#Helvetica-69"/>
       <use x="22.216797" xlink:href="#Helvetica-6c"/>
       <use x="44.433594" xlink:href="#Helvetica-65"/>
      </g>
     </g>
    </g>
    <g id="xtick_11">
     <g id="line2d_11">
      <g>
       <use style="fill:#1a1a1a;stroke:#1a1a1a;stroke-width:0.8;" x="253.428859" xlink:href="#m0a4e57517f" y="307.584"/>
      </g>
     </g>
     <g id="text_11">
      <!-- leu -->
      <g style="fill:#1a1a1a;" transform="translate(240.337661 331.993411)rotate(-45)scale(0.12 -0.12)">
       <use xlink:href="#Helvetica-6c"/>
       <use x="22.216797" xlink:href="#Helvetica-65"/>
       <use x="77.832031" xlink:href="#Helvetica-75"/>
      </g>
     </g>
    </g>
    <g id="xtick_12">
     <g id="line2d_12">
      <g>
       <use style="fill:#1a1a1a;stroke:#1a1a1a;stroke-width:0.8;" x="270.697718" xlink:href="#m0a4e57517f" y="307.584"/>
      </g>
     </g>
     <g id="text_12">
      <!-- lys -->
      <g style="fill:#1a1a1a;" transform="translate(258.508081 331.041468)rotate(-45)scale(0.12 -0.12)">
       <use xlink:href="#Helvetica-6c"/>
       <use x="22.216797" xlink:href="#Helvetica-79"/>
       <use x="72.216797" xlink:href="#Helvetica-73"/>
      </g>
     </g>
    </g>
    <g id="xtick_13">
     <g id="line2d_13">
      <g>
       <use style="fill:#1a1a1a;stroke:#1a1a1a;stroke-width:0.8;" x="287.966576" xlink:href="#m0a4e57517f" y="307.584"/>
      </g>
     </g>
     <g id="text_13">
      <!-- met -->
      <defs>
       <path d="M 6.453125 0 
L 6.453125 52.296875 
L 15.140625 52.296875 
L 15.140625 44.875 
Q 18.265625 48.734375 20.796875 50.484375 
Q 25.140625 53.46875 30.671875 53.46875 
Q 36.921875 53.46875 40.71875 50.390625 
Q 42.875 48.640625 44.625 45.21875 
Q 47.5625 49.421875 51.515625 51.4375 
Q 55.46875 53.46875 60.40625 53.46875 
Q 70.953125 53.46875 74.75 45.84375 
Q 76.8125 41.75 76.8125 34.8125 
L 76.8125 0 
L 67.671875 0 
L 67.671875 36.328125 
Q 67.671875 41.546875 65.0625 43.5 
Q 62.453125 45.453125 58.6875 45.453125 
Q 53.515625 45.453125 49.78125 41.984375 
Q 46.046875 38.53125 46.046875 30.421875 
L 46.046875 0 
L 37.109375 0 
L 37.109375 34.125 
Q 37.109375 39.453125 35.84375 41.890625 
Q 33.84375 45.5625 28.375 45.5625 
Q 23.390625 45.5625 19.3125 41.703125 
Q 15.234375 37.84375 15.234375 27.734375 
L 15.234375 0 
z
" id="Helvetica-6d"/>
       <path d="M 1.125 45.125 
L 1.125 52.296875 
L 8.203125 52.296875 
L 8.203125 66.890625 
L 17.09375 66.890625 
L 17.09375 52.296875 
L 25.4375 52.296875 
L 25.4375 45.125 
L 17.09375 45.125 
L 17.09375 10.984375 
Q 17.09375 8.25 18.953125 7.328125 
Q 19.96875 6.78125 22.359375 6.78125 
Q 23 6.78125 23.734375 6.8125 
Q 24.46875 6.84375 25.4375 6.9375 
L 25.4375 0 
Q 23.921875 -0.4375 22.28125 -0.625 
Q 20.65625 -0.828125 18.75 -0.828125 
Q 12.59375 -0.828125 10.390625 2.3125 
Q 8.203125 5.46875 8.203125 10.5 
L 8.203125 45.125 
z
" id="Helvetica-74"/>
      </defs>
      <g style="fill:#1a1a1a;" transform="translate(272.054022 334.814767)rotate(-45)scale(0.12 -0.12)">
       <use xlink:href="#Helvetica-6d"/>
       <use x="83.300781" xlink:href="#Helvetica-65"/>
       <use x="138.916016" xlink:href="#Helvetica-74"/>
      </g>
     </g>
    </g>
    <g id="xtick_14">
     <g id="line2d_14">
      <g>
       <use style="fill:#1a1a1a;stroke:#1a1a1a;stroke-width:0.8;" x="305.235435" xlink:href="#m0a4e57517f" y="307.584"/>
      </g>
     </g>
     <g id="text_14">
      <!-- phe -->
      <g style="fill:#1a1a1a;" transform="translate(289.310949 334.846587)rotate(-45)scale(0.12 -0.12)">
       <use xlink:href="#Helvetica-70"/>
       <use x="55.615234" xlink:href="#Helvetica-68"/>
       <use x="111.230469" xlink:href="#Helvetica-65"/>
      </g>
     </g>
    </g>
    <g id="xtick_15">
     <g id="line2d_15">
      <g>
       <use style="fill:#1a1a1a;stroke:#1a1a1a;stroke-width:0.8;" x="322.504294" xlink:href="#m0a4e57517f" y="307.584"/>
      </g>
     </g>
     <g id="text_15">
      <!-- ser -->
      <g style="fill:#1a1a1a;" transform="translate(308.949057 332.45745)rotate(-45)scale(0.12 -0.12)">
       <use xlink:href="#Helvetica-73"/>
       <use x="50" xlink:href="#Helvetica-65"/>
       <use x="105.615234" xlink:href="#Helvetica-72"/>
      </g>
     </g>
    </g>
    <g id="xtick_16">
     <g id="line2d_16">
      <g>
       <use style="fill:#1a1a1a;stroke:#1a1a1a;stroke-width:0.8;" x="339.773153" xlink:href="#m0a4e57517f" y="307.584"/>
      </g>
     </g>
     <g id="text_16">
      <!-- thr -->
      <g style="fill:#1a1a1a;" transform="translate(328.103239 330.572126)rotate(-45)scale(0.12 -0.12)">
       <use xlink:href="#Helvetica-74"/>
       <use x="27.783203" xlink:href="#Helvetica-68"/>
       <use x="83.398438" xlink:href="#Helvetica-72"/>
      </g>
     </g>
    </g>
    <g id="xtick_17">
     <g id="line2d_17">
      <g>
       <use style="fill:#1a1a1a;stroke:#1a1a1a;stroke-width:0.8;" x="357.042012" xlink:href="#m0a4e57517f" y="307.584"/>
      </g>
     </g>
     <g id="text_17">
      <!-- trp -->
      <g style="fill:#1a1a1a;" transform="translate(345.372098 330.572126)rotate(-45)scale(0.12 -0.12)">
       <use xlink:href="#Helvetica-74"/>
       <use x="27.783203" xlink:href="#Helvetica-72"/>
       <use x="61.083984" xlink:href="#Helvetica-70"/>
      </g>
     </g>
    </g>
    <g id="xtick_18">
     <g id="line2d_18">
      <g>
       <use style="fill:#1a1a1a;stroke:#1a1a1a;stroke-width:0.8;" x="374.31087" xlink:href="#m0a4e57517f" y="307.584"/>
      </g>
     </g>
     <g id="text_18">
      <!-- tyr -->
      <g style="fill:#1a1a1a;" transform="translate(363.066547 330.045774)rotate(-45)scale(0.12 -0.12)">
       <use xlink:href="#Helvetica-74"/>
       <use x="27.783203" xlink:href="#Helvetica-79"/>
       <use x="77.783203" xlink:href="#Helvetica-72"/>
      </g>
     </g>
    </g>
    <g id="xtick_19">
     <g id="line2d_19">
      <g>
       <use style="fill:#1a1a1a;stroke:#1a1a1a;stroke-width:0.8;" x="391.579729" xlink:href="#m0a4e57517f" y="307.584"/>
      </g>
     </g>
     <g id="text_19">
      <!-- val -->
      <defs>
       <path d="M 0.53125 52.296875 
L 10.75 52.296875 
L 24.703125 9.71875 
L 39.3125 52.296875 
L 48.921875 52.296875 
L 29.203125 0 
L 19.828125 0 
z
" id="Helvetica-76"/>
      </defs>
      <g style="fill:#1a1a1a;" transform="translate(378.964502 331.51744)rotate(-45)scale(0.12 -0.12)">
       <use xlink:href="#Helvetica-76"/>
       <use x="50" xlink:href="#Helvetica-61"/>
       <use x="105.615234" xlink:href="#Helvetica-6c"/>
      </g>
     </g>
    </g>
   </g>
   <g id="matplotlib.axis_2">
    <g id="ytick_1">
     <g id="line2d_20">
      <defs>
       <path d="M 0 0 
L -3.5 0 
" id="m7988a4eb21" style="stroke:#1a1a1a;stroke-width:0.8;"/>
      </defs>
      <g>
       <use style="fill:#1a1a1a;stroke:#1a1a1a;stroke-width:0.8;" x="57.6" xlink:href="#m7988a4eb21" y="301.911991"/>
      </g>
     </g>
     <g id="text_20">
      <!-- -1.0 -->
      <defs>
       <path d="M 4.15625 23.34375 
L 4.15625 32.375 
L 28.65625 32.375 
L 28.65625 23.34375 
z
" id="Helvetica-2d"/>
       <path d="M 9.578125 49.515625 
L 9.578125 56.25 
Q 19.09375 57.171875 22.84375 59.34375 
Q 26.609375 61.53125 28.46875 69.625 
L 35.40625 69.625 
L 35.40625 0 
L 26.03125 0 
L 26.03125 49.515625 
z
" id="Helvetica-31"/>
       <path d="M 8.546875 0 
L 8.546875 10.640625 
L 18.75 10.640625 
L 18.75 0 
z
" id="Helvetica-2e"/>
       <path d="M 3.125 33.546875 
Q 3.125 45.453125 6.203125 54 
Q 11.96875 69.921875 27.046875 69.921875 
Q 40.625 69.921875 46.6875 58.734375 
Q 51.375 50.09375 51.375 35.0625 
Q 51.375 20.796875 47.125 11.46875 
Q 40.96875 -1.90625 27 -1.90625 
Q 14.40625 -1.90625 8.25 9.03125 
Q 3.125 18.171875 3.125 33.546875 
z
M 12.640625 33.203125 
Q 12.640625 22.515625 14.9375 16.015625 
Q 18.453125 6.109375 26.953125 6.109375 
Q 33.796875 6.109375 37.84375 12.15625 
Q 41.890625 18.21875 41.890625 34.71875 
Q 41.890625 46.625 38.953125 54.3125 
Q 36.03125 62.015625 27.59375 62.015625 
Q 19.828125 62.015625 16.234375 54.703125 
Q 12.640625 47.40625 12.640625 33.203125 
z
" id="Helvetica-30"/>
      </defs>
      <g style="fill:#1a1a1a;" transform="translate(33.370312 305.49871)scale(0.1 -0.1)">
       <use xlink:href="#Helvetica-2d"/>
       <use x="33.300781" xlink:href="#Helvetica-31"/>
       <use x="88.916016" xlink:href="#Helvetica-2e"/>
       <use x="116.699219" xlink:href="#Helvetica-30"/>
      </g>
     </g>
    </g>
    <g id="ytick_2">
     <g id="line2d_21">
      <g>
       <use style="fill:#1a1a1a;stroke:#1a1a1a;stroke-width:0.8;" x="57.6" xlink:href="#m7988a4eb21" y="269.234353"/>
      </g>
     </g>
     <g id="text_21">
      <!-- -0.8 -->
      <defs>
       <path d="M 3.21875 19.625 
Q 3.21875 25.828125 6.25 30.34375 
Q 9.28125 34.859375 15.234375 37.25 
Q 11.578125 38.8125 9.515625 40.921875 
Q 5.671875 44.828125 5.671875 51.078125 
Q 5.671875 58.890625 11.328125 64.5 
Q 17 70.125 27.390625 70.125 
Q 37.453125 70.125 43.15625 64.8125 
Q 48.875 59.515625 48.875 52.4375 
Q 48.875 45.90625 45.5625 41.84375 
Q 43.703125 39.546875 39.796875 37.359375 
Q 44.140625 35.359375 46.625 32.765625 
Q 51.265625 27.875 51.265625 20.0625 
Q 51.265625 10.84375 45.0625 4.421875 
Q 38.875 -2 27.546875 -2 
Q 17.328125 -2 10.265625 3.53125 
Q 3.21875 9.078125 3.21875 19.625 
z
M 12.84375 19.4375 
Q 12.84375 13.96875 16.484375 9.984375 
Q 20.125 6 27.734375 6 
Q 33.84375 6 37.859375 9.296875 
Q 41.890625 12.59375 41.890625 19.140625 
Q 41.890625 25.921875 37.734375 29.4375 
Q 33.59375 32.953125 27.09375 32.953125 
Q 20.796875 32.953125 16.8125 29.359375 
Q 12.84375 25.78125 12.84375 19.4375 
z
M 14.890625 51.125 
Q 14.890625 46.1875 18.546875 43.40625 
Q 22.21875 40.625 27.203125 40.625 
Q 33.015625 40.625 36.28125 43.875 
Q 39.546875 47.125 39.546875 51.609375 
Q 39.546875 55.515625 36.421875 58.78125 
Q 33.296875 62.0625 26.90625 62.0625 
Q 20.5625 62.0625 17.71875 58.78125 
Q 14.890625 55.515625 14.890625 51.125 
z
" id="Helvetica-38"/>
      </defs>
      <g style="fill:#1a1a1a;" transform="translate(33.370312 272.821071)scale(0.1 -0.1)">
       <use xlink:href="#Helvetica-2d"/>
       <use x="33.300781" xlink:href="#Helvetica-30"/>
       <use x="88.916016" xlink:href="#Helvetica-2e"/>
       <use x="116.699219" xlink:href="#Helvetica-38"/>
      </g>
     </g>
    </g>
    <g id="ytick_3">
     <g id="line2d_22">
      <g>
       <use style="fill:#1a1a1a;stroke:#1a1a1a;stroke-width:0.8;" x="57.6" xlink:href="#m7988a4eb21" y="236.556714"/>
      </g>
     </g>
     <g id="text_22">
      <!-- -0.6 -->
      <defs>
       <path d="M 3.765625 30.71875 
Q 3.765625 43.75 6.9375 52.828125 
Q 13.03125 70.21875 29.25 70.21875 
Q 40.96875 70.21875 45.578125 64.140625 
Q 50.203125 58.0625 50.203125 51.609375 
L 41.5 51.609375 
Q 40.71875 55.765625 39.015625 58.109375 
Q 35.84375 62.5 29.390625 62.5 
Q 22.015625 62.5 17.671875 55.6875 
Q 13.328125 48.875 12.84375 36.1875 
Q 15.875 40.625 20.453125 42.828125 
Q 24.65625 44.78125 29.828125 44.78125 
Q 38.625 44.78125 45.15625 39.15625 
Q 51.703125 33.546875 51.703125 22.40625 
Q 51.703125 12.890625 45.5 5.53125 
Q 39.3125 -1.8125 27.828125 -1.8125 
Q 18.015625 -1.8125 10.890625 5.640625 
Q 3.765625 13.09375 3.765625 30.71875 
z
M 13.96875 21.6875 
Q 13.96875 15.046875 17.84375 10.515625 
Q 21.734375 6 28.609375 6 
Q 35.546875 6 38.984375 10.65625 
Q 42.4375 15.328125 42.4375 21.6875 
Q 42.4375 27.046875 39.359375 31.90625 
Q 36.28125 36.765625 28.171875 36.765625 
Q 22.515625 36.765625 18.234375 33 
Q 13.96875 29.25 13.96875 21.6875 
z
" id="Helvetica-36"/>
      </defs>
      <g style="fill:#1a1a1a;" transform="translate(33.370312 240.143433)scale(0.1 -0.1)">
       <use xlink:href="#Helvetica-2d"/>
       <use x="33.300781" xlink:href="#Helvetica-30"/>
       <use x="88.916016" xlink:href="#Helvetica-2e"/>
       <use x="116.699219" xlink:href="#Helvetica-36"/>
      </g>
     </g>
    </g>
    <g id="ytick_4">
     <g id="line2d_23">
      <g>
       <use style="fill:#1a1a1a;stroke:#1a1a1a;stroke-width:0.8;" x="57.6" xlink:href="#m7988a4eb21" y="203.879075"/>
      </g>
     </g>
     <g id="text_23">
      <!-- -0.4 -->
      <defs>
       <path d="M 2.546875 17.09375 
L 2.546875 25.6875 
L 34.578125 70.125 
L 42 70.125 
L 42 24.75 
L 52.296875 24.75 
L 52.296875 17.09375 
L 42 17.09375 
L 42 0 
L 33.203125 0 
L 33.203125 17.09375 
z
M 10.640625 24.75 
L 33.0625 24.75 
L 33.0625 56.453125 
z
" id="Helvetica-34"/>
      </defs>
      <g style="fill:#1a1a1a;" transform="translate(33.370312 207.465794)scale(0.1 -0.1)">
       <use xlink:href="#Helvetica-2d"/>
       <use x="33.300781" xlink:href="#Helvetica-30"/>
       <use x="88.916016" xlink:href="#Helvetica-2e"/>
       <use x="116.699219" xlink:href="#Helvetica-34"/>
      </g>
     </g>
    </g>
    <g id="ytick_5">
     <g id="line2d_24">
      <g>
       <use style="fill:#1a1a1a;stroke:#1a1a1a;stroke-width:0.8;" x="57.6" xlink:href="#m7988a4eb21" y="171.201437"/>
      </g>
     </g>
     <g id="text_24">
      <!-- -0.2 -->
      <defs>
       <path d="M 3.125 0 
Q 3.609375 9.03125 6.859375 15.71875 
Q 10.109375 22.40625 19.53125 27.875 
L 28.90625 33.296875 
Q 35.203125 36.96875 37.75 39.546875 
Q 41.75 43.609375 41.75 48.828125 
Q 41.75 54.9375 38.078125 58.515625 
Q 34.421875 62.109375 28.328125 62.109375 
Q 19.28125 62.109375 15.828125 55.28125 
Q 13.96875 51.609375 13.765625 45.125 
L 4.828125 45.125 
Q 4.984375 54.25 8.203125 60.015625 
Q 13.921875 70.171875 28.375 70.171875 
Q 40.375 70.171875 45.921875 63.671875 
Q 51.46875 57.171875 51.46875 49.21875 
Q 51.46875 40.828125 45.5625 34.859375 
Q 42.140625 31.390625 33.296875 26.46875 
L 26.609375 22.75 
Q 21.828125 20.125 19.09375 17.71875 
Q 14.203125 13.484375 12.9375 8.296875 
L 51.125 8.296875 
L 51.125 0 
z
" id="Helvetica-32"/>
      </defs>
      <g style="fill:#1a1a1a;" transform="translate(33.370312 174.788155)scale(0.1 -0.1)">
       <use xlink:href="#Helvetica-2d"/>
       <use x="33.300781" xlink:href="#Helvetica-30"/>
       <use x="88.916016" xlink:href="#Helvetica-2e"/>
       <use x="116.699219" xlink:href="#Helvetica-32"/>
      </g>
     </g>
    </g>
    <g id="ytick_6">
     <g id="line2d_25">
      <g>
       <use style="fill:#1a1a1a;stroke:#1a1a1a;stroke-width:0.8;" x="57.6" xlink:href="#m7988a4eb21" y="138.523798"/>
      </g>
     </g>
     <g id="text_25">
      <!-- 0.0 -->
      <g style="fill:#1a1a1a;" transform="translate(36.7 142.110517)scale(0.1 -0.1)">
       <use xlink:href="#Helvetica-30"/>
       <use x="55.615234" xlink:href="#Helvetica-2e"/>
       <use x="83.398438" xlink:href="#Helvetica-30"/>
      </g>
     </g>
    </g>
    <g id="ytick_7">
     <g id="line2d_26">
      <g>
       <use style="fill:#1a1a1a;stroke:#1a1a1a;stroke-width:0.8;" x="57.6" xlink:href="#m7988a4eb21" y="105.846159"/>
      </g>
     </g>
     <g id="text_26">
      <!-- 0.2 -->
      <g style="fill:#1a1a1a;" transform="translate(36.7 109.432878)scale(0.1 -0.1)">
       <use xlink:href="#Helvetica-30"/>
       <use x="55.615234" xlink:href="#Helvetica-2e"/>
       <use x="83.398438" xlink:href="#Helvetica-32"/>
      </g>
     </g>
    </g>
    <g id="ytick_8">
     <g id="line2d_27">
      <g>
       <use style="fill:#1a1a1a;stroke:#1a1a1a;stroke-width:0.8;" x="57.6" xlink:href="#m7988a4eb21" y="73.168521"/>
      </g>
     </g>
     <g id="text_27">
      <!-- 0.4 -->
      <g style="fill:#1a1a1a;" transform="translate(36.7 76.755239)scale(0.1 -0.1)">
       <use xlink:href="#Helvetica-30"/>
       <use x="55.615234" xlink:href="#Helvetica-2e"/>
       <use x="83.398438" xlink:href="#Helvetica-34"/>
      </g>
     </g>
    </g>
    <g id="text_28">
     <!-- Flux (mmol/gCDW/h) -->
     <defs>
      <path d="M 8.546875 0 
L 8.546875 71.734375 
L 58.296875 71.734375 
L 58.296875 62.9375 
L 18.265625 62.9375 
L 18.265625 41.15625 
L 53.46875 41.15625 
L 53.46875 32.625 
L 18.265625 32.625 
L 18.265625 0 
z
" id="Helvetica-46"/>
      <path d="M 0.53125 0 
L 18.953125 26.8125 
L 1.46875 52.296875 
L 12.84375 52.296875 
L 24.859375 33.890625 
L 37.015625 52.296875 
L 47.703125 52.046875 
L 30.078125 26.8125 
L 48.484375 0 
L 37.25 0 
L 24.265625 19.625 
L 11.671875 0 
z
" id="Helvetica-78"/>
      <path id="Helvetica-20"/>
      <path d="M 6.9375 25.6875 
Q 6.9375 40.140625 11.46875 51.421875 
Q 14.359375 58.59375 23.484375 72.90625 
L 29.59375 72.90625 
Q 21.921875 58.015625 19.625 50.984375 
Q 16.15625 40.28125 16.15625 26.265625 
Q 16.15625 12.109375 20.125 0.390625 
Q 22.5625 -6.84375 29.734375 -20.40625 
L 23.828125 -20.40625 
Q 16.703125 -9.28125 14.984375 -6.203125 
Q 13.28125 -3.125 11.28125 2.15625 
Q 8.546875 9.375 7.46875 17.578125 
Q 6.9375 21.828125 6.9375 25.6875 
z
" id="Helvetica-28"/>
      <path d="M 2.875 25 
Q 2.875 38.1875 9.5625 46 
Q 16.265625 53.8125 27.546875 53.8125 
Q 37.640625 53.8125 44.625 47.0625 
Q 51.609375 40.328125 51.609375 27.25 
Q 51.609375 14.59375 45.453125 6.34375 
Q 39.3125 -1.90625 26.375 -1.90625 
Q 15.578125 -1.90625 9.21875 5.390625 
Q 2.875 12.703125 2.875 25 
z
M 11.921875 25.140625 
Q 11.921875 16.796875 15.578125 11.234375 
Q 19.234375 5.671875 27.203125 5.671875 
Q 35.9375 5.671875 39.1875 12.28125 
Q 42.4375 18.890625 42.4375 27 
Q 42.4375 34.328125 40.09375 38.921875 
Q 36.375 46.140625 27.296875 46.140625 
Q 19.234375 46.140625 15.578125 39.984375 
Q 11.921875 33.84375 11.921875 25.140625 
z
M 27.25 53.5625 
z
" id="Helvetica-6f"/>
      <path d="M 0 0 
L 22.75 71.734375 
L 30.171875 71.734375 
L 7.421875 0 
z
" id="Helvetica-2f"/>
      <path d="M 4.390625 36.625 
Q 4.390625 52.484375 12.796875 62.640625 
Q 21.875 73.6875 37.84375 73.6875 
Q 51.46875 73.6875 58.984375 66.5 
Q 66.5 59.328125 67.328125 50.203125 
L 57.859375 50.203125 
Q 56.25 57.125 51.4375 61.171875 
Q 46.625 65.234375 37.9375 65.234375 
Q 27.34375 65.234375 20.828125 57.78125 
Q 14.3125 50.34375 14.3125 34.96875 
Q 14.3125 22.359375 20.1875 14.515625 
Q 26.078125 6.6875 37.75 6.6875 
Q 48.484375 6.6875 54.109375 14.9375 
Q 57.078125 19.28125 58.546875 26.375 
L 68.015625 26.375 
Q 66.75 15.046875 59.625 7.375 
Q 51.078125 -1.859375 36.578125 -1.859375 
Q 24.078125 -1.859375 15.578125 5.71875 
Q 4.390625 15.71875 4.390625 36.625 
z
M 35.890625 73.6875 
z
" id="Helvetica-43"/>
      <path d="M 8.0625 0 
L 8.0625 71.734375 
L 37.109375 71.734375 
Q 51.90625 71.734375 60.0625 61.234375 
Q 67.328125 51.765625 67.328125 36.96875 
Q 67.328125 25.53125 63.03125 16.3125 
Q 55.46875 0 37.015625 0 
z
M 17.828125 8.296875 
L 35.15625 8.296875 
Q 40.09375 8.296875 43.265625 9.328125 
Q 48.921875 11.234375 52.546875 16.65625 
Q 55.421875 21 56.6875 27.78125 
Q 57.421875 31.84375 57.421875 35.296875 
Q 57.421875 48.640625 52.125 56 
Q 46.828125 63.375 35.0625 63.375 
L 17.828125 63.375 
z
" id="Helvetica-44"/>
      <path d="M 1.8125 71.734375 
L 12.359375 71.734375 
L 25.875 13.375 
L 42.09375 71.734375 
L 52.640625 71.734375 
L 68.84375 13.375 
L 82.375 71.734375 
L 93.015625 71.734375 
L 74.171875 0 
L 63.96875 0 
L 47.40625 59.46875 
L 30.765625 0 
L 20.5625 0 
z
" id="Helvetica-57"/>
      <path d="M 3.328125 72.90625 
L 9.234375 72.90625 
Q 16.75 60.890625 18.328125 58.078125 
Q 19.921875 55.28125 21.78125 50.34375 
Q 24.125 44.234375 25.125 38.28125 
Q 26.125 32.328125 26.125 26.8125 
Q 26.125 12.359375 21.53125 1.03125 
Q 18.65625 -6.25 9.578125 -20.40625 
L 3.46875 -20.40625 
Q 11.234375 -5.28125 13.484375 1.65625 
Q 16.890625 12.15625 16.890625 26.265625 
Q 16.890625 40.375 12.9375 52.09375 
Q 10.5 59.328125 3.328125 72.90625 
z
" id="Helvetica-29"/>
     </defs>
     <g style="fill:#1a1a1a;" transform="translate(26.715312 230.52675)rotate(-90)scale(0.12 -0.12)">
      <use xlink:href="#Helvetica-46"/>
      <use x="61.083984" xlink:href="#Helvetica-6c"/>
      <use x="83.300781" xlink:href="#Helvetica-75"/>
      <use x="138.916016" xlink:href="#Helvetica-78"/>
      <use x="188.916016" xlink:href="#Helvetica-20"/>
      <use x="216.699219" xlink:href="#Helvetica-28"/>
      <use x="250" xlink:href="#Helvetica-6d"/>
      <use x="333.300781" xlink:href="#Helvetica-6d"/>
      <use x="416.601562" xlink:href="#Helvetica-6f"/>
      <use x="472.216797" xlink:href="#Helvetica-6c"/>
      <use x="494.433594" xlink:href="#Helvetica-2f"/>
      <use x="522.216797" xlink:href="#Helvetica-67"/>
      <use x="577.832031" xlink:href="#Helvetica-43"/>
      <use x="650.048828" xlink:href="#Helvetica-44"/>
      <use x="722.265625" xlink:href="#Helvetica-57"/>
      <use x="816.650391" xlink:href="#Helvetica-2f"/>
      <use x="844.433594" xlink:href="#Helvetica-68"/>
      <use x="900.048828" xlink:href="#Helvetica-29"/>
     </g>
    </g>
   </g>
   <g id="line2d_28">
    <path clip-path="url(#p02b9322a95)" d="M 94.555358 135.256034 
L 94.555358 131.171329 
L 101.462901 131.171329 
L 101.462901 135.256034 
" style="fill:none;stroke:#1a1a1a;stroke-linecap:square;stroke-width:1.5;"/>
   </g>
   <g id="line2d_29">
    <path clip-path="url(#p02b9322a95)" d="M 370.857099 135.256034 
L 370.857099 131.171329 
L 377.764642 131.171329 
L 377.764642 135.256034 
" style="fill:none;stroke:#1a1a1a;stroke-linecap:square;stroke-width:1.5;"/>
   </g>
   <g id="line2d_30">
    <path clip-path="url(#p02b9322a95)" d="M 249.975087 135.256034 
L 249.975087 131.171329 
L 256.882631 131.171329 
L 256.882631 135.256034 
" style="fill:none;stroke:#1a1a1a;stroke-linecap:square;stroke-width:1.5;"/>
   </g>
   <g id="line2d_31">
    <path clip-path="url(#p02b9322a95)" d="M 284.512805 135.256034 
L 284.512805 131.171329 
L 291.420348 131.171329 
L 291.420348 135.256034 
" style="fill:none;stroke:#1a1a1a;stroke-linecap:square;stroke-width:1.5;"/>
   </g>
   <g id="line2d_32">
    <path clip-path="url(#p02b9322a95)" d="M 319.050522 135.256034 
L 319.050522 131.171329 
L 325.958066 131.171329 
L 325.958066 135.256034 
" style="fill:none;stroke:#1a1a1a;stroke-linecap:square;stroke-width:1.5;"/>
   </g>
   <g id="patch_41">
    <path d="M 57.6 307.584 
L 57.6 41.472 
" style="fill:none;stroke:#1a1a1a;stroke-linecap:square;stroke-linejoin:miter;stroke-width:0.8;"/>
   </g>
   <g id="patch_42">
    <path d="M 414.72 307.584 
L 414.72 41.472 
" style="fill:none;stroke:#1a1a1a;stroke-linecap:square;stroke-linejoin:miter;stroke-width:0.8;"/>
   </g>
   <g id="patch_43">
    <path d="M 57.6 307.584 
L 414.72 307.584 
" style="fill:none;stroke:#1a1a1a;stroke-linecap:square;stroke-linejoin:miter;stroke-width:0.8;"/>
   </g>
   <g id="patch_44">
    <path d="M 57.6 41.472 
L 414.72 41.472 
" style="fill:none;stroke:#1a1a1a;stroke-linecap:square;stroke-linejoin:miter;stroke-width:0.8;"/>
   </g>
   <g id="PathCollection_3">
    <defs>
     <path d="M 0 2 
C 0.530406 2 1.03916 1.789267 1.414214 1.414214 
C 1.789267 1.03916 2 0.530406 2 0 
C 2 -0.530406 1.789267 -1.03916 1.414214 -1.414214 
C 1.03916 -1.789267 0.530406 -2 0 -2 
C -0.530406 -2 -1.03916 -1.789267 -1.414214 -1.414214 
C -1.789267 -1.03916 -2 -0.530406 -2 0 
C -2 0.530406 -1.789267 1.03916 -1.414214 1.414214 
C -1.03916 1.789267 -0.530406 2 0 2 
z
" id="C0_0_a917628364"/>
    </defs>
    <g clip-path="url(#p02b9322a95)">
     <use style="fill:#377eb8;" x="76.464947" xlink:href="#C0_0_a917628364" y="188.208176"/>
    </g>
    <g clip-path="url(#p02b9322a95)">
     <use style="fill:#377eb8;" x="77.719544" xlink:href="#C0_0_a917628364" y="187.593565"/>
    </g>
    <g clip-path="url(#p02b9322a95)">
     <use style="fill:#377eb8;" x="77.584445" xlink:href="#C0_0_a917628364" y="190.726038"/>
    </g>
    <g clip-path="url(#p02b9322a95)">
     <use style="fill:#377eb8;" x="76.806635" xlink:href="#C0_0_a917628364" y="189.390514"/>
    </g>
   </g>
   <g id="PathCollection_4">
    <defs>
     <path d="M 0 2 
C 0.530406 2 1.03916 1.789267 1.414214 1.414214 
C 1.789267 1.03916 2 0.530406 2 0 
C 2 -0.530406 1.789267 -1.03916 1.414214 -1.414214 
C 1.03916 -1.789267 0.530406 -2 0 -2 
C -0.530406 -2 -1.03916 -1.789267 -1.414214 -1.414214 
C -1.789267 -1.03916 -2 -0.530406 -2 0 
C -2 0.530406 -1.789267 1.03916 -1.414214 1.414214 
C -1.03916 1.789267 -0.530406 2 0 2 
z
" id="C1_0_d9cc4230fa"/>
    </defs>
    <g clip-path="url(#p02b9322a95)">
     <use style="fill:#ff7f00;" x="84.890726" xlink:href="#C1_0_d9cc4230fa" y="190.422572"/>
    </g>
    <g clip-path="url(#p02b9322a95)">
     <use style="fill:#ff7f00;" x="84.660326" xlink:href="#C1_0_d9cc4230fa" y="190.781655"/>
    </g>
    <g clip-path="url(#p02b9322a95)">
     <use style="fill:#ff7f00;" x="84.390994" xlink:href="#C1_0_d9cc4230fa" y="187.989204"/>
    </g>
    <g clip-path="url(#p02b9322a95)">
     <use style="fill:#ff7f00;" x="84.075469" xlink:href="#C1_0_d9cc4230fa" y="187.973869"/>
    </g>
   </g>
   <g id="PathCollection_5">
    <defs>
     <path d="M 0 2 
C 0.530406 2 1.03916 1.789267 1.414214 1.414214 
C 1.789267 1.03916 2 0.530406 2 0 
C 2 -0.530406 1.789267 -1.03916 1.414214 -1.414214 
C 1.03916 -1.789267 0.530406 -2 0 -2 
C -0.530406 -2 -1.03916 -1.789267 -1.414214 -1.414214 
C -1.789267 -1.03916 -2 -0.530406 -2 0 
C -2 0.530406 -1.789267 1.03916 -1.414214 1.414214 
C -1.03916 1.789267 -0.530406 2 0 2 
z
" id="C2_0_ac768695dd"/>
    </defs>
    <g clip-path="url(#p02b9322a95)">
     <use style="fill:#377eb8;" x="94.739299" xlink:href="#C2_0_ac768695dd" y="246.261019"/>
    </g>
    <g clip-path="url(#p02b9322a95)">
     <use style="fill:#377eb8;" x="94.572391" xlink:href="#C2_0_ac768695dd" y="243.285094"/>
    </g>
    <g clip-path="url(#p02b9322a95)">
     <use style="fill:#377eb8;" x="95.404916" xlink:href="#C2_0_ac768695dd" y="258.495084"/>
    </g>
    <g clip-path="url(#p02b9322a95)">
     <use style="fill:#377eb8;" x="94.558382" xlink:href="#C2_0_ac768695dd" y="255.312343"/>
    </g>
   </g>
   <g id="PathCollection_6">
    <defs>
     <path d="M 0 2 
C 0.530406 2 1.03916 1.789267 1.414214 1.414214 
C 1.789267 1.03916 2 0.530406 2 0 
C 2 -0.530406 1.789267 -1.03916 1.414214 -1.414214 
C 1.03916 -1.789267 0.530406 -2 0 -2 
C -0.530406 -2 -1.03916 -1.789267 -1.414214 -1.414214 
C -1.789267 -1.03916 -2 -0.530406 -2 0 
C -2 0.530406 -1.789267 1.03916 -1.414214 1.414214 
C -1.03916 1.789267 -0.530406 2 0 2 
z
" id="C3_0_c87fb326e9"/>
    </defs>
    <g clip-path="url(#p02b9322a95)">
     <use style="fill:#ff7f00;" x="101.244675" xlink:href="#C3_0_c87fb326e9" y="265.785822"/>
    </g>
    <g clip-path="url(#p02b9322a95)">
     <use style="fill:#ff7f00;" x="101.37642" xlink:href="#C3_0_c87fb326e9" y="264.992544"/>
    </g>
    <g clip-path="url(#p02b9322a95)">
     <use style="fill:#ff7f00;" x="101.878139" xlink:href="#C3_0_c87fb326e9" y="264.797161"/>
    </g>
    <g clip-path="url(#p02b9322a95)">
     <use style="fill:#ff7f00;" x="101.279749" xlink:href="#C3_0_c87fb326e9" y="266.120722"/>
    </g>
   </g>
   <g id="PathCollection_7">
    <defs>
     <path d="M 0 2 
C 0.530406 2 1.03916 1.789267 1.414214 1.414214 
C 1.789267 1.03916 2 0.530406 2 0 
C 2 -0.530406 1.789267 -1.03916 1.414214 -1.414214 
C 1.03916 -1.789267 0.530406 -2 0 -2 
C -0.530406 -2 -1.03916 -1.789267 -1.414214 -1.414214 
C -1.789267 -1.03916 -2 -0.530406 -2 0 
C -2 0.530406 -1.789267 1.03916 -1.414214 1.414214 
C -1.03916 1.789267 -0.530406 2 0 2 
z
" id="C4_0_991ae1e12f"/>
    </defs>
    <g clip-path="url(#p02b9322a95)">
     <use style="fill:#377eb8;" x="111.294421" xlink:href="#C4_0_991ae1e12f" y="181.261537"/>
    </g>
    <g clip-path="url(#p02b9322a95)">
     <use style="fill:#377eb8;" x="111.670309" xlink:href="#C4_0_991ae1e12f" y="180.914806"/>
    </g>
    <g clip-path="url(#p02b9322a95)">
     <use style="fill:#377eb8;" x="111.996127" xlink:href="#C4_0_991ae1e12f" y="177.734363"/>
    </g>
    <g clip-path="url(#p02b9322a95)">
     <use style="fill:#377eb8;" x="111.394562" xlink:href="#C4_0_991ae1e12f" y="176.13853"/>
    </g>
   </g>
   <g id="PathCollection_8">
    <defs>
     <path d="M 0 2 
C 0.530406 2 1.03916 1.789267 1.414214 1.414214 
C 1.789267 1.03916 2 0.530406 2 0 
C 2 -0.530406 1.789267 -1.03916 1.414214 -1.414214 
C 1.03916 -1.789267 0.530406 -2 0 -2 
C -0.530406 -2 -1.03916 -1.789267 -1.414214 -1.414214 
C -1.789267 -1.03916 -2 -0.530406 -2 0 
C -2 0.530406 -1.789267 1.03916 -1.414214 1.414214 
C -1.03916 1.789267 -0.530406 2 0 2 
z
" id="C5_0_ea23e6bcbd"/>
    </defs>
    <g clip-path="url(#p02b9322a95)">
     <use style="fill:#ff7f00;" x="119.106464" xlink:href="#C5_0_ea23e6bcbd" y="178.16973"/>
    </g>
    <g clip-path="url(#p02b9322a95)">
     <use style="fill:#ff7f00;" x="118.142345" xlink:href="#C5_0_ea23e6bcbd" y="178.430028"/>
    </g>
    <g clip-path="url(#p02b9322a95)">
     <use style="fill:#ff7f00;" x="117.892608" xlink:href="#C5_0_ea23e6bcbd" y="178.609077"/>
    </g>
    <g clip-path="url(#p02b9322a95)">
     <use style="fill:#ff7f00;" x="119.026379" xlink:href="#C5_0_ea23e6bcbd" y="180.56237"/>
    </g>
   </g>
   <g id="PathCollection_9">
    <defs>
     <path d="M 0 2 
C 0.530406 2 1.03916 1.789267 1.414214 1.414214 
C 1.789267 1.03916 2 0.530406 2 0 
C 2 -0.530406 1.789267 -1.03916 1.414214 -1.414214 
C 1.03916 -1.789267 0.530406 -2 0 -2 
C -0.530406 -2 -1.03916 -1.789267 -1.414214 -1.414214 
C -1.789267 -1.03916 -2 -0.530406 -2 0 
C -2 0.530406 -1.789267 1.03916 -1.414214 1.414214 
C -1.03916 1.789267 -0.530406 2 0 2 
z
" id="C6_0_1be6d39a67"/>
    </defs>
    <g clip-path="url(#p02b9322a95)">
     <use style="fill:#377eb8;" x="128.676573" xlink:href="#C6_0_1be6d39a67" y="175.90599"/>
    </g>
    <g clip-path="url(#p02b9322a95)">
     <use style="fill:#377eb8;" x="128.264921" xlink:href="#C6_0_1be6d39a67" y="179.281997"/>
    </g>
    <g clip-path="url(#p02b9322a95)">
     <use style="fill:#377eb8;" x="128.453069" xlink:href="#C6_0_1be6d39a67" y="140.16907"/>
    </g>
    <g clip-path="url(#p02b9322a95)">
     <use style="fill:#377eb8;" x="129.099481" xlink:href="#C6_0_1be6d39a67" y="142.285442"/>
    </g>
   </g>
   <g id="PathCollection_10">
    <defs>
     <path d="M 0 2 
C 0.530406 2 1.03916 1.789267 1.414214 1.414214 
C 1.789267 1.03916 2 0.530406 2 0 
C 2 -0.530406 1.789267 -1.03916 1.414214 -1.414214 
C 1.03916 -1.789267 0.530406 -2 0 -2 
C -0.530406 -2 -1.03916 -1.789267 -1.414214 -1.414214 
C -1.789267 -1.03916 -2 -0.530406 -2 0 
C -2 0.530406 -1.789267 1.03916 -1.414214 1.414214 
C -1.03916 1.789267 -0.530406 2 0 2 
z
" id="C7_0_3da7f59100"/>
    </defs>
    <g clip-path="url(#p02b9322a95)">
     <use style="fill:#ff7f00;" x="136.537537" xlink:href="#C7_0_3da7f59100" y="141.194965"/>
    </g>
    <g clip-path="url(#p02b9322a95)">
     <use style="fill:#ff7f00;" x="135.98623" xlink:href="#C7_0_3da7f59100" y="144.712252"/>
    </g>
    <g clip-path="url(#p02b9322a95)">
     <use style="fill:#ff7f00;" x="135.737102" xlink:href="#C7_0_3da7f59100" y="149.087146"/>
    </g>
    <g clip-path="url(#p02b9322a95)">
     <use style="fill:#ff7f00;" x="136.638367" xlink:href="#C7_0_3da7f59100" y="165.934317"/>
    </g>
   </g>
   <g id="PathCollection_11">
    <defs>
     <path d="M 0 2 
C 0.530406 2 1.03916 1.789267 1.414214 1.414214 
C 1.789267 1.03916 2 0.530406 2 0 
C 2 -0.530406 1.789267 -1.03916 1.414214 -1.414214 
C 1.03916 -1.789267 0.530406 -2 0 -2 
C -0.530406 -2 -1.03916 -1.789267 -1.414214 -1.414214 
C -1.789267 -1.03916 -2 -0.530406 -2 0 
C -2 0.530406 -1.789267 1.03916 -1.414214 1.414214 
C -1.03916 1.789267 -0.530406 2 0 2 
z
" id="C8_0_a71fce146d"/>
    </defs>
    <g clip-path="url(#p02b9322a95)">
     <use style="fill:#377eb8;" x="145.902447" xlink:href="#C8_0_a71fce146d" y="56.091706"/>
    </g>
    <g clip-path="url(#p02b9322a95)">
     <use style="fill:#377eb8;" x="147.204405" xlink:href="#C8_0_a71fce146d" y="54.662122"/>
    </g>
    <g clip-path="url(#p02b9322a95)">
     <use style="fill:#377eb8;" x="146.771896" xlink:href="#C8_0_a71fce146d" y="152.327562"/>
    </g>
    <g clip-path="url(#p02b9322a95)">
     <use style="fill:#377eb8;" x="147.139623" xlink:href="#C8_0_a71fce146d" y="150.72737"/>
    </g>
   </g>
   <g id="PathCollection_12">
    <defs>
     <path d="M 0 2 
C 0.530406 2 1.03916 1.789267 1.414214 1.414214 
C 1.789267 1.03916 2 0.530406 2 0 
C 2 -0.530406 1.789267 -1.03916 1.414214 -1.414214 
C 1.03916 -1.789267 0.530406 -2 0 -2 
C -0.530406 -2 -1.03916 -1.789267 -1.414214 -1.414214 
C -1.789267 -1.03916 -2 -0.530406 -2 0 
C -2 0.530406 -1.789267 1.03916 -1.414214 1.414214 
C -1.03916 1.789267 -0.530406 2 0 2 
z
" id="C9_0_491076e6e1"/>
    </defs>
    <g clip-path="url(#p02b9322a95)">
     <use style="fill:#ff7f00;" x="153.302181" xlink:href="#C9_0_491076e6e1" y="147.95647"/>
    </g>
    <g clip-path="url(#p02b9322a95)">
     <use style="fill:#ff7f00;" x="152.959174" xlink:href="#C9_0_491076e6e1" y="146.404281"/>
    </g>
    <g clip-path="url(#p02b9322a95)">
     <use style="fill:#ff7f00;" x="152.960422" xlink:href="#C9_0_491076e6e1" y="139.490659"/>
    </g>
    <g clip-path="url(#p02b9322a95)">
     <use style="fill:#ff7f00;" x="152.994046" xlink:href="#C9_0_491076e6e1" y="99.914046"/>
    </g>
   </g>
   <g id="PathCollection_13">
    <defs>
     <path d="M 0 2 
C 0.530406 2 1.03916 1.789267 1.414214 1.414214 
C 1.789267 1.03916 2 0.530406 2 0 
C 2 -0.530406 1.789267 -1.03916 1.414214 -1.414214 
C 1.03916 -1.789267 0.530406 -2 0 -2 
C -0.530406 -2 -1.03916 -1.789267 -1.414214 -1.414214 
C -1.789267 -1.03916 -2 -0.530406 -2 0 
C -2 0.530406 -1.789267 1.03916 -1.414214 1.414214 
C -1.03916 1.789267 -0.530406 2 0 2 
z
" id="Ca_0_0c4aedca36"/>
    </defs>
    <g clip-path="url(#p02b9322a95)">
     <use style="fill:#377eb8;" x="163.033515" xlink:href="#Ca_0_0c4aedca36" y="203.005329"/>
    </g>
    <g clip-path="url(#p02b9322a95)">
     <use style="fill:#377eb8;" x="163.770903" xlink:href="#Ca_0_0c4aedca36" y="202.367637"/>
    </g>
    <g clip-path="url(#p02b9322a95)">
     <use style="fill:#377eb8;" x="163.620009" xlink:href="#Ca_0_0c4aedca36" y="163.635294"/>
    </g>
    <g clip-path="url(#p02b9322a95)">
     <use style="fill:#377eb8;" x="163.903445" xlink:href="#Ca_0_0c4aedca36" y="163.274152"/>
    </g>
   </g>
   <g id="PathCollection_14">
    <defs>
     <path d="M 0 2 
C 0.530406 2 1.03916 1.789267 1.414214 1.414214 
C 1.789267 1.03916 2 0.530406 2 0 
C 2 -0.530406 1.789267 -1.03916 1.414214 -1.414214 
C 1.03916 -1.789267 0.530406 -2 0 -2 
C -0.530406 -2 -1.03916 -1.789267 -1.414214 -1.414214 
C -1.789267 -1.03916 -2 -0.530406 -2 0 
C -2 0.530406 -1.789267 1.03916 -1.414214 1.414214 
C -1.03916 1.789267 -0.530406 2 0 2 
z
" id="Cb_0_13ecc925cc"/>
    </defs>
    <g clip-path="url(#p02b9322a95)">
     <use style="fill:#ff7f00;" x="171.133204" xlink:href="#Cb_0_13ecc925cc" y="192.979261"/>
    </g>
    <g clip-path="url(#p02b9322a95)">
     <use style="fill:#ff7f00;" x="171.020537" xlink:href="#Cb_0_13ecc925cc" y="194.301147"/>
    </g>
    <g clip-path="url(#p02b9322a95)">
     <use style="fill:#ff7f00;" x="171.357198" xlink:href="#Cb_0_13ecc925cc" y="193.531187"/>
    </g>
    <g clip-path="url(#p02b9322a95)">
     <use style="fill:#ff7f00;" x="171.320455" xlink:href="#Cb_0_13ecc925cc" y="196.866574"/>
    </g>
   </g>
   <g id="PathCollection_15">
    <defs>
     <path d="M 0 2 
C 0.530406 2 1.03916 1.789267 1.414214 1.414214 
C 1.789267 1.03916 2 0.530406 2 0 
C 2 -0.530406 1.789267 -1.03916 1.414214 -1.414214 
C 1.03916 -1.789267 0.530406 -2 0 -2 
C -0.530406 -2 -1.03916 -1.789267 -1.414214 -1.414214 
C -1.789267 -1.03916 -2 -0.530406 -2 0 
C -2 0.530406 -1.789267 1.03916 -1.414214 1.414214 
C -1.03916 1.789267 -0.530406 2 0 2 
z
" id="Cc_0_fbafd4aa81"/>
    </defs>
    <g clip-path="url(#p02b9322a95)">
     <use style="fill:#377eb8;" x="180.857991" xlink:href="#Cc_0_fbafd4aa81" y="145.086205"/>
    </g>
    <g clip-path="url(#p02b9322a95)">
     <use style="fill:#377eb8;" x="180.296389" xlink:href="#Cc_0_fbafd4aa81" y="147.556216"/>
    </g>
    <g clip-path="url(#p02b9322a95)">
     <use style="fill:#377eb8;" x="180.43641" xlink:href="#Cc_0_fbafd4aa81" y="124.800891"/>
    </g>
    <g clip-path="url(#p02b9322a95)">
     <use style="fill:#377eb8;" x="180.573562" xlink:href="#Cc_0_fbafd4aa81" y="126.272416"/>
    </g>
   </g>
   <g id="PathCollection_16">
    <defs>
     <path d="M 0 2 
C 0.530406 2 1.03916 1.789267 1.414214 1.414214 
C 1.789267 1.03916 2 0.530406 2 0 
C 2 -0.530406 1.789267 -1.03916 1.414214 -1.414214 
C 1.03916 -1.789267 0.530406 -2 0 -2 
C -0.530406 -2 -1.03916 -1.789267 -1.414214 -1.414214 
C -1.789267 -1.03916 -2 -0.530406 -2 0 
C -2 0.530406 -1.789267 1.03916 -1.414214 1.414214 
C -1.03916 1.789267 -0.530406 2 0 2 
z
" id="Cd_0_8c0e5b2589"/>
    </defs>
    <g clip-path="url(#p02b9322a95)">
     <use style="fill:#ff7f00;" x="187.055818" xlink:href="#Cd_0_8c0e5b2589" y="136.484989"/>
    </g>
    <g clip-path="url(#p02b9322a95)">
     <use style="fill:#ff7f00;" x="187.541219" xlink:href="#Cd_0_8c0e5b2589" y="138.738687"/>
    </g>
    <g clip-path="url(#p02b9322a95)">
     <use style="fill:#ff7f00;" x="187.397973" xlink:href="#Cd_0_8c0e5b2589" y="139.679974"/>
    </g>
    <g clip-path="url(#p02b9322a95)">
     <use style="fill:#ff7f00;" x="187.538203" xlink:href="#Cd_0_8c0e5b2589" y="146.317896"/>
    </g>
   </g>
   <g id="PathCollection_17">
    <defs>
     <path d="M 0 2 
C 0.530406 2 1.03916 1.789267 1.414214 1.414214 
C 1.789267 1.03916 2 0.530406 2 0 
C 2 -0.530406 1.789267 -1.03916 1.414214 -1.414214 
C 1.03916 -1.789267 0.530406 -2 0 -2 
C -0.530406 -2 -1.03916 -1.789267 -1.414214 -1.414214 
C -1.789267 -1.03916 -2 -0.530406 -2 0 
C -2 0.530406 -1.789267 1.03916 -1.414214 1.414214 
C -1.03916 1.789267 -0.530406 2 0 2 
z
" id="Ce_0_381a5473be"/>
    </defs>
    <g clip-path="url(#p02b9322a95)">
     <use style="fill:#377eb8;" x="198.310093" xlink:href="#Ce_0_381a5473be" y="136.294577"/>
    </g>
    <g clip-path="url(#p02b9322a95)">
     <use style="fill:#377eb8;" x="198.852064" xlink:href="#Ce_0_381a5473be" y="133.514729"/>
    </g>
    <g clip-path="url(#p02b9322a95)">
     <use style="fill:#377eb8;" x="198.866567" xlink:href="#Ce_0_381a5473be" y="171.292138"/>
    </g>
    <g clip-path="url(#p02b9322a95)">
     <use style="fill:#377eb8;" x="197.862654" xlink:href="#Ce_0_381a5473be" y="170.503748"/>
    </g>
   </g>
   <g id="PathCollection_18">
    <defs>
     <path d="M 0 2 
C 0.530406 2 1.03916 1.789267 1.414214 1.414214 
C 1.789267 1.03916 2 0.530406 2 0 
C 2 -0.530406 1.789267 -1.03916 1.414214 -1.414214 
C 1.03916 -1.789267 0.530406 -2 0 -2 
C -0.530406 -2 -1.03916 -1.789267 -1.414214 -1.414214 
C -1.789267 -1.03916 -2 -0.530406 -2 0 
C -2 0.530406 -1.789267 1.03916 -1.414214 1.414214 
C -1.03916 1.789267 -0.530406 2 0 2 
z
" id="Cf_0_7d480ad07e"/>
    </defs>
    <g clip-path="url(#p02b9322a95)">
     <use style="fill:#ff7f00;" x="205.001822" xlink:href="#Cf_0_7d480ad07e" y="153.416916"/>
    </g>
    <g clip-path="url(#p02b9322a95)">
     <use style="fill:#ff7f00;" x="205.839064" xlink:href="#Cf_0_7d480ad07e" y="153.35478"/>
    </g>
    <g clip-path="url(#p02b9322a95)">
     <use style="fill:#ff7f00;" x="204.96242" xlink:href="#Cf_0_7d480ad07e" y="150.576878"/>
    </g>
    <g clip-path="url(#p02b9322a95)">
     <use style="fill:#ff7f00;" x="204.39008" xlink:href="#Cf_0_7d480ad07e" y="138.286951"/>
    </g>
   </g>
   <g id="PathCollection_19">
    <defs>
     <path d="M 0 2 
C 0.530406 2 1.03916 1.789267 1.414214 1.414214 
C 1.789267 1.03916 2 0.530406 2 0 
C 2 -0.530406 1.789267 -1.03916 1.414214 -1.414214 
C 1.03916 -1.789267 0.530406 -2 0 -2 
C -0.530406 -2 -1.03916 -1.789267 -1.414214 -1.414214 
C -1.789267 -1.03916 -2 -0.530406 -2 0 
C -2 0.530406 -1.789267 1.03916 -1.414214 1.414214 
C -1.03916 1.789267 -0.530406 2 0 2 
z
" id="C10_0_1692717743"/>
    </defs>
    <g clip-path="url(#p02b9322a95)">
     <use style="fill:#377eb8;" x="215.58424" xlink:href="#C10_0_1692717743" y="126.629541"/>
    </g>
    <g clip-path="url(#p02b9322a95)">
     <use style="fill:#377eb8;" x="216.106769" xlink:href="#C10_0_1692717743" y="131.866832"/>
    </g>
    <g clip-path="url(#p02b9322a95)">
     <use style="fill:#377eb8;" x="215.097968" xlink:href="#C10_0_1692717743" y="145.755262"/>
    </g>
    <g clip-path="url(#p02b9322a95)">
     <use style="fill:#377eb8;" x="215.99062" xlink:href="#C10_0_1692717743" y="145.411892"/>
    </g>
   </g>
   <g id="PathCollection_20">
    <defs>
     <path d="M 0 2 
C 0.530406 2 1.03916 1.789267 1.414214 1.414214 
C 1.789267 1.03916 2 0.530406 2 0 
C 2 -0.530406 1.789267 -1.03916 1.414214 -1.414214 
C 1.03916 -1.789267 0.530406 -2 0 -2 
C -0.530406 -2 -1.03916 -1.789267 -1.414214 -1.414214 
C -1.789267 -1.03916 -2 -0.530406 -2 0 
C -2 0.530406 -1.789267 1.03916 -1.414214 1.414214 
C -1.03916 1.789267 -0.530406 2 0 2 
z
" id="C11_0_cacb6bdc2e"/>
    </defs>
    <g clip-path="url(#p02b9322a95)">
     <use style="fill:#ff7f00;" x="221.495572" xlink:href="#C11_0_cacb6bdc2e" y="143.257397"/>
    </g>
    <g clip-path="url(#p02b9322a95)">
     <use style="fill:#ff7f00;" x="222.140946" xlink:href="#C11_0_cacb6bdc2e" y="143.341655"/>
    </g>
    <g clip-path="url(#p02b9322a95)">
     <use style="fill:#ff7f00;" x="222.453627" xlink:href="#C11_0_cacb6bdc2e" y="140.892494"/>
    </g>
    <g clip-path="url(#p02b9322a95)">
     <use style="fill:#ff7f00;" x="222.159677" xlink:href="#C11_0_cacb6bdc2e" y="128.155352"/>
    </g>
   </g>
   <g id="PathCollection_21">
    <defs>
     <path d="M 0 2 
C 0.530406 2 1.03916 1.789267 1.414214 1.414214 
C 1.789267 1.03916 2 0.530406 2 0 
C 2 -0.530406 1.789267 -1.03916 1.414214 -1.414214 
C 1.03916 -1.789267 0.530406 -2 0 -2 
C -0.530406 -2 -1.03916 -1.789267 -1.414214 -1.414214 
C -1.789267 -1.03916 -2 -0.530406 -2 0 
C -2 0.530406 -1.789267 1.03916 -1.414214 1.414214 
C -1.03916 1.789267 -0.530406 2 0 2 
z
" id="C12_0_074657e0e2"/>
    </defs>
    <g clip-path="url(#p02b9322a95)">
     <use style="fill:#377eb8;" x="232.663939" xlink:href="#C12_0_074657e0e2" y="184.780558"/>
    </g>
    <g clip-path="url(#p02b9322a95)">
     <use style="fill:#377eb8;" x="232.461538" xlink:href="#C12_0_074657e0e2" y="185.702592"/>
    </g>
    <g clip-path="url(#p02b9322a95)">
     <use style="fill:#377eb8;" x="232.051457" xlink:href="#C12_0_074657e0e2" y="181.061821"/>
    </g>
    <g clip-path="url(#p02b9322a95)">
     <use style="fill:#377eb8;" x="232.779658" xlink:href="#C12_0_074657e0e2" y="178.996902"/>
    </g>
   </g>
   <g id="PathCollection_22">
    <defs>
     <path d="M 0 2 
C 0.530406 2 1.03916 1.789267 1.414214 1.414214 
C 1.789267 1.03916 2 0.530406 2 0 
C 2 -0.530406 1.789267 -1.03916 1.414214 -1.414214 
C 1.03916 -1.789267 0.530406 -2 0 -2 
C -0.530406 -2 -1.03916 -1.789267 -1.414214 -1.414214 
C -1.789267 -1.03916 -2 -0.530406 -2 0 
C -2 0.530406 -1.789267 1.03916 -1.414214 1.414214 
C -1.03916 1.789267 -0.530406 2 0 2 
z
" id="C13_0_e30f2af48a"/>
    </defs>
    <g clip-path="url(#p02b9322a95)">
     <use style="fill:#ff7f00;" x="240.025208" xlink:href="#C13_0_e30f2af48a" y="182.594418"/>
    </g>
    <g clip-path="url(#p02b9322a95)">
     <use style="fill:#ff7f00;" x="239.759436" xlink:href="#C13_0_e30f2af48a" y="182.108429"/>
    </g>
    <g clip-path="url(#p02b9322a95)">
     <use style="fill:#ff7f00;" x="240.234579" xlink:href="#C13_0_e30f2af48a" y="182.327772"/>
    </g>
    <g clip-path="url(#p02b9322a95)">
     <use style="fill:#ff7f00;" x="238.979038" xlink:href="#C13_0_e30f2af48a" y="182.333259"/>
    </g>
   </g>
   <g id="PathCollection_23">
    <defs>
     <path d="M 0 2 
C 0.530406 2 1.03916 1.789267 1.414214 1.414214 
C 1.789267 1.03916 2 0.530406 2 0 
C 2 -0.530406 1.789267 -1.03916 1.414214 -1.414214 
C 1.03916 -1.789267 0.530406 -2 0 -2 
C -0.530406 -2 -1.03916 -1.789267 -1.414214 -1.414214 
C -1.789267 -1.03916 -2 -0.530406 -2 0 
C -2 0.530406 -1.789267 1.03916 -1.414214 1.414214 
C -1.03916 1.789267 -0.530406 2 0 2 
z
" id="C14_0_96cb2c42b6"/>
    </defs>
    <g clip-path="url(#p02b9322a95)">
     <use style="fill:#377eb8;" x="249.829199" xlink:href="#C14_0_96cb2c42b6" y="178.404343"/>
    </g>
    <g clip-path="url(#p02b9322a95)">
     <use style="fill:#377eb8;" x="250.411158" xlink:href="#C14_0_96cb2c42b6" y="177.882207"/>
    </g>
    <g clip-path="url(#p02b9322a95)">
     <use style="fill:#377eb8;" x="250.476107" xlink:href="#C14_0_96cb2c42b6" y="183.060405"/>
    </g>
    <g clip-path="url(#p02b9322a95)">
     <use style="fill:#377eb8;" x="250.463201" xlink:href="#C14_0_96cb2c42b6" y="182.377771"/>
    </g>
   </g>
   <g id="PathCollection_24">
    <defs>
     <path d="M 0 2 
C 0.530406 2 1.03916 1.789267 1.414214 1.414214 
C 1.789267 1.03916 2 0.530406 2 0 
C 2 -0.530406 1.789267 -1.03916 1.414214 -1.414214 
C 1.03916 -1.789267 0.530406 -2 0 -2 
C -0.530406 -2 -1.03916 -1.789267 -1.414214 -1.414214 
C -1.789267 -1.03916 -2 -0.530406 -2 0 
C -2 0.530406 -1.789267 1.03916 -1.414214 1.414214 
C -1.03916 1.789267 -0.530406 2 0 2 
z
" id="C15_0_9eb4c3374c"/>
    </defs>
    <g clip-path="url(#p02b9322a95)">
     <use style="fill:#ff7f00;" x="257.248496" xlink:href="#C15_0_9eb4c3374c" y="188.525499"/>
    </g>
    <g clip-path="url(#p02b9322a95)">
     <use style="fill:#ff7f00;" x="256.16707" xlink:href="#C15_0_9eb4c3374c" y="187.838212"/>
    </g>
    <g clip-path="url(#p02b9322a95)">
     <use style="fill:#ff7f00;" x="257.103014" xlink:href="#C15_0_9eb4c3374c" y="186.098304"/>
    </g>
    <g clip-path="url(#p02b9322a95)">
     <use style="fill:#ff7f00;" x="256.61741" xlink:href="#C15_0_9eb4c3374c" y="183.553934"/>
    </g>
   </g>
   <g id="PathCollection_25">
    <defs>
     <path d="M 0 2 
C 0.530406 2 1.03916 1.789267 1.414214 1.414214 
C 1.789267 1.03916 2 0.530406 2 0 
C 2 -0.530406 1.789267 -1.03916 1.414214 -1.414214 
C 1.03916 -1.789267 0.530406 -2 0 -2 
C -0.530406 -2 -1.03916 -1.789267 -1.414214 -1.414214 
C -1.789267 -1.03916 -2 -0.530406 -2 0 
C -2 0.530406 -1.789267 1.03916 -1.414214 1.414214 
C -1.03916 1.789267 -0.530406 2 0 2 
z
" id="C16_0_0a7e1a16aa"/>
    </defs>
    <g clip-path="url(#p02b9322a95)">
     <use style="fill:#377eb8;" x="267.906169" xlink:href="#C16_0_0a7e1a16aa" y="188.704123"/>
    </g>
    <g clip-path="url(#p02b9322a95)">
     <use style="fill:#377eb8;" x="267.853804" xlink:href="#C16_0_0a7e1a16aa" y="189.948901"/>
    </g>
    <g clip-path="url(#p02b9322a95)">
     <use style="fill:#377eb8;" x="268.08098" xlink:href="#C16_0_0a7e1a16aa" y="151.401218"/>
    </g>
    <g clip-path="url(#p02b9322a95)">
     <use style="fill:#377eb8;" x="268.099876" xlink:href="#C16_0_0a7e1a16aa" y="149.375023"/>
    </g>
   </g>
   <g id="PathCollection_26">
    <defs>
     <path d="M 0 2 
C 0.530406 2 1.03916 1.789267 1.414214 1.414214 
C 1.789267 1.03916 2 0.530406 2 0 
C 2 -0.530406 1.789267 -1.03916 1.414214 -1.414214 
C 1.03916 -1.789267 0.530406 -2 0 -2 
C -0.530406 -2 -1.03916 -1.789267 -1.414214 -1.414214 
C -1.789267 -1.03916 -2 -0.530406 -2 0 
C -2 0.530406 -1.789267 1.03916 -1.414214 1.414214 
C -1.03916 1.789267 -0.530406 2 0 2 
z
" id="C17_0_d99a9f433f"/>
    </defs>
    <g clip-path="url(#p02b9322a95)">
     <use style="fill:#ff7f00;" x="273.512752" xlink:href="#C17_0_d99a9f433f" y="174.95161"/>
    </g>
    <g clip-path="url(#p02b9322a95)">
     <use style="fill:#ff7f00;" x="273.714565" xlink:href="#C17_0_d99a9f433f" y="176.911356"/>
    </g>
    <g clip-path="url(#p02b9322a95)">
     <use style="fill:#ff7f00;" x="274.149489" xlink:href="#C17_0_d99a9f433f" y="176.159246"/>
    </g>
    <g clip-path="url(#p02b9322a95)">
     <use style="fill:#ff7f00;" x="274.207469" xlink:href="#C17_0_d99a9f433f" y="186.580114"/>
    </g>
   </g>
   <g id="PathCollection_27">
    <defs>
     <path d="M 0 2 
C 0.530406 2 1.03916 1.789267 1.414214 1.414214 
C 1.789267 1.03916 2 0.530406 2 0 
C 2 -0.530406 1.789267 -1.03916 1.414214 -1.414214 
C 1.03916 -1.789267 0.530406 -2 0 -2 
C -0.530406 -2 -1.03916 -1.789267 -1.414214 -1.414214 
C -1.789267 -1.03916 -2 -0.530406 -2 0 
C -2 0.530406 -1.789267 1.03916 -1.414214 1.414214 
C -1.03916 1.789267 -0.530406 2 0 2 
z
" id="C18_0_58a73b1c77"/>
    </defs>
    <g clip-path="url(#p02b9322a95)">
     <use style="fill:#377eb8;" x="283.982221" xlink:href="#C18_0_58a73b1c77" y="150.209859"/>
    </g>
    <g clip-path="url(#p02b9322a95)">
     <use style="fill:#377eb8;" x="283.942048" xlink:href="#C18_0_58a73b1c77" y="149.634946"/>
    </g>
    <g clip-path="url(#p02b9322a95)">
     <use style="fill:#377eb8;" x="284.544582" xlink:href="#C18_0_58a73b1c77" y="150.121561"/>
    </g>
    <g clip-path="url(#p02b9322a95)">
     <use style="fill:#377eb8;" x="284.360071" xlink:href="#C18_0_58a73b1c77" y="149.738722"/>
    </g>
   </g>
   <g id="PathCollection_28">
    <defs>
     <path d="M 0 2 
C 0.530406 2 1.03916 1.789267 1.414214 1.414214 
C 1.789267 1.03916 2 0.530406 2 0 
C 2 -0.530406 1.789267 -1.03916 1.414214 -1.414214 
C 1.03916 -1.789267 0.530406 -2 0 -2 
C -0.530406 -2 -1.03916 -1.789267 -1.414214 -1.414214 
C -1.789267 -1.03916 -2 -0.530406 -2 0 
C -2 0.530406 -1.789267 1.03916 -1.414214 1.414214 
C -1.03916 1.789267 -0.530406 2 0 2 
z
" id="C19_0_db11badfc1"/>
    </defs>
    <g clip-path="url(#p02b9322a95)">
     <use style="fill:#ff7f00;" x="290.864385" xlink:href="#C19_0_db11badfc1" y="151.383559"/>
    </g>
    <g clip-path="url(#p02b9322a95)">
     <use style="fill:#ff7f00;" x="291.963845" xlink:href="#C19_0_db11badfc1" y="151.536346"/>
    </g>
    <g clip-path="url(#p02b9322a95)">
     <use style="fill:#ff7f00;" x="291.359869" xlink:href="#C19_0_db11badfc1" y="150.655759"/>
    </g>
    <g clip-path="url(#p02b9322a95)">
     <use style="fill:#ff7f00;" x="291.695932" xlink:href="#C19_0_db11badfc1" y="150.934596"/>
    </g>
   </g>
   <g id="PathCollection_29">
    <defs>
     <path d="M 0 2 
C 0.530406 2 1.03916 1.789267 1.414214 1.414214 
C 1.789267 1.03916 2 0.530406 2 0 
C 2 -0.530406 1.789267 -1.03916 1.414214 -1.414214 
C 1.03916 -1.789267 0.530406 -2 0 -2 
C -0.530406 -2 -1.03916 -1.789267 -1.414214 -1.414214 
C -1.789267 -1.03916 -2 -0.530406 -2 0 
C -2 0.530406 -1.789267 1.03916 -1.414214 1.414214 
C -1.03916 1.789267 -0.530406 2 0 2 
z
" id="C1a_0_a813580940"/>
    </defs>
    <g clip-path="url(#p02b9322a95)">
     <use style="fill:#377eb8;" x="302.540544" xlink:href="#C1a_0_a813580940" y="152.34937"/>
    </g>
    <g clip-path="url(#p02b9322a95)">
     <use style="fill:#377eb8;" x="302.501904" xlink:href="#C1a_0_a813580940" y="153.478921"/>
    </g>
    <g clip-path="url(#p02b9322a95)">
     <use style="fill:#377eb8;" x="302.233773" xlink:href="#C1a_0_a813580940" y="150.258667"/>
    </g>
    <g clip-path="url(#p02b9322a95)">
     <use style="fill:#377eb8;" x="301.517776" xlink:href="#C1a_0_a813580940" y="150.390991"/>
    </g>
   </g>
   <g id="PathCollection_30">
    <defs>
     <path d="M 0 2 
C 0.530406 2 1.03916 1.789267 1.414214 1.414214 
C 1.789267 1.03916 2 0.530406 2 0 
C 2 -0.530406 1.789267 -1.03916 1.414214 -1.414214 
C 1.03916 -1.789267 0.530406 -2 0 -2 
C -0.530406 -2 -1.03916 -1.789267 -1.414214 -1.414214 
C -1.789267 -1.03916 -2 -0.530406 -2 0 
C -2 0.530406 -1.789267 1.03916 -1.414214 1.414214 
C -1.03916 1.789267 -0.530406 2 0 2 
z
" id="C1b_0_a082a9f42b"/>
    </defs>
    <g clip-path="url(#p02b9322a95)">
     <use style="fill:#ff7f00;" x="308.951529" xlink:href="#C1b_0_a082a9f42b" y="149.335664"/>
    </g>
    <g clip-path="url(#p02b9322a95)">
     <use style="fill:#ff7f00;" x="308.286711" xlink:href="#C1b_0_a082a9f42b" y="150.4312"/>
    </g>
    <g clip-path="url(#p02b9322a95)">
     <use style="fill:#ff7f00;" x="308.414295" xlink:href="#C1b_0_a082a9f42b" y="149.528882"/>
    </g>
    <g clip-path="url(#p02b9322a95)">
     <use style="fill:#ff7f00;" x="307.964529" xlink:href="#C1b_0_a082a9f42b" y="149.810482"/>
    </g>
   </g>
   <g id="PathCollection_31">
    <defs>
     <path d="M 0 2 
C 0.530406 2 1.03916 1.789267 1.414214 1.414214 
C 1.789267 1.03916 2 0.530406 2 0 
C 2 -0.530406 1.789267 -1.03916 1.414214 -1.414214 
C 1.03916 -1.789267 0.530406 -2 0 -2 
C -0.530406 -2 -1.03916 -1.789267 -1.414214 -1.414214 
C -1.789267 -1.03916 -2 -0.530406 -2 0 
C -2 0.530406 -1.789267 1.03916 -1.414214 1.414214 
C -1.03916 1.789267 -0.530406 2 0 2 
z
" id="C1c_0_9b1994943e"/>
    </defs>
    <g clip-path="url(#p02b9322a95)">
     <use style="fill:#377eb8;" x="319.819519" xlink:href="#C1c_0_9b1994943e" y="283.345305"/>
    </g>
    <g clip-path="url(#p02b9322a95)">
     <use style="fill:#377eb8;" x="319.048471" xlink:href="#C1c_0_9b1994943e" y="281.78016"/>
    </g>
    <g clip-path="url(#p02b9322a95)">
     <use style="fill:#377eb8;" x="319.160865" xlink:href="#C1c_0_9b1994943e" y="294.096948"/>
    </g>
    <g clip-path="url(#p02b9322a95)">
     <use style="fill:#377eb8;" x="319.836132" xlink:href="#C1c_0_9b1994943e" y="289.836482"/>
    </g>
   </g>
   <g id="PathCollection_32">
    <defs>
     <path d="M 0 2 
C 0.530406 2 1.03916 1.789267 1.414214 1.414214 
C 1.789267 1.03916 2 0.530406 2 0 
C 2 -0.530406 1.789267 -1.03916 1.414214 -1.414214 
C 1.03916 -1.789267 0.530406 -2 0 -2 
C -0.530406 -2 -1.03916 -1.789267 -1.414214 -1.414214 
C -1.789267 -1.03916 -2 -0.530406 -2 0 
C -2 0.530406 -1.789267 1.03916 -1.414214 1.414214 
C -1.03916 1.789267 -0.530406 2 0 2 
z
" id="C1d_0_799438a546"/>
    </defs>
    <g clip-path="url(#p02b9322a95)">
     <use style="fill:#ff7f00;" x="326.043691" xlink:href="#C1d_0_799438a546" y="275.641883"/>
    </g>
    <g clip-path="url(#p02b9322a95)">
     <use style="fill:#ff7f00;" x="326.507284" xlink:href="#C1d_0_799438a546" y="274.158752"/>
    </g>
    <g clip-path="url(#p02b9322a95)">
     <use style="fill:#ff7f00;" x="325.338225" xlink:href="#C1d_0_799438a546" y="273.694984"/>
    </g>
    <g clip-path="url(#p02b9322a95)">
     <use style="fill:#ff7f00;" x="326.225399" xlink:href="#C1d_0_799438a546" y="273.227962"/>
    </g>
   </g>
   <g id="PathCollection_33">
    <defs>
     <path d="M 0 2 
C 0.530406 2 1.03916 1.789267 1.414214 1.414214 
C 1.789267 1.03916 2 0.530406 2 0 
C 2 -0.530406 1.789267 -1.03916 1.414214 -1.414214 
C 1.03916 -1.789267 0.530406 -2 0 -2 
C -0.530406 -2 -1.03916 -1.789267 -1.414214 -1.414214 
C -1.789267 -1.03916 -2 -0.530406 -2 0 
C -2 0.530406 -1.789267 1.03916 -1.414214 1.414214 
C -1.03916 1.789267 -0.530406 2 0 2 
z
" id="C1e_0_3852d8b72b"/>
    </defs>
    <g clip-path="url(#p02b9322a95)">
     <use style="fill:#377eb8;" x="337.104668" xlink:href="#C1e_0_3852d8b72b" y="190.513566"/>
    </g>
    <g clip-path="url(#p02b9322a95)">
     <use style="fill:#377eb8;" x="335.93147" xlink:href="#C1e_0_3852d8b72b" y="192.577489"/>
    </g>
    <g clip-path="url(#p02b9322a95)">
     <use style="fill:#377eb8;" x="336.480705" xlink:href="#C1e_0_3852d8b72b" y="168.151003"/>
    </g>
    <g clip-path="url(#p02b9322a95)">
     <use style="fill:#377eb8;" x="335.65797" xlink:href="#C1e_0_3852d8b72b" y="167.034088"/>
    </g>
   </g>
   <g id="PathCollection_34">
    <defs>
     <path d="M 0 2 
C 0.530406 2 1.03916 1.789267 1.414214 1.414214 
C 1.789267 1.03916 2 0.530406 2 0 
C 2 -0.530406 1.789267 -1.03916 1.414214 -1.414214 
C 1.03916 -1.789267 0.530406 -2 0 -2 
C -0.530406 -2 -1.03916 -1.789267 -1.414214 -1.414214 
C -1.789267 -1.03916 -2 -0.530406 -2 0 
C -2 0.530406 -1.789267 1.03916 -1.414214 1.414214 
C -1.03916 1.789267 -0.530406 2 0 2 
z
" id="C1f_0_16c86d1eb2"/>
    </defs>
    <g clip-path="url(#p02b9322a95)">
     <use style="fill:#ff7f00;" x="342.465496" xlink:href="#C1f_0_16c86d1eb2" y="184.587799"/>
    </g>
    <g clip-path="url(#p02b9322a95)">
     <use style="fill:#ff7f00;" x="342.644246" xlink:href="#C1f_0_16c86d1eb2" y="184.257324"/>
    </g>
    <g clip-path="url(#p02b9322a95)">
     <use style="fill:#ff7f00;" x="342.737546" xlink:href="#C1f_0_16c86d1eb2" y="184.412495"/>
    </g>
    <g clip-path="url(#p02b9322a95)">
     <use style="fill:#ff7f00;" x="343.85868" xlink:href="#C1f_0_16c86d1eb2" y="187.585804"/>
    </g>
   </g>
   <g id="PathCollection_35">
    <defs>
     <path d="M 0 2 
C 0.530406 2 1.03916 1.789267 1.414214 1.414214 
C 1.789267 1.03916 2 0.530406 2 0 
C 2 -0.530406 1.789267 -1.03916 1.414214 -1.414214 
C 1.03916 -1.789267 0.530406 -2 0 -2 
C -0.530406 -2 -1.03916 -1.789267 -1.414214 -1.414214 
C -1.789267 -1.03916 -2 -0.530406 -2 0 
C -2 0.530406 -1.789267 1.03916 -1.414214 1.414214 
C -1.03916 1.789267 -0.530406 2 0 2 
z
" id="C20_0_97cee19e23"/>
    </defs>
    <g clip-path="url(#p02b9322a95)">
     <use style="fill:#377eb8;" x="353.54534" xlink:href="#C20_0_97cee19e23" y="149.602197"/>
    </g>
    <g clip-path="url(#p02b9322a95)">
     <use style="fill:#377eb8;" x="352.895306" xlink:href="#C20_0_97cee19e23" y="151.061559"/>
    </g>
    <g clip-path="url(#p02b9322a95)">
     <use style="fill:#377eb8;" x="352.80767" xlink:href="#C20_0_97cee19e23" y="152.658023"/>
    </g>
    <g clip-path="url(#p02b9322a95)">
     <use style="fill:#377eb8;" x="353.269533" xlink:href="#C20_0_97cee19e23" y="151.801394"/>
    </g>
   </g>
   <g id="PathCollection_36">
    <defs>
     <path d="M 0 2 
C 0.530406 2 1.03916 1.789267 1.414214 1.414214 
C 1.789267 1.03916 2 0.530406 2 0 
C 2 -0.530406 1.789267 -1.03916 1.414214 -1.414214 
C 1.03916 -1.789267 0.530406 -2 0 -2 
C -0.530406 -2 -1.03916 -1.789267 -1.414214 -1.414214 
C -1.789267 -1.03916 -2 -0.530406 -2 0 
C -2 0.530406 -1.789267 1.03916 -1.414214 1.414214 
C -1.03916 1.789267 -0.530406 2 0 2 
z
" id="C21_0_2aa553cd16"/>
    </defs>
    <g clip-path="url(#p02b9322a95)">
     <use style="fill:#ff7f00;" x="360.308462" xlink:href="#C21_0_2aa553cd16" y="149.088536"/>
    </g>
    <g clip-path="url(#p02b9322a95)">
     <use style="fill:#ff7f00;" x="360.279008" xlink:href="#C21_0_2aa553cd16" y="150.665953"/>
    </g>
    <g clip-path="url(#p02b9322a95)">
     <use style="fill:#ff7f00;" x="361.04494" xlink:href="#C21_0_2aa553cd16" y="150.603923"/>
    </g>
    <g clip-path="url(#p02b9322a95)">
     <use style="fill:#ff7f00;" x="360.990682" xlink:href="#C21_0_2aa553cd16" y="150.087412"/>
    </g>
   </g>
   <g id="PathCollection_37">
    <defs>
     <path d="M 0 2 
C 0.530406 2 1.03916 1.789267 1.414214 1.414214 
C 1.789267 1.03916 2 0.530406 2 0 
C 2 -0.530406 1.789267 -1.03916 1.414214 -1.414214 
C 1.03916 -1.789267 0.530406 -2 0 -2 
C -0.530406 -2 -1.03916 -1.789267 -1.414214 -1.414214 
C -1.789267 -1.03916 -2 -0.530406 -2 0 
C -2 0.530406 -1.789267 1.03916 -1.414214 1.414214 
C -1.03916 1.789267 -0.530406 2 0 2 
z
" id="C22_0_16b75a81b3"/>
    </defs>
    <g clip-path="url(#p02b9322a95)">
     <use style="fill:#377eb8;" x="371.571576" xlink:href="#C22_0_16b75a81b3" y="146.584201"/>
    </g>
    <g clip-path="url(#p02b9322a95)">
     <use style="fill:#377eb8;" x="370.736726" xlink:href="#C22_0_16b75a81b3" y="146.572172"/>
    </g>
    <g clip-path="url(#p02b9322a95)">
     <use style="fill:#377eb8;" x="371.713962" xlink:href="#C22_0_16b75a81b3" y="146.307202"/>
    </g>
    <g clip-path="url(#p02b9322a95)">
     <use style="fill:#377eb8;" x="371.596484" xlink:href="#C22_0_16b75a81b3" y="146.170027"/>
    </g>
   </g>
   <g id="PathCollection_38">
    <defs>
     <path d="M 0 2 
C 0.530406 2 1.03916 1.789267 1.414214 1.414214 
C 1.789267 1.03916 2 0.530406 2 0 
C 2 -0.530406 1.789267 -1.03916 1.414214 -1.414214 
C 1.03916 -1.789267 0.530406 -2 0 -2 
C -0.530406 -2 -1.03916 -1.789267 -1.414214 -1.414214 
C -1.789267 -1.03916 -2 -0.530406 -2 0 
C -2 0.530406 -1.789267 1.03916 -1.414214 1.414214 
C -1.03916 1.789267 -0.530406 2 0 2 
z
" id="C23_0_2fbce69ec5"/>
    </defs>
    <g clip-path="url(#p02b9322a95)">
     <use style="fill:#ff7f00;" x="377.09083" xlink:href="#C23_0_2fbce69ec5" y="144.668391"/>
    </g>
    <g clip-path="url(#p02b9322a95)">
     <use style="fill:#ff7f00;" x="378.515117" xlink:href="#C23_0_2fbce69ec5" y="145.993463"/>
    </g>
    <g clip-path="url(#p02b9322a95)">
     <use style="fill:#ff7f00;" x="377.296034" xlink:href="#C23_0_2fbce69ec5" y="144.649503"/>
    </g>
    <g clip-path="url(#p02b9322a95)">
     <use style="fill:#ff7f00;" x="377.503125" xlink:href="#C23_0_2fbce69ec5" y="144.475042"/>
    </g>
   </g>
   <g id="PathCollection_39">
    <defs>
     <path d="M 0 2 
C 0.530406 2 1.03916 1.789267 1.414214 1.414214 
C 1.789267 1.03916 2 0.530406 2 0 
C 2 -0.530406 1.789267 -1.03916 1.414214 -1.414214 
C 1.03916 -1.789267 0.530406 -2 0 -2 
C -0.530406 -2 -1.03916 -1.789267 -1.414214 -1.414214 
C -1.789267 -1.03916 -2 -0.530406 -2 0 
C -2 0.530406 -1.789267 1.03916 -1.414214 1.414214 
C -1.03916 1.789267 -0.530406 2 0 2 
z
" id="C24_0_7370cd97de"/>
    </defs>
    <g clip-path="url(#p02b9322a95)">
     <use style="fill:#377eb8;" x="388.70025" xlink:href="#C24_0_7370cd97de" y="182.691827"/>
    </g>
    <g clip-path="url(#p02b9322a95)">
     <use style="fill:#377eb8;" x="387.455591" xlink:href="#C24_0_7370cd97de" y="183.498132"/>
    </g>
    <g clip-path="url(#p02b9322a95)">
     <use style="fill:#377eb8;" x="388.383759" xlink:href="#C24_0_7370cd97de" y="173.021783"/>
    </g>
    <g clip-path="url(#p02b9322a95)">
     <use style="fill:#377eb8;" x="388.589717" xlink:href="#C24_0_7370cd97de" y="173.112823"/>
    </g>
   </g>
   <g id="PathCollection_40">
    <defs>
     <path d="M 0 2 
C 0.530406 2 1.03916 1.789267 1.414214 1.414214 
C 1.789267 1.03916 2 0.530406 2 0 
C 2 -0.530406 1.789267 -1.03916 1.414214 -1.414214 
C 1.03916 -1.789267 0.530406 -2 0 -2 
C -0.530406 -2 -1.03916 -1.789267 -1.414214 -1.414214 
C -1.789267 -1.03916 -2 -0.530406 -2 0 
C -2 0.530406 -1.789267 1.03916 -1.414214 1.414214 
C -1.03916 1.789267 -0.530406 2 0 2 
z
" id="C25_0_2754695e4b"/>
    </defs>
    <g clip-path="url(#p02b9322a95)">
     <use style="fill:#ff7f00;" x="394.98669" xlink:href="#C25_0_2754695e4b" y="176.886843"/>
    </g>
    <g clip-path="url(#p02b9322a95)">
     <use style="fill:#ff7f00;" x="394.581515" xlink:href="#C25_0_2754695e4b" y="177.299601"/>
    </g>
    <g clip-path="url(#p02b9322a95)">
     <use style="fill:#ff7f00;" x="394.544557" xlink:href="#C25_0_2754695e4b" y="177.049479"/>
    </g>
    <g clip-path="url(#p02b9322a95)">
     <use style="fill:#ff7f00;" x="394.432097" xlink:href="#C25_0_2754695e4b" y="180.498604"/>
    </g>
   </g>
   <g id="text_29">
    <!-- * -->
    <defs>
     <path d="M 3.8125 59.125 
L 5.765625 64.546875 
L 16.3125 60.75 
L 16.3125 71.734375 
L 21.96875 71.734375 
L 21.96875 60.84375 
L 32.625 64.546875 
L 34.578125 59.125 
L 23.921875 55.671875 
L 30.515625 46.484375 
L 25.6875 43.015625 
L 19.28125 52.546875 
L 12.84375 43.015625 
L 7.859375 46.484375 
L 14.546875 55.671875 
z
" id="Helvetica-2a"/>
    </defs>
    <g style="fill:#1a1a1a;" transform="translate(95.089989 128.044767)scale(0.15 -0.15)">
     <use xlink:href="#Helvetica-2a"/>
    </g>
   </g>
   <g id="text_30">
    <!-- * -->
    <g style="fill:#1a1a1a;" transform="translate(371.39173 128.044767)scale(0.15 -0.15)">
     <use xlink:href="#Helvetica-2a"/>
    </g>
   </g>
   <g id="text_31">
    <!-- * -->
    <g style="fill:#1a1a1a;" transform="translate(250.509718 128.044767)scale(0.15 -0.15)">
     <use xlink:href="#Helvetica-2a"/>
    </g>
   </g>
   <g id="text_32">
    <!-- * -->
    <g style="fill:#1a1a1a;" transform="translate(285.047436 128.044767)scale(0.15 -0.15)">
     <use xlink:href="#Helvetica-2a"/>
    </g>
   </g>
   <g id="text_33">
    <!-- * -->
    <g style="fill:#1a1a1a;" transform="translate(319.585153 128.044767)scale(0.15 -0.15)">
     <use xlink:href="#Helvetica-2a"/>
    </g>
   </g>
   <g id="legend_1">
    <g id="PathCollection_41">
     <defs>
      <path d="M 0 1.936492 
C 0.513564 1.936492 1.006162 1.732451 1.369306 1.369306 
C 1.732451 1.006162 1.936492 0.513564 1.936492 0 
C 1.936492 -0.513564 1.732451 -1.006162 1.369306 -1.369306 
C 1.006162 -1.732451 0.513564 -1.936492 0 -1.936492 
C -0.513564 -1.936492 -1.006162 -1.732451 -1.369306 -1.369306 
C -1.732451 -1.006162 -1.936492 -0.513564 -1.936492 0 
C -1.936492 0.513564 -1.732451 1.006162 -1.369306 1.369306 
C -1.006162 1.732451 -0.513564 1.936492 0 1.936492 
z
" id="m70ff89fd33" style="stroke:#377eb8;"/>
     </defs>
     <g>
      <use style="fill:#377eb8;stroke:#377eb8;" x="363.266875" xlink:href="#m70ff89fd33" y="55.020438"/>
     </g>
    </g>
    <g id="text_34">
     <!-- WT -->
     <defs>
      <path d="M 1.609375 63.1875 
L 1.609375 71.734375 
L 59.8125 71.734375 
L 59.8125 63.1875 
L 35.640625 63.1875 
L 35.640625 0 
L 25.78125 0 
L 25.78125 63.1875 
z
" id="Helvetica-54"/>
     </defs>
     <g style="fill:#1a1a1a;" transform="translate(381.266875 57.645438)scale(0.1 -0.1)">
      <use xlink:href="#Helvetica-57"/>
      <use x="94.384766" xlink:href="#Helvetica-54"/>
     </g>
    </g>
    <g id="PathCollection_42">
     <defs>
      <path d="M 0 1.936492 
C 0.513564 1.936492 1.006162 1.732451 1.369306 1.369306 
C 1.732451 1.006162 1.936492 0.513564 1.936492 0 
C 1.936492 -0.513564 1.732451 -1.006162 1.369306 -1.369306 
C 1.006162 -1.732451 0.513564 -1.936492 0 -1.936492 
C -0.513564 -1.936492 -1.006162 -1.732451 -1.369306 -1.369306 
C -1.732451 -1.006162 -1.936492 -0.513564 -1.936492 0 
C -1.936492 0.513564 -1.732451 1.006162 -1.369306 1.369306 
C -1.006162 1.732451 -0.513564 1.936492 0 1.936492 
z
" id="m100d5c84f4" style="stroke:#ff7f00;"/>
     </defs>
     <g>
      <use style="fill:#ff7f00;stroke:#ff7f00;" x="363.266875" xlink:href="#m100d5c84f4" y="69.473563"/>
     </g>
    </g>
    <g id="text_35">
     <!-- CcpA -->
     <defs>
      <path d="M 1.46875 0 
L 28.46875 71.734375 
L 39.453125 71.734375 
L 65.484375 0 
L 54.828125 0 
L 47.5625 21.484375 
L 19.1875 21.484375 
L 11.421875 0 
z
M 21.96875 29.390625 
L 44.4375 29.390625 
L 33.546875 61.078125 
z
M 33.5 71.734375 
z
" id="Helvetica-41"/>
     </defs>
     <g style="fill:#1a1a1a;" transform="translate(381.266875 72.098563)scale(0.1 -0.1)">
      <use xlink:href="#Helvetica-43"/>
      <use x="72.216797" xlink:href="#Helvetica-63"/>
      <use x="122.216797" xlink:href="#Helvetica-70"/>
      <use x="177.832031" xlink:href="#Helvetica-41"/>
     </g>
    </g>
   </g>
  </g>
 </g>
 <defs>
  <clipPath id="p02b9322a95">
   <rect height="266.112" width="357.12" x="57.6" y="41.472"/>
  </clipPath>
 </defs>
</svg>
