<?xml version="1.0" encoding="utf-8" standalone="no"?>
<!DOCTYPE svg PUBLIC "-//W3C//DTD SVG 1.1//EN"
  "http://www.w3.org/Graphics/SVG/1.1/DTD/svg11.dtd">
<!-- Created with matplotlib (http://matplotlib.org/) -->
<svg height="345.6pt" version="1.1" viewBox="0 0 460.8 345.6" width="460.8pt" xmlns="http://www.w3.org/2000/svg" xmlns:xlink="http://www.w3.org/1999/xlink">
 <defs>
  <style type="text/css">
*{stroke-linecap:butt;stroke-linejoin:round;}
  </style>
 </defs>
 <g id="figure_1">
  <g id="patch_1">
   <path d="M 0 345.6 
L 460.8 345.6 
L 460.8 0 
L 0 0 
z
" style="fill:#ffffff;"/>
  </g>
  <g id="axes_1">
   <g id="patch_2">
    <path d="M 57.6 307.584 
L 414.72 307.584 
L 414.72 41.472 
L 57.6 41.472 
z
" style="fill:#ffffff;"/>
   </g>
   <g id="PathCollection_1"/>
   <g id="PathCollection_2"/>
   <g id="patch_3">
    <path clip-path="url(#pf1643d3a0f)" d="M 73.832727 294.362222 
L 80.740271 294.362222 
L 80.740271 98.208646 
L 73.832727 98.208646 
z
" style="fill:#3274a1;opacity:0.5;"/>
   </g>
   <g id="patch_4">
    <path clip-path="url(#pf1643d3a0f)" d="M 91.101586 294.362222 
L 98.00913 294.362222 
L 98.00913 232.348396 
L 91.101586 232.348396 
z
" style="fill:#3274a1;opacity:0.5;"/>
   </g>
   <g id="patch_5">
    <path clip-path="url(#pf1643d3a0f)" d="M 108.370445 294.362222 
L 115.277988 294.362222 
L 115.277988 251.726608 
L 108.370445 251.726608 
z
" style="fill:#3274a1;opacity:0.5;"/>
   </g>
   <g id="patch_6">
    <path clip-path="url(#pf1643d3a0f)" d="M 125.639304 294.362222 
L 132.546847 294.362222 
L 132.546847 127.45133 
L 125.639304 127.45133 
z
" style="fill:#3274a1;opacity:0.5;"/>
   </g>
   <g id="patch_7">
    <path clip-path="url(#pf1643d3a0f)" d="M 142.908162 294.362222 
L 149.815706 294.362222 
L 149.815706 153.158793 
L 142.908162 153.158793 
z
" style="fill:#3274a1;opacity:0.5;"/>
   </g>
   <g id="patch_8">
    <path clip-path="url(#pf1643d3a0f)" d="M 160.177021 294.362222 
L 167.084565 294.362222 
L 167.084565 249.339933 
L 160.177021 249.339933 
z
" style="fill:#3274a1;opacity:0.5;"/>
   </g>
   <g id="patch_9">
    <path clip-path="url(#pf1643d3a0f)" d="M 177.44588 294.362222 
L 184.353424 294.362222 
L 184.353424 156.289191 
L 177.44588 156.289191 
z
" style="fill:#3274a1;opacity:0.5;"/>
   </g>
   <g id="patch_10">
    <path clip-path="url(#pf1643d3a0f)" d="M 194.714739 294.362222 
L 201.622282 294.362222 
L 201.622282 243.953011 
L 194.714739 243.953011 
z
" style="fill:#3274a1;opacity:0.5;"/>
   </g>
   <g id="patch_11">
    <path clip-path="url(#pf1643d3a0f)" d="M 211.983598 294.362222 
L 218.891141 294.362222 
L 218.891141 260.575222 
L 211.983598 260.575222 
z
" style="fill:#3274a1;opacity:0.5;"/>
   </g>
   <g id="patch_12">
    <path clip-path="url(#pf1643d3a0f)" d="M 229.252456 294.362222 
L 236.16 294.362222 
L 236.16 254.936449 
L 229.252456 254.936449 
z
" style="fill:#3274a1;opacity:0.5;"/>
   </g>
   <g id="patch_13">
    <path clip-path="url(#pf1643d3a0f)" d="M 246.521315 294.362222 
L 253.428859 294.362222 
L 253.428859 196.308253 
L 246.521315 196.308253 
z
" style="fill:#3274a1;opacity:0.5;"/>
   </g>
   <g id="patch_14">
    <path clip-path="url(#pf1643d3a0f)" d="M 263.790174 294.362222 
L 270.697718 294.362222 
L 270.697718 149.244105 
L 263.790174 149.244105 
z
" style="fill:#3274a1;opacity:0.5;"/>
   </g>
   <g id="patch_15">
    <path clip-path="url(#pf1643d3a0f)" d="M 281.059033 294.362222 
L 287.966576 294.362222 
L 287.966576 265.264058 
L 281.059033 265.264058 
z
" style="fill:#3274a1;opacity:0.5;"/>
   </g>
   <g id="patch_16">
    <path clip-path="url(#pf1643d3a0f)" d="M 298.327892 294.362222 
L 305.235435 294.362222 
L 305.235435 241.742971 
L 298.327892 241.742971 
z
" style="fill:#3274a1;opacity:0.5;"/>
   </g>
   <g id="patch_17">
    <path clip-path="url(#pf1643d3a0f)" d="M 315.59675 294.362222 
L 322.504294 294.362222 
L 322.504294 256.608135 
L 315.59675 256.608135 
z
" style="fill:#3274a1;opacity:0.5;"/>
   </g>
   <g id="patch_18">
    <path clip-path="url(#pf1643d3a0f)" d="M 332.865609 294.362222 
L 339.773153 294.362222 
L 339.773153 260.129833 
L 332.865609 260.129833 
z
" style="fill:#3274a1;opacity:0.5;"/>
   </g>
   <g id="patch_19">
    <path clip-path="url(#pf1643d3a0f)" d="M 350.134468 294.362222 
L 357.042012 294.362222 
L 357.042012 283.822483 
L 350.134468 283.822483 
z
" style="fill:#3274a1;opacity:0.5;"/>
   </g>
   <g id="patch_20">
    <path clip-path="url(#pf1643d3a0f)" d="M 367.403327 294.362222 
L 374.31087 294.362222 
L 374.31087 253.999189 
L 367.403327 253.999189 
z
" style="fill:#3274a1;opacity:0.5;"/>
   </g>
   <g id="patch_21">
    <path clip-path="url(#pf1643d3a0f)" d="M 384.672186 294.362222 
L 391.579729 294.362222 
L 391.579729 223.895308 
L 384.672186 223.895308 
z
" style="fill:#3274a1;opacity:0.5;"/>
   </g>
   <g id="patch_22">
    <path clip-path="url(#pf1643d3a0f)" d="M 80.740271 294.362222 
L 87.647814 294.362222 
L 87.647814 112.052375 
L 80.740271 112.052375 
z
" style="fill:#e1812c;opacity:0.5;"/>
   </g>
   <g id="patch_23">
    <path clip-path="url(#pf1643d3a0f)" d="M 98.00913 294.362222 
L 104.916673 294.362222 
L 104.916673 294.362222 
L 98.00913 294.362222 
z
" style="fill:#e1812c;opacity:0.5;"/>
   </g>
   <g id="patch_24">
    <path clip-path="url(#pf1643d3a0f)" d="M 115.277988 294.362222 
L 122.185532 294.362222 
L 122.185532 262.034102 
L 115.277988 262.034102 
z
" style="fill:#e1812c;opacity:0.5;"/>
   </g>
   <g id="patch_25">
    <path clip-path="url(#pf1643d3a0f)" d="M 132.546847 294.362222 
L 139.454391 294.362222 
L 139.454391 111.751927 
L 132.546847 111.751927 
z
" style="fill:#e1812c;opacity:0.5;"/>
   </g>
   <g id="patch_26">
    <path clip-path="url(#pf1643d3a0f)" d="M 149.815706 294.362222 
L 156.72325 294.362222 
L 156.72325 212.660103 
L 149.815706 212.660103 
z
" style="fill:#e1812c;opacity:0.5;"/>
   </g>
   <g id="patch_27">
    <path clip-path="url(#pf1643d3a0f)" d="M 167.084565 294.362222 
L 173.992108 294.362222 
L 173.992108 285.769939 
L 167.084565 285.769939 
z
" style="fill:#e1812c;opacity:0.5;"/>
   </g>
   <g id="patch_28">
    <path clip-path="url(#pf1643d3a0f)" d="M 184.353424 294.362222 
L 191.260967 294.362222 
L 191.260967 165.09259 
L 184.353424 165.09259 
z
" style="fill:#e1812c;opacity:0.5;"/>
   </g>
   <g id="patch_29">
    <path clip-path="url(#pf1643d3a0f)" d="M 201.622282 294.362222 
L 208.529826 294.362222 
L 208.529826 239.296967 
L 201.622282 239.296967 
z
" style="fill:#e1812c;opacity:0.5;"/>
   </g>
   <g id="patch_30">
    <path clip-path="url(#pf1643d3a0f)" d="M 218.891141 294.362222 
L 225.798685 294.362222 
L 225.798685 263.892311 
L 218.891141 263.892311 
z
" style="fill:#e1812c;opacity:0.5;"/>
   </g>
   <g id="patch_31">
    <path clip-path="url(#pf1643d3a0f)" d="M 236.16 294.362222 
L 243.067544 294.362222 
L 243.067544 265.671415 
L 236.16 265.671415 
z
" style="fill:#e1812c;opacity:0.5;"/>
   </g>
   <g id="patch_32">
    <path clip-path="url(#pf1643d3a0f)" d="M 253.428859 294.362222 
L 260.336402 294.362222 
L 260.336402 220.863706 
L 253.428859 220.863706 
z
" style="fill:#e1812c;opacity:0.5;"/>
   </g>
   <g id="patch_33">
    <path clip-path="url(#pf1643d3a0f)" d="M 270.697718 294.362222 
L 277.605261 294.362222 
L 277.605261 176.511613 
L 270.697718 176.511613 
z
" style="fill:#e1812c;opacity:0.5;"/>
   </g>
   <g id="patch_34">
    <path clip-path="url(#pf1643d3a0f)" d="M 287.966576 294.362222 
L 294.87412 294.362222 
L 294.87412 270.918466 
L 287.966576 270.918466 
z
" style="fill:#e1812c;opacity:0.5;"/>
   </g>
   <g id="patch_35">
    <path clip-path="url(#pf1643d3a0f)" d="M 305.235435 294.362222 
L 312.142979 294.362222 
L 312.142979 240.979218 
L 305.235435 240.979218 
z
" style="fill:#e1812c;opacity:0.5;"/>
   </g>
   <g id="patch_36">
    <path clip-path="url(#pf1643d3a0f)" d="M 322.504294 294.362222 
L 329.411838 294.362222 
L 329.411838 266.10345 
L 322.504294 266.10345 
z
" style="fill:#e1812c;opacity:0.5;"/>
   </g>
   <g id="patch_37">
    <path clip-path="url(#pf1643d3a0f)" d="M 339.773153 294.362222 
L 346.680696 294.362222 
L 346.680696 283.080873 
L 339.773153 283.080873 
z
" style="fill:#e1812c;opacity:0.5;"/>
   </g>
   <g id="patch_38">
    <path clip-path="url(#pf1643d3a0f)" d="M 357.042012 294.362222 
L 363.949555 294.362222 
L 363.949555 284.550149 
L 357.042012 284.550149 
z
" style="fill:#e1812c;opacity:0.5;"/>
   </g>
   <g id="patch_39">
    <path clip-path="url(#pf1643d3a0f)" d="M 374.31087 294.362222 
L 381.218414 294.362222 
L 381.218414 252.773229 
L 374.31087 252.773229 
z
" style="fill:#e1812c;opacity:0.5;"/>
   </g>
   <g id="patch_40">
    <path clip-path="url(#pf1643d3a0f)" d="M 391.579729 294.362222 
L 398.487273 294.362222 
L 398.487273 233.686084 
L 391.579729 233.686084 
z
" style="fill:#e1812c;opacity:0.5;"/>
   </g>
   <g id="matplotlib.axis_1">
    <g id="xtick_1">
     <g id="line2d_1">
      <defs>
       <path d="M 0 0 
L 0 3.5 
" id="mea3ae05e10" style="stroke:#1a1a1a;stroke-width:0.8;"/>
      </defs>
      <g>
       <use style="fill:#1a1a1a;stroke:#1a1a1a;stroke-width:0.8;" x="80.740271" xlink:href="#mea3ae05e10" y="307.584"/>
      </g>
     </g>
     <g id="text_1">
      <!-- ala -->
      <defs>
       <path d="M 4 13.71875 
Q 4 21 8.546875 25 
Q 13.09375 29 20.453125 29.9375 
L 34.46875 31.6875 
Q 37.5 32.078125 38.53125 34.234375 
Q 39.109375 35.40625 39.109375 37.59375 
Q 39.109375 42.09375 35.90625 44.109375 
Q 32.71875 46.140625 26.765625 46.140625 
Q 19.875 46.140625 17 42.4375 
Q 15.375 40.375 14.890625 36.328125 
L 6.6875 36.328125 
Q 6.9375 46 12.96875 49.78125 
Q 19 53.5625 26.953125 53.5625 
Q 36.1875 53.5625 41.9375 50.046875 
Q 47.65625 46.53125 47.65625 39.109375 
L 47.65625 8.984375 
Q 47.65625 7.625 48.21875 6.78125 
Q 48.78125 5.953125 50.59375 5.953125 
Q 51.171875 5.953125 51.90625 6.03125 
Q 52.640625 6.109375 53.46875 6.25 
L 53.46875 -0.25 
Q 51.421875 -0.828125 50.34375 -0.96875 
Q 49.265625 -1.125 47.40625 -1.125 
Q 42.875 -1.125 40.828125 2.09375 
Q 39.75 3.8125 39.3125 6.9375 
Q 36.625 3.421875 31.59375 0.828125 
Q 26.5625 -1.765625 20.515625 -1.765625 
Q 13.234375 -1.765625 8.609375 2.65625 
Q 4 7.078125 4 13.71875 
z
M 13.1875 13.921875 
Q 13.1875 10.109375 15.96875 7.90625 
Q 18.75 5.71875 22.5625 5.71875 
Q 27.203125 5.71875 31.546875 7.859375 
Q 38.875 11.421875 38.875 19.53125 
L 38.875 26.609375 
Q 37.25 25.59375 34.703125 24.90625 
Q 32.171875 24.21875 29.734375 23.921875 
L 24.421875 23.25 
Q 19.625 22.609375 17.234375 21.234375 
Q 13.1875 18.953125 13.1875 13.921875 
z
M 27.203125 53.5625 
z
" id="Helvetica-61"/>
       <path d="M 6.6875 0 
L 6.6875 71.734375 
L 15.484375 71.734375 
L 15.484375 0 
z
" id="Helvetica-6c"/>
      </defs>
      <g style="fill:#1a1a1a;" transform="translate(78.655896 327.92775)rotate(-90)scale(0.1 -0.1)">
       <use xlink:href="#Helvetica-61"/>
       <use x="55.615234" xlink:href="#Helvetica-6c"/>
       <use x="77.832031" xlink:href="#Helvetica-61"/>
      </g>
     </g>
    </g>
    <g id="xtick_2">
     <g id="line2d_2">
      <g>
       <use style="fill:#1a1a1a;stroke:#1a1a1a;stroke-width:0.8;" x="98.00913" xlink:href="#mea3ae05e10" y="307.584"/>
      </g>
     </g>
     <g id="text_2">
      <!-- arg -->
      <defs>
       <path d="M 6.6875 0 
L 6.6875 52.296875 
L 15.046875 52.296875 
L 15.046875 43.265625 
Q 16.0625 45.90625 20.0625 49.6875 
Q 24.078125 53.46875 29.296875 53.46875 
Q 29.546875 53.46875 30.125 53.421875 
Q 30.71875 53.375 32.125 53.21875 
L 32.125 43.953125 
Q 31.34375 44.09375 30.6875 44.140625 
Q 30.03125 44.1875 29.25 44.1875 
Q 22.609375 44.1875 19.046875 39.90625 
Q 15.484375 35.640625 15.484375 30.078125 
L 15.484375 0 
z
" id="Helvetica-72"/>
       <path d="M 2.984375 25.34375 
Q 2.984375 38.484375 9.40625 45.84375 
Q 15.828125 53.21875 24.90625 53.21875 
Q 31.0625 53.21875 35.640625 50.203125 
Q 38.140625 48.484375 40.71875 45.21875 
L 40.71875 51.8125 
L 48.828125 51.8125 
L 48.828125 4.25 
Q 48.828125 -5.71875 45.90625 -11.46875 
Q 40.4375 -22.125 25.25 -22.125 
Q 16.796875 -22.125 11.03125 -18.328125 
Q 5.28125 -14.546875 4.59375 -6.5 
L 13.53125 -6.5 
Q 14.15625 -10.015625 16.0625 -11.921875 
Q 19.046875 -14.84375 25.4375 -14.84375 
Q 35.546875 -14.84375 38.671875 -7.71875 
Q 40.375 -3.8125 40.375 5.71875 
Q 40.375 6.5 40.375 7.28125 
Q 37.75 3.265625 34.03125 1.3125 
Q 30.328125 -0.640625 24.21875 -0.640625 
Q 15.71875 -0.640625 9.34375 5.390625 
Q 2.984375 11.421875 2.984375 25.34375 
z
M 12.015625 24.609375 
Q 12.015625 15.765625 15.59375 11.15625 
Q 19.1875 6.546875 25.25 6.546875 
Q 34.71875 6.546875 38.578125 15.09375 
Q 40.71875 19.921875 40.71875 26.375 
Q 40.71875 36.078125 36.71875 40.765625 
Q 32.71875 45.453125 26.515625 45.453125 
Q 17.234375 45.453125 13.8125 36.765625 
Q 12.015625 32.125 12.015625 24.609375 
z
M 25.921875 53.5625 
z
" id="Helvetica-67"/>
      </defs>
      <g style="fill:#1a1a1a;" transform="translate(95.79663 329.035562)rotate(-90)scale(0.1 -0.1)">
       <use xlink:href="#Helvetica-61"/>
       <use x="55.615234" xlink:href="#Helvetica-72"/>
       <use x="88.916016" xlink:href="#Helvetica-67"/>
      </g>
     </g>
    </g>
    <g id="xtick_3">
     <g id="line2d_3">
      <g>
       <use style="fill:#1a1a1a;stroke:#1a1a1a;stroke-width:0.8;" x="115.277988" xlink:href="#mea3ae05e10" y="307.584"/>
      </g>
     </g>
     <g id="text_3">
      <!-- asn -->
      <defs>
       <path d="M 3.21875 16.40625 
L 11.671875 16.40625 
Q 12.0625 12.015625 13.875 9.671875 
Q 17.1875 5.421875 25.390625 5.421875 
Q 30.28125 5.421875 33.984375 7.546875 
Q 37.703125 9.671875 37.703125 14.109375 
Q 37.703125 17.484375 34.71875 19.234375 
Q 32.8125 20.3125 27.203125 21.734375 
L 20.21875 23.484375 
Q 13.53125 25.140625 10.359375 27.203125 
Q 4.6875 30.765625 4.6875 37.0625 
Q 4.6875 44.484375 10.03125 49.0625 
Q 15.375 53.65625 24.421875 53.65625 
Q 36.234375 53.65625 41.453125 46.734375 
Q 44.625 42.484375 44.625 37.546875 
Q 44.625 37.40625 44.625 37.25 
L 36.328125 37.25 
Q 36.078125 40.234375 34.234375 42.671875 
Q 31.203125 46.140625 23.734375 46.140625 
Q 18.75 46.140625 16.1875 44.234375 
Q 13.625 42.328125 13.625 39.203125 
Q 13.625 35.796875 17 33.734375 
Q 18.953125 32.515625 22.75 31.59375 
L 28.5625 30.171875 
Q 38.03125 27.875 41.265625 25.734375 
Q 46.390625 22.359375 46.390625 15.140625 
Q 46.390625 8.15625 41.09375 3.078125 
Q 35.796875 -2 24.953125 -2 
Q 13.28125 -2 8.421875 3.296875 
Q 3.5625 8.59375 3.21875 16.40625 
z
M 24.65625 53.5625 
z
" id="Helvetica-73"/>
       <path d="M 6.453125 0 
L 6.453125 52.296875 
L 14.796875 52.296875 
L 14.796875 44.875 
Q 18.5 49.46875 22.65625 51.46875 
Q 26.8125 53.46875 31.890625 53.46875 
Q 43.015625 53.46875 46.921875 45.703125 
Q 49.078125 41.453125 49.078125 33.546875 
L 49.078125 0 
L 40.140625 0 
L 40.140625 32.953125 
Q 40.140625 37.75 38.71875 40.671875 
Q 36.375 45.5625 30.21875 45.5625 
Q 27.09375 45.5625 25.09375 44.921875 
Q 21.484375 43.84375 18.75 40.625 
Q 16.546875 38.03125 15.890625 35.265625 
Q 15.234375 32.515625 15.234375 27.390625 
L 15.234375 0 
z
M 27.09375 53.5625 
z
" id="Helvetica-6e"/>
      </defs>
      <g style="fill:#1a1a1a;" transform="translate(113.193613 330.705875)rotate(-90)scale(0.1 -0.1)">
       <use xlink:href="#Helvetica-61"/>
       <use x="55.615234" xlink:href="#Helvetica-73"/>
       <use x="105.615234" xlink:href="#Helvetica-6e"/>
      </g>
     </g>
    </g>
    <g id="xtick_4">
     <g id="line2d_4">
      <g>
       <use style="fill:#1a1a1a;stroke:#1a1a1a;stroke-width:0.8;" x="132.546847" xlink:href="#mea3ae05e10" y="307.584"/>
      </g>
     </g>
     <g id="text_4">
      <!-- asp -->
      <defs>
       <path d="M 5.765625 -20.84375 
L 5.765625 52.046875 
L 14.3125 52.046875 
L 14.3125 45.125 
Q 16.9375 48.6875 20.0625 50.640625 
Q 24.515625 53.5625 30.515625 53.5625 
Q 39.40625 53.5625 45.609375 46.75 
Q 51.8125 39.9375 51.8125 27.296875 
Q 51.8125 10.203125 42.875 2.875 
Q 37.203125 -1.765625 29.6875 -1.765625 
Q 23.78125 -1.765625 19.78125 0.828125 
Q 17.4375 2.296875 14.546875 5.859375 
L 14.546875 -20.84375 
z
M 14.203125 24.3125 
Q 14.203125 18.265625 16.015625 14.015625 
Q 19.4375 5.90625 28.515625 5.90625 
Q 34.671875 5.90625 38.75 11.0625 
Q 42.828125 16.21875 42.828125 26.46875 
Q 42.828125 32.71875 41.015625 37.203125 
Q 37.59375 45.84375 28.515625 45.84375 
Q 19.390625 45.84375 16.015625 36.71875 
Q 14.203125 31.84375 14.203125 24.3125 
z
" id="Helvetica-70"/>
      </defs>
      <g style="fill:#1a1a1a;" transform="translate(130.462472 330.705875)rotate(-90)scale(0.1 -0.1)">
       <use xlink:href="#Helvetica-61"/>
       <use x="55.615234" xlink:href="#Helvetica-73"/>
       <use x="105.615234" xlink:href="#Helvetica-70"/>
      </g>
     </g>
    </g>
    <g id="xtick_5">
     <g id="line2d_5">
      <g>
       <use style="fill:#1a1a1a;stroke:#1a1a1a;stroke-width:0.8;" x="149.815706" xlink:href="#mea3ae05e10" y="307.584"/>
      </g>
     </g>
     <g id="text_5">
      <!-- cys -->
      <defs>
       <path d="M 2.875 24.703125 
Q 2.875 38.484375 9.5625 46.140625 
Q 16.265625 53.8125 26.609375 53.8125 
Q 35.453125 53.8125 40.984375 49.515625 
Q 46.53125 45.21875 47.65625 34.71875 
L 39.109375 34.71875 
Q 38.328125 39.546875 35.546875 42.75 
Q 32.765625 45.953125 26.609375 45.953125 
Q 18.21875 45.953125 14.59375 37.75 
Q 12.25 32.421875 12.25 24.609375 
Q 12.25 16.75 15.5625 11.375 
Q 18.890625 6 26.03125 6 
Q 31.5 6 34.6875 9.34375 
Q 37.890625 12.703125 39.109375 18.5 
L 47.65625 18.5 
Q 46.1875 8.109375 40.328125 3.296875 
Q 34.46875 -1.515625 25.34375 -1.515625 
Q 15.09375 -1.515625 8.984375 5.984375 
Q 2.875 13.484375 2.875 24.703125 
z
M 25.25 53.5625 
z
" id="Helvetica-63"/>
       <path d="M 1.03125 52.296875 
L 10.984375 52.296875 
L 25 9.71875 
L 39.109375 52.296875 
L 48.828125 52.296875 
Q 46.96875 47.265625 40.578125 29.34375 
Q 35.796875 15.875 32.5625 7.375 
Q 24.953125 -12.640625 21.828125 -17.03125 
Q 18.703125 -21.4375 11.078125 -21.4375 
Q 9.234375 -21.4375 8.234375 -21.28125 
Q 7.234375 -21.140625 5.765625 -20.75 
L 5.765625 -12.75 
Q 8.0625 -13.375 9.078125 -13.515625 
Q 10.109375 -13.671875 10.890625 -13.671875 
Q 13.328125 -13.671875 14.46875 -12.859375 
Q 15.625 -12.0625 16.40625 -10.890625 
Q 16.65625 -10.5 18.15625 -6.875 
Q 19.671875 -3.265625 20.359375 -1.515625 
z
M 24.953125 53.5625 
z
" id="Helvetica-79"/>
      </defs>
      <g style="fill:#1a1a1a;" transform="translate(147.671956 329.584)rotate(-90)scale(0.1 -0.1)">
       <use xlink:href="#Helvetica-63"/>
       <use x="50" xlink:href="#Helvetica-79"/>
       <use x="100" xlink:href="#Helvetica-73"/>
      </g>
     </g>
    </g>
    <g id="xtick_6">
     <g id="line2d_6">
      <g>
       <use style="fill:#1a1a1a;stroke:#1a1a1a;stroke-width:0.8;" x="167.084565" xlink:href="#mea3ae05e10" y="307.584"/>
      </g>
     </g>
     <g id="text_6">
      <!-- gln -->
      <g style="fill:#1a1a1a;" transform="translate(164.872065 327.92775)rotate(-90)scale(0.1 -0.1)">
       <use xlink:href="#Helvetica-67"/>
       <use x="55.615234" xlink:href="#Helvetica-6c"/>
       <use x="77.832031" xlink:href="#Helvetica-6e"/>
      </g>
     </g>
    </g>
    <g id="xtick_7">
     <g id="line2d_7">
      <g>
       <use style="fill:#1a1a1a;stroke:#1a1a1a;stroke-width:0.8;" x="184.353424" xlink:href="#mea3ae05e10" y="307.584"/>
      </g>
     </g>
     <g id="text_7">
      <!-- glu -->
      <defs>
       <path d="M 6.25 16.75 
L 6.25 52.296875 
L 15.234375 52.296875 
L 15.234375 17.578125 
Q 15.234375 13.578125 16.5 11.03125 
Q 18.84375 6.34375 25.25 6.34375 
Q 34.421875 6.34375 37.75 14.546875 
Q 39.546875 18.953125 39.546875 26.609375 
L 39.546875 52.296875 
L 48.34375 52.296875 
L 48.34375 0 
L 40.046875 0 
L 40.140625 7.71875 
Q 38.421875 4.734375 35.890625 2.6875 
Q 30.859375 -1.421875 23.6875 -1.421875 
Q 12.5 -1.421875 8.453125 6.0625 
Q 6.25 10.0625 6.25 16.75 
z
M 27.296875 53.5625 
z
" id="Helvetica-75"/>
      </defs>
      <g style="fill:#1a1a1a;" transform="translate(182.140924 327.92775)rotate(-90)scale(0.1 -0.1)">
       <use xlink:href="#Helvetica-67"/>
       <use x="55.615234" xlink:href="#Helvetica-6c"/>
       <use x="77.832031" xlink:href="#Helvetica-75"/>
      </g>
     </g>
    </g>
    <g id="xtick_8">
     <g id="line2d_8">
      <g>
       <use style="fill:#1a1a1a;stroke:#1a1a1a;stroke-width:0.8;" x="201.622282" xlink:href="#mea3ae05e10" y="307.584"/>
      </g>
     </g>
     <g id="text_8">
      <!-- gly -->
      <g style="fill:#1a1a1a;" transform="translate(199.409782 327.366812)rotate(-90)scale(0.1 -0.1)">
       <use xlink:href="#Helvetica-67"/>
       <use x="55.615234" xlink:href="#Helvetica-6c"/>
       <use x="77.832031" xlink:href="#Helvetica-79"/>
      </g>
     </g>
    </g>
    <g id="xtick_9">
     <g id="line2d_9">
      <g>
       <use style="fill:#1a1a1a;stroke:#1a1a1a;stroke-width:0.8;" x="218.891141" xlink:href="#mea3ae05e10" y="307.584"/>
      </g>
     </g>
     <g id="text_9">
      <!-- his -->
      <defs>
       <path d="M 6.453125 0 
L 6.453125 71.96875 
L 15.234375 71.96875 
L 15.234375 45.21875 
Q 18.359375 49.171875 20.84375 50.78125 
Q 25.09375 53.5625 31.453125 53.5625 
Q 42.828125 53.5625 46.875 45.609375 
Q 49.078125 41.265625 49.078125 33.546875 
L 49.078125 0 
L 40.046875 0 
L 40.046875 32.953125 
Q 40.046875 38.71875 38.578125 41.40625 
Q 36.1875 45.703125 29.59375 45.703125 
Q 24.125 45.703125 19.671875 41.9375 
Q 15.234375 38.1875 15.234375 27.734375 
L 15.234375 0 
z
" id="Helvetica-68"/>
       <path d="M 6.453125 0 
L 6.453125 52.046875 
L 15.375 52.046875 
L 15.375 0 
z
M 6.453125 61.765625 
L 6.453125 71.734375 
L 15.375 71.734375 
L 15.375 61.765625 
z
" id="Helvetica-69"/>
      </defs>
      <g style="fill:#1a1a1a;" transform="translate(216.806766 327.366812)rotate(-90)scale(0.1 -0.1)">
       <use xlink:href="#Helvetica-68"/>
       <use x="55.615234" xlink:href="#Helvetica-69"/>
       <use x="77.832031" xlink:href="#Helvetica-73"/>
      </g>
     </g>
    </g>
    <g id="xtick_10">
     <g id="line2d_10">
      <g>
       <use style="fill:#1a1a1a;stroke:#1a1a1a;stroke-width:0.8;" x="236.16" xlink:href="#mea3ae05e10" y="307.584"/>
      </g>
     </g>
     <g id="text_10">
      <!-- ile -->
      <defs>
       <path d="M 3.515625 25.140625 
Q 3.515625 37.75 10.34375 45.609375 
Q 17.1875 53.46875 28.21875 53.46875 
Q 33.796875 53.46875 39.015625 50.859375 
Q 44.234375 48.25 46.96875 44.09375 
Q 49.609375 40.140625 50.484375 34.859375 
Q 51.265625 31.25 51.265625 23.34375 
L 12.9375 23.34375 
Q 13.1875 15.375 16.703125 10.5625 
Q 20.21875 5.765625 27.59375 5.765625 
Q 34.46875 5.765625 38.578125 10.296875 
Q 40.921875 12.9375 41.890625 16.40625 
L 50.53125 16.40625 
Q 50.203125 13.53125 48.265625 9.984375 
Q 46.34375 6.453125 43.953125 4.203125 
Q 39.9375 0.296875 34.03125 -1.078125 
Q 30.859375 -1.859375 26.859375 -1.859375 
Q 17.09375 -1.859375 10.296875 5.25 
Q 3.515625 12.359375 3.515625 25.140625 
z
M 13.1875 30.328125 
L 42.234375 30.328125 
Q 41.703125 36.03125 39.75 39.453125 
Q 36.140625 45.796875 27.6875 45.796875 
Q 21.625 45.796875 17.515625 41.421875 
Q 13.421875 37.0625 13.1875 30.328125 
z
M 27.390625 53.5625 
z
" id="Helvetica-65"/>
      </defs>
      <g style="fill:#1a1a1a;" transform="translate(234.075625 324.588687)rotate(-90)scale(0.1 -0.1)">
       <use xlink:href="#Helvetica-69"/>
       <use x="22.216797" xlink:href="#Helvetica-6c"/>
       <use x="44.433594" xlink:href="#Helvetica-65"/>
      </g>
     </g>
    </g>
    <g id="xtick_11">
     <g id="line2d_11">
      <g>
       <use style="fill:#1a1a1a;stroke:#1a1a1a;stroke-width:0.8;" x="253.428859" xlink:href="#mea3ae05e10" y="307.584"/>
      </g>
     </g>
     <g id="text_11">
      <!-- leu -->
      <g style="fill:#1a1a1a;" transform="translate(251.344484 327.92775)rotate(-90)scale(0.1 -0.1)">
       <use xlink:href="#Helvetica-6c"/>
       <use x="22.216797" xlink:href="#Helvetica-65"/>
       <use x="77.832031" xlink:href="#Helvetica-75"/>
      </g>
     </g>
    </g>
    <g id="xtick_12">
     <g id="line2d_12">
      <g>
       <use style="fill:#1a1a1a;stroke:#1a1a1a;stroke-width:0.8;" x="270.697718" xlink:href="#mea3ae05e10" y="307.584"/>
      </g>
     </g>
     <g id="text_12">
      <!-- lys -->
      <g style="fill:#1a1a1a;" transform="translate(268.553968 326.805875)rotate(-90)scale(0.1 -0.1)">
       <use xlink:href="#Helvetica-6c"/>
       <use x="22.216797" xlink:href="#Helvetica-79"/>
       <use x="72.216797" xlink:href="#Helvetica-73"/>
      </g>
     </g>
    </g>
    <g id="xtick_13">
     <g id="line2d_13">
      <g>
       <use style="fill:#1a1a1a;stroke:#1a1a1a;stroke-width:0.8;" x="287.966576" xlink:href="#mea3ae05e10" y="307.584"/>
      </g>
     </g>
     <g id="text_13">
      <!-- met -->
      <defs>
       <path d="M 6.453125 0 
L 6.453125 52.296875 
L 15.140625 52.296875 
L 15.140625 44.875 
Q 18.265625 48.734375 20.796875 50.484375 
Q 25.140625 53.46875 30.671875 53.46875 
Q 36.921875 53.46875 40.71875 50.390625 
Q 42.875 48.640625 44.625 45.21875 
Q 47.5625 49.421875 51.515625 51.4375 
Q 55.46875 53.46875 60.40625 53.46875 
Q 70.953125 53.46875 74.75 45.84375 
Q 76.8125 41.75 76.8125 34.8125 
L 76.8125 0 
L 67.671875 0 
L 67.671875 36.328125 
Q 67.671875 41.546875 65.0625 43.5 
Q 62.453125 45.453125 58.6875 45.453125 
Q 53.515625 45.453125 49.78125 41.984375 
Q 46.046875 38.53125 46.046875 30.421875 
L 46.046875 0 
L 37.109375 0 
L 37.109375 34.125 
Q 37.109375 39.453125 35.84375 41.890625 
Q 33.84375 45.5625 28.375 45.5625 
Q 23.390625 45.5625 19.3125 41.703125 
Q 15.234375 37.84375 15.234375 27.734375 
L 15.234375 0 
z
" id="Helvetica-6d"/>
       <path d="M 1.125 45.125 
L 1.125 52.296875 
L 8.203125 52.296875 
L 8.203125 66.890625 
L 17.09375 66.890625 
L 17.09375 52.296875 
L 25.4375 52.296875 
L 25.4375 45.125 
L 17.09375 45.125 
L 17.09375 10.984375 
Q 17.09375 8.25 18.953125 7.328125 
Q 19.96875 6.78125 22.359375 6.78125 
Q 23 6.78125 23.734375 6.8125 
Q 24.46875 6.84375 25.4375 6.9375 
L 25.4375 0 
Q 23.921875 -0.4375 22.28125 -0.625 
Q 20.65625 -0.828125 18.75 -0.828125 
Q 12.59375 -0.828125 10.390625 2.3125 
Q 8.203125 5.46875 8.203125 10.5 
L 8.203125 45.125 
z
" id="Helvetica-74"/>
      </defs>
      <g style="fill:#1a1a1a;" transform="translate(285.882201 331.25275)rotate(-90)scale(0.1 -0.1)">
       <use xlink:href="#Helvetica-6d"/>
       <use x="83.300781" xlink:href="#Helvetica-65"/>
       <use x="138.916016" xlink:href="#Helvetica-74"/>
      </g>
     </g>
    </g>
    <g id="xtick_14">
     <g id="line2d_14">
      <g>
       <use style="fill:#1a1a1a;stroke:#1a1a1a;stroke-width:0.8;" x="305.235435" xlink:href="#mea3ae05e10" y="307.584"/>
      </g>
     </g>
     <g id="text_14">
      <!-- phe -->
      <g style="fill:#1a1a1a;" transform="translate(303.15106 331.266812)rotate(-90)scale(0.1 -0.1)">
       <use xlink:href="#Helvetica-70"/>
       <use x="55.615234" xlink:href="#Helvetica-68"/>
       <use x="111.230469" xlink:href="#Helvetica-65"/>
      </g>
     </g>
    </g>
    <g id="xtick_15">
     <g id="line2d_15">
      <g>
       <use style="fill:#1a1a1a;stroke:#1a1a1a;stroke-width:0.8;" x="322.504294" xlink:href="#mea3ae05e10" y="307.584"/>
      </g>
     </g>
     <g id="text_15">
      <!-- ser -->
      <g style="fill:#1a1a1a;" transform="translate(320.419919 328.474625)rotate(-90)scale(0.1 -0.1)">
       <use xlink:href="#Helvetica-73"/>
       <use x="50" xlink:href="#Helvetica-65"/>
       <use x="105.615234" xlink:href="#Helvetica-72"/>
      </g>
     </g>
    </g>
    <g id="xtick_16">
     <g id="line2d_16">
      <g>
       <use style="fill:#1a1a1a;stroke:#1a1a1a;stroke-width:0.8;" x="339.773153" xlink:href="#mea3ae05e10" y="307.584"/>
      </g>
     </g>
     <g id="text_16">
      <!-- thr -->
      <g style="fill:#1a1a1a;" transform="translate(337.688778 326.25275)rotate(-90)scale(0.1 -0.1)">
       <use xlink:href="#Helvetica-74"/>
       <use x="27.783203" xlink:href="#Helvetica-68"/>
       <use x="83.398438" xlink:href="#Helvetica-72"/>
      </g>
     </g>
    </g>
    <g id="xtick_17">
     <g id="line2d_17">
      <g>
       <use style="fill:#1a1a1a;stroke:#1a1a1a;stroke-width:0.8;" x="357.042012" xlink:href="#mea3ae05e10" y="307.584"/>
      </g>
     </g>
     <g id="text_17">
      <!-- trp -->
      <g style="fill:#1a1a1a;" transform="translate(354.957637 326.25275)rotate(-90)scale(0.1 -0.1)">
       <use xlink:href="#Helvetica-74"/>
       <use x="27.783203" xlink:href="#Helvetica-72"/>
       <use x="61.083984" xlink:href="#Helvetica-70"/>
      </g>
     </g>
    </g>
    <g id="xtick_18">
     <g id="line2d_18">
      <g>
       <use style="fill:#1a1a1a;stroke:#1a1a1a;stroke-width:0.8;" x="374.31087" xlink:href="#mea3ae05e10" y="307.584"/>
      </g>
     </g>
     <g id="text_18">
      <!-- tyr -->
      <g style="fill:#1a1a1a;" transform="translate(372.16712 325.691812)rotate(-90)scale(0.1 -0.1)">
       <use xlink:href="#Helvetica-74"/>
       <use x="27.783203" xlink:href="#Helvetica-79"/>
       <use x="77.783203" xlink:href="#Helvetica-72"/>
      </g>
     </g>
    </g>
    <g id="xtick_19">
     <g id="line2d_19">
      <g>
       <use style="fill:#1a1a1a;stroke:#1a1a1a;stroke-width:0.8;" x="391.579729" xlink:href="#mea3ae05e10" y="307.584"/>
      </g>
     </g>
     <g id="text_19">
      <!-- val -->
      <defs>
       <path d="M 0.53125 52.296875 
L 10.75 52.296875 
L 24.703125 9.71875 
L 39.3125 52.296875 
L 48.921875 52.296875 
L 29.203125 0 
L 19.828125 0 
z
" id="Helvetica-76"/>
      </defs>
      <g style="fill:#1a1a1a;" transform="translate(389.495354 327.366812)rotate(-90)scale(0.1 -0.1)">
       <use xlink:href="#Helvetica-76"/>
       <use x="50" xlink:href="#Helvetica-61"/>
       <use x="105.615234" xlink:href="#Helvetica-6c"/>
      </g>
     </g>
    </g>
   </g>
   <g id="matplotlib.axis_2">
    <g id="ytick_1">
     <g id="line2d_20">
      <defs>
       <path d="M 0 0 
L -3.5 0 
" id="mb7b4bf4f2a" style="stroke:#1a1a1a;stroke-width:0.8;"/>
      </defs>
      <g>
       <use style="fill:#1a1a1a;stroke:#1a1a1a;stroke-width:0.8;" x="57.6" xlink:href="#mb7b4bf4f2a" y="294.362222"/>
      </g>
     </g>
     <g id="text_20">
      <!-- 0.0 -->
      <defs>
       <path d="M 3.125 33.546875 
Q 3.125 45.453125 6.203125 54 
Q 11.96875 69.921875 27.046875 69.921875 
Q 40.625 69.921875 46.6875 58.734375 
Q 51.375 50.09375 51.375 35.0625 
Q 51.375 20.796875 47.125 11.46875 
Q 40.96875 -1.90625 27 -1.90625 
Q 14.40625 -1.90625 8.25 9.03125 
Q 3.125 18.171875 3.125 33.546875 
z
M 12.640625 33.203125 
Q 12.640625 22.515625 14.9375 16.015625 
Q 18.453125 6.109375 26.953125 6.109375 
Q 33.796875 6.109375 37.84375 12.15625 
Q 41.890625 18.21875 41.890625 34.71875 
Q 41.890625 46.625 38.953125 54.3125 
Q 36.03125 62.015625 27.59375 62.015625 
Q 19.828125 62.015625 16.234375 54.703125 
Q 12.640625 47.40625 12.640625 33.203125 
z
" id="Helvetica-30"/>
       <path d="M 8.546875 0 
L 8.546875 10.640625 
L 18.75 10.640625 
L 18.75 0 
z
" id="Helvetica-2e"/>
      </defs>
      <g style="fill:#1a1a1a;" transform="translate(36.7 297.948941)scale(0.1 -0.1)">
       <use xlink:href="#Helvetica-30"/>
       <use x="55.615234" xlink:href="#Helvetica-2e"/>
       <use x="83.398438" xlink:href="#Helvetica-30"/>
      </g>
     </g>
    </g>
    <g id="ytick_2">
     <g id="line2d_21">
      <g>
       <use style="fill:#1a1a1a;stroke:#1a1a1a;stroke-width:0.8;" x="57.6" xlink:href="#mb7b4bf4f2a" y="253.79551"/>
      </g>
     </g>
     <g id="text_21">
      <!-- 0.2 -->
      <defs>
       <path d="M 3.125 0 
Q 3.609375 9.03125 6.859375 15.71875 
Q 10.109375 22.40625 19.53125 27.875 
L 28.90625 33.296875 
Q 35.203125 36.96875 37.75 39.546875 
Q 41.75 43.609375 41.75 48.828125 
Q 41.75 54.9375 38.078125 58.515625 
Q 34.421875 62.109375 28.328125 62.109375 
Q 19.28125 62.109375 15.828125 55.28125 
Q 13.96875 51.609375 13.765625 45.125 
L 4.828125 45.125 
Q 4.984375 54.25 8.203125 60.015625 
Q 13.921875 70.171875 28.375 70.171875 
Q 40.375 70.171875 45.921875 63.671875 
Q 51.46875 57.171875 51.46875 49.21875 
Q 51.46875 40.828125 45.5625 34.859375 
Q 42.140625 31.390625 33.296875 26.46875 
L 26.609375 22.75 
Q 21.828125 20.125 19.09375 17.71875 
Q 14.203125 13.484375 12.9375 8.296875 
L 51.125 8.296875 
L 51.125 0 
z
" id="Helvetica-32"/>
      </defs>
      <g style="fill:#1a1a1a;" transform="translate(36.7 257.382229)scale(0.1 -0.1)">
       <use xlink:href="#Helvetica-30"/>
       <use x="55.615234" xlink:href="#Helvetica-2e"/>
       <use x="83.398438" xlink:href="#Helvetica-32"/>
      </g>
     </g>
    </g>
    <g id="ytick_3">
     <g id="line2d_22">
      <g>
       <use style="fill:#1a1a1a;stroke:#1a1a1a;stroke-width:0.8;" x="57.6" xlink:href="#mb7b4bf4f2a" y="213.228798"/>
      </g>
     </g>
     <g id="text_22">
      <!-- 0.4 -->
      <defs>
       <path d="M 2.546875 17.09375 
L 2.546875 25.6875 
L 34.578125 70.125 
L 42 70.125 
L 42 24.75 
L 52.296875 24.75 
L 52.296875 17.09375 
L 42 17.09375 
L 42 0 
L 33.203125 0 
L 33.203125 17.09375 
z
M 10.640625 24.75 
L 33.0625 24.75 
L 33.0625 56.453125 
z
" id="Helvetica-34"/>
      </defs>
      <g style="fill:#1a1a1a;" transform="translate(36.7 216.815516)scale(0.1 -0.1)">
       <use xlink:href="#Helvetica-30"/>
       <use x="55.615234" xlink:href="#Helvetica-2e"/>
       <use x="83.398438" xlink:href="#Helvetica-34"/>
      </g>
     </g>
    </g>
    <g id="ytick_4">
     <g id="line2d_23">
      <g>
       <use style="fill:#1a1a1a;stroke:#1a1a1a;stroke-width:0.8;" x="57.6" xlink:href="#mb7b4bf4f2a" y="172.662085"/>
      </g>
     </g>
     <g id="text_23">
      <!-- 0.6 -->
      <defs>
       <path d="M 3.765625 30.71875 
Q 3.765625 43.75 6.9375 52.828125 
Q 13.03125 70.21875 29.25 70.21875 
Q 40.96875 70.21875 45.578125 64.140625 
Q 50.203125 58.0625 50.203125 51.609375 
L 41.5 51.609375 
Q 40.71875 55.765625 39.015625 58.109375 
Q 35.84375 62.5 29.390625 62.5 
Q 22.015625 62.5 17.671875 55.6875 
Q 13.328125 48.875 12.84375 36.1875 
Q 15.875 40.625 20.453125 42.828125 
Q 24.65625 44.78125 29.828125 44.78125 
Q 38.625 44.78125 45.15625 39.15625 
Q 51.703125 33.546875 51.703125 22.40625 
Q 51.703125 12.890625 45.5 5.53125 
Q 39.3125 -1.8125 27.828125 -1.8125 
Q 18.015625 -1.8125 10.890625 5.640625 
Q 3.765625 13.09375 3.765625 30.71875 
z
M 13.96875 21.6875 
Q 13.96875 15.046875 17.84375 10.515625 
Q 21.734375 6 28.609375 6 
Q 35.546875 6 38.984375 10.65625 
Q 42.4375 15.328125 42.4375 21.6875 
Q 42.4375 27.046875 39.359375 31.90625 
Q 36.28125 36.765625 28.171875 36.765625 
Q 22.515625 36.765625 18.234375 33 
Q 13.96875 29.25 13.96875 21.6875 
z
" id="Helvetica-36"/>
      </defs>
      <g style="fill:#1a1a1a;" transform="translate(36.7 176.248804)scale(0.1 -0.1)">
       <use xlink:href="#Helvetica-30"/>
       <use x="55.615234" xlink:href="#Helvetica-2e"/>
       <use x="83.398438" xlink:href="#Helvetica-36"/>
      </g>
     </g>
    </g>
    <g id="ytick_5">
     <g id="line2d_24">
      <g>
       <use style="fill:#1a1a1a;stroke:#1a1a1a;stroke-width:0.8;" x="57.6" xlink:href="#mb7b4bf4f2a" y="132.095373"/>
      </g>
     </g>
     <g id="text_24">
      <!-- 0.8 -->
      <defs>
       <path d="M 3.21875 19.625 
Q 3.21875 25.828125 6.25 30.34375 
Q 9.28125 34.859375 15.234375 37.25 
Q 11.578125 38.8125 9.515625 40.921875 
Q 5.671875 44.828125 5.671875 51.078125 
Q 5.671875 58.890625 11.328125 64.5 
Q 17 70.125 27.390625 70.125 
Q 37.453125 70.125 43.15625 64.8125 
Q 48.875 59.515625 48.875 52.4375 
Q 48.875 45.90625 45.5625 41.84375 
Q 43.703125 39.546875 39.796875 37.359375 
Q 44.140625 35.359375 46.625 32.765625 
Q 51.265625 27.875 51.265625 20.0625 
Q 51.265625 10.84375 45.0625 4.421875 
Q 38.875 -2 27.546875 -2 
Q 17.328125 -2 10.265625 3.53125 
Q 3.21875 9.078125 3.21875 19.625 
z
M 12.84375 19.4375 
Q 12.84375 13.96875 16.484375 9.984375 
Q 20.125 6 27.734375 6 
Q 33.84375 6 37.859375 9.296875 
Q 41.890625 12.59375 41.890625 19.140625 
Q 41.890625 25.921875 37.734375 29.4375 
Q 33.59375 32.953125 27.09375 32.953125 
Q 20.796875 32.953125 16.8125 29.359375 
Q 12.84375 25.78125 12.84375 19.4375 
z
M 14.890625 51.125 
Q 14.890625 46.1875 18.546875 43.40625 
Q 22.21875 40.625 27.203125 40.625 
Q 33.015625 40.625 36.28125 43.875 
Q 39.546875 47.125 39.546875 51.609375 
Q 39.546875 55.515625 36.421875 58.78125 
Q 33.296875 62.0625 26.90625 62.0625 
Q 20.5625 62.0625 17.71875 58.78125 
Q 14.890625 55.515625 14.890625 51.125 
z
" id="Helvetica-38"/>
      </defs>
      <g style="fill:#1a1a1a;" transform="translate(36.7 135.682092)scale(0.1 -0.1)">
       <use xlink:href="#Helvetica-30"/>
       <use x="55.615234" xlink:href="#Helvetica-2e"/>
       <use x="83.398438" xlink:href="#Helvetica-38"/>
      </g>
     </g>
    </g>
    <g id="ytick_6">
     <g id="line2d_25">
      <g>
       <use style="fill:#1a1a1a;stroke:#1a1a1a;stroke-width:0.8;" x="57.6" xlink:href="#mb7b4bf4f2a" y="91.528661"/>
      </g>
     </g>
     <g id="text_25">
      <!-- 1.0 -->
      <defs>
       <path d="M 9.578125 49.515625 
L 9.578125 56.25 
Q 19.09375 57.171875 22.84375 59.34375 
Q 26.609375 61.53125 28.46875 69.625 
L 35.40625 69.625 
L 35.40625 0 
L 26.03125 0 
L 26.03125 49.515625 
z
" id="Helvetica-31"/>
      </defs>
      <g style="fill:#1a1a1a;" transform="translate(36.7 95.115379)scale(0.1 -0.1)">
       <use xlink:href="#Helvetica-31"/>
       <use x="55.615234" xlink:href="#Helvetica-2e"/>
       <use x="83.398438" xlink:href="#Helvetica-30"/>
      </g>
     </g>
    </g>
    <g id="ytick_7">
     <g id="line2d_26">
      <g>
       <use style="fill:#1a1a1a;stroke:#1a1a1a;stroke-width:0.8;" x="57.6" xlink:href="#mb7b4bf4f2a" y="50.961948"/>
      </g>
     </g>
     <g id="text_26">
      <!-- 1.2 -->
      <g style="fill:#1a1a1a;" transform="translate(36.7 54.548667)scale(0.1 -0.1)">
       <use xlink:href="#Helvetica-31"/>
       <use x="55.615234" xlink:href="#Helvetica-2e"/>
       <use x="83.398438" xlink:href="#Helvetica-32"/>
      </g>
     </g>
    </g>
    <g id="text_27">
     <!-- Residual concentration (mM) -->
     <defs>
      <path d="M 8.796875 0 
L 8.796875 71.734375 
L 42 71.734375 
Q 50.203125 71.734375 55.515625 69.34375 
Q 65.625 64.75 65.625 52.390625 
Q 65.625 45.953125 62.953125 41.84375 
Q 60.296875 37.75 55.515625 35.25 
Q 59.71875 33.546875 61.84375 30.765625 
Q 63.96875 27.984375 64.203125 21.734375 
L 64.546875 12.109375 
Q 64.703125 8.015625 65.234375 6 
Q 66.109375 2.59375 68.359375 1.609375 
L 68.359375 0 
L 56.453125 0 
Q 55.953125 0.921875 55.65625 2.390625 
Q 55.375 3.859375 55.171875 8.0625 
L 54.59375 20.015625 
Q 54.25 27.046875 49.359375 29.4375 
Q 46.578125 30.765625 40.625 30.765625 
L 18.5 30.765625 
L 18.5 0 
z
M 18.5 38.875 
L 40.96875 38.875 
Q 47.796875 38.875 51.78125 41.609375 
Q 55.765625 44.34375 55.765625 51.46875 
Q 55.765625 59.125 50.203125 61.921875 
Q 47.21875 63.375 42.234375 63.375 
L 18.5 63.375 
z
" id="Helvetica-52"/>
      <path d="M 2.734375 25.046875 
Q 2.734375 36.46875 8.5625 44.84375 
Q 14.40625 53.21875 25.25 53.21875 
Q 31.25 53.21875 35.296875 50.6875 
Q 37.640625 49.21875 40.625 45.5625 
L 40.625 71.96875 
L 49.078125 71.96875 
L 49.078125 0 
L 41.15625 0 
L 41.15625 7.28125 
Q 38.09375 2.4375 33.890625 0.28125 
Q 29.6875 -1.859375 24.265625 -1.859375 
Q 15.53125 -1.859375 9.125 5.484375 
Q 2.734375 12.84375 2.734375 25.046875 
z
M 12.015625 25.53125 
Q 12.015625 17.140625 15.578125 11.46875 
Q 19.140625 5.8125 27 5.8125 
Q 33.109375 5.8125 37.03125 11.0625 
Q 40.96875 16.3125 40.96875 26.125 
Q 40.96875 36.03125 36.90625 40.796875 
Q 32.859375 45.5625 26.90625 45.5625 
Q 20.265625 45.5625 16.140625 40.484375 
Q 12.015625 35.40625 12.015625 25.53125 
z
" id="Helvetica-64"/>
      <path id="Helvetica-20"/>
      <path d="M 2.875 25 
Q 2.875 38.1875 9.5625 46 
Q 16.265625 53.8125 27.546875 53.8125 
Q 37.640625 53.8125 44.625 47.0625 
Q 51.609375 40.328125 51.609375 27.25 
Q 51.609375 14.59375 45.453125 6.34375 
Q 39.3125 -1.90625 26.375 -1.90625 
Q 15.578125 -1.90625 9.21875 5.390625 
Q 2.875 12.703125 2.875 25 
z
M 11.921875 25.140625 
Q 11.921875 16.796875 15.578125 11.234375 
Q 19.234375 5.671875 27.203125 5.671875 
Q 35.9375 5.671875 39.1875 12.28125 
Q 42.4375 18.890625 42.4375 27 
Q 42.4375 34.328125 40.09375 38.921875 
Q 36.375 46.140625 27.296875 46.140625 
Q 19.234375 46.140625 15.578125 39.984375 
Q 11.921875 33.84375 11.921875 25.140625 
z
M 27.25 53.5625 
z
" id="Helvetica-6f"/>
      <path d="M 6.9375 25.6875 
Q 6.9375 40.140625 11.46875 51.421875 
Q 14.359375 58.59375 23.484375 72.90625 
L 29.59375 72.90625 
Q 21.921875 58.015625 19.625 50.984375 
Q 16.15625 40.28125 16.15625 26.265625 
Q 16.15625 12.109375 20.125 0.390625 
Q 22.5625 -6.84375 29.734375 -20.40625 
L 23.828125 -20.40625 
Q 16.703125 -9.28125 14.984375 -6.203125 
Q 13.28125 -3.125 11.28125 2.15625 
Q 8.546875 9.375 7.46875 17.578125 
Q 6.9375 21.828125 6.9375 25.6875 
z
" id="Helvetica-28"/>
      <path d="M 7.375 0 
L 7.375 71.734375 
L 21.296875 71.734375 
L 41.890625 11.078125 
L 62.359375 71.734375 
L 76.125 71.734375 
L 76.125 0 
L 66.890625 0 
L 66.890625 42.328125 
Q 66.890625 44.53125 66.984375 49.609375 
Q 67.09375 54.6875 67.09375 60.5 
L 46.625 0 
L 37.015625 0 
L 16.40625 60.5 
L 16.40625 58.296875 
Q 16.40625 55.671875 16.53125 50.265625 
Q 16.65625 44.875 16.65625 42.328125 
L 16.65625 0 
z
" id="Helvetica-4d"/>
      <path d="M 3.328125 72.90625 
L 9.234375 72.90625 
Q 16.75 60.890625 18.328125 58.078125 
Q 19.921875 55.28125 21.78125 50.34375 
Q 24.125 44.234375 25.125 38.28125 
Q 26.125 32.328125 26.125 26.8125 
Q 26.125 12.359375 21.53125 1.03125 
Q 18.65625 -6.25 9.578125 -20.40625 
L 3.46875 -20.40625 
Q 11.234375 -5.28125 13.484375 1.65625 
Q 16.890625 12.15625 16.890625 26.265625 
Q 16.890625 40.375 12.9375 52.09375 
Q 10.5 59.328125 3.328125 72.90625 
z
" id="Helvetica-29"/>
     </defs>
     <g style="fill:#1a1a1a;" transform="translate(30.19875 251.21925)rotate(-90)scale(0.12 -0.12)">
      <use xlink:href="#Helvetica-52"/>
      <use x="72.216797" xlink:href="#Helvetica-65"/>
      <use x="127.832031" xlink:href="#Helvetica-73"/>
      <use x="177.832031" xlink:href="#Helvetica-69"/>
      <use x="200.048828" xlink:href="#Helvetica-64"/>
      <use x="255.664062" xlink:href="#Helvetica-75"/>
      <use x="311.279297" xlink:href="#Helvetica-61"/>
      <use x="366.894531" xlink:href="#Helvetica-6c"/>
      <use x="389.111328" xlink:href="#Helvetica-20"/>
      <use x="416.894531" xlink:href="#Helvetica-63"/>
      <use x="466.894531" xlink:href="#Helvetica-6f"/>
      <use x="522.509766" xlink:href="#Helvetica-6e"/>
      <use x="578.125" xlink:href="#Helvetica-63"/>
      <use x="628.125" xlink:href="#Helvetica-65"/>
      <use x="683.740234" xlink:href="#Helvetica-6e"/>
      <use x="739.355469" xlink:href="#Helvetica-74"/>
      <use x="767.138672" xlink:href="#Helvetica-72"/>
      <use x="800.439453" xlink:href="#Helvetica-61"/>
      <use x="856.054688" xlink:href="#Helvetica-74"/>
      <use x="883.837891" xlink:href="#Helvetica-69"/>
      <use x="906.054688" xlink:href="#Helvetica-6f"/>
      <use x="961.669922" xlink:href="#Helvetica-6e"/>
      <use x="1017.285156" xlink:href="#Helvetica-20"/>
      <use x="1045.068359" xlink:href="#Helvetica-28"/>
      <use x="1078.369141" xlink:href="#Helvetica-6d"/>
      <use x="1161.669922" xlink:href="#Helvetica-4d"/>
      <use x="1244.970703" xlink:href="#Helvetica-29"/>
     </g>
    </g>
   </g>
   <g id="line2d_27">
    <path clip-path="url(#pf1643d3a0f)" d="M 77.286499 93.283171 
L 77.286499 88.212332 
L 84.194043 88.212332 
L 84.194043 93.283171 
" style="fill:none;stroke:#1a1a1a;stroke-linecap:square;stroke-width:1.5;"/>
   </g>
   <g id="line2d_28">
    <path clip-path="url(#pf1643d3a0f)" d="M 94.555358 217.454497 
L 94.555358 212.383658 
L 101.462901 212.383658 
L 101.462901 217.454497 
" style="fill:none;stroke:#1a1a1a;stroke-linecap:square;stroke-width:1.5;"/>
   </g>
   <g id="line2d_29">
    <path clip-path="url(#pf1643d3a0f)" d="M 111.824217 241.960172 
L 111.824217 236.889333 
L 118.73176 236.889333 
L 118.73176 241.960172 
" style="fill:none;stroke:#1a1a1a;stroke-linecap:square;stroke-width:1.5;"/>
   </g>
   <g id="line2d_30">
    <path clip-path="url(#pf1643d3a0f)" d="M 249.975087 188.746787 
L 249.975087 183.675948 
L 256.882631 183.675948 
L 256.882631 188.746787 
" style="fill:none;stroke:#1a1a1a;stroke-linecap:square;stroke-width:1.5;"/>
   </g>
   <g id="line2d_31">
    <path clip-path="url(#pf1643d3a0f)" d="M 284.512805 260.847357 
L 284.512805 255.776518 
L 291.420348 255.776518 
L 291.420348 260.847357 
" style="fill:none;stroke:#1a1a1a;stroke-linecap:square;stroke-width:1.5;"/>
   </g>
   <g id="line2d_32">
    <path clip-path="url(#pf1643d3a0f)" d="M 319.050522 247.213561 
L 319.050522 242.142722 
L 325.958066 242.142722 
L 325.958066 247.213561 
" style="fill:none;stroke:#1a1a1a;stroke-linecap:square;stroke-width:1.5;"/>
   </g>
   <g id="patch_41">
    <path d="M 57.6 307.584 
L 57.6 41.472 
" style="fill:none;stroke:#1a1a1a;stroke-linecap:square;stroke-linejoin:miter;stroke-width:0.8;"/>
   </g>
   <g id="patch_42">
    <path d="M 414.72 307.584 
L 414.72 41.472 
" style="fill:none;stroke:#1a1a1a;stroke-linecap:square;stroke-linejoin:miter;stroke-width:0.8;"/>
   </g>
   <g id="patch_43">
    <path d="M 57.6 307.584 
L 414.72 307.584 
" style="fill:none;stroke:#1a1a1a;stroke-linecap:square;stroke-linejoin:miter;stroke-width:0.8;"/>
   </g>
   <g id="patch_44">
    <path d="M 57.6 41.472 
L 414.72 41.472 
" style="fill:none;stroke:#1a1a1a;stroke-linecap:square;stroke-linejoin:miter;stroke-width:0.8;"/>
   </g>
   <g id="PathCollection_3">
    <defs>
     <path d="M 0 2 
C 0.530406 2 1.03916 1.789267 1.414214 1.414214 
C 1.789267 1.03916 2 0.530406 2 0 
C 2 -0.530406 1.789267 -1.03916 1.414214 -1.414214 
C 1.03916 -1.789267 0.530406 -2 0 -2 
C -0.530406 -2 -1.03916 -1.789267 -1.414214 -1.414214 
C -1.789267 -1.03916 -2 -0.530406 -2 0 
C -2 0.530406 -1.789267 1.03916 -1.414214 1.414214 
C -1.03916 1.789267 -0.530406 2 0 2 
z
" id="C0_0_bdca6584ba"/>
    </defs>
    <g clip-path="url(#pf1643d3a0f)">
     <use style="fill:#1f77b4;" x="77.374195" xlink:href="#C0_0_bdca6584ba" y="97.617048"/>
    </g>
    <g clip-path="url(#pf1643d3a0f)">
     <use style="fill:#1f77b4;" x="77.431288" xlink:href="#C0_0_bdca6584ba" y="97.339842"/>
    </g>
    <g clip-path="url(#pf1643d3a0f)">
     <use style="fill:#1f77b4;" x="77.060776" xlink:href="#C0_0_bdca6584ba" y="98.783341"/>
    </g>
    <g clip-path="url(#pf1643d3a0f)">
     <use style="fill:#1f77b4;" x="77.335303" xlink:href="#C0_0_bdca6584ba" y="99.094352"/>
    </g>
   </g>
   <g id="PathCollection_4">
    <defs>
     <path d="M 0 2 
C 0.530406 2 1.03916 1.789267 1.414214 1.414214 
C 1.789267 1.03916 2 0.530406 2 0 
C 2 -0.530406 1.789267 -1.03916 1.414214 -1.414214 
C 1.03916 -1.789267 0.530406 -2 0 -2 
C -0.530406 -2 -1.03916 -1.789267 -1.414214 -1.414214 
C -1.789267 -1.03916 -2 -0.530406 -2 0 
C -2 0.530406 -1.789267 1.03916 -1.414214 1.414214 
C -1.03916 1.789267 -0.530406 2 0 2 
z
" id="C1_0_0f1deab504"/>
    </defs>
    <g clip-path="url(#pf1643d3a0f)">
     <use style="fill:#ff7f0e;" x="84.327697" xlink:href="#C1_0_0f1deab504" y="114.250076"/>
    </g>
    <g clip-path="url(#pf1643d3a0f)">
     <use style="fill:#ff7f0e;" x="84.140447" xlink:href="#C1_0_0f1deab504" y="115.783498"/>
    </g>
    <g clip-path="url(#pf1643d3a0f)">
     <use style="fill:#ff7f0e;" x="84.826777" xlink:href="#C1_0_0f1deab504" y="109.682264"/>
    </g>
    <g clip-path="url(#pf1643d3a0f)">
     <use style="fill:#ff7f0e;" x="83.590951" xlink:href="#C1_0_0f1deab504" y="108.49366"/>
    </g>
   </g>
   <g id="PathCollection_5">
    <defs>
     <path d="M 0 2 
C 0.530406 2 1.03916 1.789267 1.414214 1.414214 
C 1.789267 1.03916 2 0.530406 2 0 
C 2 -0.530406 1.789267 -1.03916 1.414214 -1.414214 
C 1.03916 -1.789267 0.530406 -2 0 -2 
C -0.530406 -2 -1.03916 -1.789267 -1.414214 -1.414214 
C -1.789267 -1.03916 -2 -0.530406 -2 0 
C -2 0.530406 -1.789267 1.03916 -1.414214 1.414214 
C -1.03916 1.789267 -0.530406 2 0 2 
z
" id="C2_0_25e61dc9c1"/>
    </defs>
    <g clip-path="url(#pf1643d3a0f)">
     <use style="fill:#1f77b4;" x="94.12955" xlink:href="#C2_0_25e61dc9c1" y="225.425856"/>
    </g>
    <g clip-path="url(#pf1643d3a0f)">
     <use style="fill:#1f77b4;" x="94.788851" xlink:href="#C2_0_25e61dc9c1" y="221.511168"/>
    </g>
    <g clip-path="url(#pf1643d3a0f)">
     <use style="fill:#1f77b4;" x="94.292541" xlink:href="#C2_0_25e61dc9c1" y="240.98319"/>
    </g>
    <g clip-path="url(#pf1643d3a0f)">
     <use style="fill:#1f77b4;" x="93.821021" xlink:href="#C2_0_25e61dc9c1" y="241.473371"/>
    </g>
   </g>
   <g id="PathCollection_6">
    <defs>
     <path d="M 0 2 
C 0.530406 2 1.03916 1.789267 1.414214 1.414214 
C 1.789267 1.03916 2 0.530406 2 0 
C 2 -0.530406 1.789267 -1.03916 1.414214 -1.414214 
C 1.03916 -1.789267 0.530406 -2 0 -2 
C -0.530406 -2 -1.03916 -1.789267 -1.414214 -1.414214 
C -1.789267 -1.03916 -2 -0.530406 -2 0 
C -2 0.530406 -1.789267 1.03916 -1.414214 1.414214 
C -1.03916 1.789267 -0.530406 2 0 2 
z
" id="C3_0_f693508a89"/>
    </defs>
    <g clip-path="url(#pf1643d3a0f)">
     <use style="fill:#ff7f0e;" x="102.126913" xlink:href="#C3_0_f693508a89" y="294.362222"/>
    </g>
    <g clip-path="url(#pf1643d3a0f)">
     <use style="fill:#ff7f0e;" x="102.001649" xlink:href="#C3_0_f693508a89" y="294.362222"/>
    </g>
    <g clip-path="url(#pf1643d3a0f)">
     <use style="fill:#ff7f0e;" x="101.016483" xlink:href="#C3_0_f693508a89" y="294.362222"/>
    </g>
    <g clip-path="url(#pf1643d3a0f)">
     <use style="fill:#ff7f0e;" x="100.702034" xlink:href="#C3_0_f693508a89" y="294.362222"/>
    </g>
   </g>
   <g id="PathCollection_7">
    <defs>
     <path d="M 0 2 
C 0.530406 2 1.03916 1.789267 1.414214 1.414214 
C 1.789267 1.03916 2 0.530406 2 0 
C 2 -0.530406 1.789267 -1.03916 1.414214 -1.414214 
C 1.03916 -1.789267 0.530406 -2 0 -2 
C -0.530406 -2 -1.03916 -1.789267 -1.414214 -1.414214 
C -1.789267 -1.03916 -2 -0.530406 -2 0 
C -2 0.530406 -1.789267 1.03916 -1.414214 1.414214 
C -1.03916 1.789267 -0.530406 2 0 2 
z
" id="C4_0_8ea848b951"/>
    </defs>
    <g clip-path="url(#pf1643d3a0f)">
     <use style="fill:#1f77b4;" x="111.027708" xlink:href="#C4_0_8ea848b951" y="256.902244"/>
    </g>
    <g clip-path="url(#pf1643d3a0f)">
     <use style="fill:#1f77b4;" x="111.999472" xlink:href="#C4_0_8ea848b951" y="257.030705"/>
    </g>
    <g clip-path="url(#pf1643d3a0f)">
     <use style="fill:#1f77b4;" x="112.050511" xlink:href="#C4_0_8ea848b951" y="246.956638"/>
    </g>
    <g clip-path="url(#pf1643d3a0f)">
     <use style="fill:#1f77b4;" x="112.491004" xlink:href="#C4_0_8ea848b951" y="246.016843"/>
    </g>
   </g>
   <g id="PathCollection_8">
    <defs>
     <path d="M 0 2 
C 0.530406 2 1.03916 1.789267 1.414214 1.414214 
C 1.789267 1.03916 2 0.530406 2 0 
C 2 -0.530406 1.789267 -1.03916 1.414214 -1.414214 
C 1.03916 -1.789267 0.530406 -2 0 -2 
C -0.530406 -2 -1.03916 -1.789267 -1.414214 -1.414214 
C -1.789267 -1.03916 -2 -0.530406 -2 0 
C -2 0.530406 -1.789267 1.03916 -1.414214 1.414214 
C -1.03916 1.789267 -0.530406 2 0 2 
z
" id="C5_0_7270025fcb"/>
    </defs>
    <g clip-path="url(#pf1643d3a0f)">
     <use style="fill:#ff7f0e;" x="118.879348" xlink:href="#C5_0_7270025fcb" y="260.054954"/>
    </g>
    <g clip-path="url(#pf1643d3a0f)">
     <use style="fill:#ff7f0e;" x="119.120335" xlink:href="#C5_0_7270025fcb" y="261.194878"/>
    </g>
    <g clip-path="url(#pf1643d3a0f)">
     <use style="fill:#ff7f0e;" x="118.786102" xlink:href="#C5_0_7270025fcb" y="261.736444"/>
    </g>
    <g clip-path="url(#pf1643d3a0f)">
     <use style="fill:#ff7f0e;" x="118.995689" xlink:href="#C5_0_7270025fcb" y="265.150133"/>
    </g>
   </g>
   <g id="PathCollection_9">
    <defs>
     <path d="M 0 2 
C 0.530406 2 1.03916 1.789267 1.414214 1.414214 
C 1.789267 1.03916 2 0.530406 2 0 
C 2 -0.530406 1.789267 -1.03916 1.414214 -1.414214 
C 1.03916 -1.789267 0.530406 -2 0 -2 
C -0.530406 -2 -1.03916 -1.789267 -1.414214 -1.414214 
C -1.789267 -1.03916 -2 -0.530406 -2 0 
C -2 0.530406 -1.789267 1.03916 -1.414214 1.414214 
C -1.03916 1.789267 -0.530406 2 0 2 
z
" id="C6_0_3cb5b303d2"/>
    </defs>
    <g clip-path="url(#pf1643d3a0f)">
     <use style="fill:#1f77b4;" x="129.362295" xlink:href="#C6_0_3cb5b303d2" y="160.245291"/>
    </g>
    <g clip-path="url(#pf1643d3a0f)">
     <use style="fill:#1f77b4;" x="129.654927" xlink:href="#C6_0_3cb5b303d2" y="167.777177"/>
    </g>
    <g clip-path="url(#pf1643d3a0f)">
     <use style="fill:#1f77b4;" x="129.840171" xlink:href="#C6_0_3cb5b303d2" y="88.749841"/>
    </g>
    <g clip-path="url(#pf1643d3a0f)">
     <use style="fill:#1f77b4;" x="129.219121" xlink:href="#C6_0_3cb5b303d2" y="93.03301"/>
    </g>
   </g>
   <g id="PathCollection_10">
    <defs>
     <path d="M 0 2 
C 0.530406 2 1.03916 1.789267 1.414214 1.414214 
C 1.789267 1.03916 2 0.530406 2 0 
C 2 -0.530406 1.789267 -1.03916 1.414214 -1.414214 
C 1.03916 -1.789267 0.530406 -2 0 -2 
C -0.530406 -2 -1.03916 -1.789267 -1.414214 -1.414214 
C -1.789267 -1.03916 -2 -0.530406 -2 0 
C -2 0.530406 -1.789267 1.03916 -1.414214 1.414214 
C -1.03916 1.789267 -0.530406 2 0 2 
z
" id="C7_0_563666af01"/>
    </defs>
    <g clip-path="url(#pf1643d3a0f)">
     <use style="fill:#ff7f0e;" x="136.18126" xlink:href="#C7_0_563666af01" y="91.548944"/>
    </g>
    <g clip-path="url(#pf1643d3a0f)">
     <use style="fill:#ff7f0e;" x="135.156583" xlink:href="#C7_0_563666af01" y="99.48785"/>
    </g>
    <g clip-path="url(#pf1643d3a0f)">
     <use style="fill:#ff7f0e;" x="136.046088" xlink:href="#C7_0_563666af01" y="109.35266"/>
    </g>
    <g clip-path="url(#pf1643d3a0f)">
     <use style="fill:#ff7f0e;" x="136.486525" xlink:href="#C7_0_563666af01" y="146.618256"/>
    </g>
   </g>
   <g id="PathCollection_11">
    <defs>
     <path d="M 0 2 
C 0.530406 2 1.03916 1.789267 1.414214 1.414214 
C 1.789267 1.03916 2 0.530406 2 0 
C 2 -0.530406 1.789267 -1.03916 1.414214 -1.414214 
C 1.03916 -1.789267 0.530406 -2 0 -2 
C -0.530406 -2 -1.03916 -1.789267 -1.414214 -1.414214 
C -1.789267 -1.03916 -2 -0.530406 -2 0 
C -2 0.530406 -1.789267 1.03916 -1.414214 1.414214 
C -1.03916 1.789267 -0.530406 2 0 2 
z
" id="C8_0_8bdb790202"/>
    </defs>
    <g clip-path="url(#pf1643d3a0f)">
     <use style="fill:#1f77b4;" x="146.918862" xlink:href="#C8_0_8bdb790202" y="59.284885"/>
    </g>
    <g clip-path="url(#pf1643d3a0f)">
     <use style="fill:#1f77b4;" x="147.010529" xlink:href="#C8_0_8bdb790202" y="54.805644"/>
    </g>
    <g clip-path="url(#pf1643d3a0f)">
     <use style="fill:#1f77b4;" x="145.570035" xlink:href="#C8_0_8bdb790202" y="250.465659"/>
    </g>
    <g clip-path="url(#pf1643d3a0f)">
     <use style="fill:#1f77b4;" x="145.643292" xlink:href="#C8_0_8bdb790202" y="248.078984"/>
    </g>
   </g>
   <g id="PathCollection_12">
    <defs>
     <path d="M 0 2 
C 0.530406 2 1.03916 1.789267 1.414214 1.414214 
C 1.789267 1.03916 2 0.530406 2 0 
C 2 -0.530406 1.789267 -1.03916 1.414214 -1.414214 
C 1.03916 -1.789267 0.530406 -2 0 -2 
C -0.530406 -2 -1.03916 -1.789267 -1.414214 -1.414214 
C -1.789267 -1.03916 -2 -0.530406 -2 0 
C -2 0.530406 -1.789267 1.03916 -1.414214 1.414214 
C -1.03916 1.789267 -0.530406 2 0 2 
z
" id="C9_0_f22c9269fc"/>
    </defs>
    <g clip-path="url(#pf1643d3a0f)">
     <use style="fill:#ff7f0e;" x="152.743006" xlink:href="#C9_0_f22c9269fc" y="244.976307"/>
    </g>
    <g clip-path="url(#pf1643d3a0f)">
     <use style="fill:#ff7f0e;" x="153.841039" xlink:href="#C9_0_f22c9269fc" y="241.62144"/>
    </g>
    <g clip-path="url(#pf1643d3a0f)">
     <use style="fill:#ff7f0e;" x="153.477564" xlink:href="#C9_0_f22c9269fc" y="226.093516"/>
    </g>
    <g clip-path="url(#pf1643d3a0f)">
     <use style="fill:#ff7f0e;" x="153.08703" xlink:href="#C9_0_f22c9269fc" y="137.94915"/>
    </g>
   </g>
   <g id="PathCollection_13">
    <defs>
     <path d="M 0 2 
C 0.530406 2 1.03916 1.789267 1.414214 1.414214 
C 1.789267 1.03916 2 0.530406 2 0 
C 2 -0.530406 1.789267 -1.03916 1.414214 -1.414214 
C 1.03916 -1.789267 0.530406 -2 0 -2 
C -0.530406 -2 -1.03916 -1.789267 -1.414214 -1.414214 
C -1.789267 -1.03916 -2 -0.530406 -2 0 
C -2 0.530406 -1.789267 1.03916 -1.414214 1.414214 
C -1.03916 1.789267 -0.530406 2 0 2 
z
" id="Ca_0_5943a01e1b"/>
    </defs>
    <g clip-path="url(#pf1643d3a0f)">
     <use style="fill:#1f77b4;" x="163.410852" xlink:href="#Ca_0_5943a01e1b" y="289.416464"/>
    </g>
    <g clip-path="url(#pf1643d3a0f)">
     <use style="fill:#1f77b4;" x="163.322435" xlink:href="#Ca_0_5943a01e1b" y="289.379278"/>
    </g>
    <g clip-path="url(#pf1643d3a0f)">
     <use style="fill:#1f77b4;" x="163.406439" xlink:href="#Ca_0_5943a01e1b" y="208.928726"/>
    </g>
    <g clip-path="url(#pf1643d3a0f)">
     <use style="fill:#1f77b4;" x="163.648962" xlink:href="#Ca_0_5943a01e1b" y="209.635263"/>
    </g>
   </g>
   <g id="PathCollection_14">
    <defs>
     <path d="M 0 2 
C 0.530406 2 1.03916 1.789267 1.414214 1.414214 
C 1.789267 1.03916 2 0.530406 2 0 
C 2 -0.530406 1.789267 -1.03916 1.414214 -1.414214 
C 1.03916 -1.789267 0.530406 -2 0 -2 
C -0.530406 -2 -1.03916 -1.789267 -1.414214 -1.414214 
C -1.789267 -1.03916 -2 -0.530406 -2 0 
C -2 0.530406 -1.789267 1.03916 -1.414214 1.414214 
C -1.03916 1.789267 -0.530406 2 0 2 
z
" id="Cb_0_763552b888"/>
    </defs>
    <g clip-path="url(#pf1643d3a0f)">
     <use style="fill:#ff7f0e;" x="170.162653" xlink:href="#Cb_0_763552b888" y="282.204379"/>
    </g>
    <g clip-path="url(#pf1643d3a0f)">
     <use style="fill:#ff7f0e;" x="170.178774" xlink:href="#Cb_0_763552b888" y="285.936516"/>
    </g>
    <g clip-path="url(#pf1643d3a0f)">
     <use style="fill:#ff7f0e;" x="170.729928" xlink:href="#Cb_0_763552b888" y="284.398024"/>
    </g>
    <g clip-path="url(#pf1643d3a0f)">
     <use style="fill:#ff7f0e;" x="171.317878" xlink:href="#Cb_0_763552b888" y="290.540838"/>
    </g>
   </g>
   <g id="PathCollection_15">
    <defs>
     <path d="M 0 2 
C 0.530406 2 1.03916 1.789267 1.414214 1.414214 
C 1.789267 1.03916 2 0.530406 2 0 
C 2 -0.530406 1.789267 -1.03916 1.414214 -1.414214 
C 1.03916 -1.789267 0.530406 -2 0 -2 
C -0.530406 -2 -1.03916 -1.789267 -1.414214 -1.414214 
C -1.789267 -1.03916 -2 -0.530406 -2 0 
C -2 0.530406 -1.789267 1.03916 -1.414214 1.414214 
C -1.03916 1.789267 -0.530406 2 0 2 
z
" id="Cc_0_0651b81dac"/>
    </defs>
    <g clip-path="url(#pf1643d3a0f)">
     <use style="fill:#1f77b4;" x="180.285171" xlink:href="#Cc_0_0651b81dac" y="174.227284"/>
    </g>
    <g clip-path="url(#pf1643d3a0f)">
     <use style="fill:#1f77b4;" x="181.506981" xlink:href="#Cc_0_0651b81dac" y="179.335309"/>
    </g>
    <g clip-path="url(#pf1643d3a0f)">
     <use style="fill:#1f77b4;" x="181.443919" xlink:href="#Cc_0_0651b81dac" y="134.728829"/>
    </g>
    <g clip-path="url(#pf1643d3a0f)">
     <use style="fill:#1f77b4;" x="180.106312" xlink:href="#Cc_0_0651b81dac" y="136.865342"/>
    </g>
   </g>
   <g id="PathCollection_16">
    <defs>
     <path d="M 0 2 
C 0.530406 2 1.03916 1.789267 1.414214 1.414214 
C 1.789267 1.03916 2 0.530406 2 0 
C 2 -0.530406 1.789267 -1.03916 1.414214 -1.414214 
C 1.03916 -1.789267 0.530406 -2 0 -2 
C -0.530406 -2 -1.03916 -1.789267 -1.414214 -1.414214 
C -1.789267 -1.03916 -2 -0.530406 -2 0 
C -2 0.530406 -1.789267 1.03916 -1.414214 1.414214 
C -1.03916 1.789267 -0.530406 2 0 2 
z
" id="Cd_0_6c79e70044"/>
    </defs>
    <g clip-path="url(#pf1643d3a0f)">
     <use style="fill:#ff7f0e;" x="188.063357" xlink:href="#Cd_0_6c79e70044" y="156.569271"/>
    </g>
    <g clip-path="url(#pf1643d3a0f)">
     <use style="fill:#ff7f0e;" x="187.539826" xlink:href="#Cd_0_6c79e70044" y="161.603599"/>
    </g>
    <g clip-path="url(#pf1643d3a0f)">
     <use style="fill:#ff7f0e;" x="188.287783" xlink:href="#Cd_0_6c79e70044" y="163.722196"/>
    </g>
    <g clip-path="url(#pf1643d3a0f)">
     <use style="fill:#ff7f0e;" x="187.324905" xlink:href="#Cd_0_6c79e70044" y="178.475295"/>
    </g>
   </g>
   <g id="PathCollection_17">
    <defs>
     <path d="M 0 2 
C 0.530406 2 1.03916 1.789267 1.414214 1.414214 
C 1.789267 1.03916 2 0.530406 2 0 
C 2 -0.530406 1.789267 -1.03916 1.414214 -1.414214 
C 1.03916 -1.789267 0.530406 -2 0 -2 
C -0.530406 -2 -1.03916 -1.789267 -1.414214 -1.414214 
C -1.789267 -1.03916 -2 -0.530406 -2 0 
C -2 0.530406 -1.789267 1.03916 -1.414214 1.414214 
C -1.03916 1.789267 -0.530406 2 0 2 
z
" id="Ce_0_71ec440406"/>
    </defs>
    <g clip-path="url(#pf1643d3a0f)">
     <use style="fill:#1f77b4;" x="197.334392" xlink:href="#Ce_0_71ec440406" y="211.555421"/>
    </g>
    <g clip-path="url(#pf1643d3a0f)">
     <use style="fill:#1f77b4;" x="198.011023" xlink:href="#Ce_0_71ec440406" y="205.906506"/>
    </g>
    <g clip-path="url(#pf1643d3a0f)">
     <use style="fill:#1f77b4;" x="197.773471" xlink:href="#Ce_0_71ec440406" y="279.028005"/>
    </g>
    <g clip-path="url(#pf1643d3a0f)">
     <use style="fill:#1f77b4;" x="197.751919" xlink:href="#Ce_0_71ec440406" y="279.322114"/>
    </g>
   </g>
   <g id="PathCollection_18">
    <defs>
     <path d="M 0 2 
C 0.530406 2 1.03916 1.789267 1.414214 1.414214 
C 1.789267 1.03916 2 0.530406 2 0 
C 2 -0.530406 1.789267 -1.03916 1.414214 -1.414214 
C 1.03916 -1.789267 0.530406 -2 0 -2 
C -0.530406 -2 -1.03916 -1.789267 -1.414214 -1.414214 
C -1.789267 -1.03916 -2 -0.530406 -2 0 
C -2 0.530406 -1.789267 1.03916 -1.414214 1.414214 
C -1.03916 1.789267 -0.530406 2 0 2 
z
" id="Cf_0_67fc3ddb06"/>
    </defs>
    <g clip-path="url(#pf1643d3a0f)">
     <use style="fill:#ff7f0e;" x="205.279423" xlink:href="#Cf_0_67fc3ddb06" y="249.256095"/>
    </g>
    <g clip-path="url(#pf1643d3a0f)">
     <use style="fill:#ff7f0e;" x="205.084207" xlink:href="#Cf_0_67fc3ddb06" y="249.325058"/>
    </g>
    <g clip-path="url(#pf1643d3a0f)">
     <use style="fill:#ff7f0e;" x="205.1747" xlink:href="#Cf_0_67fc3ddb06" y="243.126465"/>
    </g>
    <g clip-path="url(#pf1643d3a0f)">
     <use style="fill:#ff7f0e;" x="205.616865" xlink:href="#Cf_0_67fc3ddb06" y="215.48025"/>
    </g>
   </g>
   <g id="PathCollection_19">
    <defs>
     <path d="M 0 2 
C 0.530406 2 1.03916 1.789267 1.414214 1.414214 
C 1.789267 1.03916 2 0.530406 2 0 
C 2 -0.530406 1.789267 -1.03916 1.414214 -1.414214 
C 1.03916 -1.789267 0.530406 -2 0 -2 
C -0.530406 -2 -1.03916 -1.789267 -1.414214 -1.414214 
C -1.789267 -1.03916 -2 -0.530406 -2 0 
C -2 0.530406 -1.789267 1.03916 -1.414214 1.414214 
C -1.03916 1.789267 -0.530406 2 0 2 
z
" id="C10_0_597de25d5c"/>
    </defs>
    <g clip-path="url(#pf1643d3a0f)">
     <use style="fill:#1f77b4;" x="215.822023" xlink:href="#C10_0_597de25d5c" y="239.22868"/>
    </g>
    <g clip-path="url(#pf1643d3a0f)">
     <use style="fill:#1f77b4;" x="215.180772" xlink:href="#C10_0_597de25d5c" y="249.559669"/>
    </g>
    <g clip-path="url(#pf1643d3a0f)">
     <use style="fill:#1f77b4;" x="215.716946" xlink:href="#C10_0_597de25d5c" y="276.891491"/>
    </g>
    <g clip-path="url(#pf1643d3a0f)">
     <use style="fill:#1f77b4;" x="215.501144" xlink:href="#C10_0_597de25d5c" y="276.621047"/>
    </g>
   </g>
   <g id="PathCollection_20">
    <defs>
     <path d="M 0 2 
C 0.530406 2 1.03916 1.789267 1.414214 1.414214 
C 1.789267 1.03916 2 0.530406 2 0 
C 2 -0.530406 1.789267 -1.03916 1.414214 -1.414214 
C 1.03916 -1.789267 0.530406 -2 0 -2 
C -0.530406 -2 -1.03916 -1.789267 -1.414214 -1.414214 
C -1.789267 -1.03916 -2 -0.530406 -2 0 
C -2 0.530406 -1.789267 1.03916 -1.414214 1.414214 
C -1.03916 1.789267 -0.530406 2 0 2 
z
" id="C11_0_681ee8b378"/>
    </defs>
    <g clip-path="url(#pf1643d3a0f)">
     <use style="fill:#ff7f0e;" x="221.954131" xlink:href="#C11_0_681ee8b378" y="273.551499"/>
    </g>
    <g clip-path="url(#pf1643d3a0f)">
     <use style="fill:#ff7f0e;" x="222.570211" xlink:href="#C11_0_681ee8b378" y="273.807069"/>
    </g>
    <g clip-path="url(#pf1643d3a0f)">
     <use style="fill:#ff7f0e;" x="222.773538" xlink:href="#C11_0_681ee8b378" y="268.313322"/>
    </g>
    <g clip-path="url(#pf1643d3a0f)">
     <use style="fill:#ff7f0e;" x="221.896806" xlink:href="#C11_0_681ee8b378" y="239.897354"/>
    </g>
   </g>
   <g id="PathCollection_21">
    <defs>
     <path d="M 0 2 
C 0.530406 2 1.03916 1.789267 1.414214 1.414214 
C 1.789267 1.03916 2 0.530406 2 0 
C 2 -0.530406 1.789267 -1.03916 1.414214 -1.414214 
C 1.03916 -1.789267 0.530406 -2 0 -2 
C -0.530406 -2 -1.03916 -1.789267 -1.414214 -1.414214 
C -1.789267 -1.03916 -2 -0.530406 -2 0 
C -2 0.530406 -1.789267 1.03916 -1.414214 1.414214 
C -1.03916 1.789267 -0.530406 2 0 2 
z
" id="C12_0_9201dd0cd3"/>
    </defs>
    <g clip-path="url(#pf1643d3a0f)">
     <use style="fill:#1f77b4;" x="232.613569" xlink:href="#C12_0_9201dd0cd3" y="259.954889"/>
    </g>
    <g clip-path="url(#pf1643d3a0f)">
     <use style="fill:#1f77b4;" x="233.34127" xlink:href="#C12_0_9201dd0cd3" y="262.710045"/>
    </g>
    <g clip-path="url(#pf1643d3a0f)">
     <use style="fill:#1f77b4;" x="232.374365" xlink:href="#C12_0_9201dd0cd3" y="249.380499"/>
    </g>
    <g clip-path="url(#pf1643d3a0f)">
     <use style="fill:#1f77b4;" x="231.978549" xlink:href="#C12_0_9201dd0cd3" y="247.700361"/>
    </g>
   </g>
   <g id="PathCollection_22">
    <defs>
     <path d="M 0 2 
C 0.530406 2 1.03916 1.789267 1.414214 1.414214 
C 1.789267 1.03916 2 0.530406 2 0 
C 2 -0.530406 1.789267 -1.03916 1.414214 -1.414214 
C 1.03916 -1.789267 0.530406 -2 0 -2 
C -0.530406 -2 -1.03916 -1.789267 -1.414214 -1.414214 
C -1.789267 -1.03916 -2 -0.530406 -2 0 
C -2 0.530406 -1.789267 1.03916 -1.414214 1.414214 
C -1.03916 1.789267 -0.530406 2 0 2 
z
" id="C13_0_f95e23f9ee"/>
    </defs>
    <g clip-path="url(#pf1643d3a0f)">
     <use style="fill:#ff7f0e;" x="239.941904" xlink:href="#C13_0_f95e23f9ee" y="265.95741"/>
    </g>
    <g clip-path="url(#pf1643d3a0f)">
     <use style="fill:#ff7f0e;" x="239.229589" xlink:href="#C13_0_f95e23f9ee" y="265.48278"/>
    </g>
    <g clip-path="url(#pf1643d3a0f)">
     <use style="fill:#ff7f0e;" x="240.121435" xlink:href="#C13_0_f95e23f9ee" y="266.12779"/>
    </g>
    <g clip-path="url(#pf1643d3a0f)">
     <use style="fill:#ff7f0e;" x="238.954696" xlink:href="#C13_0_f95e23f9ee" y="265.117679"/>
    </g>
   </g>
   <g id="PathCollection_23">
    <defs>
     <path d="M 0 2 
C 0.530406 2 1.03916 1.789267 1.414214 1.414214 
C 1.789267 1.03916 2 0.530406 2 0 
C 2 -0.530406 1.789267 -1.03916 1.414214 -1.414214 
C 1.03916 -1.789267 0.530406 -2 0 -2 
C -0.530406 -2 -1.03916 -1.789267 -1.414214 -1.414214 
C -1.789267 -1.03916 -2 -0.530406 -2 0 
C -2 0.530406 -1.789267 1.03916 -1.414214 1.414214 
C -1.03916 1.789267 -0.530406 2 0 2 
z
" id="C14_0_57a52c53df"/>
    </defs>
    <g clip-path="url(#pf1643d3a0f)">
     <use style="fill:#1f77b4;" x="250.260618" xlink:href="#C14_0_57a52c53df" y="193.084044"/>
    </g>
    <g clip-path="url(#pf1643d3a0f)">
     <use style="fill:#1f77b4;" x="249.471535" xlink:href="#C14_0_57a52c53df" y="192.803458"/>
    </g>
    <g clip-path="url(#pf1643d3a0f)">
     <use style="fill:#1f77b4;" x="250.133423" xlink:href="#C14_0_57a52c53df" y="199.087918"/>
    </g>
    <g clip-path="url(#pf1643d3a0f)">
     <use style="fill:#1f77b4;" x="249.689395" xlink:href="#C14_0_57a52c53df" y="200.257591"/>
    </g>
   </g>
   <g id="PathCollection_24">
    <defs>
     <path d="M 0 2 
C 0.530406 2 1.03916 1.789267 1.414214 1.414214 
C 1.789267 1.03916 2 0.530406 2 0 
C 2 -0.530406 1.789267 -1.03916 1.414214 -1.414214 
C 1.03916 -1.789267 0.530406 -2 0 -2 
C -0.530406 -2 -1.03916 -1.789267 -1.414214 -1.414214 
C -1.789267 -1.03916 -2 -0.530406 -2 0 
C -2 0.530406 -1.789267 1.03916 -1.414214 1.414214 
C -1.03916 1.789267 -0.530406 2 0 2 
z
" id="C15_0_9b258958ec"/>
    </defs>
    <g clip-path="url(#pf1643d3a0f)">
     <use style="fill:#ff7f0e;" x="257.631362" xlink:href="#C15_0_9b258958ec" y="225.062108"/>
    </g>
    <g clip-path="url(#pf1643d3a0f)">
     <use style="fill:#ff7f0e;" x="256.168418" xlink:href="#C15_0_9b258958ec" y="224.21832"/>
    </g>
    <g clip-path="url(#pf1643d3a0f)">
     <use style="fill:#ff7f0e;" x="257.5322" xlink:href="#C15_0_9b258958ec" y="220.475027"/>
    </g>
    <g clip-path="url(#pf1643d3a0f)">
     <use style="fill:#ff7f0e;" x="256.67523" xlink:href="#C15_0_9b258958ec" y="213.699371"/>
    </g>
   </g>
   <g id="PathCollection_25">
    <defs>
     <path d="M 0 2 
C 0.530406 2 1.03916 1.789267 1.414214 1.414214 
C 1.789267 1.03916 2 0.530406 2 0 
C 2 -0.530406 1.789267 -1.03916 1.414214 -1.414214 
C 1.03916 -1.789267 0.530406 -2 0 -2 
C -0.530406 -2 -1.03916 -1.789267 -1.414214 -1.414214 
C -1.789267 -1.03916 -2 -0.530406 -2 0 
C -2 0.530406 -1.789267 1.03916 -1.414214 1.414214 
C -1.03916 1.789267 -0.530406 2 0 2 
z
" id="C16_0_8377b44445"/>
    </defs>
    <g clip-path="url(#pf1643d3a0f)">
     <use style="fill:#1f77b4;" x="267.405134" xlink:href="#C16_0_8377b44445" y="186.921285"/>
    </g>
    <g clip-path="url(#pf1643d3a0f)">
     <use style="fill:#1f77b4;" x="268.102948" xlink:href="#C16_0_8377b44445" y="190.403261"/>
    </g>
    <g clip-path="url(#pf1643d3a0f)">
     <use style="fill:#1f77b4;" x="268.00513" xlink:href="#C16_0_8377b44445" y="111.4672"/>
    </g>
    <g clip-path="url(#pf1643d3a0f)">
     <use style="fill:#1f77b4;" x="267.751685" xlink:href="#C16_0_8377b44445" y="108.184677"/>
    </g>
   </g>
   <g id="PathCollection_26">
    <defs>
     <path d="M 0 2 
C 0.530406 2 1.03916 1.789267 1.414214 1.414214 
C 1.789267 1.03916 2 0.530406 2 0 
C 2 -0.530406 1.789267 -1.03916 1.414214 -1.414214 
C 1.03916 -1.789267 0.530406 -2 0 -2 
C -0.530406 -2 -1.03916 -1.789267 -1.414214 -1.414214 
C -1.789267 -1.03916 -2 -0.530406 -2 0 
C -2 0.530406 -1.789267 1.03916 -1.414214 1.414214 
C -1.03916 1.789267 -0.530406 2 0 2 
z
" id="C17_0_ebcc575f57"/>
    </defs>
    <g clip-path="url(#pf1643d3a0f)">
     <use style="fill:#ff7f0e;" x="273.964801" xlink:href="#C17_0_ebcc575f57" y="168.02531"/>
    </g>
    <g clip-path="url(#pf1643d3a0f)">
     <use style="fill:#ff7f0e;" x="274.263359" xlink:href="#C17_0_ebcc575f57" y="172.937939"/>
    </g>
    <g clip-path="url(#pf1643d3a0f)">
     <use style="fill:#ff7f0e;" x="274.012544" xlink:href="#C17_0_ebcc575f57" y="171.379163"/>
    </g>
    <g clip-path="url(#pf1643d3a0f)">
     <use style="fill:#ff7f0e;" x="273.645862" xlink:href="#C17_0_ebcc575f57" y="193.704039"/>
    </g>
   </g>
   <g id="PathCollection_27">
    <defs>
     <path d="M 0 2 
C 0.530406 2 1.03916 1.789267 1.414214 1.414214 
C 1.789267 1.03916 2 0.530406 2 0 
C 2 -0.530406 1.789267 -1.03916 1.414214 -1.414214 
C 1.03916 -1.789267 0.530406 -2 0 -2 
C -0.530406 -2 -1.03916 -1.789267 -1.414214 -1.414214 
C -1.789267 -1.03916 -2 -0.530406 -2 0 
C -2 0.530406 -1.789267 1.03916 -1.414214 1.414214 
C -1.03916 1.789267 -0.530406 2 0 2 
z
" id="C18_0_52779afb7b"/>
    </defs>
    <g clip-path="url(#pf1643d3a0f)">
     <use style="fill:#1f77b4;" x="284.535722" xlink:href="#C18_0_52779afb7b" y="266.039896"/>
    </g>
    <g clip-path="url(#pf1643d3a0f)">
     <use style="fill:#1f77b4;" x="285.262062" xlink:href="#C18_0_52779afb7b" y="265.106862"/>
    </g>
    <g clip-path="url(#pf1643d3a0f)">
     <use style="fill:#1f77b4;" x="284.353613" xlink:href="#C18_0_52779afb7b" y="265.005445"/>
    </g>
    <g clip-path="url(#pf1643d3a0f)">
     <use style="fill:#1f77b4;" x="284.178803" xlink:href="#C18_0_52779afb7b" y="264.904028"/>
    </g>
   </g>
   <g id="PathCollection_28">
    <defs>
     <path d="M 0 2 
C 0.530406 2 1.03916 1.789267 1.414214 1.414214 
C 1.789267 1.03916 2 0.530406 2 0 
C 2 -0.530406 1.789267 -1.03916 1.414214 -1.414214 
C 1.03916 -1.789267 0.530406 -2 0 -2 
C -0.530406 -2 -1.03916 -1.789267 -1.414214 -1.414214 
C -1.789267 -1.03916 -2 -0.530406 -2 0 
C -2 0.530406 -1.789267 1.03916 -1.414214 1.414214 
C -1.03916 1.789267 -0.530406 2 0 2 
z
" id="C19_0_0ef3fe241c"/>
    </defs>
    <g clip-path="url(#pf1643d3a0f)">
     <use style="fill:#ff7f0e;" x="291.101829" xlink:href="#C19_0_0ef3fe241c" y="271.409576"/>
    </g>
    <g clip-path="url(#pf1643d3a0f)">
     <use style="fill:#ff7f0e;" x="291.00557" xlink:href="#C19_0_0ef3fe241c" y="271.932887"/>
    </g>
    <g clip-path="url(#pf1643d3a0f)">
     <use style="fill:#ff7f0e;" x="291.437862" xlink:href="#C19_0_0ef3fe241c" y="269.996841"/>
    </g>
    <g clip-path="url(#pf1643d3a0f)">
     <use style="fill:#ff7f0e;" x="291.749601" xlink:href="#C19_0_0ef3fe241c" y="270.334559"/>
    </g>
   </g>
   <g id="PathCollection_29">
    <defs>
     <path d="M 0 2 
C 0.530406 2 1.03916 1.789267 1.414214 1.414214 
C 1.789267 1.03916 2 0.530406 2 0 
C 2 -0.530406 1.789267 -1.03916 1.414214 -1.414214 
C 1.03916 -1.789267 0.530406 -2 0 -2 
C -0.530406 -2 -1.03916 -1.789267 -1.414214 -1.414214 
C -1.789267 -1.03916 -2 -0.530406 -2 0 
C -2 0.530406 -1.789267 1.03916 -1.414214 1.414214 
C -1.03916 1.789267 -0.530406 2 0 2 
z
" id="C1a_0_ac0382a4d1"/>
    </defs>
    <g clip-path="url(#pf1643d3a0f)">
     <use style="fill:#1f77b4;" x="301.219728" xlink:href="#C1a_0_ac0382a4d1" y="243.396909"/>
    </g>
    <g clip-path="url(#pf1643d3a0f)">
     <use style="fill:#1f77b4;" x="302.336328" xlink:href="#C1a_0_ac0382a4d1" y="245.942471"/>
    </g>
    <g clip-path="url(#pf1643d3a0f)">
     <use style="fill:#1f77b4;" x="301.81458" xlink:href="#C1a_0_ac0382a4d1" y="238.353115"/>
    </g>
    <g clip-path="url(#pf1643d3a0f)">
     <use style="fill:#1f77b4;" x="301.656453" xlink:href="#C1a_0_ac0382a4d1" y="239.279388"/>
    </g>
   </g>
   <g id="PathCollection_30">
    <defs>
     <path d="M 0 2 
C 0.530406 2 1.03916 1.789267 1.414214 1.414214 
C 1.789267 1.03916 2 0.530406 2 0 
C 2 -0.530406 1.789267 -1.03916 1.414214 -1.414214 
C 1.03916 -1.789267 0.530406 -2 0 -2 
C -0.530406 -2 -1.03916 -1.789267 -1.414214 -1.414214 
C -1.789267 -1.03916 -2 -0.530406 -2 0 
C -2 0.530406 -1.789267 1.03916 -1.414214 1.414214 
C -1.03916 1.789267 -0.530406 2 0 2 
z
" id="C1b_0_f9eeeb2699"/>
    </defs>
    <g clip-path="url(#pf1643d3a0f)">
     <use style="fill:#ff7f0e;" x="307.911206" xlink:href="#C1b_0_f9eeeb2699" y="239.921694"/>
    </g>
    <g clip-path="url(#pf1643d3a0f)">
     <use style="fill:#ff7f0e;" x="308.253915" xlink:href="#C1b_0_f9eeeb2699" y="242.534191"/>
    </g>
    <g clip-path="url(#pf1643d3a0f)">
     <use style="fill:#ff7f0e;" x="309.250537" xlink:href="#C1b_0_f9eeeb2699" y="240.545407"/>
    </g>
    <g clip-path="url(#pf1643d3a0f)">
     <use style="fill:#ff7f0e;" x="308.03752" xlink:href="#C1b_0_f9eeeb2699" y="240.915579"/>
    </g>
   </g>
   <g id="PathCollection_31">
    <defs>
     <path d="M 0 2 
C 0.530406 2 1.03916 1.789267 1.414214 1.414214 
C 1.789267 1.03916 2 0.530406 2 0 
C 2 -0.530406 1.789267 -1.03916 1.414214 -1.414214 
C 1.03916 -1.789267 0.530406 -2 0 -2 
C -0.530406 -2 -1.03916 -1.789267 -1.414214 -1.414214 
C -1.789267 -1.03916 -2 -0.530406 -2 0 
C -2 0.530406 -1.789267 1.03916 -1.414214 1.414214 
C -1.03916 1.789267 -0.530406 2 0 2 
z
" id="C1c_0_ca65e82ab6"/>
    </defs>
    <g clip-path="url(#pf1643d3a0f)">
     <use style="fill:#1f77b4;" x="319.195486" xlink:href="#C1c_0_ca65e82ab6" y="251.62181"/>
    </g>
    <g clip-path="url(#pf1643d3a0f)">
     <use style="fill:#1f77b4;" x="319.152991" xlink:href="#C1c_0_ca65e82ab6" y="251.270232"/>
    </g>
    <g clip-path="url(#pf1643d3a0f)">
     <use style="fill:#1f77b4;" x="319.093229" xlink:href="#C1c_0_ca65e82ab6" y="261.584319"/>
    </g>
    <g clip-path="url(#pf1643d3a0f)">
     <use style="fill:#1f77b4;" x="318.906238" xlink:href="#C1c_0_ca65e82ab6" y="261.95618"/>
    </g>
   </g>
   <g id="PathCollection_32">
    <defs>
     <path d="M 0 2 
C 0.530406 2 1.03916 1.789267 1.414214 1.414214 
C 1.789267 1.03916 2 0.530406 2 0 
C 2 -0.530406 1.789267 -1.03916 1.414214 -1.414214 
C 1.03916 -1.789267 0.530406 -2 0 -2 
C -0.530406 -2 -1.03916 -1.789267 -1.414214 -1.414214 
C -1.789267 -1.03916 -2 -0.530406 -2 0 
C -2 0.530406 -1.789267 1.03916 -1.414214 1.414214 
C -1.03916 1.789267 -0.530406 2 0 2 
z
" id="C1d_0_0b121f0a44"/>
    </defs>
    <g clip-path="url(#pf1643d3a0f)">
     <use style="fill:#ff7f0e;" x="326.802977" xlink:href="#C1d_0_0b121f0a44" y="268.496886"/>
    </g>
    <g clip-path="url(#pf1643d3a0f)">
     <use style="fill:#ff7f0e;" x="326.435582" xlink:href="#C1d_0_0b121f0a44" y="267.085165"/>
    </g>
    <g clip-path="url(#pf1643d3a0f)">
     <use style="fill:#ff7f0e;" x="325.763392" xlink:href="#C1d_0_0b121f0a44" y="266.513174"/>
    </g>
    <g clip-path="url(#pf1643d3a0f)">
     <use style="fill:#ff7f0e;" x="326.40729" xlink:href="#C1d_0_0b121f0a44" y="262.318576"/>
    </g>
   </g>
   <g id="PathCollection_33">
    <defs>
     <path d="M 0 2 
C 0.530406 2 1.03916 1.789267 1.414214 1.414214 
C 1.789267 1.03916 2 0.530406 2 0 
C 2 -0.530406 1.789267 -1.03916 1.414214 -1.414214 
C 1.03916 -1.789267 0.530406 -2 0 -2 
C -0.530406 -2 -1.03916 -1.789267 -1.414214 -1.414214 
C -1.789267 -1.03916 -2 -0.530406 -2 0 
C -2 0.530406 -1.789267 1.03916 -1.414214 1.414214 
C -1.03916 1.789267 -0.530406 2 0 2 
z
" id="C1e_0_d881352da7"/>
    </defs>
    <g clip-path="url(#pf1643d3a0f)">
     <use style="fill:#1f77b4;" x="335.997547" xlink:href="#C1e_0_d881352da7" y="282.398423"/>
    </g>
    <g clip-path="url(#pf1643d3a0f)">
     <use style="fill:#1f77b4;" x="336.300229" xlink:href="#C1e_0_d881352da7" y="287.567298"/>
    </g>
    <g clip-path="url(#pf1643d3a0f)">
     <use style="fill:#1f77b4;" x="337.008371" xlink:href="#C1e_0_d881352da7" y="235.54387"/>
    </g>
    <g clip-path="url(#pf1643d3a0f)">
     <use style="fill:#1f77b4;" x="336.004861" xlink:href="#C1e_0_d881352da7" y="235.009742"/>
    </g>
   </g>
   <g id="PathCollection_34">
    <defs>
     <path d="M 0 2 
C 0.530406 2 1.03916 1.789267 1.414214 1.414214 
C 1.789267 1.03916 2 0.530406 2 0 
C 2 -0.530406 1.789267 -1.03916 1.414214 -1.414214 
C 1.03916 -1.789267 0.530406 -2 0 -2 
C -0.530406 -2 -1.03916 -1.789267 -1.414214 -1.414214 
C -1.789267 -1.03916 -2 -0.530406 -2 0 
C -2 0.530406 -1.789267 1.03916 -1.414214 1.414214 
C -1.03916 1.789267 -0.530406 2 0 2 
z
" id="C1f_0_6d0cc6c894"/>
    </defs>
    <g clip-path="url(#pf1643d3a0f)">
     <use style="fill:#ff7f0e;" x="342.788439" xlink:href="#C1f_0_6d0cc6c894" y="281.401158"/>
    </g>
    <g clip-path="url(#pf1643d3a0f)">
     <use style="fill:#ff7f0e;" x="342.712966" xlink:href="#C1f_0_6d0cc6c894" y="281.303798"/>
    </g>
    <g clip-path="url(#pf1643d3a0f)">
     <use style="fill:#ff7f0e;" x="343.075136" xlink:href="#C1f_0_6d0cc6c894" y="281.811896"/>
    </g>
    <g clip-path="url(#pf1643d3a0f)">
     <use style="fill:#ff7f0e;" x="343.730255" xlink:href="#C1f_0_6d0cc6c894" y="287.806642"/>
    </g>
   </g>
   <g id="PathCollection_35">
    <defs>
     <path d="M 0 2 
C 0.530406 2 1.03916 1.789267 1.414214 1.414214 
C 1.789267 1.03916 2 0.530406 2 0 
C 2 -0.530406 1.789267 -1.03916 1.414214 -1.414214 
C 1.03916 -1.789267 0.530406 -2 0 -2 
C -0.530406 -2 -1.03916 -1.789267 -1.414214 -1.414214 
C -1.789267 -1.03916 -2 -0.530406 -2 0 
C -2 0.530406 -1.789267 1.03916 -1.414214 1.414214 
C -1.03916 1.789267 -0.530406 2 0 2 
z
" id="C20_0_5d0dc6814f"/>
    </defs>
    <g clip-path="url(#pf1643d3a0f)">
     <use style="fill:#1f77b4;" x="354.176293" xlink:href="#C20_0_5d0dc6814f" y="280.728426"/>
    </g>
    <g clip-path="url(#pf1643d3a0f)">
     <use style="fill:#1f77b4;" x="352.872826" xlink:href="#C20_0_5d0dc6814f" y="283.885869"/>
    </g>
    <g clip-path="url(#pf1643d3a0f)">
     <use style="fill:#1f77b4;" x="353.304093" xlink:href="#C20_0_5d0dc6814f" y="285.785743"/>
    </g>
    <g clip-path="url(#pf1643d3a0f)">
     <use style="fill:#1f77b4;" x="353.334753" xlink:href="#C20_0_5d0dc6814f" y="284.889895"/>
    </g>
   </g>
   <g id="PathCollection_36">
    <defs>
     <path d="M 0 2 
C 0.530406 2 1.03916 1.789267 1.414214 1.414214 
C 1.789267 1.03916 2 0.530406 2 0 
C 2 -0.530406 1.789267 -1.03916 1.414214 -1.414214 
C 1.03916 -1.789267 0.530406 -2 0 -2 
C -0.530406 -2 -1.03916 -1.789267 -1.414214 -1.414214 
C -1.789267 -1.03916 -2 -0.530406 -2 0 
C -2 0.530406 -1.789267 1.03916 -1.414214 1.414214 
C -1.03916 1.789267 -0.530406 2 0 2 
z
" id="C21_0_d4cc190891"/>
    </defs>
    <g clip-path="url(#pf1643d3a0f)">
     <use style="fill:#ff7f0e;" x="360.192045" xlink:href="#C21_0_d4cc190891" y="282.188152"/>
    </g>
    <g clip-path="url(#pf1643d3a0f)">
     <use style="fill:#ff7f0e;" x="361.267492" xlink:href="#C21_0_d4cc190891" y="285.879723"/>
    </g>
    <g clip-path="url(#pf1643d3a0f)">
     <use style="fill:#ff7f0e;" x="360.925737" xlink:href="#C21_0_d4cc190891" y="285.782363"/>
    </g>
    <g clip-path="url(#pf1643d3a0f)">
     <use style="fill:#ff7f0e;" x="361.295165" xlink:href="#C21_0_d4cc190891" y="284.350358"/>
    </g>
   </g>
   <g id="PathCollection_37">
    <defs>
     <path d="M 0 2 
C 0.530406 2 1.03916 1.789267 1.414214 1.414214 
C 1.789267 1.03916 2 0.530406 2 0 
C 2 -0.530406 1.789267 -1.03916 1.414214 -1.414214 
C 1.03916 -1.789267 0.530406 -2 0 -2 
C -0.530406 -2 -1.03916 -1.789267 -1.414214 -1.414214 
C -1.789267 -1.03916 -2 -0.530406 -2 0 
C -2 0.530406 -1.789267 1.03916 -1.414214 1.414214 
C -1.03916 1.789267 -0.530406 2 0 2 
z
" id="C22_0_e037d097c0"/>
    </defs>
    <g clip-path="url(#pf1643d3a0f)">
     <use style="fill:#1f77b4;" x="370.888917" xlink:href="#C22_0_e037d097c0" y="254.488525"/>
    </g>
    <g clip-path="url(#pf1643d3a0f)">
     <use style="fill:#1f77b4;" x="370.030086" xlink:href="#C22_0_e037d097c0" y="254.620366"/>
    </g>
    <g clip-path="url(#pf1643d3a0f)">
     <use style="fill:#1f77b4;" x="370.457644" xlink:href="#C22_0_e037d097c0" y="253.359418"/>
    </g>
    <g clip-path="url(#pf1643d3a0f)">
     <use style="fill:#1f77b4;" x="371.495079" xlink:href="#C22_0_e037d097c0" y="253.528446"/>
    </g>
   </g>
   <g id="PathCollection_38">
    <defs>
     <path d="M 0 2 
C 0.530406 2 1.03916 1.789267 1.414214 1.414214 
C 1.789267 1.03916 2 0.530406 2 0 
C 2 -0.530406 1.789267 -1.03916 1.414214 -1.414214 
C 1.03916 -1.789267 0.530406 -2 0 -2 
C -0.530406 -2 -1.03916 -1.789267 -1.414214 -1.414214 
C -1.789267 -1.03916 -2 -0.530406 -2 0 
C -2 0.530406 -1.789267 1.03916 -1.414214 1.414214 
C -1.03916 1.789267 -0.530406 2 0 2 
z
" id="C23_0_bb0da3a04a"/>
    </defs>
    <g clip-path="url(#pf1643d3a0f)">
     <use style="fill:#ff7f0e;" x="378.465459" xlink:href="#C23_0_bb0da3a04a" y="252.107935"/>
    </g>
    <g clip-path="url(#pf1643d3a0f)">
     <use style="fill:#ff7f0e;" x="377.309808" xlink:href="#C23_0_bb0da3a04a" y="255.170721"/>
    </g>
    <g clip-path="url(#pf1643d3a0f)">
     <use style="fill:#ff7f0e;" x="377.529094" xlink:href="#C23_0_bb0da3a04a" y="252.172841"/>
    </g>
    <g clip-path="url(#pf1643d3a0f)">
     <use style="fill:#ff7f0e;" x="377.979036" xlink:href="#C23_0_bb0da3a04a" y="251.641417"/>
    </g>
   </g>
   <g id="PathCollection_39">
    <defs>
     <path d="M 0 2 
C 0.530406 2 1.03916 1.789267 1.414214 1.414214 
C 1.789267 1.03916 2 0.530406 2 0 
C 2 -0.530406 1.789267 -1.03916 1.414214 -1.414214 
C 1.03916 -1.789267 0.530406 -2 0 -2 
C -0.530406 -2 -1.03916 -1.789267 -1.414214 -1.414214 
C -1.789267 -1.03916 -2 -0.530406 -2 0 
C -2 0.530406 -1.789267 1.03916 -1.414214 1.414214 
C -1.03916 1.789267 -0.530406 2 0 2 
z
" id="C24_0_141a1a288d"/>
    </defs>
    <g clip-path="url(#pf1643d3a0f)">
     <use style="fill:#1f77b4;" x="387.588995" xlink:href="#C24_0_141a1a288d" y="233.674421"/>
    </g>
    <g clip-path="url(#pf1643d3a0f)">
     <use style="fill:#1f77b4;" x="387.40937" xlink:href="#C24_0_141a1a288d" y="236.155751"/>
    </g>
    <g clip-path="url(#pf1643d3a0f)">
     <use style="fill:#1f77b4;" x="388.328702" xlink:href="#C24_0_141a1a288d" y="211.808963"/>
    </g>
    <g clip-path="url(#pf1643d3a0f)">
     <use style="fill:#1f77b4;" x="387.396352" xlink:href="#C24_0_141a1a288d" y="213.942096"/>
    </g>
   </g>
   <g id="PathCollection_40">
    <defs>
     <path d="M 0 2 
C 0.530406 2 1.03916 1.789267 1.414214 1.414214 
C 1.789267 1.03916 2 0.530406 2 0 
C 2 -0.530406 1.789267 -1.03916 1.414214 -1.414214 
C 1.03916 -1.789267 0.530406 -2 0 -2 
C -0.530406 -2 -1.03916 -1.789267 -1.414214 -1.414214 
C -1.789267 -1.03916 -2 -0.530406 -2 0 
C -2 0.530406 -1.789267 1.03916 -1.414214 1.414214 
C -1.03916 1.789267 -0.530406 2 0 2 
z
" id="C25_0_70eb32fa7e"/>
    </defs>
    <g clip-path="url(#pf1643d3a0f)">
     <use style="fill:#ff7f0e;" x="395.390899" xlink:href="#C25_0_70eb32fa7e" y="231.106548"/>
    </g>
    <g clip-path="url(#pf1643d3a0f)">
     <use style="fill:#ff7f0e;" x="395.874781" xlink:href="#C25_0_70eb32fa7e" y="232.571006"/>
    </g>
    <g clip-path="url(#pf1643d3a0f)">
     <use style="fill:#ff7f0e;" x="395.828772" xlink:href="#C25_0_70eb32fa7e" y="232.143027"/>
    </g>
    <g clip-path="url(#pf1643d3a0f)">
     <use style="fill:#ff7f0e;" x="394.848342" xlink:href="#C25_0_70eb32fa7e" y="238.923753"/>
    </g>
   </g>
   <g id="text_28">
    <!-- * -->
    <defs>
     <path d="M 3.8125 59.125 
L 5.765625 64.546875 
L 16.3125 60.75 
L 16.3125 71.734375 
L 21.96875 71.734375 
L 21.96875 60.84375 
L 32.625 64.546875 
L 34.578125 59.125 
L 23.921875 55.671875 
L 30.515625 46.484375 
L 25.6875 43.015625 
L 19.28125 52.546875 
L 12.84375 43.015625 
L 7.859375 46.484375 
L 14.546875 55.671875 
z
" id="Helvetica-2a"/>
    </defs>
    <g style="fill:#1a1a1a;" transform="translate(77.82113 85.085769)scale(0.15 -0.15)">
     <use xlink:href="#Helvetica-2a"/>
    </g>
   </g>
   <g id="text_29">
    <!-- * -->
    <g style="fill:#1a1a1a;" transform="translate(95.089989 209.257095)scale(0.15 -0.15)">
     <use xlink:href="#Helvetica-2a"/>
    </g>
   </g>
   <g id="text_30">
    <!-- * -->
    <g style="fill:#1a1a1a;" transform="translate(112.358848 233.76277)scale(0.15 -0.15)">
     <use xlink:href="#Helvetica-2a"/>
    </g>
   </g>
   <g id="text_31">
    <!-- * -->
    <g style="fill:#1a1a1a;" transform="translate(250.509718 180.549385)scale(0.15 -0.15)">
     <use xlink:href="#Helvetica-2a"/>
    </g>
   </g>
   <g id="text_32">
    <!-- * -->
    <g style="fill:#1a1a1a;" transform="translate(285.047436 252.649955)scale(0.15 -0.15)">
     <use xlink:href="#Helvetica-2a"/>
    </g>
   </g>
   <g id="text_33">
    <!-- * -->
    <g style="fill:#1a1a1a;" transform="translate(319.585153 239.016159)scale(0.15 -0.15)">
     <use xlink:href="#Helvetica-2a"/>
    </g>
   </g>
   <g id="legend_1">
    <g id="PathCollection_41">
     <defs>
      <path d="M 0 1.936492 
C 0.513564 1.936492 1.006162 1.732451 1.369306 1.369306 
C 1.732451 1.006162 1.936492 0.513564 1.936492 0 
C 1.936492 -0.513564 1.732451 -1.006162 1.369306 -1.369306 
C 1.006162 -1.732451 0.513564 -1.936492 0 -1.936492 
C -0.513564 -1.936492 -1.006162 -1.732451 -1.369306 -1.369306 
C -1.732451 -1.006162 -1.936492 -0.513564 -1.936492 0 
C -1.936492 0.513564 -1.732451 1.006162 -1.369306 1.369306 
C -1.006162 1.732451 -0.513564 1.936492 0 1.936492 
z
" id="m6ec5693690" style="stroke:#1f77b4;"/>
     </defs>
     <g>
      <use style="fill:#1f77b4;stroke:#1f77b4;" x="363.266875" xlink:href="#m6ec5693690" y="55.020438"/>
     </g>
    </g>
    <g id="text_34">
     <!-- WT -->
     <defs>
      <path d="M 1.8125 71.734375 
L 12.359375 71.734375 
L 25.875 13.375 
L 42.09375 71.734375 
L 52.640625 71.734375 
L 68.84375 13.375 
L 82.375 71.734375 
L 93.015625 71.734375 
L 74.171875 0 
L 63.96875 0 
L 47.40625 59.46875 
L 30.765625 0 
L 20.5625 0 
z
" id="Helvetica-57"/>
      <path d="M 1.609375 63.1875 
L 1.609375 71.734375 
L 59.8125 71.734375 
L 59.8125 63.1875 
L 35.640625 63.1875 
L 35.640625 0 
L 25.78125 0 
L 25.78125 63.1875 
z
" id="Helvetica-54"/>
     </defs>
     <g style="fill:#1a1a1a;" transform="translate(381.266875 57.645438)scale(0.1 -0.1)">
      <use xlink:href="#Helvetica-57"/>
      <use x="94.384766" xlink:href="#Helvetica-54"/>
     </g>
    </g>
    <g id="PathCollection_42">
     <defs>
      <path d="M 0 1.936492 
C 0.513564 1.936492 1.006162 1.732451 1.369306 1.369306 
C 1.732451 1.006162 1.936492 0.513564 1.936492 0 
C 1.936492 -0.513564 1.732451 -1.006162 1.369306 -1.369306 
C 1.006162 -1.732451 0.513564 -1.936492 0 -1.936492 
C -0.513564 -1.936492 -1.006162 -1.732451 -1.369306 -1.369306 
C -1.732451 -1.006162 -1.936492 -0.513564 -1.936492 0 
C -1.936492 0.513564 -1.732451 1.006162 -1.369306 1.369306 
C -1.006162 1.732451 -0.513564 1.936492 0 1.936492 
z
" id="mb02737e025" style="stroke:#ff7f0e;"/>
     </defs>
     <g>
      <use style="fill:#ff7f0e;stroke:#ff7f0e;" x="363.266875" xlink:href="#mb02737e025" y="69.473563"/>
     </g>
    </g>
    <g id="text_35">
     <!-- CcpA -->
     <defs>
      <path d="M 4.390625 36.625 
Q 4.390625 52.484375 12.796875 62.640625 
Q 21.875 73.6875 37.84375 73.6875 
Q 51.46875 73.6875 58.984375 66.5 
Q 66.5 59.328125 67.328125 50.203125 
L 57.859375 50.203125 
Q 56.25 57.125 51.4375 61.171875 
Q 46.625 65.234375 37.9375 65.234375 
Q 27.34375 65.234375 20.828125 57.78125 
Q 14.3125 50.34375 14.3125 34.96875 
Q 14.3125 22.359375 20.1875 14.515625 
Q 26.078125 6.6875 37.75 6.6875 
Q 48.484375 6.6875 54.109375 14.9375 
Q 57.078125 19.28125 58.546875 26.375 
L 68.015625 26.375 
Q 66.75 15.046875 59.625 7.375 
Q 51.078125 -1.859375 36.578125 -1.859375 
Q 24.078125 -1.859375 15.578125 5.71875 
Q 4.390625 15.71875 4.390625 36.625 
z
M 35.890625 73.6875 
z
" id="Helvetica-43"/>
      <path d="M 1.46875 0 
L 28.46875 71.734375 
L 39.453125 71.734375 
L 65.484375 0 
L 54.828125 0 
L 47.5625 21.484375 
L 19.1875 21.484375 
L 11.421875 0 
z
M 21.96875 29.390625 
L 44.4375 29.390625 
L 33.546875 61.078125 
z
M 33.5 71.734375 
z
" id="Helvetica-41"/>
     </defs>
     <g style="fill:#1a1a1a;" transform="translate(381.266875 72.098563)scale(0.1 -0.1)">
      <use xlink:href="#Helvetica-43"/>
      <use x="72.216797" xlink:href="#Helvetica-63"/>
      <use x="122.216797" xlink:href="#Helvetica-70"/>
      <use x="177.832031" xlink:href="#Helvetica-41"/>
     </g>
    </g>
   </g>
  </g>
 </g>
 <defs>
  <clipPath id="pf1643d3a0f">
   <rect height="266.112" width="357.12" x="57.6" y="41.472"/>
  </clipPath>
 </defs>
</svg>
