<?xml version="1.0" encoding="utf-8" standalone="no"?>
<!DOCTYPE svg PUBLIC "-//W3C//DTD SVG 1.1//EN"
  "http://www.w3.org/Graphics/SVG/1.1/DTD/svg11.dtd">
<!-- Created with matplotlib (http://matplotlib.org/) -->
<svg height="326.553125pt" version="1.1" viewBox="0 0 298.426562 326.553125" width="298.426562pt" xmlns="http://www.w3.org/2000/svg" xmlns:xlink="http://www.w3.org/1999/xlink">
 <defs>
  <style type="text/css">
*{stroke-linecap:butt;stroke-linejoin:round;}
  </style>
 </defs>
 <g id="figure_1">
  <g id="patch_1">
   <path d="M 0 326.553125 
L 298.426562 326.553125 
L 298.426562 0 
L 0 0 
z
" style="fill:#ffffff;"/>
  </g>
  <g id="axes_1">
   <g id="patch_2">
    <path d="M 41.357813 287.9 
L 152.957812 287.9 
L 152.957812 10.7 
L 41.357813 10.7 
z
" style="fill:#ffffff;"/>
   </g>
   <g id="patch_3">
    <path clip-path="url(#p7c09655072)" d="M 54.643527 287.9 
L 86.529241 287.9 
L 86.529241 281.297722 
L 54.643527 281.297722 
z
" style="fill:#e41a1c;"/>
   </g>
   <g id="patch_4">
    <path clip-path="url(#p7c09655072)" d="M 107.786384 287.9 
L 139.672098 287.9 
L 139.672098 277.668473 
L 107.786384 277.668473 
z
" style="fill:#e41a1c;"/>
   </g>
   <g id="patch_5">
    <path clip-path="url(#p7c09655072)" d="M 54.643527 281.297722 
L 86.529241 281.297722 
L 86.529241 260.207935 
L 54.643527 260.207935 
z
" style="fill:#377eb8;"/>
   </g>
   <g id="patch_6">
    <path clip-path="url(#p7c09655072)" d="M 107.786384 277.668473 
L 139.672098 277.668473 
L 139.672098 250.501854 
L 107.786384 250.501854 
z
" style="fill:#377eb8;"/>
   </g>
   <g id="patch_7">
    <path clip-path="url(#p7c09655072)" d="M 54.643527 260.207935 
L 86.529241 260.207935 
L 86.529241 258.917048 
L 54.643527 258.917048 
z
" style="fill:#ffff33;"/>
   </g>
   <g id="patch_8">
    <path clip-path="url(#p7c09655072)" d="M 107.786384 250.501854 
L 139.672098 250.501854 
L 139.672098 249.207403 
L 107.786384 249.207403 
z
" style="fill:#ffff33;"/>
   </g>
   <g id="patch_9">
    <path clip-path="url(#p7c09655072)" d="M 54.643527 258.917048 
L 86.529241 258.917048 
L 86.529241 156.019472 
L 54.643527 156.019472 
z
" style="fill:#4daf4a;"/>
   </g>
   <g id="patch_10">
    <path clip-path="url(#p7c09655072)" d="M 107.786384 249.207403 
L 139.672098 249.207403 
L 139.672098 146.379561 
L 107.786384 146.379561 
z
" style="fill:#4daf4a;"/>
   </g>
   <g id="patch_11">
    <path clip-path="url(#p7c09655072)" d="M 54.643527 156.019472 
L 86.529241 156.019472 
L 86.529241 152.619234 
L 54.643527 152.619234 
z
" style="fill:#984ba3;"/>
   </g>
   <g id="patch_12">
    <path clip-path="url(#p7c09655072)" d="M 107.786384 146.379561 
L 139.672098 146.379561 
L 139.672098 143.111993 
L 107.786384 143.111993 
z
" style="fill:#984ba3;"/>
   </g>
   <g id="patch_13">
    <path clip-path="url(#p7c09655072)" d="M 54.643527 152.619234 
L 86.529241 152.619234 
L 86.529241 149.88984 
L 54.643527 149.88984 
z
" style="fill:#ff7f00;"/>
   </g>
   <g id="patch_14">
    <path clip-path="url(#p7c09655072)" d="M 107.786384 143.111993 
L 139.672098 143.111993 
L 139.672098 134.828066 
L 107.786384 134.828066 
z
" style="fill:#ff7f00;"/>
   </g>
   <g id="patch_15">
    <path clip-path="url(#p7c09655072)" d="M 54.643527 149.88984 
L 86.529241 149.88984 
L 86.529241 23.9 
L 54.643527 23.9 
z
" style="fill:#f781bf;"/>
   </g>
   <g id="patch_16">
    <path clip-path="url(#p7c09655072)" d="M 107.786384 134.828066 
L 139.672098 134.828066 
L 139.672098 23.9 
L 107.786384 23.9 
z
" style="fill:#f781bf;"/>
   </g>
   <g id="matplotlib.axis_1">
    <g id="xtick_1">
     <g id="line2d_1">
      <defs>
       <path d="M 0 0 
L 0 3.5 
" id="m14d289644d" style="stroke:#1a1a1a;stroke-width:0.8;"/>
      </defs>
      <g>
       <use style="fill:#1a1a1a;stroke:#1a1a1a;stroke-width:0.8;" x="70.586384" xlink:href="#m14d289644d" y="287.9"/>
      </g>
     </g>
     <g id="text_1">
      <!-- WT -->
      <defs>
       <path d="M 1.8125 71.734375 
L 12.359375 71.734375 
L 25.875 13.375 
L 42.09375 71.734375 
L 52.640625 71.734375 
L 68.84375 13.375 
L 82.375 71.734375 
L 93.015625 71.734375 
L 74.171875 0 
L 63.96875 0 
L 47.40625 59.46875 
L 30.765625 0 
L 20.5625 0 
z
" id="Helvetica-57"/>
       <path d="M 1.609375 63.1875 
L 1.609375 71.734375 
L 59.8125 71.734375 
L 59.8125 63.1875 
L 35.640625 63.1875 
L 35.640625 0 
L 25.78125 0 
L 25.78125 63.1875 
z
" id="Helvetica-54"/>
      </defs>
      <g style="fill:#1a1a1a;" transform="translate(73.130915 310.446875)rotate(-90)scale(0.1 -0.1)">
       <use xlink:href="#Helvetica-57"/>
       <use x="94.384766" xlink:href="#Helvetica-54"/>
      </g>
     </g>
    </g>
    <g id="xtick_2">
     <g id="line2d_2">
      <g>
       <use style="fill:#1a1a1a;stroke:#1a1a1a;stroke-width:0.8;" x="123.729241" xlink:href="#m14d289644d" y="287.9"/>
      </g>
     </g>
     <g id="text_2">
      <!-- CcpA -->
      <defs>
       <path d="M 4.390625 36.625 
Q 4.390625 52.484375 12.796875 62.640625 
Q 21.875 73.6875 37.84375 73.6875 
Q 51.46875 73.6875 58.984375 66.5 
Q 66.5 59.328125 67.328125 50.203125 
L 57.859375 50.203125 
Q 56.25 57.125 51.4375 61.171875 
Q 46.625 65.234375 37.9375 65.234375 
Q 27.34375 65.234375 20.828125 57.78125 
Q 14.3125 50.34375 14.3125 34.96875 
Q 14.3125 22.359375 20.1875 14.515625 
Q 26.078125 6.6875 37.75 6.6875 
Q 48.484375 6.6875 54.109375 14.9375 
Q 57.078125 19.28125 58.546875 26.375 
L 68.015625 26.375 
Q 66.75 15.046875 59.625 7.375 
Q 51.078125 -1.859375 36.578125 -1.859375 
Q 24.078125 -1.859375 15.578125 5.71875 
Q 4.390625 15.71875 4.390625 36.625 
z
M 35.890625 73.6875 
z
" id="Helvetica-43"/>
       <path d="M 2.875 24.703125 
Q 2.875 38.484375 9.5625 46.140625 
Q 16.265625 53.8125 26.609375 53.8125 
Q 35.453125 53.8125 40.984375 49.515625 
Q 46.53125 45.21875 47.65625 34.71875 
L 39.109375 34.71875 
Q 38.328125 39.546875 35.546875 42.75 
Q 32.765625 45.953125 26.609375 45.953125 
Q 18.21875 45.953125 14.59375 37.75 
Q 12.25 32.421875 12.25 24.609375 
Q 12.25 16.75 15.5625 11.375 
Q 18.890625 6 26.03125 6 
Q 31.5 6 34.6875 9.34375 
Q 37.890625 12.703125 39.109375 18.5 
L 47.65625 18.5 
Q 46.1875 8.109375 40.328125 3.296875 
Q 34.46875 -1.515625 25.34375 -1.515625 
Q 15.09375 -1.515625 8.984375 5.984375 
Q 2.875 13.484375 2.875 24.703125 
z
M 25.25 53.5625 
z
" id="Helvetica-63"/>
       <path d="M 5.765625 -20.84375 
L 5.765625 52.046875 
L 14.3125 52.046875 
L 14.3125 45.125 
Q 16.9375 48.6875 20.0625 50.640625 
Q 24.515625 53.5625 30.515625 53.5625 
Q 39.40625 53.5625 45.609375 46.75 
Q 51.8125 39.9375 51.8125 27.296875 
Q 51.8125 10.203125 42.875 2.875 
Q 37.203125 -1.765625 29.6875 -1.765625 
Q 23.78125 -1.765625 19.78125 0.828125 
Q 17.4375 2.296875 14.546875 5.859375 
L 14.546875 -20.84375 
z
M 14.203125 24.3125 
Q 14.203125 18.265625 16.015625 14.015625 
Q 19.4375 5.90625 28.515625 5.90625 
Q 34.671875 5.90625 38.75 11.0625 
Q 42.828125 16.21875 42.828125 26.46875 
Q 42.828125 32.71875 41.015625 37.203125 
Q 37.59375 45.84375 28.515625 45.84375 
Q 19.390625 45.84375 16.015625 36.71875 
Q 14.203125 31.84375 14.203125 24.3125 
z
" id="Helvetica-70"/>
       <path d="M 1.46875 0 
L 28.46875 71.734375 
L 39.453125 71.734375 
L 65.484375 0 
L 54.828125 0 
L 47.5625 21.484375 
L 19.1875 21.484375 
L 11.421875 0 
z
M 21.96875 29.390625 
L 44.4375 29.390625 
L 33.546875 61.078125 
z
M 33.5 71.734375 
z
" id="Helvetica-41"/>
      </defs>
      <g style="fill:#1a1a1a;" transform="translate(126.371429 319.353125)rotate(-90)scale(0.1 -0.1)">
       <use xlink:href="#Helvetica-43"/>
       <use x="72.216797" xlink:href="#Helvetica-63"/>
       <use x="122.216797" xlink:href="#Helvetica-70"/>
       <use x="177.832031" xlink:href="#Helvetica-41"/>
      </g>
     </g>
    </g>
   </g>
   <g id="matplotlib.axis_2">
    <g id="ytick_1">
     <g id="line2d_3">
      <defs>
       <path d="M 0 0 
L -3.5 0 
" id="m580beb6e78" style="stroke:#1a1a1a;stroke-width:0.8;"/>
      </defs>
      <g>
       <use style="fill:#1a1a1a;stroke:#1a1a1a;stroke-width:0.8;" x="41.357813" xlink:href="#m580beb6e78" y="287.9"/>
      </g>
     </g>
     <g id="text_3">
      <!-- 0.0 -->
      <defs>
       <path d="M 3.125 33.546875 
Q 3.125 45.453125 6.203125 54 
Q 11.96875 69.921875 27.046875 69.921875 
Q 40.625 69.921875 46.6875 58.734375 
Q 51.375 50.09375 51.375 35.0625 
Q 51.375 20.796875 47.125 11.46875 
Q 40.96875 -1.90625 27 -1.90625 
Q 14.40625 -1.90625 8.25 9.03125 
Q 3.125 18.171875 3.125 33.546875 
z
M 12.640625 33.203125 
Q 12.640625 22.515625 14.9375 16.015625 
Q 18.453125 6.109375 26.953125 6.109375 
Q 33.796875 6.109375 37.84375 12.15625 
Q 41.890625 18.21875 41.890625 34.71875 
Q 41.890625 46.625 38.953125 54.3125 
Q 36.03125 62.015625 27.59375 62.015625 
Q 19.828125 62.015625 16.234375 54.703125 
Q 12.640625 47.40625 12.640625 33.203125 
z
" id="Helvetica-30"/>
       <path d="M 8.546875 0 
L 8.546875 10.640625 
L 18.75 10.640625 
L 18.75 0 
z
" id="Helvetica-2e"/>
      </defs>
      <g style="fill:#1a1a1a;" transform="translate(20.457813 291.486719)scale(0.1 -0.1)">
       <use xlink:href="#Helvetica-30"/>
       <use x="55.615234" xlink:href="#Helvetica-2e"/>
       <use x="83.398438" xlink:href="#Helvetica-30"/>
      </g>
     </g>
    </g>
    <g id="ytick_2">
     <g id="line2d_4">
      <g>
       <use style="fill:#1a1a1a;stroke:#1a1a1a;stroke-width:0.8;" x="41.357813" xlink:href="#m580beb6e78" y="235.1"/>
      </g>
     </g>
     <g id="text_4">
      <!-- 0.2 -->
      <defs>
       <path d="M 3.125 0 
Q 3.609375 9.03125 6.859375 15.71875 
Q 10.109375 22.40625 19.53125 27.875 
L 28.90625 33.296875 
Q 35.203125 36.96875 37.75 39.546875 
Q 41.75 43.609375 41.75 48.828125 
Q 41.75 54.9375 38.078125 58.515625 
Q 34.421875 62.109375 28.328125 62.109375 
Q 19.28125 62.109375 15.828125 55.28125 
Q 13.96875 51.609375 13.765625 45.125 
L 4.828125 45.125 
Q 4.984375 54.25 8.203125 60.015625 
Q 13.921875 70.171875 28.375 70.171875 
Q 40.375 70.171875 45.921875 63.671875 
Q 51.46875 57.171875 51.46875 49.21875 
Q 51.46875 40.828125 45.5625 34.859375 
Q 42.140625 31.390625 33.296875 26.46875 
L 26.609375 22.75 
Q 21.828125 20.125 19.09375 17.71875 
Q 14.203125 13.484375 12.9375 8.296875 
L 51.125 8.296875 
L 51.125 0 
z
" id="Helvetica-32"/>
      </defs>
      <g style="fill:#1a1a1a;" transform="translate(20.457813 238.686719)scale(0.1 -0.1)">
       <use xlink:href="#Helvetica-30"/>
       <use x="55.615234" xlink:href="#Helvetica-2e"/>
       <use x="83.398438" xlink:href="#Helvetica-32"/>
      </g>
     </g>
    </g>
    <g id="ytick_3">
     <g id="line2d_5">
      <g>
       <use style="fill:#1a1a1a;stroke:#1a1a1a;stroke-width:0.8;" x="41.357813" xlink:href="#m580beb6e78" y="182.3"/>
      </g>
     </g>
     <g id="text_5">
      <!-- 0.4 -->
      <defs>
       <path d="M 2.546875 17.09375 
L 2.546875 25.6875 
L 34.578125 70.125 
L 42 70.125 
L 42 24.75 
L 52.296875 24.75 
L 52.296875 17.09375 
L 42 17.09375 
L 42 0 
L 33.203125 0 
L 33.203125 17.09375 
z
M 10.640625 24.75 
L 33.0625 24.75 
L 33.0625 56.453125 
z
" id="Helvetica-34"/>
      </defs>
      <g style="fill:#1a1a1a;" transform="translate(20.457813 185.886719)scale(0.1 -0.1)">
       <use xlink:href="#Helvetica-30"/>
       <use x="55.615234" xlink:href="#Helvetica-2e"/>
       <use x="83.398438" xlink:href="#Helvetica-34"/>
      </g>
     </g>
    </g>
    <g id="ytick_4">
     <g id="line2d_6">
      <g>
       <use style="fill:#1a1a1a;stroke:#1a1a1a;stroke-width:0.8;" x="41.357813" xlink:href="#m580beb6e78" y="129.5"/>
      </g>
     </g>
     <g id="text_6">
      <!-- 0.6 -->
      <defs>
       <path d="M 3.765625 30.71875 
Q 3.765625 43.75 6.9375 52.828125 
Q 13.03125 70.21875 29.25 70.21875 
Q 40.96875 70.21875 45.578125 64.140625 
Q 50.203125 58.0625 50.203125 51.609375 
L 41.5 51.609375 
Q 40.71875 55.765625 39.015625 58.109375 
Q 35.84375 62.5 29.390625 62.5 
Q 22.015625 62.5 17.671875 55.6875 
Q 13.328125 48.875 12.84375 36.1875 
Q 15.875 40.625 20.453125 42.828125 
Q 24.65625 44.78125 29.828125 44.78125 
Q 38.625 44.78125 45.15625 39.15625 
Q 51.703125 33.546875 51.703125 22.40625 
Q 51.703125 12.890625 45.5 5.53125 
Q 39.3125 -1.8125 27.828125 -1.8125 
Q 18.015625 -1.8125 10.890625 5.640625 
Q 3.765625 13.09375 3.765625 30.71875 
z
M 13.96875 21.6875 
Q 13.96875 15.046875 17.84375 10.515625 
Q 21.734375 6 28.609375 6 
Q 35.546875 6 38.984375 10.65625 
Q 42.4375 15.328125 42.4375 21.6875 
Q 42.4375 27.046875 39.359375 31.90625 
Q 36.28125 36.765625 28.171875 36.765625 
Q 22.515625 36.765625 18.234375 33 
Q 13.96875 29.25 13.96875 21.6875 
z
" id="Helvetica-36"/>
      </defs>
      <g style="fill:#1a1a1a;" transform="translate(20.457813 133.086719)scale(0.1 -0.1)">
       <use xlink:href="#Helvetica-30"/>
       <use x="55.615234" xlink:href="#Helvetica-2e"/>
       <use x="83.398438" xlink:href="#Helvetica-36"/>
      </g>
     </g>
    </g>
    <g id="ytick_5">
     <g id="line2d_7">
      <g>
       <use style="fill:#1a1a1a;stroke:#1a1a1a;stroke-width:0.8;" x="41.357813" xlink:href="#m580beb6e78" y="76.7"/>
      </g>
     </g>
     <g id="text_7">
      <!-- 0.8 -->
      <defs>
       <path d="M 3.21875 19.625 
Q 3.21875 25.828125 6.25 30.34375 
Q 9.28125 34.859375 15.234375 37.25 
Q 11.578125 38.8125 9.515625 40.921875 
Q 5.671875 44.828125 5.671875 51.078125 
Q 5.671875 58.890625 11.328125 64.5 
Q 17 70.125 27.390625 70.125 
Q 37.453125 70.125 43.15625 64.8125 
Q 48.875 59.515625 48.875 52.4375 
Q 48.875 45.90625 45.5625 41.84375 
Q 43.703125 39.546875 39.796875 37.359375 
Q 44.140625 35.359375 46.625 32.765625 
Q 51.265625 27.875 51.265625 20.0625 
Q 51.265625 10.84375 45.0625 4.421875 
Q 38.875 -2 27.546875 -2 
Q 17.328125 -2 10.265625 3.53125 
Q 3.21875 9.078125 3.21875 19.625 
z
M 12.84375 19.4375 
Q 12.84375 13.96875 16.484375 9.984375 
Q 20.125 6 27.734375 6 
Q 33.84375 6 37.859375 9.296875 
Q 41.890625 12.59375 41.890625 19.140625 
Q 41.890625 25.921875 37.734375 29.4375 
Q 33.59375 32.953125 27.09375 32.953125 
Q 20.796875 32.953125 16.8125 29.359375 
Q 12.84375 25.78125 12.84375 19.4375 
z
M 14.890625 51.125 
Q 14.890625 46.1875 18.546875 43.40625 
Q 22.21875 40.625 27.203125 40.625 
Q 33.015625 40.625 36.28125 43.875 
Q 39.546875 47.125 39.546875 51.609375 
Q 39.546875 55.515625 36.421875 58.78125 
Q 33.296875 62.0625 26.90625 62.0625 
Q 20.5625 62.0625 17.71875 58.78125 
Q 14.890625 55.515625 14.890625 51.125 
z
" id="Helvetica-38"/>
      </defs>
      <g style="fill:#1a1a1a;" transform="translate(20.457813 80.286719)scale(0.1 -0.1)">
       <use xlink:href="#Helvetica-30"/>
       <use x="55.615234" xlink:href="#Helvetica-2e"/>
       <use x="83.398438" xlink:href="#Helvetica-38"/>
      </g>
     </g>
    </g>
    <g id="ytick_6">
     <g id="line2d_8">
      <g>
       <use style="fill:#1a1a1a;stroke:#1a1a1a;stroke-width:0.8;" x="41.357813" xlink:href="#m580beb6e78" y="23.9"/>
      </g>
     </g>
     <g id="text_8">
      <!-- 1.0 -->
      <defs>
       <path d="M 9.578125 49.515625 
L 9.578125 56.25 
Q 19.09375 57.171875 22.84375 59.34375 
Q 26.609375 61.53125 28.46875 69.625 
L 35.40625 69.625 
L 35.40625 0 
L 26.03125 0 
L 26.03125 49.515625 
z
" id="Helvetica-31"/>
      </defs>
      <g style="fill:#1a1a1a;" transform="translate(20.457813 27.486719)scale(0.1 -0.1)">
       <use xlink:href="#Helvetica-31"/>
       <use x="55.615234" xlink:href="#Helvetica-2e"/>
       <use x="83.398438" xlink:href="#Helvetica-30"/>
      </g>
     </g>
    </g>
    <g id="text_9">
     <!-- iBAQ fraction -->
     <defs>
      <path d="M 6.453125 0 
L 6.453125 52.046875 
L 15.375 52.046875 
L 15.375 0 
z
M 6.453125 61.765625 
L 6.453125 71.734375 
L 15.375 71.734375 
L 15.375 61.765625 
z
" id="Helvetica-69"/>
      <path d="M 7.375 0 
L 7.375 71.734375 
L 38.1875 71.734375 
Q 50.78125 71.734375 56.109375 64.203125 
Q 59.234375 59.765625 59.234375 53.953125 
Q 59.234375 47.171875 55.375 42.828125 
Q 53.375 40.53125 49.609375 38.625 
Q 55.125 36.53125 57.859375 33.890625 
Q 62.703125 29.203125 62.703125 20.953125 
Q 62.703125 14.015625 58.34375 8.40625 
Q 51.859375 0 37.703125 0 
z
M 16.890625 8.296875 
L 37.84375 8.296875 
Q 46.78125 8.296875 50.59375 13.484375 
Q 52.984375 16.75 52.984375 21.390625 
Q 52.984375 29.203125 46 32.03125 
Q 42.28125 33.546875 36.1875 33.546875 
L 16.890625 33.546875 
z
M 16.890625 41.40625 
L 34.578125 41.40625 
Q 40.71875 41.40625 44.140625 43.109375 
Q 49.515625 45.796875 49.515625 52.78125 
Q 49.515625 59.8125 43.796875 62.25 
Q 40.578125 63.625 34.234375 63.625 
L 16.890625 63.625 
z
" id="Helvetica-42"/>
      <path d="M 3.90625 35.5 
Q 3.90625 50.046875 11.140625 60.40625 
Q 20.40625 73.6875 38.578125 73.6875 
Q 57.5625 73.6875 66.703125 61.46875 
Q 73.828125 51.953125 73.828125 37.109375 
Q 73.828125 30.171875 72.125 23.78125 
Q 69.53125 14.015625 63.375 7.859375 
L 73.25 0.203125 
L 68.359375 -5.71875 
L 57.28125 2.734375 
Q 53.265625 0.53125 48.609375 -0.78125 
Q 43.953125 -2.09375 38.421875 -2.09375 
Q 21.734375 -2.09375 12.25 8.84375 
Q 3.90625 19.484375 3.90625 35.5 
z
M 13.96875 34.859375 
Q 13.96875 21.921875 20.484375 14.25 
Q 27 6.59375 39.59375 6.59375 
Q 42.625 6.59375 45.265625 7 
Q 47.90625 7.421875 49.859375 8.640625 
L 42 14.796875 
L 46.875 20.796875 
L 56.25 13.53125 
Q 60.6875 18.609375 62.28125 24.90625 
Q 63.875 31.203125 63.875 36.96875 
Q 63.875 49.609375 57.25 57.328125 
Q 50.640625 65.046875 39.15625 65.046875 
Q 27.546875 65.046875 20.75 57.640625 
Q 13.96875 50.25 13.96875 34.859375 
z
" id="Helvetica-51"/>
      <path id="Helvetica-20"/>
      <path d="M 1.375 45.125 
L 1.375 52.046875 
L 8.640625 52.046875 
L 8.640625 60.25 
Q 8.84375 65.71875 10.546875 68.265625 
Q 13.625 72.75 22.40625 72.75 
Q 23.25 72.75 24.125 72.703125 
Q 25 72.65625 26.125 72.5625 
L 26.125 64.546875 
Q 24.75 64.65625 24.140625 64.671875 
Q 23.53125 64.703125 23 64.703125 
Q 19 64.703125 18.21875 62.625 
Q 17.4375 60.546875 17.4375 52.046875 
L 26.125 52.046875 
L 26.125 45.125 
L 17.328125 45.125 
L 17.328125 0 
L 8.640625 0 
L 8.640625 45.125 
z
" id="Helvetica-66"/>
      <path d="M 6.6875 0 
L 6.6875 52.296875 
L 15.046875 52.296875 
L 15.046875 43.265625 
Q 16.0625 45.90625 20.0625 49.6875 
Q 24.078125 53.46875 29.296875 53.46875 
Q 29.546875 53.46875 30.125 53.421875 
Q 30.71875 53.375 32.125 53.21875 
L 32.125 43.953125 
Q 31.34375 44.09375 30.6875 44.140625 
Q 30.03125 44.1875 29.25 44.1875 
Q 22.609375 44.1875 19.046875 39.90625 
Q 15.484375 35.640625 15.484375 30.078125 
L 15.484375 0 
z
" id="Helvetica-72"/>
      <path d="M 4 13.71875 
Q 4 21 8.546875 25 
Q 13.09375 29 20.453125 29.9375 
L 34.46875 31.6875 
Q 37.5 32.078125 38.53125 34.234375 
Q 39.109375 35.40625 39.109375 37.59375 
Q 39.109375 42.09375 35.90625 44.109375 
Q 32.71875 46.140625 26.765625 46.140625 
Q 19.875 46.140625 17 42.4375 
Q 15.375 40.375 14.890625 36.328125 
L 6.6875 36.328125 
Q 6.9375 46 12.96875 49.78125 
Q 19 53.5625 26.953125 53.5625 
Q 36.1875 53.5625 41.9375 50.046875 
Q 47.65625 46.53125 47.65625 39.109375 
L 47.65625 8.984375 
Q 47.65625 7.625 48.21875 6.78125 
Q 48.78125 5.953125 50.59375 5.953125 
Q 51.171875 5.953125 51.90625 6.03125 
Q 52.640625 6.109375 53.46875 6.25 
L 53.46875 -0.25 
Q 51.421875 -0.828125 50.34375 -0.96875 
Q 49.265625 -1.125 47.40625 -1.125 
Q 42.875 -1.125 40.828125 2.09375 
Q 39.75 3.8125 39.3125 6.9375 
Q 36.625 3.421875 31.59375 0.828125 
Q 26.5625 -1.765625 20.515625 -1.765625 
Q 13.234375 -1.765625 8.609375 2.65625 
Q 4 7.078125 4 13.71875 
z
M 13.1875 13.921875 
Q 13.1875 10.109375 15.96875 7.90625 
Q 18.75 5.71875 22.5625 5.71875 
Q 27.203125 5.71875 31.546875 7.859375 
Q 38.875 11.421875 38.875 19.53125 
L 38.875 26.609375 
Q 37.25 25.59375 34.703125 24.90625 
Q 32.171875 24.21875 29.734375 23.921875 
L 24.421875 23.25 
Q 19.625 22.609375 17.234375 21.234375 
Q 13.1875 18.953125 13.1875 13.921875 
z
M 27.203125 53.5625 
z
" id="Helvetica-61"/>
      <path d="M 1.125 45.125 
L 1.125 52.296875 
L 8.203125 52.296875 
L 8.203125 66.890625 
L 17.09375 66.890625 
L 17.09375 52.296875 
L 25.4375 52.296875 
L 25.4375 45.125 
L 17.09375 45.125 
L 17.09375 10.984375 
Q 17.09375 8.25 18.953125 7.328125 
Q 19.96875 6.78125 22.359375 6.78125 
Q 23 6.78125 23.734375 6.8125 
Q 24.46875 6.84375 25.4375 6.9375 
L 25.4375 0 
Q 23.921875 -0.4375 22.28125 -0.625 
Q 20.65625 -0.828125 18.75 -0.828125 
Q 12.59375 -0.828125 10.390625 2.3125 
Q 8.203125 5.46875 8.203125 10.5 
L 8.203125 45.125 
z
" id="Helvetica-74"/>
      <path d="M 2.875 25 
Q 2.875 38.1875 9.5625 46 
Q 16.265625 53.8125 27.546875 53.8125 
Q 37.640625 53.8125 44.625 47.0625 
Q 51.609375 40.328125 51.609375 27.25 
Q 51.609375 14.59375 45.453125 6.34375 
Q 39.3125 -1.90625 26.375 -1.90625 
Q 15.578125 -1.90625 9.21875 5.390625 
Q 2.875 12.703125 2.875 25 
z
M 11.921875 25.140625 
Q 11.921875 16.796875 15.578125 11.234375 
Q 19.234375 5.671875 27.203125 5.671875 
Q 35.9375 5.671875 39.1875 12.28125 
Q 42.4375 18.890625 42.4375 27 
Q 42.4375 34.328125 40.09375 38.921875 
Q 36.375 46.140625 27.296875 46.140625 
Q 19.234375 46.140625 15.578125 39.984375 
Q 11.921875 33.84375 11.921875 25.140625 
z
M 27.25 53.5625 
z
" id="Helvetica-6f"/>
      <path d="M 6.453125 0 
L 6.453125 52.296875 
L 14.796875 52.296875 
L 14.796875 44.875 
Q 18.5 49.46875 22.65625 51.46875 
Q 26.8125 53.46875 31.890625 53.46875 
Q 43.015625 53.46875 46.921875 45.703125 
Q 49.078125 41.453125 49.078125 33.546875 
L 49.078125 0 
L 40.140625 0 
L 40.140625 32.953125 
Q 40.140625 37.75 38.71875 40.671875 
Q 36.375 45.5625 30.21875 45.5625 
Q 27.09375 45.5625 25.09375 44.921875 
Q 21.484375 43.84375 18.75 40.625 
Q 16.546875 38.03125 15.890625 35.265625 
Q 15.234375 32.515625 15.234375 27.390625 
L 15.234375 0 
z
M 27.09375 53.5625 
z
" id="Helvetica-6e"/>
     </defs>
     <g style="fill:#1a1a1a;" transform="translate(14.373438 178.754688)rotate(-90)scale(0.1 -0.1)">
      <use xlink:href="#Helvetica-69"/>
      <use x="22.216797" xlink:href="#Helvetica-42"/>
      <use x="88.916016" xlink:href="#Helvetica-41"/>
      <use x="155.615234" xlink:href="#Helvetica-51"/>
      <use x="233.398438" xlink:href="#Helvetica-20"/>
      <use x="261.181641" xlink:href="#Helvetica-66"/>
      <use x="288.964844" xlink:href="#Helvetica-72"/>
      <use x="322.265625" xlink:href="#Helvetica-61"/>
      <use x="377.880859" xlink:href="#Helvetica-63"/>
      <use x="427.880859" xlink:href="#Helvetica-74"/>
      <use x="455.664062" xlink:href="#Helvetica-69"/>
      <use x="477.880859" xlink:href="#Helvetica-6f"/>
      <use x="533.496094" xlink:href="#Helvetica-6e"/>
     </g>
    </g>
   </g>
   <g id="patch_17">
    <path d="M 41.357813 287.9 
L 41.357813 10.7 
" style="fill:none;stroke:#1a1a1a;stroke-linecap:square;stroke-linejoin:miter;stroke-width:0.8;"/>
   </g>
   <g id="patch_18">
    <path d="M 152.957812 287.9 
L 152.957812 10.7 
" style="fill:none;stroke:#1a1a1a;stroke-linecap:square;stroke-linejoin:miter;stroke-width:0.8;"/>
   </g>
   <g id="patch_19">
    <path d="M 41.357813 287.9 
L 152.957813 287.9 
" style="fill:none;stroke:#1a1a1a;stroke-linecap:square;stroke-linejoin:miter;stroke-width:0.8;"/>
   </g>
   <g id="patch_20">
    <path d="M 41.357813 10.7 
L 152.957813 10.7 
" style="fill:none;stroke:#1a1a1a;stroke-linecap:square;stroke-linejoin:miter;stroke-width:0.8;"/>
   </g>
   <g id="text_10">
    <!-- 2.5 % -->
    <defs>
     <path d="M 3.21875 17.828125 
L 12.359375 17.828125 
Q 13.234375 10.296875 19.34375 7.421875 
Q 22.46875 5.953125 26.5625 5.953125 
Q 34.375 5.953125 38.125 10.9375 
Q 41.890625 15.921875 41.890625 21.96875 
Q 41.890625 29.296875 37.421875 33.296875 
Q 32.953125 37.3125 26.703125 37.3125 
Q 22.171875 37.3125 18.921875 35.546875 
Q 15.671875 33.796875 13.375 30.671875 
L 5.765625 31.109375 
L 11.078125 68.75 
L 47.40625 68.75 
L 47.40625 60.25 
L 17.671875 60.25 
L 14.703125 40.828125 
Q 17.140625 42.671875 19.34375 43.609375 
Q 23.25 45.21875 28.375 45.21875 
Q 37.984375 45.21875 44.671875 39.015625 
Q 51.375 32.8125 51.375 23.296875 
Q 51.375 13.375 45.234375 5.796875 
Q 39.109375 -1.765625 25.6875 -1.765625 
Q 17.140625 -1.765625 10.5625 3.046875 
Q 4 7.859375 3.21875 17.828125 
z
" id="Helvetica-35"/>
     <path d="M 3.21875 50.78125 
Q 3.21875 57.8125 8.203125 62.8125 
Q 13.1875 67.828125 20.21875 67.828125 
Q 27.296875 67.828125 32.265625 62.8125 
Q 37.25 57.8125 37.25 50.78125 
Q 37.25 43.75 32.265625 38.765625 
Q 27.296875 33.796875 20.21875 33.796875 
Q 13.1875 33.796875 8.203125 38.765625 
Q 3.21875 43.75 3.21875 50.78125 
z
M 10.15625 50.78125 
Q 10.15625 46.625 13.109375 43.671875 
Q 16.0625 40.71875 20.21875 40.71875 
Q 24.421875 40.71875 27.375 43.671875 
Q 30.328125 46.625 30.328125 50.78125 
Q 30.328125 54.9375 27.375 57.890625 
Q 24.421875 60.84375 20.21875 60.84375 
Q 16.0625 60.84375 13.109375 57.90625 
Q 10.15625 54.984375 10.15625 50.78125 
z
M 21.96875 -1.859375 
L 61.078125 69.625 
L 66.5 69.625 
L 27.390625 -1.859375 
z
M 51.125 17 
Q 51.125 24.03125 56.09375 29 
Q 61.078125 33.984375 68.171875 33.984375 
Q 75.203125 33.984375 80.171875 29 
Q 85.15625 24.03125 85.15625 17 
Q 85.15625 9.96875 80.171875 4.984375 
Q 75.203125 0 68.171875 0 
Q 61.078125 0 56.09375 4.984375 
Q 51.125 9.96875 51.125 17 
z
M 58.0625 17 
Q 58.0625 12.84375 61.015625 9.890625 
Q 63.96875 6.9375 68.171875 6.9375 
Q 72.3125 6.9375 75.265625 9.890625 
Q 78.21875 12.84375 78.21875 17 
Q 78.21875 21.140625 75.265625 24.09375 
Q 72.3125 27.046875 68.171875 27.046875 
Q 63.96875 27.046875 61.015625 24.09375 
Q 58.0625 21.140625 58.0625 17 
z
" id="Helvetica-25"/>
    </defs>
    <g style="fill:#ffffff;" transform="translate(57.801228 287.143392)scale(0.1 -0.1)">
     <use xlink:href="#Helvetica-32"/>
     <use x="55.615234" xlink:href="#Helvetica-2e"/>
     <use x="83.398438" xlink:href="#Helvetica-35"/>
     <use x="139.013672" xlink:href="#Helvetica-20"/>
     <use x="166.796875" xlink:href="#Helvetica-25"/>
    </g>
   </g>
   <g id="text_11">
    <!-- 3.9 % -->
    <defs>
     <path d="M 2.390625 21.484375 
L 11.578125 21.484375 
Q 12.15625 14.703125 14.109375 11.625 
Q 17.53125 6.109375 26.46875 6.109375 
Q 33.40625 6.109375 37.59375 9.8125 
Q 41.796875 13.53125 41.796875 19.390625 
Q 41.796875 26.609375 37.375 29.484375 
Q 32.953125 32.375 25.09375 32.375 
Q 24.21875 32.375 23.3125 32.34375 
Q 22.40625 32.328125 21.484375 32.28125 
L 21.484375 40.046875 
Q 22.859375 39.890625 23.78125 39.84375 
Q 24.703125 39.796875 25.78125 39.796875 
Q 30.71875 39.796875 33.890625 41.359375 
Q 39.453125 44.09375 39.453125 51.125 
Q 39.453125 56.34375 35.734375 59.171875 
Q 32.03125 62.015625 27.09375 62.015625 
Q 18.3125 62.015625 14.9375 56.15625 
Q 13.09375 52.9375 12.84375 46.96875 
L 4.15625 46.96875 
Q 4.15625 54.78125 7.28125 60.25 
Q 12.640625 70.015625 26.171875 70.015625 
Q 36.859375 70.015625 42.71875 65.25 
Q 48.578125 60.5 48.578125 51.46875 
Q 48.578125 45.015625 45.125 41.015625 
Q 42.96875 38.53125 39.546875 37.109375 
Q 45.0625 35.59375 48.15625 31.265625 
Q 51.265625 26.953125 51.265625 20.703125 
Q 51.265625 10.6875 44.671875 4.390625 
Q 38.09375 -1.90625 25.984375 -1.90625 
Q 13.578125 -1.90625 7.984375 4.90625 
Q 2.390625 11.71875 2.390625 21.484375 
z
" id="Helvetica-33"/>
     <path d="M 3.5625 46.046875 
Q 3.5625 55.5625 9.375 62.78125 
Q 15.1875 70.015625 26.515625 70.015625 
Q 41.796875 70.015625 47.609375 56.25 
Q 50.828125 48.6875 50.828125 37.3125 
Q 50.828125 24.46875 46.96875 14.546875 
Q 40.578125 -1.953125 25.296875 -1.953125 
Q 15.046875 -1.953125 9.71875 3.421875 
Q 4.390625 8.796875 4.390625 16.890625 
L 13.28125 16.890625 
Q 13.671875 9.625 18.890625 6.84375 
Q 21.578125 5.375 24.953125 5.375 
Q 31.25 5.375 35.6875 10.625 
Q 40.140625 15.875 42 31.9375 
Q 39.0625 27.296875 34.734375 25.40625 
Q 30.421875 23.53125 25.4375 23.53125 
Q 15.328125 23.53125 9.4375 29.828125 
Q 3.5625 36.140625 3.5625 46.046875 
z
M 12.703125 46.140625 
Q 12.703125 39.3125 16.015625 35.28125 
Q 19.34375 31.25 26.609375 31.25 
Q 31.84375 31.25 36.15625 34.6875 
Q 40.484375 38.140625 40.484375 46.734375 
Q 40.484375 54.4375 36.59375 58.21875 
Q 32.71875 62.015625 26.703125 62.015625 
Q 20.265625 62.015625 16.484375 57.6875 
Q 12.703125 53.375 12.703125 46.140625 
z
" id="Helvetica-39"/>
    </defs>
    <g style="fill:#ffffff;" transform="translate(110.944085 285.328768)scale(0.1 -0.1)">
     <use xlink:href="#Helvetica-33"/>
     <use x="55.615234" xlink:href="#Helvetica-2e"/>
     <use x="83.398438" xlink:href="#Helvetica-39"/>
     <use x="139.013672" xlink:href="#Helvetica-20"/>
     <use x="166.796875" xlink:href="#Helvetica-25"/>
    </g>
   </g>
   <g id="text_12">
    <!-- 8.0 % -->
    <g style="fill:#ffffff;" transform="translate(57.801228 273.29736)scale(0.1 -0.1)">
     <use xlink:href="#Helvetica-38"/>
     <use x="55.615234" xlink:href="#Helvetica-2e"/>
     <use x="83.398438" xlink:href="#Helvetica-30"/>
     <use x="139.013672" xlink:href="#Helvetica-20"/>
     <use x="166.796875" xlink:href="#Helvetica-25"/>
    </g>
   </g>
   <g id="text_13">
    <!-- 10.3 % -->
    <g style="fill:#ffffff;" transform="translate(108.163616 266.629695)scale(0.1 -0.1)">
     <use xlink:href="#Helvetica-31"/>
     <use x="55.615234" xlink:href="#Helvetica-30"/>
     <use x="111.230469" xlink:href="#Helvetica-2e"/>
     <use x="139.013672" xlink:href="#Helvetica-33"/>
     <use x="194.628906" xlink:href="#Helvetica-20"/>
     <use x="222.412109" xlink:href="#Helvetica-25"/>
    </g>
   </g>
   <g id="text_14">
    <!-- 0.5 % -->
    <g style="fill:#ffffff;" transform="translate(57.801228 262.107023)scale(0.1 -0.1)">
     <use xlink:href="#Helvetica-30"/>
     <use x="55.615234" xlink:href="#Helvetica-2e"/>
     <use x="83.398438" xlink:href="#Helvetica-35"/>
     <use x="139.013672" xlink:href="#Helvetica-20"/>
     <use x="166.796875" xlink:href="#Helvetica-25"/>
    </g>
   </g>
   <g id="text_15">
    <!-- 0.5 % -->
    <g style="fill:#ffffff;" transform="translate(110.944085 252.39916)scale(0.1 -0.1)">
     <use xlink:href="#Helvetica-30"/>
     <use x="55.615234" xlink:href="#Helvetica-2e"/>
     <use x="83.398438" xlink:href="#Helvetica-35"/>
     <use x="139.013672" xlink:href="#Helvetica-20"/>
     <use x="166.796875" xlink:href="#Helvetica-25"/>
    </g>
   </g>
   <g id="text_16">
    <!-- 39.0 % -->
    <g style="fill:#ffffff;" transform="translate(55.020759 210.012791)scale(0.1 -0.1)">
     <use xlink:href="#Helvetica-33"/>
     <use x="55.615234" xlink:href="#Helvetica-39"/>
     <use x="111.230469" xlink:href="#Helvetica-2e"/>
     <use x="139.013672" xlink:href="#Helvetica-30"/>
     <use x="194.628906" xlink:href="#Helvetica-20"/>
     <use x="222.412109" xlink:href="#Helvetica-25"/>
    </g>
   </g>
   <g id="text_17">
    <!-- 38.9 % -->
    <g style="fill:#ffffff;" transform="translate(108.163616 200.338013)scale(0.1 -0.1)">
     <use xlink:href="#Helvetica-33"/>
     <use x="55.615234" xlink:href="#Helvetica-38"/>
     <use x="111.230469" xlink:href="#Helvetica-2e"/>
     <use x="139.013672" xlink:href="#Helvetica-39"/>
     <use x="194.628906" xlink:href="#Helvetica-20"/>
     <use x="222.412109" xlink:href="#Helvetica-25"/>
    </g>
   </g>
   <g id="text_18">
    <!-- 1.3 % -->
    <g style="fill:#ffffff;" transform="translate(57.801228 159.884004)scale(0.1 -0.1)">
     <use xlink:href="#Helvetica-31"/>
     <use x="55.615234" xlink:href="#Helvetica-2e"/>
     <use x="83.398438" xlink:href="#Helvetica-33"/>
     <use x="139.013672" xlink:href="#Helvetica-20"/>
     <use x="166.796875" xlink:href="#Helvetica-25"/>
    </g>
   </g>
   <g id="text_19">
    <!-- 1.2 % -->
    <g style="fill:#ffffff;" transform="translate(110.944085 150.244092)scale(0.1 -0.1)">
     <use xlink:href="#Helvetica-31"/>
     <use x="55.615234" xlink:href="#Helvetica-2e"/>
     <use x="83.398438" xlink:href="#Helvetica-32"/>
     <use x="139.013672" xlink:href="#Helvetica-20"/>
     <use x="166.796875" xlink:href="#Helvetica-25"/>
    </g>
   </g>
   <g id="text_20">
    <!-- 1.0 % -->
    <g style="fill:#ffffff;" transform="translate(57.801228 151.114371)scale(0.1 -0.1)">
     <use xlink:href="#Helvetica-31"/>
     <use x="55.615234" xlink:href="#Helvetica-2e"/>
     <use x="83.398438" xlink:href="#Helvetica-30"/>
     <use x="139.013672" xlink:href="#Helvetica-20"/>
     <use x="166.796875" xlink:href="#Helvetica-25"/>
    </g>
   </g>
   <g id="text_21">
    <!-- 3.1 % -->
    <g style="fill:#ffffff;" transform="translate(110.944085 141.51456)scale(0.1 -0.1)">
     <use xlink:href="#Helvetica-33"/>
     <use x="55.615234" xlink:href="#Helvetica-2e"/>
     <use x="83.398438" xlink:href="#Helvetica-31"/>
     <use x="139.013672" xlink:href="#Helvetica-20"/>
     <use x="166.796875" xlink:href="#Helvetica-25"/>
    </g>
   </g>
   <g id="text_22">
    <!-- 47.7 % -->
    <defs>
     <path d="M 3.65625 59.90625 
L 3.65625 68.75 
L 52.296875 68.75 
L 52.296875 61.078125 
Q 48.921875 57.8125 43.328125 49.703125 
Q 37.75 41.609375 33.453125 32.234375 
Q 29.203125 23.09375 27 15.578125 
Q 25.59375 10.75 23.34375 0 
L 13.625 0 
Q 16.9375 20.015625 28.265625 39.84375 
Q 34.96875 51.46875 42.328125 59.90625 
z
" id="Helvetica-37"/>
    </defs>
    <g style="fill:#ffffff;" transform="translate(55.020759 89.439451)scale(0.1 -0.1)">
     <use xlink:href="#Helvetica-34"/>
     <use x="55.615234" xlink:href="#Helvetica-37"/>
     <use x="111.230469" xlink:href="#Helvetica-2e"/>
     <use x="139.013672" xlink:href="#Helvetica-37"/>
     <use x="194.628906" xlink:href="#Helvetica-20"/>
     <use x="222.412109" xlink:href="#Helvetica-25"/>
    </g>
   </g>
   <g id="text_23">
    <!-- 42.0 % -->
    <g style="fill:#ffffff;" transform="translate(108.163616 81.908564)scale(0.1 -0.1)">
     <use xlink:href="#Helvetica-34"/>
     <use x="55.615234" xlink:href="#Helvetica-32"/>
     <use x="111.230469" xlink:href="#Helvetica-2e"/>
     <use x="139.013672" xlink:href="#Helvetica-30"/>
     <use x="194.628906" xlink:href="#Helvetica-20"/>
     <use x="222.412109" xlink:href="#Helvetica-25"/>
    </g>
   </g>
   <g id="legend_1">
    <g id="patch_21">
     <path d="M 161.957812 108.682813 
L 181.957812 108.682813 
L 181.957812 101.682813 
L 161.957812 101.682813 
z
" style="fill:#f781bf;"/>
    </g>
    <g id="text_24">
     <!-- Remaining -->
     <defs>
      <path d="M 8.796875 0 
L 8.796875 71.734375 
L 42 71.734375 
Q 50.203125 71.734375 55.515625 69.34375 
Q 65.625 64.75 65.625 52.390625 
Q 65.625 45.953125 62.953125 41.84375 
Q 60.296875 37.75 55.515625 35.25 
Q 59.71875 33.546875 61.84375 30.765625 
Q 63.96875 27.984375 64.203125 21.734375 
L 64.546875 12.109375 
Q 64.703125 8.015625 65.234375 6 
Q 66.109375 2.59375 68.359375 1.609375 
L 68.359375 0 
L 56.453125 0 
Q 55.953125 0.921875 55.65625 2.390625 
Q 55.375 3.859375 55.171875 8.0625 
L 54.59375 20.015625 
Q 54.25 27.046875 49.359375 29.4375 
Q 46.578125 30.765625 40.625 30.765625 
L 18.5 30.765625 
L 18.5 0 
z
M 18.5 38.875 
L 40.96875 38.875 
Q 47.796875 38.875 51.78125 41.609375 
Q 55.765625 44.34375 55.765625 51.46875 
Q 55.765625 59.125 50.203125 61.921875 
Q 47.21875 63.375 42.234375 63.375 
L 18.5 63.375 
z
" id="Helvetica-52"/>
      <path d="M 3.515625 25.140625 
Q 3.515625 37.75 10.34375 45.609375 
Q 17.1875 53.46875 28.21875 53.46875 
Q 33.796875 53.46875 39.015625 50.859375 
Q 44.234375 48.25 46.96875 44.09375 
Q 49.609375 40.140625 50.484375 34.859375 
Q 51.265625 31.25 51.265625 23.34375 
L 12.9375 23.34375 
Q 13.1875 15.375 16.703125 10.5625 
Q 20.21875 5.765625 27.59375 5.765625 
Q 34.46875 5.765625 38.578125 10.296875 
Q 40.921875 12.9375 41.890625 16.40625 
L 50.53125 16.40625 
Q 50.203125 13.53125 48.265625 9.984375 
Q 46.34375 6.453125 43.953125 4.203125 
Q 39.9375 0.296875 34.03125 -1.078125 
Q 30.859375 -1.859375 26.859375 -1.859375 
Q 17.09375 -1.859375 10.296875 5.25 
Q 3.515625 12.359375 3.515625 25.140625 
z
M 13.1875 30.328125 
L 42.234375 30.328125 
Q 41.703125 36.03125 39.75 39.453125 
Q 36.140625 45.796875 27.6875 45.796875 
Q 21.625 45.796875 17.515625 41.421875 
Q 13.421875 37.0625 13.1875 30.328125 
z
M 27.390625 53.5625 
z
" id="Helvetica-65"/>
      <path d="M 6.453125 0 
L 6.453125 52.296875 
L 15.140625 52.296875 
L 15.140625 44.875 
Q 18.265625 48.734375 20.796875 50.484375 
Q 25.140625 53.46875 30.671875 53.46875 
Q 36.921875 53.46875 40.71875 50.390625 
Q 42.875 48.640625 44.625 45.21875 
Q 47.5625 49.421875 51.515625 51.4375 
Q 55.46875 53.46875 60.40625 53.46875 
Q 70.953125 53.46875 74.75 45.84375 
Q 76.8125 41.75 76.8125 34.8125 
L 76.8125 0 
L 67.671875 0 
L 67.671875 36.328125 
Q 67.671875 41.546875 65.0625 43.5 
Q 62.453125 45.453125 58.6875 45.453125 
Q 53.515625 45.453125 49.78125 41.984375 
Q 46.046875 38.53125 46.046875 30.421875 
L 46.046875 0 
L 37.109375 0 
L 37.109375 34.125 
Q 37.109375 39.453125 35.84375 41.890625 
Q 33.84375 45.5625 28.375 45.5625 
Q 23.390625 45.5625 19.3125 41.703125 
Q 15.234375 37.84375 15.234375 27.734375 
L 15.234375 0 
z
" id="Helvetica-6d"/>
      <path d="M 2.984375 25.34375 
Q 2.984375 38.484375 9.40625 45.84375 
Q 15.828125 53.21875 24.90625 53.21875 
Q 31.0625 53.21875 35.640625 50.203125 
Q 38.140625 48.484375 40.71875 45.21875 
L 40.71875 51.8125 
L 48.828125 51.8125 
L 48.828125 4.25 
Q 48.828125 -5.71875 45.90625 -11.46875 
Q 40.4375 -22.125 25.25 -22.125 
Q 16.796875 -22.125 11.03125 -18.328125 
Q 5.28125 -14.546875 4.59375 -6.5 
L 13.53125 -6.5 
Q 14.15625 -10.015625 16.0625 -11.921875 
Q 19.046875 -14.84375 25.4375 -14.84375 
Q 35.546875 -14.84375 38.671875 -7.71875 
Q 40.375 -3.8125 40.375 5.71875 
Q 40.375 6.5 40.375 7.28125 
Q 37.75 3.265625 34.03125 1.3125 
Q 30.328125 -0.640625 24.21875 -0.640625 
Q 15.71875 -0.640625 9.34375 5.390625 
Q 2.984375 11.421875 2.984375 25.34375 
z
M 12.015625 24.609375 
Q 12.015625 15.765625 15.59375 11.15625 
Q 19.1875 6.546875 25.25 6.546875 
Q 34.71875 6.546875 38.578125 15.09375 
Q 40.71875 19.921875 40.71875 26.375 
Q 40.71875 36.078125 36.71875 40.765625 
Q 32.71875 45.453125 26.515625 45.453125 
Q 17.234375 45.453125 13.8125 36.765625 
Q 12.015625 32.125 12.015625 24.609375 
z
M 25.921875 53.5625 
z
" id="Helvetica-67"/>
     </defs>
     <g style="fill:#1a1a1a;" transform="translate(189.957812 108.682813)scale(0.1 -0.1)">
      <use xlink:href="#Helvetica-52"/>
      <use x="72.216797" xlink:href="#Helvetica-65"/>
      <use x="127.832031" xlink:href="#Helvetica-6d"/>
      <use x="211.132812" xlink:href="#Helvetica-61"/>
      <use x="266.748047" xlink:href="#Helvetica-69"/>
      <use x="288.964844" xlink:href="#Helvetica-6e"/>
      <use x="344.580078" xlink:href="#Helvetica-69"/>
      <use x="366.796875" xlink:href="#Helvetica-6e"/>
      <use x="422.412109" xlink:href="#Helvetica-67"/>
     </g>
    </g>
    <g id="patch_22">
     <path d="M 161.957812 123.092188 
L 181.957812 123.092188 
L 181.957812 116.092188 
L 161.957812 116.092188 
z
" style="fill:#ff7f00;"/>
    </g>
    <g id="text_25">
     <!-- Arginine catabolism -->
     <defs>
      <path d="M 5.765625 0 
L 5.765625 71.96875 
L 14.3125 71.96875 
L 14.3125 45.953125 
Q 17.1875 49.703125 21.1875 51.671875 
Q 25.203125 53.65625 29.890625 53.65625 
Q 39.65625 53.65625 45.734375 46.9375 
Q 51.8125 40.234375 51.8125 27.15625 
Q 51.8125 14.75 45.796875 6.546875 
Q 39.796875 -1.65625 29.15625 -1.65625 
Q 23.1875 -1.65625 19.09375 1.21875 
Q 16.65625 2.9375 13.875 6.6875 
L 13.875 0 
z
M 13.8125 26.703125 
Q 13.8125 19.34375 15.671875 14.75 
Q 19.140625 6.109375 28.609375 6.109375 
Q 35.75 6.109375 39.28125 11.765625 
Q 42.828125 17.4375 42.828125 26.703125 
Q 42.828125 34.96875 39.28125 40.375 
Q 35.75 45.796875 28.859375 45.796875 
Q 22.859375 45.796875 18.328125 41.359375 
Q 13.8125 36.921875 13.8125 26.703125 
z
" id="Helvetica-62"/>
      <path d="M 6.6875 0 
L 6.6875 71.734375 
L 15.484375 71.734375 
L 15.484375 0 
z
" id="Helvetica-6c"/>
      <path d="M 3.21875 16.40625 
L 11.671875 16.40625 
Q 12.0625 12.015625 13.875 9.671875 
Q 17.1875 5.421875 25.390625 5.421875 
Q 30.28125 5.421875 33.984375 7.546875 
Q 37.703125 9.671875 37.703125 14.109375 
Q 37.703125 17.484375 34.71875 19.234375 
Q 32.8125 20.3125 27.203125 21.734375 
L 20.21875 23.484375 
Q 13.53125 25.140625 10.359375 27.203125 
Q 4.6875 30.765625 4.6875 37.0625 
Q 4.6875 44.484375 10.03125 49.0625 
Q 15.375 53.65625 24.421875 53.65625 
Q 36.234375 53.65625 41.453125 46.734375 
Q 44.625 42.484375 44.625 37.546875 
Q 44.625 37.40625 44.625 37.25 
L 36.328125 37.25 
Q 36.078125 40.234375 34.234375 42.671875 
Q 31.203125 46.140625 23.734375 46.140625 
Q 18.75 46.140625 16.1875 44.234375 
Q 13.625 42.328125 13.625 39.203125 
Q 13.625 35.796875 17 33.734375 
Q 18.953125 32.515625 22.75 31.59375 
L 28.5625 30.171875 
Q 38.03125 27.875 41.265625 25.734375 
Q 46.390625 22.359375 46.390625 15.140625 
Q 46.390625 8.15625 41.09375 3.078125 
Q 35.796875 -2 24.953125 -2 
Q 13.28125 -2 8.421875 3.296875 
Q 3.5625 8.59375 3.21875 16.40625 
z
M 24.65625 53.5625 
z
" id="Helvetica-73"/>
     </defs>
     <g style="fill:#1a1a1a;" transform="translate(189.957812 123.092188)scale(0.1 -0.1)">
      <use xlink:href="#Helvetica-41"/>
      <use x="66.699219" xlink:href="#Helvetica-72"/>
      <use x="100" xlink:href="#Helvetica-67"/>
      <use x="155.615234" xlink:href="#Helvetica-69"/>
      <use x="177.832031" xlink:href="#Helvetica-6e"/>
      <use x="233.447266" xlink:href="#Helvetica-69"/>
      <use x="255.664062" xlink:href="#Helvetica-6e"/>
      <use x="311.279297" xlink:href="#Helvetica-65"/>
      <use x="366.894531" xlink:href="#Helvetica-20"/>
      <use x="394.677734" xlink:href="#Helvetica-63"/>
      <use x="444.677734" xlink:href="#Helvetica-61"/>
      <use x="500.292969" xlink:href="#Helvetica-74"/>
      <use x="528.076172" xlink:href="#Helvetica-61"/>
      <use x="583.691406" xlink:href="#Helvetica-62"/>
      <use x="639.306641" xlink:href="#Helvetica-6f"/>
      <use x="694.921875" xlink:href="#Helvetica-6c"/>
      <use x="717.138672" xlink:href="#Helvetica-69"/>
      <use x="739.355469" xlink:href="#Helvetica-73"/>
      <use x="789.355469" xlink:href="#Helvetica-6d"/>
     </g>
    </g>
    <g id="patch_23">
     <path d="M 161.957812 137.501563 
L 181.957812 137.501563 
L 181.957812 130.501563 
L 161.957812 130.501563 
z
" style="fill:#984ba3;"/>
    </g>
    <g id="text_26">
     <!-- Mixed acid production -->
     <defs>
      <path d="M 7.375 0 
L 7.375 71.734375 
L 21.296875 71.734375 
L 41.890625 11.078125 
L 62.359375 71.734375 
L 76.125 71.734375 
L 76.125 0 
L 66.890625 0 
L 66.890625 42.328125 
Q 66.890625 44.53125 66.984375 49.609375 
Q 67.09375 54.6875 67.09375 60.5 
L 46.625 0 
L 37.015625 0 
L 16.40625 60.5 
L 16.40625 58.296875 
Q 16.40625 55.671875 16.53125 50.265625 
Q 16.65625 44.875 16.65625 42.328125 
L 16.65625 0 
z
" id="Helvetica-4d"/>
      <path d="M 0.53125 0 
L 18.953125 26.8125 
L 1.46875 52.296875 
L 12.84375 52.296875 
L 24.859375 33.890625 
L 37.015625 52.296875 
L 47.703125 52.046875 
L 30.078125 26.8125 
L 48.484375 0 
L 37.25 0 
L 24.265625 19.625 
L 11.671875 0 
z
" id="Helvetica-78"/>
      <path d="M 2.734375 25.046875 
Q 2.734375 36.46875 8.5625 44.84375 
Q 14.40625 53.21875 25.25 53.21875 
Q 31.25 53.21875 35.296875 50.6875 
Q 37.640625 49.21875 40.625 45.5625 
L 40.625 71.96875 
L 49.078125 71.96875 
L 49.078125 0 
L 41.15625 0 
L 41.15625 7.28125 
Q 38.09375 2.4375 33.890625 0.28125 
Q 29.6875 -1.859375 24.265625 -1.859375 
Q 15.53125 -1.859375 9.125 5.484375 
Q 2.734375 12.84375 2.734375 25.046875 
z
M 12.015625 25.53125 
Q 12.015625 17.140625 15.578125 11.46875 
Q 19.140625 5.8125 27 5.8125 
Q 33.109375 5.8125 37.03125 11.0625 
Q 40.96875 16.3125 40.96875 26.125 
Q 40.96875 36.03125 36.90625 40.796875 
Q 32.859375 45.5625 26.90625 45.5625 
Q 20.265625 45.5625 16.140625 40.484375 
Q 12.015625 35.40625 12.015625 25.53125 
z
" id="Helvetica-64"/>
      <path d="M 6.25 16.75 
L 6.25 52.296875 
L 15.234375 52.296875 
L 15.234375 17.578125 
Q 15.234375 13.578125 16.5 11.03125 
Q 18.84375 6.34375 25.25 6.34375 
Q 34.421875 6.34375 37.75 14.546875 
Q 39.546875 18.953125 39.546875 26.609375 
L 39.546875 52.296875 
L 48.34375 52.296875 
L 48.34375 0 
L 40.046875 0 
L 40.140625 7.71875 
Q 38.421875 4.734375 35.890625 2.6875 
Q 30.859375 -1.421875 23.6875 -1.421875 
Q 12.5 -1.421875 8.453125 6.0625 
Q 6.25 10.0625 6.25 16.75 
z
M 27.296875 53.5625 
z
" id="Helvetica-75"/>
     </defs>
     <g style="fill:#1a1a1a;" transform="translate(189.957812 137.501563)scale(0.1 -0.1)">
      <use xlink:href="#Helvetica-4d"/>
      <use x="83.300781" xlink:href="#Helvetica-69"/>
      <use x="105.517578" xlink:href="#Helvetica-78"/>
      <use x="155.517578" xlink:href="#Helvetica-65"/>
      <use x="211.132812" xlink:href="#Helvetica-64"/>
      <use x="266.748047" xlink:href="#Helvetica-20"/>
      <use x="294.53125" xlink:href="#Helvetica-61"/>
      <use x="350.146484" xlink:href="#Helvetica-63"/>
      <use x="400.146484" xlink:href="#Helvetica-69"/>
      <use x="422.363281" xlink:href="#Helvetica-64"/>
      <use x="477.978516" xlink:href="#Helvetica-20"/>
      <use x="505.761719" xlink:href="#Helvetica-70"/>
      <use x="561.376953" xlink:href="#Helvetica-72"/>
      <use x="594.677734" xlink:href="#Helvetica-6f"/>
      <use x="650.292969" xlink:href="#Helvetica-64"/>
      <use x="705.908203" xlink:href="#Helvetica-75"/>
      <use x="761.523438" xlink:href="#Helvetica-63"/>
      <use x="811.523438" xlink:href="#Helvetica-74"/>
      <use x="839.306641" xlink:href="#Helvetica-69"/>
      <use x="861.523438" xlink:href="#Helvetica-6f"/>
      <use x="917.138672" xlink:href="#Helvetica-6e"/>
     </g>
    </g>
    <g id="patch_24">
     <path d="M 161.957812 151.759375 
L 181.957812 151.759375 
L 181.957812 144.759375 
L 161.957812 144.759375 
z
" style="fill:#4daf4a;"/>
    </g>
    <g id="text_27">
     <!-- Ribosome -->
     <g style="fill:#1a1a1a;" transform="translate(189.957812 151.759375)scale(0.1 -0.1)">
      <use xlink:href="#Helvetica-52"/>
      <use x="72.216797" xlink:href="#Helvetica-69"/>
      <use x="94.433594" xlink:href="#Helvetica-62"/>
      <use x="150.048828" xlink:href="#Helvetica-6f"/>
      <use x="205.664062" xlink:href="#Helvetica-73"/>
      <use x="255.664062" xlink:href="#Helvetica-6f"/>
      <use x="311.279297" xlink:href="#Helvetica-6d"/>
      <use x="394.580078" xlink:href="#Helvetica-65"/>
     </g>
    </g>
    <g id="patch_25">
     <path d="M 161.957812 166.040625 
L 181.957812 166.040625 
L 181.957812 159.040625 
L 161.957812 159.040625 
z
" style="fill:#ffff33;"/>
    </g>
    <g id="text_28">
     <!-- Lactic acid production -->
     <defs>
      <path d="M 7.625 0 
L 7.625 71.734375 
L 17.328125 71.734375 
L 17.328125 8.546875 
L 53.65625 8.546875 
L 53.65625 0 
z
" id="Helvetica-4c"/>
     </defs>
     <g style="fill:#1a1a1a;" transform="translate(189.957812 166.040625)scale(0.1 -0.1)">
      <use xlink:href="#Helvetica-4c"/>
      <use x="55.615234" xlink:href="#Helvetica-61"/>
      <use x="111.230469" xlink:href="#Helvetica-63"/>
      <use x="161.230469" xlink:href="#Helvetica-74"/>
      <use x="189.013672" xlink:href="#Helvetica-69"/>
      <use x="211.230469" xlink:href="#Helvetica-63"/>
      <use x="261.230469" xlink:href="#Helvetica-20"/>
      <use x="289.013672" xlink:href="#Helvetica-61"/>
      <use x="344.628906" xlink:href="#Helvetica-63"/>
      <use x="394.628906" xlink:href="#Helvetica-69"/>
      <use x="416.845703" xlink:href="#Helvetica-64"/>
      <use x="472.460938" xlink:href="#Helvetica-20"/>
      <use x="500.244141" xlink:href="#Helvetica-70"/>
      <use x="555.859375" xlink:href="#Helvetica-72"/>
      <use x="589.160156" xlink:href="#Helvetica-6f"/>
      <use x="644.775391" xlink:href="#Helvetica-64"/>
      <use x="700.390625" xlink:href="#Helvetica-75"/>
      <use x="756.005859" xlink:href="#Helvetica-63"/>
      <use x="806.005859" xlink:href="#Helvetica-74"/>
      <use x="833.789062" xlink:href="#Helvetica-69"/>
      <use x="856.005859" xlink:href="#Helvetica-6f"/>
      <use x="911.621094" xlink:href="#Helvetica-6e"/>
     </g>
    </g>
    <g id="patch_26">
     <path d="M 161.957812 180.49375 
L 181.957812 180.49375 
L 181.957812 173.49375 
L 161.957812 173.49375 
z
" style="fill:#377eb8;"/>
    </g>
    <g id="text_29">
     <!-- Glycolysis -->
     <defs>
      <path d="M 4.828125 34.765625 
Q 4.828125 52.78125 14.59375 63.421875 
Q 23.875 73.578125 38.625 73.578125 
Q 48.734375 73.578125 56.109375 69.671875 
Q 66.796875 64.0625 69.1875 50 
L 59.578125 50 
Q 57.8125 57.859375 52.296875 61.453125 
Q 46.78125 65.046875 38.375 65.046875 
Q 28.421875 65.046875 21.609375 57.5625 
Q 14.796875 50.09375 14.796875 35.296875 
Q 14.796875 22.515625 20.40625 14.484375 
Q 26.03125 6.453125 38.71875 6.453125 
Q 48.4375 6.453125 54.8125 12.078125 
Q 61.1875 17.71875 61.328125 30.328125 
L 38.875 30.328125 
L 38.875 38.375 
L 70.359375 38.375 
L 70.359375 0 
L 64.109375 0 
L 61.765625 9.234375 
Q 56.84375 3.8125 53.03125 1.703125 
Q 46.625 -1.90625 36.765625 -1.90625 
Q 24.03125 -1.90625 14.84375 6.34375 
Q 4.828125 16.703125 4.828125 34.765625 
z
M 37.015625 73.6875 
z
" id="Helvetica-47"/>
      <path d="M 1.03125 52.296875 
L 10.984375 52.296875 
L 25 9.71875 
L 39.109375 52.296875 
L 48.828125 52.296875 
Q 46.96875 47.265625 40.578125 29.34375 
Q 35.796875 15.875 32.5625 7.375 
Q 24.953125 -12.640625 21.828125 -17.03125 
Q 18.703125 -21.4375 11.078125 -21.4375 
Q 9.234375 -21.4375 8.234375 -21.28125 
Q 7.234375 -21.140625 5.765625 -20.75 
L 5.765625 -12.75 
Q 8.0625 -13.375 9.078125 -13.515625 
Q 10.109375 -13.671875 10.890625 -13.671875 
Q 13.328125 -13.671875 14.46875 -12.859375 
Q 15.625 -12.0625 16.40625 -10.890625 
Q 16.65625 -10.5 18.15625 -6.875 
Q 19.671875 -3.265625 20.359375 -1.515625 
z
M 24.953125 53.5625 
z
" id="Helvetica-79"/>
     </defs>
     <g style="fill:#1a1a1a;" transform="translate(189.957812 180.49375)scale(0.1 -0.1)">
      <use xlink:href="#Helvetica-47"/>
      <use x="77.783203" xlink:href="#Helvetica-6c"/>
      <use x="100" xlink:href="#Helvetica-79"/>
      <use x="150" xlink:href="#Helvetica-63"/>
      <use x="200" xlink:href="#Helvetica-6f"/>
      <use x="255.615234" xlink:href="#Helvetica-6c"/>
      <use x="277.832031" xlink:href="#Helvetica-79"/>
      <use x="327.832031" xlink:href="#Helvetica-73"/>
      <use x="377.832031" xlink:href="#Helvetica-69"/>
      <use x="400.048828" xlink:href="#Helvetica-73"/>
     </g>
    </g>
    <g id="patch_27">
     <path d="M 161.957812 195.00625 
L 181.957812 195.00625 
L 181.957812 188.00625 
L 161.957812 188.00625 
z
" style="fill:#e41a1c;"/>
    </g>
    <g id="text_30">
     <!-- Glucose transporter -->
     <g style="fill:#1a1a1a;" transform="translate(189.957812 195.00625)scale(0.1 -0.1)">
      <use xlink:href="#Helvetica-47"/>
      <use x="77.783203" xlink:href="#Helvetica-6c"/>
      <use x="100" xlink:href="#Helvetica-75"/>
      <use x="155.615234" xlink:href="#Helvetica-63"/>
      <use x="205.615234" xlink:href="#Helvetica-6f"/>
      <use x="261.230469" xlink:href="#Helvetica-73"/>
      <use x="311.230469" xlink:href="#Helvetica-65"/>
      <use x="366.845703" xlink:href="#Helvetica-20"/>
      <use x="394.628906" xlink:href="#Helvetica-74"/>
      <use x="422.412109" xlink:href="#Helvetica-72"/>
      <use x="455.712891" xlink:href="#Helvetica-61"/>
      <use x="511.328125" xlink:href="#Helvetica-6e"/>
      <use x="566.943359" xlink:href="#Helvetica-73"/>
      <use x="616.943359" xlink:href="#Helvetica-70"/>
      <use x="672.558594" xlink:href="#Helvetica-6f"/>
      <use x="728.173828" xlink:href="#Helvetica-72"/>
      <use x="761.474609" xlink:href="#Helvetica-74"/>
      <use x="789.257812" xlink:href="#Helvetica-65"/>
      <use x="844.873047" xlink:href="#Helvetica-72"/>
     </g>
    </g>
   </g>
  </g>
 </g>
 <defs>
  <clipPath id="p7c09655072">
   <rect height="277.2" width="111.6" x="41.357813" y="10.7"/>
  </clipPath>
 </defs>
</svg>
