<?xml version="1.0" encoding="utf-8" standalone="no"?>
<!DOCTYPE svg PUBLIC "-//W3C//DTD SVG 1.1//EN"
  "http://www.w3.org/Graphics/SVG/1.1/DTD/svg11.dtd">
<!-- Created with matplotlib (http://matplotlib.org/) -->
<svg height="328.610193pt" version="1.1" viewBox="0 0 411.969062 328.610193" width="411.969062pt" xmlns="http://www.w3.org/2000/svg" xmlns:xlink="http://www.w3.org/1999/xlink">
 <defs>
  <style type="text/css">
*{stroke-linecap:butt;stroke-linejoin:round;}
  </style>
 </defs>
 <g id="figure_1">
  <g id="patch_1">
   <path d="M 0 328.610193 
L 411.969062 328.610193 
L 411.969062 0 
L 0 0 
z
" style="fill:#ffffff;"/>
  </g>
  <g id="axes_1">
   <g id="patch_2">
    <path d="M 44.149063 276.812 
L 401.269063 276.812 
L 401.269063 10.7 
L 44.149063 10.7 
z
" style="fill:#ffffff;"/>
   </g>
   <g id="PathCollection_1"/>
   <g id="PathCollection_2"/>
   <g id="patch_3">
    <path clip-path="url(#p409fe51915)" d="M 60.38179 172.883896 
L 79.479116 172.883896 
L 79.479116 159.742458 
L 60.38179 159.742458 
z
" style="fill:#3274a1;opacity:0.5;"/>
   </g>
   <g id="patch_4">
    <path clip-path="url(#p409fe51915)" d="M 108.125105 172.883896 
L 127.222431 172.883896 
L 127.222431 141.585168 
L 108.125105 141.585168 
z
" style="fill:#3274a1;opacity:0.5;"/>
   </g>
   <g id="patch_5">
    <path clip-path="url(#p409fe51915)" d="M 155.868421 172.883896 
L 174.965747 172.883896 
L 174.965747 262.108459 
L 155.868421 262.108459 
z
" style="fill:#3274a1;opacity:0.5;"/>
   </g>
   <g id="patch_6">
    <path clip-path="url(#p409fe51915)" d="M 203.611736 172.883896 
L 222.709062 172.883896 
L 222.709062 36.926969 
L 203.611736 36.926969 
z
" style="fill:#3274a1;opacity:0.5;"/>
   </g>
   <g id="patch_7">
    <path clip-path="url(#p409fe51915)" d="M 251.355052 172.883896 
L 270.452378 172.883896 
L 270.452378 172.721637 
L 251.355052 172.721637 
z
" style="fill:#3274a1;opacity:0.5;"/>
   </g>
   <g id="patch_8">
    <path clip-path="url(#p409fe51915)" d="M 299.098367 172.883896 
L 318.195694 172.883896 
L 318.195694 172.75878 
L 299.098367 172.75878 
z
" style="fill:#3274a1;opacity:0.5;"/>
   </g>
   <g id="patch_9">
    <path clip-path="url(#p409fe51915)" d="M 346.841683 172.883896 
L 365.939009 172.883896 
L 365.939009 143.79282 
L 346.841683 143.79282 
z
" style="fill:#3274a1;opacity:0.5;"/>
   </g>
   <g id="patch_10">
    <path clip-path="url(#p409fe51915)" d="M 79.479116 172.883896 
L 98.576442 172.883896 
L 98.576442 156.026054 
L 79.479116 156.026054 
z
" style="fill:#e1812c;opacity:0.5;"/>
   </g>
   <g id="patch_11">
    <path clip-path="url(#p409fe51915)" d="M 127.222431 172.883896 
L 146.319758 172.883896 
L 146.319758 138.244879 
L 127.222431 138.244879 
z
" style="fill:#e1812c;opacity:0.5;"/>
   </g>
   <g id="patch_12">
    <path clip-path="url(#p409fe51915)" d="M 174.965747 172.883896 
L 194.063073 172.883896 
L 194.063073 259.915566 
L 174.965747 259.915566 
z
" style="fill:#e1812c;opacity:0.5;"/>
   </g>
   <g id="patch_13">
    <path clip-path="url(#p409fe51915)" d="M 222.709062 172.883896 
L 241.806389 172.883896 
L 241.806389 56.332324 
L 222.709062 56.332324 
z
" style="fill:#e1812c;opacity:0.5;"/>
   </g>
   <g id="patch_14">
    <path clip-path="url(#p409fe51915)" d="M 270.452378 172.883896 
L 289.549704 172.883896 
L 289.549704 172.29794 
L 270.452378 172.29794 
z
" style="fill:#e1812c;opacity:0.5;"/>
   </g>
   <g id="patch_15">
    <path clip-path="url(#p409fe51915)" d="M 318.195694 172.883896 
L 337.29302 172.883896 
L 337.29302 172.774032 
L 318.195694 172.774032 
z
" style="fill:#e1812c;opacity:0.5;"/>
   </g>
   <g id="patch_16">
    <path clip-path="url(#p409fe51915)" d="M 365.939009 172.883896 
L 385.036335 172.883896 
L 385.036335 133.729069 
L 365.939009 133.729069 
z
" style="fill:#e1812c;opacity:0.5;"/>
   </g>
   <g id="matplotlib.axis_1">
    <g id="xtick_1">
     <g id="line2d_1">
      <defs>
       <path d="M 0 0 
L 0 3.5 
" id="me99fa31b0f" style="stroke:#1a1a1a;stroke-width:0.8;"/>
      </defs>
      <g>
       <use style="fill:#1a1a1a;stroke:#1a1a1a;stroke-width:0.8;" x="79.479116" xlink:href="#me99fa31b0f" y="276.812"/>
      </g>
     </g>
     <g id="text_1">
      <!-- Acetate -->
      <defs>
       <path d="M 1.46875 0 
L 28.46875 71.734375 
L 39.453125 71.734375 
L 65.484375 0 
L 54.828125 0 
L 47.5625 21.484375 
L 19.1875 21.484375 
L 11.421875 0 
z
M 21.96875 29.390625 
L 44.4375 29.390625 
L 33.546875 61.078125 
z
M 33.5 71.734375 
z
" id="Helvetica-41"/>
       <path d="M 2.875 24.703125 
Q 2.875 38.484375 9.5625 46.140625 
Q 16.265625 53.8125 26.609375 53.8125 
Q 35.453125 53.8125 40.984375 49.515625 
Q 46.53125 45.21875 47.65625 34.71875 
L 39.109375 34.71875 
Q 38.328125 39.546875 35.546875 42.75 
Q 32.765625 45.953125 26.609375 45.953125 
Q 18.21875 45.953125 14.59375 37.75 
Q 12.25 32.421875 12.25 24.609375 
Q 12.25 16.75 15.5625 11.375 
Q 18.890625 6 26.03125 6 
Q 31.5 6 34.6875 9.34375 
Q 37.890625 12.703125 39.109375 18.5 
L 47.65625 18.5 
Q 46.1875 8.109375 40.328125 3.296875 
Q 34.46875 -1.515625 25.34375 -1.515625 
Q 15.09375 -1.515625 8.984375 5.984375 
Q 2.875 13.484375 2.875 24.703125 
z
M 25.25 53.5625 
z
" id="Helvetica-63"/>
       <path d="M 3.515625 25.140625 
Q 3.515625 37.75 10.34375 45.609375 
Q 17.1875 53.46875 28.21875 53.46875 
Q 33.796875 53.46875 39.015625 50.859375 
Q 44.234375 48.25 46.96875 44.09375 
Q 49.609375 40.140625 50.484375 34.859375 
Q 51.265625 31.25 51.265625 23.34375 
L 12.9375 23.34375 
Q 13.1875 15.375 16.703125 10.5625 
Q 20.21875 5.765625 27.59375 5.765625 
Q 34.46875 5.765625 38.578125 10.296875 
Q 40.921875 12.9375 41.890625 16.40625 
L 50.53125 16.40625 
Q 50.203125 13.53125 48.265625 9.984375 
Q 46.34375 6.453125 43.953125 4.203125 
Q 39.9375 0.296875 34.03125 -1.078125 
Q 30.859375 -1.859375 26.859375 -1.859375 
Q 17.09375 -1.859375 10.296875 5.25 
Q 3.515625 12.359375 3.515625 25.140625 
z
M 13.1875 30.328125 
L 42.234375 30.328125 
Q 41.703125 36.03125 39.75 39.453125 
Q 36.140625 45.796875 27.6875 45.796875 
Q 21.625 45.796875 17.515625 41.421875 
Q 13.421875 37.0625 13.1875 30.328125 
z
M 27.390625 53.5625 
z
" id="Helvetica-65"/>
       <path d="M 1.125 45.125 
L 1.125 52.296875 
L 8.203125 52.296875 
L 8.203125 66.890625 
L 17.09375 66.890625 
L 17.09375 52.296875 
L 25.4375 52.296875 
L 25.4375 45.125 
L 17.09375 45.125 
L 17.09375 10.984375 
Q 17.09375 8.25 18.953125 7.328125 
Q 19.96875 6.78125 22.359375 6.78125 
Q 23 6.78125 23.734375 6.8125 
Q 24.46875 6.84375 25.4375 6.9375 
L 25.4375 0 
Q 23.921875 -0.4375 22.28125 -0.625 
Q 20.65625 -0.828125 18.75 -0.828125 
Q 12.59375 -0.828125 10.390625 2.3125 
Q 8.203125 5.46875 8.203125 10.5 
L 8.203125 45.125 
z
" id="Helvetica-74"/>
       <path d="M 4 13.71875 
Q 4 21 8.546875 25 
Q 13.09375 29 20.453125 29.9375 
L 34.46875 31.6875 
Q 37.5 32.078125 38.53125 34.234375 
Q 39.109375 35.40625 39.109375 37.59375 
Q 39.109375 42.09375 35.90625 44.109375 
Q 32.71875 46.140625 26.765625 46.140625 
Q 19.875 46.140625 17 42.4375 
Q 15.375 40.375 14.890625 36.328125 
L 6.6875 36.328125 
Q 6.9375 46 12.96875 49.78125 
Q 19 53.5625 26.953125 53.5625 
Q 36.1875 53.5625 41.9375 50.046875 
Q 47.65625 46.53125 47.65625 39.109375 
L 47.65625 8.984375 
Q 47.65625 7.625 48.21875 6.78125 
Q 48.78125 5.953125 50.59375 5.953125 
Q 51.171875 5.953125 51.90625 6.03125 
Q 52.640625 6.109375 53.46875 6.25 
L 53.46875 -0.25 
Q 51.421875 -0.828125 50.34375 -0.96875 
Q 49.265625 -1.125 47.40625 -1.125 
Q 42.875 -1.125 40.828125 2.09375 
Q 39.75 3.8125 39.3125 6.9375 
Q 36.625 3.421875 31.59375 0.828125 
Q 26.5625 -1.765625 20.515625 -1.765625 
Q 13.234375 -1.765625 8.609375 2.65625 
Q 4 7.078125 4 13.71875 
z
M 13.1875 13.921875 
Q 13.1875 10.109375 15.96875 7.90625 
Q 18.75 5.71875 22.5625 5.71875 
Q 27.203125 5.71875 31.546875 7.859375 
Q 38.875 11.421875 38.875 19.53125 
L 38.875 26.609375 
Q 37.25 25.59375 34.703125 24.90625 
Q 32.171875 24.21875 29.734375 23.921875 
L 24.421875 23.25 
Q 19.625 22.609375 17.234375 21.234375 
Q 13.1875 18.953125 13.1875 13.921875 
z
M 27.203125 53.5625 
z
" id="Helvetica-61"/>
      </defs>
      <g style="fill:#1a1a1a;" transform="translate(54.027691 312.861935)rotate(-45)scale(0.1 -0.1)">
       <use xlink:href="#Helvetica-41"/>
       <use x="66.699219" xlink:href="#Helvetica-63"/>
       <use x="116.699219" xlink:href="#Helvetica-65"/>
       <use x="172.314453" xlink:href="#Helvetica-74"/>
       <use x="200.097656" xlink:href="#Helvetica-61"/>
       <use x="255.712891" xlink:href="#Helvetica-74"/>
       <use x="283.496094" xlink:href="#Helvetica-65"/>
      </g>
     </g>
    </g>
    <g id="xtick_2">
     <g id="line2d_2">
      <g>
       <use style="fill:#1a1a1a;stroke:#1a1a1a;stroke-width:0.8;" x="127.222431" xlink:href="#me99fa31b0f" y="276.812"/>
      </g>
     </g>
     <g id="text_2">
      <!-- Ethanol -->
      <defs>
       <path d="M 8.546875 0 
L 8.546875 71.734375 
L 60.84375 71.734375 
L 60.84375 62.9375 
L 18.015625 62.9375 
L 18.015625 41.15625 
L 57.625 41.15625 
L 57.625 32.859375 
L 18.015625 32.859375 
L 18.015625 8.546875 
L 61.578125 8.546875 
L 61.578125 0 
z
M 35.0625 71.734375 
z
" id="Helvetica-45"/>
       <path d="M 6.453125 0 
L 6.453125 71.96875 
L 15.234375 71.96875 
L 15.234375 45.21875 
Q 18.359375 49.171875 20.84375 50.78125 
Q 25.09375 53.5625 31.453125 53.5625 
Q 42.828125 53.5625 46.875 45.609375 
Q 49.078125 41.265625 49.078125 33.546875 
L 49.078125 0 
L 40.046875 0 
L 40.046875 32.953125 
Q 40.046875 38.71875 38.578125 41.40625 
Q 36.1875 45.703125 29.59375 45.703125 
Q 24.125 45.703125 19.671875 41.9375 
Q 15.234375 38.1875 15.234375 27.734375 
L 15.234375 0 
z
" id="Helvetica-68"/>
       <path d="M 6.453125 0 
L 6.453125 52.296875 
L 14.796875 52.296875 
L 14.796875 44.875 
Q 18.5 49.46875 22.65625 51.46875 
Q 26.8125 53.46875 31.890625 53.46875 
Q 43.015625 53.46875 46.921875 45.703125 
Q 49.078125 41.453125 49.078125 33.546875 
L 49.078125 0 
L 40.140625 0 
L 40.140625 32.953125 
Q 40.140625 37.75 38.71875 40.671875 
Q 36.375 45.5625 30.21875 45.5625 
Q 27.09375 45.5625 25.09375 44.921875 
Q 21.484375 43.84375 18.75 40.625 
Q 16.546875 38.03125 15.890625 35.265625 
Q 15.234375 32.515625 15.234375 27.390625 
L 15.234375 0 
z
M 27.09375 53.5625 
z
" id="Helvetica-6e"/>
       <path d="M 2.875 25 
Q 2.875 38.1875 9.5625 46 
Q 16.265625 53.8125 27.546875 53.8125 
Q 37.640625 53.8125 44.625 47.0625 
Q 51.609375 40.328125 51.609375 27.25 
Q 51.609375 14.59375 45.453125 6.34375 
Q 39.3125 -1.90625 26.375 -1.90625 
Q 15.578125 -1.90625 9.21875 5.390625 
Q 2.875 12.703125 2.875 25 
z
M 11.921875 25.140625 
Q 11.921875 16.796875 15.578125 11.234375 
Q 19.234375 5.671875 27.203125 5.671875 
Q 35.9375 5.671875 39.1875 12.28125 
Q 42.4375 18.890625 42.4375 27 
Q 42.4375 34.328125 40.09375 38.921875 
Q 36.375 46.140625 27.296875 46.140625 
Q 19.234375 46.140625 15.578125 39.984375 
Q 11.921875 33.84375 11.921875 25.140625 
z
M 27.25 53.5625 
z
" id="Helvetica-6f"/>
       <path d="M 6.6875 0 
L 6.6875 71.734375 
L 15.484375 71.734375 
L 15.484375 0 
z
" id="Helvetica-6c"/>
      </defs>
      <g style="fill:#1a1a1a;" transform="translate(101.767692 312.86525)rotate(-45)scale(0.1 -0.1)">
       <use xlink:href="#Helvetica-45"/>
       <use x="66.699219" xlink:href="#Helvetica-74"/>
       <use x="94.482422" xlink:href="#Helvetica-68"/>
       <use x="150.097656" xlink:href="#Helvetica-61"/>
       <use x="205.712891" xlink:href="#Helvetica-6e"/>
       <use x="261.328125" xlink:href="#Helvetica-6f"/>
       <use x="316.943359" xlink:href="#Helvetica-6c"/>
      </g>
     </g>
    </g>
    <g id="xtick_3">
     <g id="line2d_3">
      <g>
       <use style="fill:#1a1a1a;stroke:#1a1a1a;stroke-width:0.8;" x="174.965747" xlink:href="#me99fa31b0f" y="276.812"/>
      </g>
     </g>
     <g id="text_3">
      <!-- Glucose -->
      <defs>
       <path d="M 4.828125 34.765625 
Q 4.828125 52.78125 14.59375 63.421875 
Q 23.875 73.578125 38.625 73.578125 
Q 48.734375 73.578125 56.109375 69.671875 
Q 66.796875 64.0625 69.1875 50 
L 59.578125 50 
Q 57.8125 57.859375 52.296875 61.453125 
Q 46.78125 65.046875 38.375 65.046875 
Q 28.421875 65.046875 21.609375 57.5625 
Q 14.796875 50.09375 14.796875 35.296875 
Q 14.796875 22.515625 20.40625 14.484375 
Q 26.03125 6.453125 38.71875 6.453125 
Q 48.4375 6.453125 54.8125 12.078125 
Q 61.1875 17.71875 61.328125 30.328125 
L 38.875 30.328125 
L 38.875 38.375 
L 70.359375 38.375 
L 70.359375 0 
L 64.109375 0 
L 61.765625 9.234375 
Q 56.84375 3.8125 53.03125 1.703125 
Q 46.625 -1.90625 36.765625 -1.90625 
Q 24.03125 -1.90625 14.84375 6.34375 
Q 4.828125 16.703125 4.828125 34.765625 
z
M 37.015625 73.6875 
z
" id="Helvetica-47"/>
       <path d="M 6.25 16.75 
L 6.25 52.296875 
L 15.234375 52.296875 
L 15.234375 17.578125 
Q 15.234375 13.578125 16.5 11.03125 
Q 18.84375 6.34375 25.25 6.34375 
Q 34.421875 6.34375 37.75 14.546875 
Q 39.546875 18.953125 39.546875 26.609375 
L 39.546875 52.296875 
L 48.34375 52.296875 
L 48.34375 0 
L 40.046875 0 
L 40.140625 7.71875 
Q 38.421875 4.734375 35.890625 2.6875 
Q 30.859375 -1.421875 23.6875 -1.421875 
Q 12.5 -1.421875 8.453125 6.0625 
Q 6.25 10.0625 6.25 16.75 
z
M 27.296875 53.5625 
z
" id="Helvetica-75"/>
       <path d="M 3.21875 16.40625 
L 11.671875 16.40625 
Q 12.0625 12.015625 13.875 9.671875 
Q 17.1875 5.421875 25.390625 5.421875 
Q 30.28125 5.421875 33.984375 7.546875 
Q 37.703125 9.671875 37.703125 14.109375 
Q 37.703125 17.484375 34.71875 19.234375 
Q 32.8125 20.3125 27.203125 21.734375 
L 20.21875 23.484375 
Q 13.53125 25.140625 10.359375 27.203125 
Q 4.6875 30.765625 4.6875 37.0625 
Q 4.6875 44.484375 10.03125 49.0625 
Q 15.375 53.65625 24.421875 53.65625 
Q 36.234375 53.65625 41.453125 46.734375 
Q 44.625 42.484375 44.625 37.546875 
Q 44.625 37.40625 44.625 37.25 
L 36.328125 37.25 
Q 36.078125 40.234375 34.234375 42.671875 
Q 31.203125 46.140625 23.734375 46.140625 
Q 18.75 46.140625 16.1875 44.234375 
Q 13.625 42.328125 13.625 39.203125 
Q 13.625 35.796875 17 33.734375 
Q 18.953125 32.515625 22.75 31.59375 
L 28.5625 30.171875 
Q 38.03125 27.875 41.265625 25.734375 
Q 46.390625 22.359375 46.390625 15.140625 
Q 46.390625 8.15625 41.09375 3.078125 
Q 35.796875 -2 24.953125 -2 
Q 13.28125 -2 8.421875 3.296875 
Q 3.5625 8.59375 3.21875 16.40625 
z
M 24.65625 53.5625 
z
" id="Helvetica-73"/>
      </defs>
      <g style="fill:#1a1a1a;" transform="translate(147.553206 314.823052)rotate(-45)scale(0.1 -0.1)">
       <use xlink:href="#Helvetica-47"/>
       <use x="77.783203" xlink:href="#Helvetica-6c"/>
       <use x="100" xlink:href="#Helvetica-75"/>
       <use x="155.615234" xlink:href="#Helvetica-63"/>
       <use x="205.615234" xlink:href="#Helvetica-6f"/>
       <use x="261.230469" xlink:href="#Helvetica-73"/>
       <use x="311.230469" xlink:href="#Helvetica-65"/>
      </g>
     </g>
    </g>
    <g id="xtick_4">
     <g id="line2d_4">
      <g>
       <use style="fill:#1a1a1a;stroke:#1a1a1a;stroke-width:0.8;" x="222.709062" xlink:href="#me99fa31b0f" y="276.812"/>
      </g>
     </g>
     <g id="text_4">
      <!-- Lactate -->
      <defs>
       <path d="M 7.625 0 
L 7.625 71.734375 
L 17.328125 71.734375 
L 17.328125 8.546875 
L 53.65625 8.546875 
L 53.65625 0 
z
" id="Helvetica-4c"/>
      </defs>
      <g style="fill:#1a1a1a;" transform="translate(198.042084 312.077489)rotate(-45)scale(0.1 -0.1)">
       <use xlink:href="#Helvetica-4c"/>
       <use x="55.615234" xlink:href="#Helvetica-61"/>
       <use x="111.230469" xlink:href="#Helvetica-63"/>
       <use x="161.230469" xlink:href="#Helvetica-74"/>
       <use x="189.013672" xlink:href="#Helvetica-61"/>
       <use x="244.628906" xlink:href="#Helvetica-74"/>
       <use x="272.412109" xlink:href="#Helvetica-65"/>
      </g>
     </g>
    </g>
    <g id="xtick_5">
     <g id="line2d_5">
      <g>
       <use style="fill:#1a1a1a;stroke:#1a1a1a;stroke-width:0.8;" x="270.452378" xlink:href="#me99fa31b0f" y="276.812"/>
      </g>
     </g>
     <g id="text_5">
      <!-- Pyruvate -->
      <defs>
       <path d="M 8.546875 0 
L 8.546875 71.734375 
L 40.828125 71.734375 
Q 50.390625 71.734375 56.25 66.328125 
Q 62.109375 60.9375 62.109375 51.171875 
Q 62.109375 42.78125 56.875 36.546875 
Q 51.65625 30.328125 40.828125 30.328125 
L 18.265625 30.328125 
L 18.265625 0 
z
M 18.265625 38.53125 
L 37.59375 38.53125 
Q 44.140625 38.53125 48.21875 41.3125 
Q 52.296875 44.09375 52.296875 51.125 
Q 52.296875 59.03125 46.4375 61.859375 
Q 43.21875 63.375 37.59375 63.375 
L 18.265625 63.375 
z
" id="Helvetica-50"/>
       <path d="M 1.03125 52.296875 
L 10.984375 52.296875 
L 25 9.71875 
L 39.109375 52.296875 
L 48.828125 52.296875 
Q 46.96875 47.265625 40.578125 29.34375 
Q 35.796875 15.875 32.5625 7.375 
Q 24.953125 -12.640625 21.828125 -17.03125 
Q 18.703125 -21.4375 11.078125 -21.4375 
Q 9.234375 -21.4375 8.234375 -21.28125 
Q 7.234375 -21.140625 5.765625 -20.75 
L 5.765625 -12.75 
Q 8.0625 -13.375 9.078125 -13.515625 
Q 10.109375 -13.671875 10.890625 -13.671875 
Q 13.328125 -13.671875 14.46875 -12.859375 
Q 15.625 -12.0625 16.40625 -10.890625 
Q 16.65625 -10.5 18.15625 -6.875 
Q 19.671875 -3.265625 20.359375 -1.515625 
z
M 24.953125 53.5625 
z
" id="Helvetica-79"/>
       <path d="M 6.6875 0 
L 6.6875 52.296875 
L 15.046875 52.296875 
L 15.046875 43.265625 
Q 16.0625 45.90625 20.0625 49.6875 
Q 24.078125 53.46875 29.296875 53.46875 
Q 29.546875 53.46875 30.125 53.421875 
Q 30.71875 53.375 32.125 53.21875 
L 32.125 43.953125 
Q 31.34375 44.09375 30.6875 44.140625 
Q 30.03125 44.1875 29.25 44.1875 
Q 22.609375 44.1875 19.046875 39.90625 
Q 15.484375 35.640625 15.484375 30.078125 
L 15.484375 0 
z
" id="Helvetica-72"/>
       <path d="M 0.53125 52.296875 
L 10.75 52.296875 
L 24.703125 9.71875 
L 39.3125 52.296875 
L 48.921875 52.296875 
L 29.203125 0 
L 19.828125 0 
z
" id="Helvetica-76"/>
      </defs>
      <g style="fill:#1a1a1a;" transform="translate(241.033421 316.787483)rotate(-45)scale(0.1 -0.1)">
       <use xlink:href="#Helvetica-50"/>
       <use x="66.699219" xlink:href="#Helvetica-79"/>
       <use x="116.699219" xlink:href="#Helvetica-72"/>
       <use x="150" xlink:href="#Helvetica-75"/>
       <use x="205.615234" xlink:href="#Helvetica-76"/>
       <use x="255.615234" xlink:href="#Helvetica-61"/>
       <use x="311.230469" xlink:href="#Helvetica-74"/>
       <use x="339.013672" xlink:href="#Helvetica-65"/>
      </g>
     </g>
    </g>
    <g id="xtick_6">
     <g id="line2d_6">
      <g>
       <use style="fill:#1a1a1a;stroke:#1a1a1a;stroke-width:0.8;" x="318.195694" xlink:href="#me99fa31b0f" y="276.812"/>
      </g>
     </g>
     <g id="text_6">
      <!-- Succinate -->
      <defs>
       <path d="M 4.828125 23.140625 
L 13.96875 23.140625 
Q 14.3125 17.046875 16.84375 13.234375 
Q 21.6875 6.109375 33.890625 6.109375 
Q 39.359375 6.109375 43.84375 7.671875 
Q 52.546875 10.6875 52.546875 18.5 
Q 52.546875 24.359375 48.875 26.859375 
Q 45.171875 29.296875 37.25 31.109375 
L 27.546875 33.296875 
Q 18.015625 35.453125 14.0625 38.03125 
Q 7.234375 42.53125 7.234375 51.46875 
Q 7.234375 61.140625 13.921875 67.328125 
Q 20.609375 73.53125 32.859375 73.53125 
Q 44.140625 73.53125 52.015625 68.078125 
Q 59.90625 62.640625 59.90625 50.6875 
L 50.78125 50.6875 
Q 50.046875 56.453125 47.65625 59.515625 
Q 43.21875 65.140625 32.5625 65.140625 
Q 23.96875 65.140625 20.203125 61.515625 
Q 16.453125 57.90625 16.453125 53.125 
Q 16.453125 47.859375 20.84375 45.40625 
Q 23.734375 43.84375 33.890625 41.5 
L 43.953125 39.203125 
Q 51.21875 37.546875 55.171875 34.671875 
Q 62.015625 29.640625 62.015625 20.0625 
Q 62.015625 8.15625 53.34375 3.03125 
Q 44.671875 -2.09375 33.203125 -2.09375 
Q 19.828125 -2.09375 12.25 4.734375 
Q 4.828125 11.375 4.828125 22.703125 
Q 4.828125 22.90625 4.828125 23.140625 
z
M 33.59375 73.6875 
z
" id="Helvetica-53"/>
       <path d="M 6.453125 0 
L 6.453125 52.046875 
L 15.375 52.046875 
L 15.375 0 
z
M 6.453125 61.765625 
L 6.453125 71.734375 
L 15.375 71.734375 
L 15.375 61.765625 
z
" id="Helvetica-69"/>
      </defs>
      <g style="fill:#1a1a1a;" transform="translate(285.669886 319.936318)rotate(-45)scale(0.1 -0.1)">
       <use xlink:href="#Helvetica-53"/>
       <use x="66.699219" xlink:href="#Helvetica-75"/>
       <use x="122.314453" xlink:href="#Helvetica-63"/>
       <use x="172.314453" xlink:href="#Helvetica-63"/>
       <use x="222.314453" xlink:href="#Helvetica-69"/>
       <use x="244.53125" xlink:href="#Helvetica-6e"/>
       <use x="300.146484" xlink:href="#Helvetica-61"/>
       <use x="355.761719" xlink:href="#Helvetica-74"/>
       <use x="383.544922" xlink:href="#Helvetica-65"/>
      </g>
     </g>
    </g>
    <g id="xtick_7">
     <g id="line2d_7">
      <g>
       <use style="fill:#1a1a1a;stroke:#1a1a1a;stroke-width:0.8;" x="365.939009" xlink:href="#me99fa31b0f" y="276.812"/>
      </g>
     </g>
     <g id="text_7">
      <!-- Formate -->
      <defs>
       <path d="M 8.546875 0 
L 8.546875 71.734375 
L 58.296875 71.734375 
L 58.296875 62.9375 
L 18.265625 62.9375 
L 18.265625 41.15625 
L 53.46875 41.15625 
L 53.46875 32.625 
L 18.265625 32.625 
L 18.265625 0 
z
" id="Helvetica-46"/>
       <path d="M 6.453125 0 
L 6.453125 52.296875 
L 15.140625 52.296875 
L 15.140625 44.875 
Q 18.265625 48.734375 20.796875 50.484375 
Q 25.140625 53.46875 30.671875 53.46875 
Q 36.921875 53.46875 40.71875 50.390625 
Q 42.875 48.640625 44.625 45.21875 
Q 47.5625 49.421875 51.515625 51.4375 
Q 55.46875 53.46875 60.40625 53.46875 
Q 70.953125 53.46875 74.75 45.84375 
Q 76.8125 41.75 76.8125 34.8125 
L 76.8125 0 
L 67.671875 0 
L 67.671875 36.328125 
Q 67.671875 41.546875 65.0625 43.5 
Q 62.453125 45.453125 58.6875 45.453125 
Q 53.515625 45.453125 49.78125 41.984375 
Q 46.046875 38.53125 46.046875 30.421875 
L 46.046875 0 
L 37.109375 0 
L 37.109375 34.125 
Q 37.109375 39.453125 35.84375 41.890625 
Q 33.84375 45.5625 28.375 45.5625 
Q 23.390625 45.5625 19.3125 41.703125 
Q 15.234375 37.84375 15.234375 27.734375 
L 15.234375 0 
z
" id="Helvetica-6d"/>
      </defs>
      <g style="fill:#1a1a1a;" transform="translate(338.140874 315.208646)rotate(-45)scale(0.1 -0.1)">
       <use xlink:href="#Helvetica-46"/>
       <use x="61.083984" xlink:href="#Helvetica-6f"/>
       <use x="116.699219" xlink:href="#Helvetica-72"/>
       <use x="150" xlink:href="#Helvetica-6d"/>
       <use x="233.300781" xlink:href="#Helvetica-61"/>
       <use x="288.916016" xlink:href="#Helvetica-74"/>
       <use x="316.699219" xlink:href="#Helvetica-65"/>
      </g>
     </g>
    </g>
   </g>
   <g id="matplotlib.axis_2">
    <g id="ytick_1">
     <g id="line2d_8">
      <defs>
       <path d="M 0 0 
L -3.5 0 
" id="m70f81e95bc" style="stroke:#1a1a1a;stroke-width:0.8;"/>
      </defs>
      <g>
       <use style="fill:#1a1a1a;stroke:#1a1a1a;stroke-width:0.8;" x="44.149063" xlink:href="#m70f81e95bc" y="227.766869"/>
      </g>
     </g>
     <g id="text_8">
      <!-- -10 -->
      <defs>
       <path d="M 4.15625 23.34375 
L 4.15625 32.375 
L 28.65625 32.375 
L 28.65625 23.34375 
z
" id="Helvetica-2d"/>
       <path d="M 9.578125 49.515625 
L 9.578125 56.25 
Q 19.09375 57.171875 22.84375 59.34375 
Q 26.609375 61.53125 28.46875 69.625 
L 35.40625 69.625 
L 35.40625 0 
L 26.03125 0 
L 26.03125 49.515625 
z
" id="Helvetica-31"/>
       <path d="M 3.125 33.546875 
Q 3.125 45.453125 6.203125 54 
Q 11.96875 69.921875 27.046875 69.921875 
Q 40.625 69.921875 46.6875 58.734375 
Q 51.375 50.09375 51.375 35.0625 
Q 51.375 20.796875 47.125 11.46875 
Q 40.96875 -1.90625 27 -1.90625 
Q 14.40625 -1.90625 8.25 9.03125 
Q 3.125 18.171875 3.125 33.546875 
z
M 12.640625 33.203125 
Q 12.640625 22.515625 14.9375 16.015625 
Q 18.453125 6.109375 26.953125 6.109375 
Q 33.796875 6.109375 37.84375 12.15625 
Q 41.890625 18.21875 41.890625 34.71875 
Q 41.890625 46.625 38.953125 54.3125 
Q 36.03125 62.015625 27.59375 62.015625 
Q 19.828125 62.015625 16.234375 54.703125 
Q 12.640625 47.40625 12.640625 33.203125 
z
" id="Helvetica-30"/>
      </defs>
      <g style="fill:#1a1a1a;" transform="translate(22.6975 231.353588)scale(0.1 -0.1)">
       <use xlink:href="#Helvetica-2d"/>
       <use x="33.300781" xlink:href="#Helvetica-31"/>
       <use x="88.916016" xlink:href="#Helvetica-30"/>
      </g>
     </g>
    </g>
    <g id="ytick_2">
     <g id="line2d_9">
      <g>
       <use style="fill:#1a1a1a;stroke:#1a1a1a;stroke-width:0.8;" x="44.149063" xlink:href="#m70f81e95bc" y="172.883896"/>
      </g>
     </g>
     <g id="text_9">
      <!-- 0 -->
      <g style="fill:#1a1a1a;" transform="translate(31.588125 176.470615)scale(0.1 -0.1)">
       <use xlink:href="#Helvetica-30"/>
      </g>
     </g>
    </g>
    <g id="ytick_3">
     <g id="line2d_10">
      <g>
       <use style="fill:#1a1a1a;stroke:#1a1a1a;stroke-width:0.8;" x="44.149063" xlink:href="#m70f81e95bc" y="118.000923"/>
      </g>
     </g>
     <g id="text_10">
      <!-- 10 -->
      <g style="fill:#1a1a1a;" transform="translate(26.027188 121.587641)scale(0.1 -0.1)">
       <use xlink:href="#Helvetica-31"/>
       <use x="55.615234" xlink:href="#Helvetica-30"/>
      </g>
     </g>
    </g>
    <g id="ytick_4">
     <g id="line2d_11">
      <g>
       <use style="fill:#1a1a1a;stroke:#1a1a1a;stroke-width:0.8;" x="44.149063" xlink:href="#m70f81e95bc" y="63.117949"/>
      </g>
     </g>
     <g id="text_11">
      <!-- 20 -->
      <defs>
       <path d="M 3.125 0 
Q 3.609375 9.03125 6.859375 15.71875 
Q 10.109375 22.40625 19.53125 27.875 
L 28.90625 33.296875 
Q 35.203125 36.96875 37.75 39.546875 
Q 41.75 43.609375 41.75 48.828125 
Q 41.75 54.9375 38.078125 58.515625 
Q 34.421875 62.109375 28.328125 62.109375 
Q 19.28125 62.109375 15.828125 55.28125 
Q 13.96875 51.609375 13.765625 45.125 
L 4.828125 45.125 
Q 4.984375 54.25 8.203125 60.015625 
Q 13.921875 70.171875 28.375 70.171875 
Q 40.375 70.171875 45.921875 63.671875 
Q 51.46875 57.171875 51.46875 49.21875 
Q 51.46875 40.828125 45.5625 34.859375 
Q 42.140625 31.390625 33.296875 26.46875 
L 26.609375 22.75 
Q 21.828125 20.125 19.09375 17.71875 
Q 14.203125 13.484375 12.9375 8.296875 
L 51.125 8.296875 
L 51.125 0 
z
" id="Helvetica-32"/>
      </defs>
      <g style="fill:#1a1a1a;" transform="translate(26.027188 66.704668)scale(0.1 -0.1)">
       <use xlink:href="#Helvetica-32"/>
       <use x="55.615234" xlink:href="#Helvetica-30"/>
      </g>
     </g>
    </g>
    <g id="text_12">
     <!-- Flux (mmol/gCDW/h) -->
     <defs>
      <path d="M 0.53125 0 
L 18.953125 26.8125 
L 1.46875 52.296875 
L 12.84375 52.296875 
L 24.859375 33.890625 
L 37.015625 52.296875 
L 47.703125 52.046875 
L 30.078125 26.8125 
L 48.484375 0 
L 37.25 0 
L 24.265625 19.625 
L 11.671875 0 
z
" id="Helvetica-78"/>
      <path id="Helvetica-20"/>
      <path d="M 6.9375 25.6875 
Q 6.9375 40.140625 11.46875 51.421875 
Q 14.359375 58.59375 23.484375 72.90625 
L 29.59375 72.90625 
Q 21.921875 58.015625 19.625 50.984375 
Q 16.15625 40.28125 16.15625 26.265625 
Q 16.15625 12.109375 20.125 0.390625 
Q 22.5625 -6.84375 29.734375 -20.40625 
L 23.828125 -20.40625 
Q 16.703125 -9.28125 14.984375 -6.203125 
Q 13.28125 -3.125 11.28125 2.15625 
Q 8.546875 9.375 7.46875 17.578125 
Q 6.9375 21.828125 6.9375 25.6875 
z
" id="Helvetica-28"/>
      <path d="M 0 0 
L 22.75 71.734375 
L 30.171875 71.734375 
L 7.421875 0 
z
" id="Helvetica-2f"/>
      <path d="M 2.984375 25.34375 
Q 2.984375 38.484375 9.40625 45.84375 
Q 15.828125 53.21875 24.90625 53.21875 
Q 31.0625 53.21875 35.640625 50.203125 
Q 38.140625 48.484375 40.71875 45.21875 
L 40.71875 51.8125 
L 48.828125 51.8125 
L 48.828125 4.25 
Q 48.828125 -5.71875 45.90625 -11.46875 
Q 40.4375 -22.125 25.25 -22.125 
Q 16.796875 -22.125 11.03125 -18.328125 
Q 5.28125 -14.546875 4.59375 -6.5 
L 13.53125 -6.5 
Q 14.15625 -10.015625 16.0625 -11.921875 
Q 19.046875 -14.84375 25.4375 -14.84375 
Q 35.546875 -14.84375 38.671875 -7.71875 
Q 40.375 -3.8125 40.375 5.71875 
Q 40.375 6.5 40.375 7.28125 
Q 37.75 3.265625 34.03125 1.3125 
Q 30.328125 -0.640625 24.21875 -0.640625 
Q 15.71875 -0.640625 9.34375 5.390625 
Q 2.984375 11.421875 2.984375 25.34375 
z
M 12.015625 24.609375 
Q 12.015625 15.765625 15.59375 11.15625 
Q 19.1875 6.546875 25.25 6.546875 
Q 34.71875 6.546875 38.578125 15.09375 
Q 40.71875 19.921875 40.71875 26.375 
Q 40.71875 36.078125 36.71875 40.765625 
Q 32.71875 45.453125 26.515625 45.453125 
Q 17.234375 45.453125 13.8125 36.765625 
Q 12.015625 32.125 12.015625 24.609375 
z
M 25.921875 53.5625 
z
" id="Helvetica-67"/>
      <path d="M 4.390625 36.625 
Q 4.390625 52.484375 12.796875 62.640625 
Q 21.875 73.6875 37.84375 73.6875 
Q 51.46875 73.6875 58.984375 66.5 
Q 66.5 59.328125 67.328125 50.203125 
L 57.859375 50.203125 
Q 56.25 57.125 51.4375 61.171875 
Q 46.625 65.234375 37.9375 65.234375 
Q 27.34375 65.234375 20.828125 57.78125 
Q 14.3125 50.34375 14.3125 34.96875 
Q 14.3125 22.359375 20.1875 14.515625 
Q 26.078125 6.6875 37.75 6.6875 
Q 48.484375 6.6875 54.109375 14.9375 
Q 57.078125 19.28125 58.546875 26.375 
L 68.015625 26.375 
Q 66.75 15.046875 59.625 7.375 
Q 51.078125 -1.859375 36.578125 -1.859375 
Q 24.078125 -1.859375 15.578125 5.71875 
Q 4.390625 15.71875 4.390625 36.625 
z
M 35.890625 73.6875 
z
" id="Helvetica-43"/>
      <path d="M 8.0625 0 
L 8.0625 71.734375 
L 37.109375 71.734375 
Q 51.90625 71.734375 60.0625 61.234375 
Q 67.328125 51.765625 67.328125 36.96875 
Q 67.328125 25.53125 63.03125 16.3125 
Q 55.46875 0 37.015625 0 
z
M 17.828125 8.296875 
L 35.15625 8.296875 
Q 40.09375 8.296875 43.265625 9.328125 
Q 48.921875 11.234375 52.546875 16.65625 
Q 55.421875 21 56.6875 27.78125 
Q 57.421875 31.84375 57.421875 35.296875 
Q 57.421875 48.640625 52.125 56 
Q 46.828125 63.375 35.0625 63.375 
L 17.828125 63.375 
z
" id="Helvetica-44"/>
      <path d="M 1.8125 71.734375 
L 12.359375 71.734375 
L 25.875 13.375 
L 42.09375 71.734375 
L 52.640625 71.734375 
L 68.84375 13.375 
L 82.375 71.734375 
L 93.015625 71.734375 
L 74.171875 0 
L 63.96875 0 
L 47.40625 59.46875 
L 30.765625 0 
L 20.5625 0 
z
" id="Helvetica-57"/>
      <path d="M 3.328125 72.90625 
L 9.234375 72.90625 
Q 16.75 60.890625 18.328125 58.078125 
Q 19.921875 55.28125 21.78125 50.34375 
Q 24.125 44.234375 25.125 38.28125 
Q 26.125 32.328125 26.125 26.8125 
Q 26.125 12.359375 21.53125 1.03125 
Q 18.65625 -6.25 9.578125 -20.40625 
L 3.46875 -20.40625 
Q 11.234375 -5.28125 13.484375 1.65625 
Q 16.890625 12.15625 16.890625 26.265625 
Q 16.890625 40.375 12.9375 52.09375 
Q 10.5 59.328125 3.328125 72.90625 
z
" id="Helvetica-29"/>
     </defs>
     <g style="fill:#1a1a1a;" transform="translate(16.0425 199.75475)rotate(-90)scale(0.12 -0.12)">
      <use xlink:href="#Helvetica-46"/>
      <use x="61.083984" xlink:href="#Helvetica-6c"/>
      <use x="83.300781" xlink:href="#Helvetica-75"/>
      <use x="138.916016" xlink:href="#Helvetica-78"/>
      <use x="188.916016" xlink:href="#Helvetica-20"/>
      <use x="216.699219" xlink:href="#Helvetica-28"/>
      <use x="250" xlink:href="#Helvetica-6d"/>
      <use x="333.300781" xlink:href="#Helvetica-6d"/>
      <use x="416.601562" xlink:href="#Helvetica-6f"/>
      <use x="472.216797" xlink:href="#Helvetica-6c"/>
      <use x="494.433594" xlink:href="#Helvetica-2f"/>
      <use x="522.216797" xlink:href="#Helvetica-67"/>
      <use x="577.832031" xlink:href="#Helvetica-43"/>
      <use x="650.048828" xlink:href="#Helvetica-44"/>
      <use x="722.265625" xlink:href="#Helvetica-57"/>
      <use x="816.650391" xlink:href="#Helvetica-2f"/>
      <use x="844.433594" xlink:href="#Helvetica-68"/>
      <use x="900.048828" xlink:href="#Helvetica-29"/>
     </g>
    </g>
   </g>
   <g id="line2d_12">
    <path clip-path="url(#p409fe51915)" d="M 69.930453 148.312707 
L 69.930453 142.82441 
L 89.027779 142.82441 
L 89.027779 148.312707 
" style="fill:none;stroke:#1a1a1a;stroke-linecap:square;stroke-width:1.5;"/>
   </g>
   <g id="line2d_13">
    <path clip-path="url(#p409fe51915)" d="M 165.417084 167.395599 
L 165.417084 161.907301 
L 184.51441 161.907301 
L 184.51441 167.395599 
" style="fill:none;stroke:#1a1a1a;stroke-linecap:square;stroke-width:1.5;"/>
   </g>
   <g id="line2d_14">
    <path clip-path="url(#p409fe51915)" d="M 213.160399 28.284297 
L 213.160399 22.796 
L 232.257726 22.796 
L 232.257726 28.284297 
" style="fill:none;stroke:#1a1a1a;stroke-linecap:square;stroke-width:1.5;"/>
   </g>
   <g id="line2d_15">
    <path clip-path="url(#p409fe51915)" d="M 260.903715 166.76996 
L 260.903715 161.281663 
L 280.001041 161.281663 
L 280.001041 166.76996 
" style="fill:none;stroke:#1a1a1a;stroke-linecap:square;stroke-width:1.5;"/>
   </g>
   <g id="line2d_16">
    <path clip-path="url(#p409fe51915)" d="M 356.390346 123.067742 
L 356.390346 117.579444 
L 375.487672 117.579444 
L 375.487672 123.067742 
" style="fill:none;stroke:#1a1a1a;stroke-linecap:square;stroke-width:1.5;"/>
   </g>
   <g id="patch_17">
    <path d="M 44.149063 276.812 
L 44.149063 10.7 
" style="fill:none;stroke:#1a1a1a;stroke-linecap:square;stroke-linejoin:miter;stroke-width:0.8;"/>
   </g>
   <g id="patch_18">
    <path d="M 401.269063 276.812 
L 401.269063 10.7 
" style="fill:none;stroke:#1a1a1a;stroke-linecap:square;stroke-linejoin:miter;stroke-width:0.8;"/>
   </g>
   <g id="patch_19">
    <path d="M 44.149062 276.812 
L 401.269062 276.812 
" style="fill:none;stroke:#1a1a1a;stroke-linecap:square;stroke-linejoin:miter;stroke-width:0.8;"/>
   </g>
   <g id="patch_20">
    <path d="M 44.149062 10.7 
L 401.269062 10.7 
" style="fill:none;stroke:#1a1a1a;stroke-linecap:square;stroke-linejoin:miter;stroke-width:0.8;"/>
   </g>
   <g id="PathCollection_3">
    <defs>
     <path d="M 0 2 
C 0.530406 2 1.03916 1.789267 1.414214 1.414214 
C 1.789267 1.03916 2 0.530406 2 0 
C 2 -0.530406 1.789267 -1.03916 1.414214 -1.414214 
C 1.03916 -1.789267 0.530406 -2 0 -2 
C -0.530406 -2 -1.03916 -1.789267 -1.414214 -1.414214 
C -1.789267 -1.03916 -2 -0.530406 -2 0 
C -2 0.530406 -1.789267 1.03916 -1.414214 1.414214 
C -1.03916 1.789267 -0.530406 2 0 2 
z
" id="C0_0_3366726d81"/>
    </defs>
    <g clip-path="url(#p409fe51915)">
     <use style="fill:#1f77b4;" x="70.110851" xlink:href="#C0_0_3366726d81" y="159.784925"/>
    </g>
    <g clip-path="url(#p409fe51915)">
     <use style="fill:#1f77b4;" x="67.836831" xlink:href="#C0_0_3366726d81" y="159.446104"/>
    </g>
    <g clip-path="url(#p409fe51915)">
     <use style="fill:#1f77b4;" x="69.312503" xlink:href="#C0_0_3366726d81" y="159.600619"/>
    </g>
    <g clip-path="url(#p409fe51915)">
     <use style="fill:#1f77b4;" x="69.908802" xlink:href="#C0_0_3366726d81" y="160.138183"/>
    </g>
   </g>
   <g id="PathCollection_4">
    <defs>
     <path d="M 0 2 
C 0.530406 2 1.03916 1.789267 1.414214 1.414214 
C 1.789267 1.03916 2 0.530406 2 0 
C 2 -0.530406 1.789267 -1.03916 1.414214 -1.414214 
C 1.03916 -1.789267 0.530406 -2 0 -2 
C -0.530406 -2 -1.03916 -1.789267 -1.414214 -1.414214 
C -1.789267 -1.03916 -2 -0.530406 -2 0 
C -2 0.530406 -1.789267 1.03916 -1.414214 1.414214 
C -1.03916 1.789267 -0.530406 2 0 2 
z
" id="C1_0_b681c7c7aa"/>
    </defs>
    <g clip-path="url(#p409fe51915)">
     <use style="fill:#ff7f0e;" x="90.494905" xlink:href="#C1_0_b681c7c7aa" y="157.482643"/>
    </g>
    <g clip-path="url(#p409fe51915)">
     <use style="fill:#ff7f0e;" x="87.462568" xlink:href="#C1_0_b681c7c7aa" y="153.801005"/>
    </g>
    <g clip-path="url(#p409fe51915)">
     <use style="fill:#ff7f0e;" x="90.001815" xlink:href="#C1_0_b681c7c7aa" y="155.417623"/>
    </g>
    <g clip-path="url(#p409fe51915)">
     <use style="fill:#ff7f0e;" x="89.698853" xlink:href="#C1_0_b681c7c7aa" y="157.402944"/>
    </g>
   </g>
   <g id="PathCollection_5">
    <defs>
     <path d="M 0 2 
C 0.530406 2 1.03916 1.789267 1.414214 1.414214 
C 1.789267 1.03916 2 0.530406 2 0 
C 2 -0.530406 1.789267 -1.03916 1.414214 -1.414214 
C 1.03916 -1.789267 0.530406 -2 0 -2 
C -0.530406 -2 -1.03916 -1.789267 -1.414214 -1.414214 
C -1.789267 -1.03916 -2 -0.530406 -2 0 
C -2 0.530406 -1.789267 1.03916 -1.414214 1.414214 
C -1.03916 1.789267 -0.530406 2 0 2 
z
" id="C2_0_5d98246689"/>
    </defs>
    <g clip-path="url(#p409fe51915)">
     <use style="fill:#1f77b4;" x="115.812796" xlink:href="#C2_0_5d98246689" y="145.304273"/>
    </g>
    <g clip-path="url(#p409fe51915)">
     <use style="fill:#1f77b4;" x="118.092026" xlink:href="#C2_0_5d98246689" y="140.867327"/>
    </g>
    <g clip-path="url(#p409fe51915)">
     <use style="fill:#1f77b4;" x="119.600551" xlink:href="#C2_0_5d98246689" y="141.639704"/>
    </g>
    <g clip-path="url(#p409fe51915)">
     <use style="fill:#1f77b4;" x="115.582693" xlink:href="#C2_0_5d98246689" y="138.529368"/>
    </g>
   </g>
   <g id="PathCollection_6">
    <defs>
     <path d="M 0 2 
C 0.530406 2 1.03916 1.789267 1.414214 1.414214 
C 1.789267 1.03916 2 0.530406 2 0 
C 2 -0.530406 1.789267 -1.03916 1.414214 -1.414214 
C 1.03916 -1.789267 0.530406 -2 0 -2 
C -0.530406 -2 -1.03916 -1.789267 -1.414214 -1.414214 
C -1.789267 -1.03916 -2 -0.530406 -2 0 
C -2 0.530406 -1.789267 1.03916 -1.414214 1.414214 
C -1.03916 1.789267 -0.530406 2 0 2 
z
" id="C3_0_c8a044b1f7"/>
    </defs>
    <g clip-path="url(#p409fe51915)">
     <use style="fill:#ff7f0e;" x="135.800145" xlink:href="#C3_0_c8a044b1f7" y="146.096884"/>
    </g>
    <g clip-path="url(#p409fe51915)">
     <use style="fill:#ff7f0e;" x="134.396642" xlink:href="#C3_0_c8a044b1f7" y="134.310678"/>
    </g>
    <g clip-path="url(#p409fe51915)">
     <use style="fill:#ff7f0e;" x="134.540937" xlink:href="#C3_0_c8a044b1f7" y="133.4667"/>
    </g>
    <g clip-path="url(#p409fe51915)">
     <use style="fill:#ff7f0e;" x="136.601019" xlink:href="#C3_0_c8a044b1f7" y="139.105255"/>
    </g>
   </g>
   <g id="PathCollection_7">
    <defs>
     <path d="M 0 2 
C 0.530406 2 1.03916 1.789267 1.414214 1.414214 
C 1.789267 1.03916 2 0.530406 2 0 
C 2 -0.530406 1.789267 -1.03916 1.414214 -1.414214 
C 1.03916 -1.789267 0.530406 -2 0 -2 
C -0.530406 -2 -1.03916 -1.789267 -1.414214 -1.414214 
C -1.789267 -1.03916 -2 -0.530406 -2 0 
C -2 0.530406 -1.789267 1.03916 -1.414214 1.414214 
C -1.03916 1.789267 -0.530406 2 0 2 
z
" id="C4_0_8f37599ea8"/>
    </defs>
    <g clip-path="url(#p409fe51915)">
     <use style="fill:#1f77b4;" x="165.239573" xlink:href="#C4_0_8f37599ea8" y="262.21971"/>
    </g>
    <g clip-path="url(#p409fe51915)">
     <use style="fill:#1f77b4;" x="165.684554" xlink:href="#C4_0_8f37599ea8" y="260.214541"/>
    </g>
    <g clip-path="url(#p409fe51915)">
     <use style="fill:#1f77b4;" x="166.698602" xlink:href="#C4_0_8f37599ea8" y="262.623951"/>
    </g>
    <g clip-path="url(#p409fe51915)">
     <use style="fill:#1f77b4;" x="167.071013" xlink:href="#C4_0_8f37599ea8" y="263.375634"/>
    </g>
   </g>
   <g id="PathCollection_8">
    <defs>
     <path d="M 0 2 
C 0.530406 2 1.03916 1.789267 1.414214 1.414214 
C 1.789267 1.03916 2 0.530406 2 0 
C 2 -0.530406 1.789267 -1.03916 1.414214 -1.414214 
C 1.03916 -1.789267 0.530406 -2 0 -2 
C -0.530406 -2 -1.03916 -1.789267 -1.414214 -1.414214 
C -1.789267 -1.03916 -2 -0.530406 -2 0 
C -2 0.530406 -1.789267 1.03916 -1.414214 1.414214 
C -1.03916 1.789267 -0.530406 2 0 2 
z
" id="C5_0_2942f4ea97"/>
    </defs>
    <g clip-path="url(#p409fe51915)">
     <use style="fill:#ff7f0e;" x="184.728982" xlink:href="#C5_0_2942f4ea97" y="261.497001"/>
    </g>
    <g clip-path="url(#p409fe51915)">
     <use style="fill:#ff7f0e;" x="182.541437" xlink:href="#C5_0_2942f4ea97" y="259.354499"/>
    </g>
    <g clip-path="url(#p409fe51915)">
     <use style="fill:#ff7f0e;" x="182.945028" xlink:href="#C5_0_2942f4ea97" y="259.38591"/>
    </g>
    <g clip-path="url(#p409fe51915)">
     <use style="fill:#ff7f0e;" x="183.137323" xlink:href="#C5_0_2942f4ea97" y="259.424854"/>
    </g>
   </g>
   <g id="PathCollection_9">
    <defs>
     <path d="M 0 2 
C 0.530406 2 1.03916 1.789267 1.414214 1.414214 
C 1.789267 1.03916 2 0.530406 2 0 
C 2 -0.530406 1.789267 -1.03916 1.414214 -1.414214 
C 1.03916 -1.789267 0.530406 -2 0 -2 
C -0.530406 -2 -1.03916 -1.789267 -1.414214 -1.414214 
C -1.789267 -1.03916 -2 -0.530406 -2 0 
C -2 0.530406 -1.789267 1.03916 -1.414214 1.414214 
C -1.03916 1.789267 -0.530406 2 0 2 
z
" id="C6_0_8e0ad5c21f"/>
    </defs>
    <g clip-path="url(#p409fe51915)">
     <use style="fill:#1f77b4;" x="212.64202" xlink:href="#C6_0_8e0ad5c21f" y="34.595317"/>
    </g>
    <g clip-path="url(#p409fe51915)">
     <use style="fill:#1f77b4;" x="212.002703" xlink:href="#C6_0_8e0ad5c21f" y="38.769334"/>
    </g>
    <g clip-path="url(#p409fe51915)">
     <use style="fill:#1f77b4;" x="214.154586" xlink:href="#C6_0_8e0ad5c21f" y="33.772595"/>
    </g>
    <g clip-path="url(#p409fe51915)">
     <use style="fill:#1f77b4;" x="211.365612" xlink:href="#C6_0_8e0ad5c21f" y="40.57063"/>
    </g>
   </g>
   <g id="PathCollection_10">
    <defs>
     <path d="M 0 2 
C 0.530406 2 1.03916 1.789267 1.414214 1.414214 
C 1.789267 1.03916 2 0.530406 2 0 
C 2 -0.530406 1.789267 -1.03916 1.414214 -1.414214 
C 1.03916 -1.789267 0.530406 -2 0 -2 
C -0.530406 -2 -1.03916 -1.789267 -1.414214 -1.414214 
C -1.789267 -1.03916 -2 -0.530406 -2 0 
C -2 0.530406 -1.789267 1.03916 -1.414214 1.414214 
C -1.03916 1.789267 -0.530406 2 0 2 
z
" id="C7_0_cf8d03b83f"/>
    </defs>
    <g clip-path="url(#p409fe51915)">
     <use style="fill:#ff7f0e;" x="230.357836" xlink:href="#C7_0_cf8d03b83f" y="46.456173"/>
    </g>
    <g clip-path="url(#p409fe51915)">
     <use style="fill:#ff7f0e;" x="233.56274" xlink:href="#C7_0_cf8d03b83f" y="60.715279"/>
    </g>
    <g clip-path="url(#p409fe51915)">
     <use style="fill:#ff7f0e;" x="230.230376" xlink:href="#C7_0_cf8d03b83f" y="63.63429"/>
    </g>
    <g clip-path="url(#p409fe51915)">
     <use style="fill:#ff7f0e;" x="234.509331" xlink:href="#C7_0_cf8d03b83f" y="54.523552"/>
    </g>
   </g>
   <g id="PathCollection_11">
    <defs>
     <path d="M 0 2 
C 0.530406 2 1.03916 1.789267 1.414214 1.414214 
C 1.789267 1.03916 2 0.530406 2 0 
C 2 -0.530406 1.789267 -1.03916 1.414214 -1.414214 
C 1.03916 -1.789267 0.530406 -2 0 -2 
C -0.530406 -2 -1.03916 -1.789267 -1.414214 -1.414214 
C -1.789267 -1.03916 -2 -0.530406 -2 0 
C -2 0.530406 -1.789267 1.03916 -1.414214 1.414214 
C -1.03916 1.789267 -0.530406 2 0 2 
z
" id="C8_0_8e320c3513"/>
    </defs>
    <g clip-path="url(#p409fe51915)">
     <use style="fill:#1f77b4;" x="261.611638" xlink:href="#C8_0_8e320c3513" y="172.583234"/>
    </g>
    <g clip-path="url(#p409fe51915)">
     <use style="fill:#1f77b4;" x="258.803292" xlink:href="#C8_0_8e320c3513" y="172.607762"/>
    </g>
    <g clip-path="url(#p409fe51915)">
     <use style="fill:#1f77b4;" x="260.881126" xlink:href="#C8_0_8e320c3513" y="172.847927"/>
    </g>
    <g clip-path="url(#p409fe51915)">
     <use style="fill:#1f77b4;" x="262.529624" xlink:href="#C8_0_8e320c3513" y="172.847626"/>
    </g>
   </g>
   <g id="PathCollection_12">
    <defs>
     <path d="M 0 2 
C 0.530406 2 1.03916 1.789267 1.414214 1.414214 
C 1.789267 1.03916 2 0.530406 2 0 
C 2 -0.530406 1.789267 -1.03916 1.414214 -1.414214 
C 1.03916 -1.789267 0.530406 -2 0 -2 
C -0.530406 -2 -1.03916 -1.789267 -1.414214 -1.414214 
C -1.789267 -1.03916 -2 -0.530406 -2 0 
C -2 0.530406 -1.789267 1.03916 -1.414214 1.414214 
C -1.03916 1.789267 -0.530406 2 0 2 
z
" id="C9_0_610d870743"/>
    </defs>
    <g clip-path="url(#p409fe51915)">
     <use style="fill:#ff7f0e;" x="278.992113" xlink:href="#C9_0_610d870743" y="172.286341"/>
    </g>
    <g clip-path="url(#p409fe51915)">
     <use style="fill:#ff7f0e;" x="278.805851" xlink:href="#C9_0_610d870743" y="172.258258"/>
    </g>
    <g clip-path="url(#p409fe51915)">
     <use style="fill:#ff7f0e;" x="280.867114" xlink:href="#C9_0_610d870743" y="172.29811"/>
    </g>
    <g clip-path="url(#p409fe51915)">
     <use style="fill:#ff7f0e;" x="281.15166" xlink:href="#C9_0_610d870743" y="172.349049"/>
    </g>
   </g>
   <g id="PathCollection_13">
    <defs>
     <path d="M 0 2 
C 0.530406 2 1.03916 1.789267 1.414214 1.414214 
C 1.789267 1.03916 2 0.530406 2 0 
C 2 -0.530406 1.789267 -1.03916 1.414214 -1.414214 
C 1.03916 -1.789267 0.530406 -2 0 -2 
C -0.530406 -2 -1.03916 -1.789267 -1.414214 -1.414214 
C -1.789267 -1.03916 -2 -0.530406 -2 0 
C -2 0.530406 -1.789267 1.03916 -1.414214 1.414214 
C -1.03916 1.789267 -0.530406 2 0 2 
z
" id="Ca_0_5f7245abde"/>
    </defs>
    <g clip-path="url(#p409fe51915)">
     <use style="fill:#1f77b4;" x="306.93" xlink:href="#Ca_0_5f7245abde" y="172.761699"/>
    </g>
    <g clip-path="url(#p409fe51915)">
     <use style="fill:#1f77b4;" x="309.229723" xlink:href="#Ca_0_5f7245abde" y="172.753329"/>
    </g>
    <g clip-path="url(#p409fe51915)">
     <use style="fill:#1f77b4;" x="310.027327" xlink:href="#Ca_0_5f7245abde" y="172.76343"/>
    </g>
    <g clip-path="url(#p409fe51915)">
     <use style="fill:#1f77b4;" x="308.517229" xlink:href="#Ca_0_5f7245abde" y="172.756663"/>
    </g>
   </g>
   <g id="PathCollection_14">
    <defs>
     <path d="M 0 2 
C 0.530406 2 1.03916 1.789267 1.414214 1.414214 
C 1.789267 1.03916 2 0.530406 2 0 
C 2 -0.530406 1.789267 -1.03916 1.414214 -1.414214 
C 1.03916 -1.789267 0.530406 -2 0 -2 
C -0.530406 -2 -1.03916 -1.789267 -1.414214 -1.414214 
C -1.789267 -1.03916 -2 -0.530406 -2 0 
C -2 0.530406 -1.789267 1.03916 -1.414214 1.414214 
C -1.03916 1.789267 -0.530406 2 0 2 
z
" id="Cb_0_253c69f294"/>
    </defs>
    <g clip-path="url(#p409fe51915)">
     <use style="fill:#ff7f0e;" x="329.617522" xlink:href="#Cb_0_253c69f294" y="172.789146"/>
    </g>
    <g clip-path="url(#p409fe51915)">
     <use style="fill:#ff7f0e;" x="328.655385" xlink:href="#Cb_0_253c69f294" y="172.781575"/>
    </g>
    <g clip-path="url(#p409fe51915)">
     <use style="fill:#ff7f0e;" x="327.168258" xlink:href="#Cb_0_253c69f294" y="172.767355"/>
    </g>
    <g clip-path="url(#p409fe51915)">
     <use style="fill:#ff7f0e;" x="329.531121" xlink:href="#Cb_0_253c69f294" y="172.75805"/>
    </g>
   </g>
   <g id="PathCollection_15">
    <defs>
     <path d="M 0 2 
C 0.530406 2 1.03916 1.789267 1.414214 1.414214 
C 1.789267 1.03916 2 0.530406 2 0 
C 2 -0.530406 1.789267 -1.03916 1.414214 -1.414214 
C 1.03916 -1.789267 0.530406 -2 0 -2 
C -0.530406 -2 -1.03916 -1.789267 -1.414214 -1.414214 
C -1.789267 -1.03916 -2 -0.530406 -2 0 
C -2 0.530406 -1.789267 1.03916 -1.414214 1.414214 
C -1.03916 1.789267 -0.530406 2 0 2 
z
" id="Cc_0_6622d7d170"/>
    </defs>
    <g clip-path="url(#p409fe51915)">
     <use style="fill:#1f77b4;" x="355.161596" xlink:href="#Cc_0_6622d7d170" y="143.030836"/>
    </g>
    <g clip-path="url(#p409fe51915)">
     <use style="fill:#1f77b4;" x="357.24971" xlink:href="#Cc_0_6622d7d170" y="142.289112"/>
    </g>
    <g clip-path="url(#p409fe51915)">
     <use style="fill:#1f77b4;" x="358.416128" xlink:href="#Cc_0_6622d7d170" y="144.055313"/>
    </g>
    <g clip-path="url(#p409fe51915)">
     <use style="fill:#1f77b4;" x="357.886569" xlink:href="#Cc_0_6622d7d170" y="145.796018"/>
    </g>
   </g>
   <g id="PathCollection_16">
    <defs>
     <path d="M 0 2 
C 0.530406 2 1.03916 1.789267 1.414214 1.414214 
C 1.789267 1.03916 2 0.530406 2 0 
C 2 -0.530406 1.789267 -1.03916 1.414214 -1.414214 
C 1.03916 -1.789267 0.530406 -2 0 -2 
C -0.530406 -2 -1.03916 -1.789267 -1.414214 -1.414214 
C -1.789267 -1.03916 -2 -0.530406 -2 0 
C -2 0.530406 -1.789267 1.03916 -1.414214 1.414214 
C -1.03916 1.789267 -0.530406 2 0 2 
z
" id="Cd_0_aa48c5da8f"/>
    </defs>
    <g clip-path="url(#p409fe51915)">
     <use style="fill:#ff7f0e;" x="373.483961" xlink:href="#Cd_0_aa48c5da8f" y="138.431631"/>
    </g>
    <g clip-path="url(#p409fe51915)">
     <use style="fill:#ff7f0e;" x="376.272436" xlink:href="#Cd_0_aa48c5da8f" y="128.556039"/>
    </g>
    <g clip-path="url(#p409fe51915)">
     <use style="fill:#ff7f0e;" x="376.871728" xlink:href="#Cd_0_aa48c5da8f" y="132.071298"/>
    </g>
    <g clip-path="url(#p409fe51915)">
     <use style="fill:#ff7f0e;" x="374.064404" xlink:href="#Cd_0_aa48c5da8f" y="135.857308"/>
    </g>
   </g>
   <g id="text_13">
    <!-- * -->
    <defs>
     <path d="M 3.8125 59.125 
L 5.765625 64.546875 
L 16.3125 60.75 
L 16.3125 71.734375 
L 21.96875 71.734375 
L 21.96875 60.84375 
L 32.625 64.546875 
L 34.578125 59.125 
L 23.921875 55.671875 
L 30.515625 46.484375 
L 25.6875 43.015625 
L 19.28125 52.546875 
L 12.84375 43.015625 
L 7.859375 46.484375 
L 14.546875 55.671875 
z
" id="Helvetica-2a"/>
    </defs>
    <g style="fill:#1a1a1a;" transform="translate(76.559975 145.186145)scale(0.15 -0.15)">
     <use xlink:href="#Helvetica-2a"/>
    </g>
   </g>
   <g id="text_14">
    <!-- * -->
    <g style="fill:#1a1a1a;" transform="translate(172.046606 164.269036)scale(0.15 -0.15)">
     <use xlink:href="#Helvetica-2a"/>
    </g>
   </g>
   <g id="text_15">
    <!-- * -->
    <g style="fill:#1a1a1a;" transform="translate(219.789922 25.157735)scale(0.15 -0.15)">
     <use xlink:href="#Helvetica-2a"/>
    </g>
   </g>
   <g id="text_16">
    <!-- * -->
    <g style="fill:#1a1a1a;" transform="translate(267.533237 163.643398)scale(0.15 -0.15)">
     <use xlink:href="#Helvetica-2a"/>
    </g>
   </g>
   <g id="text_17">
    <!-- * -->
    <g style="fill:#1a1a1a;" transform="translate(363.019868 119.941179)scale(0.15 -0.15)">
     <use xlink:href="#Helvetica-2a"/>
    </g>
   </g>
   <g id="legend_1">
    <g id="PathCollection_17">
     <defs>
      <path d="M 0 1.936492 
C 0.513564 1.936492 1.006162 1.732451 1.369306 1.369306 
C 1.732451 1.006162 1.936492 0.513564 1.936492 0 
C 1.936492 -0.513564 1.732451 -1.006162 1.369306 -1.369306 
C 1.006162 -1.732451 0.513564 -1.936492 0 -1.936492 
C -0.513564 -1.936492 -1.006162 -1.732451 -1.369306 -1.369306 
C -1.732451 -1.006162 -1.936492 -0.513564 -1.936492 0 
C -1.936492 0.513564 -1.732451 1.006162 -1.369306 1.369306 
C -1.006162 1.732451 -0.513564 1.936492 0 1.936492 
z
" id="mc92800f886" style="stroke:#1f77b4;"/>
     </defs>
     <g>
      <use style="fill:#1f77b4;stroke:#1f77b4;" x="349.815938" xlink:href="#mc92800f886" y="24.248437"/>
     </g>
    </g>
    <g id="text_18">
     <!-- WT -->
     <defs>
      <path d="M 1.609375 63.1875 
L 1.609375 71.734375 
L 59.8125 71.734375 
L 59.8125 63.1875 
L 35.640625 63.1875 
L 35.640625 0 
L 25.78125 0 
L 25.78125 63.1875 
z
" id="Helvetica-54"/>
     </defs>
     <g style="fill:#1a1a1a;" transform="translate(367.815938 26.873437)scale(0.1 -0.1)">
      <use xlink:href="#Helvetica-57"/>
      <use x="94.384766" xlink:href="#Helvetica-54"/>
     </g>
    </g>
    <g id="PathCollection_18">
     <defs>
      <path d="M 0 1.936492 
C 0.513564 1.936492 1.006162 1.732451 1.369306 1.369306 
C 1.732451 1.006162 1.936492 0.513564 1.936492 0 
C 1.936492 -0.513564 1.732451 -1.006162 1.369306 -1.369306 
C 1.006162 -1.732451 0.513564 -1.936492 0 -1.936492 
C -0.513564 -1.936492 -1.006162 -1.732451 -1.369306 -1.369306 
C -1.732451 -1.006162 -1.936492 -0.513564 -1.936492 0 
C -1.936492 0.513564 -1.732451 1.006162 -1.369306 1.369306 
C -1.006162 1.732451 -0.513564 1.936492 0 1.936492 
z
" id="m5579a4c0e7" style="stroke:#ff7f0e;"/>
     </defs>
     <g>
      <use style="fill:#ff7f0e;stroke:#ff7f0e;" x="349.815938" xlink:href="#m5579a4c0e7" y="38.701562"/>
     </g>
    </g>
    <g id="text_19">
     <!-- CcpA -->
     <defs>
      <path d="M 5.765625 -20.84375 
L 5.765625 52.046875 
L 14.3125 52.046875 
L 14.3125 45.125 
Q 16.9375 48.6875 20.0625 50.640625 
Q 24.515625 53.5625 30.515625 53.5625 
Q 39.40625 53.5625 45.609375 46.75 
Q 51.8125 39.9375 51.8125 27.296875 
Q 51.8125 10.203125 42.875 2.875 
Q 37.203125 -1.765625 29.6875 -1.765625 
Q 23.78125 -1.765625 19.78125 0.828125 
Q 17.4375 2.296875 14.546875 5.859375 
L 14.546875 -20.84375 
z
M 14.203125 24.3125 
Q 14.203125 18.265625 16.015625 14.015625 
Q 19.4375 5.90625 28.515625 5.90625 
Q 34.671875 5.90625 38.75 11.0625 
Q 42.828125 16.21875 42.828125 26.46875 
Q 42.828125 32.71875 41.015625 37.203125 
Q 37.59375 45.84375 28.515625 45.84375 
Q 19.390625 45.84375 16.015625 36.71875 
Q 14.203125 31.84375 14.203125 24.3125 
z
" id="Helvetica-70"/>
     </defs>
     <g style="fill:#1a1a1a;" transform="translate(367.815938 41.326562)scale(0.1 -0.1)">
      <use xlink:href="#Helvetica-43"/>
      <use x="72.216797" xlink:href="#Helvetica-63"/>
      <use x="122.216797" xlink:href="#Helvetica-70"/>
      <use x="177.832031" xlink:href="#Helvetica-41"/>
     </g>
    </g>
   </g>
  </g>
 </g>
 <defs>
  <clipPath id="p409fe51915">
   <rect height="266.112" width="357.12" x="44.149063" y="10.7"/>
  </clipPath>
 </defs>
</svg>
