<?xml version="1.0" encoding="utf-8" standalone="no"?>
<!DOCTYPE svg PUBLIC "-//W3C//DTD SVG 1.1//EN"
  "http://www.w3.org/Graphics/SVG/1.1/DTD/svg11.dtd">
<!-- Created with matplotlib (http://matplotlib.org/) -->
<svg height="576pt" version="1.1" viewBox="0 0 576 576" width="576pt" xmlns="http://www.w3.org/2000/svg" xmlns:xlink="http://www.w3.org/1999/xlink">
 <defs>
  <style type="text/css">
*{stroke-linecap:butt;stroke-linejoin:round;}
  </style>
 </defs>
 <g id="figure_1">
  <g id="patch_1">
   <path d="M 0 576 
L 576 576 
L 576 0 
L 0 0 
z
" style="fill:#ffffff;"/>
  </g>
  <g id="axes_1">
   <g id="patch_2">
    <path d="M 72 512.64 
L 518.4 512.64 
L 518.4 69.12 
L 72 69.12 
z
" style="fill:#ffffff;"/>
   </g>
   <g id="PathCollection_1">
    <defs>
     <path d="M 0 3.535534 
C 0.937635 3.535534 1.836992 3.163008 2.5 2.5 
C 3.163008 1.836992 3.535534 0.937635 3.535534 0 
C 3.535534 -0.937635 3.163008 -1.836992 2.5 -2.5 
C 1.836992 -3.163008 0.937635 -3.535534 0 -3.535534 
C -0.937635 -3.535534 -1.836992 -3.163008 -2.5 -2.5 
C -3.163008 -1.836992 -3.535534 -0.937635 -3.535534 0 
C -3.535534 0.937635 -3.163008 1.836992 -2.5 2.5 
C -1.836992 3.163008 -0.937635 3.535534 0 3.535534 
z
" id="mb5bc082d8f" style="stroke:#1f77b4;"/>
    </defs>
    <g clip-path="url(#pffdb67f950)">
     <use style="fill:#1f77b4;stroke:#1f77b4;" x="475.790779" xlink:href="#mb5bc082d8f" y="309.295163"/>
     <use style="fill:#1f77b4;stroke:#1f77b4;" x="486.245659" xlink:href="#mb5bc082d8f" y="388.348764"/>
     <use style="fill:#1f77b4;stroke:#1f77b4;" x="411.041804" xlink:href="#mb5bc082d8f" y="492.210931"/>
     <use style="fill:#1f77b4;stroke:#1f77b4;" x="497.87932" xlink:href="#mb5bc082d8f" y="89.549069"/>
    </g>
   </g>
   <g id="PathCollection_2">
    <defs>
     <path d="M 0 3.535534 
C 0.937635 3.535534 1.836992 3.163008 2.5 2.5 
C 3.163008 1.836992 3.535534 0.937635 3.535534 0 
C 3.535534 -0.937635 3.163008 -1.836992 2.5 -2.5 
C 1.836992 -3.163008 0.937635 -3.535534 0 -3.535534 
C -0.937635 -3.535534 -1.836992 -3.163008 -2.5 -2.5 
C -3.163008 -1.836992 -3.535534 -0.937635 -3.535534 0 
C -3.535534 0.937635 -3.163008 1.836992 -2.5 2.5 
C -1.836992 3.163008 -0.937635 3.535534 0 3.535534 
z
" id="m711169ef39" style="stroke:#ff7f0e;"/>
    </defs>
    <g clip-path="url(#pffdb67f950)">
     <use style="fill:#ff7f0e;stroke:#ff7f0e;" x="96.926771" xlink:href="#m711169ef39" y="333.547189"/>
     <use style="fill:#ff7f0e;stroke:#ff7f0e;" x="92.838499" xlink:href="#m711169ef39" y="303.423308"/>
     <use style="fill:#ff7f0e;stroke:#ff7f0e;" x="97.558918" xlink:href="#m711169ef39" y="281.18238"/>
     <use style="fill:#ff7f0e;stroke:#ff7f0e;" x="115.991768" xlink:href="#m711169ef39" y="273.90892"/>
    </g>
   </g>
   <g id="matplotlib.axis_1">
    <g id="xtick_1">
     <g id="line2d_1">
      <path clip-path="url(#pffdb67f950)" d="M 123.111374 512.64 
L 123.111374 69.12 
" style="fill:none;stroke:#b0b0b0;stroke-linecap:square;stroke-width:0.8;"/>
     </g>
     <g id="line2d_2">
      <defs>
       <path d="M 0 0 
L 0 3.5 
" id="mf41394dc4a" style="stroke:#1a1a1a;stroke-width:0.8;"/>
      </defs>
      <g>
       <use style="fill:#1a1a1a;stroke:#1a1a1a;stroke-width:0.8;" x="123.111374" xlink:href="#mf41394dc4a" y="512.64"/>
      </g>
     </g>
     <g id="text_1">
      <!-- -4 -->
      <defs>
       <path d="M 4.15625 23.34375 
L 4.15625 32.375 
L 28.65625 32.375 
L 28.65625 23.34375 
z
" id="Helvetica-2d"/>
       <path d="M 2.546875 17.09375 
L 2.546875 25.6875 
L 34.578125 70.125 
L 42 70.125 
L 42 24.75 
L 52.296875 24.75 
L 52.296875 17.09375 
L 42 17.09375 
L 42 0 
L 33.203125 0 
L 33.203125 17.09375 
z
M 10.640625 24.75 
L 33.0625 24.75 
L 33.0625 56.453125 
z
" id="Helvetica-34"/>
      </defs>
      <g style="fill:#1a1a1a;" transform="translate(118.666062 526.813437)scale(0.1 -0.1)">
       <use xlink:href="#Helvetica-2d"/>
       <use x="33.300781" xlink:href="#Helvetica-34"/>
      </g>
     </g>
    </g>
    <g id="xtick_2">
     <g id="line2d_3">
      <path clip-path="url(#pffdb67f950)" d="M 203.697782 512.64 
L 203.697782 69.12 
" style="fill:none;stroke:#b0b0b0;stroke-linecap:square;stroke-width:0.8;"/>
     </g>
     <g id="line2d_4">
      <g>
       <use style="fill:#1a1a1a;stroke:#1a1a1a;stroke-width:0.8;" x="203.697782" xlink:href="#mf41394dc4a" y="512.64"/>
      </g>
     </g>
     <g id="text_2">
      <!-- -2 -->
      <defs>
       <path d="M 3.125 0 
Q 3.609375 9.03125 6.859375 15.71875 
Q 10.109375 22.40625 19.53125 27.875 
L 28.90625 33.296875 
Q 35.203125 36.96875 37.75 39.546875 
Q 41.75 43.609375 41.75 48.828125 
Q 41.75 54.9375 38.078125 58.515625 
Q 34.421875 62.109375 28.328125 62.109375 
Q 19.28125 62.109375 15.828125 55.28125 
Q 13.96875 51.609375 13.765625 45.125 
L 4.828125 45.125 
Q 4.984375 54.25 8.203125 60.015625 
Q 13.921875 70.171875 28.375 70.171875 
Q 40.375 70.171875 45.921875 63.671875 
Q 51.46875 57.171875 51.46875 49.21875 
Q 51.46875 40.828125 45.5625 34.859375 
Q 42.140625 31.390625 33.296875 26.46875 
L 26.609375 22.75 
Q 21.828125 20.125 19.09375 17.71875 
Q 14.203125 13.484375 12.9375 8.296875 
L 51.125 8.296875 
L 51.125 0 
z
" id="Helvetica-32"/>
      </defs>
      <g style="fill:#1a1a1a;" transform="translate(199.25247 526.813437)scale(0.1 -0.1)">
       <use xlink:href="#Helvetica-2d"/>
       <use x="33.300781" xlink:href="#Helvetica-32"/>
      </g>
     </g>
    </g>
    <g id="xtick_3">
     <g id="line2d_5">
      <path clip-path="url(#pffdb67f950)" d="M 284.28419 512.64 
L 284.28419 69.12 
" style="fill:none;stroke:#b0b0b0;stroke-linecap:square;stroke-width:0.8;"/>
     </g>
     <g id="line2d_6">
      <g>
       <use style="fill:#1a1a1a;stroke:#1a1a1a;stroke-width:0.8;" x="284.28419" xlink:href="#mf41394dc4a" y="512.64"/>
      </g>
     </g>
     <g id="text_3">
      <!-- 0 -->
      <defs>
       <path d="M 3.125 33.546875 
Q 3.125 45.453125 6.203125 54 
Q 11.96875 69.921875 27.046875 69.921875 
Q 40.625 69.921875 46.6875 58.734375 
Q 51.375 50.09375 51.375 35.0625 
Q 51.375 20.796875 47.125 11.46875 
Q 40.96875 -1.90625 27 -1.90625 
Q 14.40625 -1.90625 8.25 9.03125 
Q 3.125 18.171875 3.125 33.546875 
z
M 12.640625 33.203125 
Q 12.640625 22.515625 14.9375 16.015625 
Q 18.453125 6.109375 26.953125 6.109375 
Q 33.796875 6.109375 37.84375 12.15625 
Q 41.890625 18.21875 41.890625 34.71875 
Q 41.890625 46.625 38.953125 54.3125 
Q 36.03125 62.015625 27.59375 62.015625 
Q 19.828125 62.015625 16.234375 54.703125 
Q 12.640625 47.40625 12.640625 33.203125 
z
" id="Helvetica-30"/>
      </defs>
      <g style="fill:#1a1a1a;" transform="translate(281.503721 526.813437)scale(0.1 -0.1)">
       <use xlink:href="#Helvetica-30"/>
      </g>
     </g>
    </g>
    <g id="xtick_4">
     <g id="line2d_7">
      <path clip-path="url(#pffdb67f950)" d="M 364.870598 512.64 
L 364.870598 69.12 
" style="fill:none;stroke:#b0b0b0;stroke-linecap:square;stroke-width:0.8;"/>
     </g>
     <g id="line2d_8">
      <g>
       <use style="fill:#1a1a1a;stroke:#1a1a1a;stroke-width:0.8;" x="364.870598" xlink:href="#mf41394dc4a" y="512.64"/>
      </g>
     </g>
     <g id="text_4">
      <!-- 2 -->
      <g style="fill:#1a1a1a;" transform="translate(362.090129 526.813437)scale(0.1 -0.1)">
       <use xlink:href="#Helvetica-32"/>
      </g>
     </g>
    </g>
    <g id="xtick_5">
     <g id="line2d_9">
      <path clip-path="url(#pffdb67f950)" d="M 445.457005 512.64 
L 445.457005 69.12 
" style="fill:none;stroke:#b0b0b0;stroke-linecap:square;stroke-width:0.8;"/>
     </g>
     <g id="line2d_10">
      <g>
       <use style="fill:#1a1a1a;stroke:#1a1a1a;stroke-width:0.8;" x="445.457005" xlink:href="#mf41394dc4a" y="512.64"/>
      </g>
     </g>
     <g id="text_5">
      <!-- 4 -->
      <g style="fill:#1a1a1a;" transform="translate(442.676536 526.813437)scale(0.1 -0.1)">
       <use xlink:href="#Helvetica-34"/>
      </g>
     </g>
    </g>
    <g id="text_6">
     <!-- Principal Component 1 (58.6%) -->
     <defs>
      <path d="M 8.546875 0 
L 8.546875 71.734375 
L 40.828125 71.734375 
Q 50.390625 71.734375 56.25 66.328125 
Q 62.109375 60.9375 62.109375 51.171875 
Q 62.109375 42.78125 56.875 36.546875 
Q 51.65625 30.328125 40.828125 30.328125 
L 18.265625 30.328125 
L 18.265625 0 
z
M 18.265625 38.53125 
L 37.59375 38.53125 
Q 44.140625 38.53125 48.21875 41.3125 
Q 52.296875 44.09375 52.296875 51.125 
Q 52.296875 59.03125 46.4375 61.859375 
Q 43.21875 63.375 37.59375 63.375 
L 18.265625 63.375 
z
" id="Helvetica-50"/>
      <path d="M 6.6875 0 
L 6.6875 52.296875 
L 15.046875 52.296875 
L 15.046875 43.265625 
Q 16.0625 45.90625 20.0625 49.6875 
Q 24.078125 53.46875 29.296875 53.46875 
Q 29.546875 53.46875 30.125 53.421875 
Q 30.71875 53.375 32.125 53.21875 
L 32.125 43.953125 
Q 31.34375 44.09375 30.6875 44.140625 
Q 30.03125 44.1875 29.25 44.1875 
Q 22.609375 44.1875 19.046875 39.90625 
Q 15.484375 35.640625 15.484375 30.078125 
L 15.484375 0 
z
" id="Helvetica-72"/>
      <path d="M 6.453125 0 
L 6.453125 52.046875 
L 15.375 52.046875 
L 15.375 0 
z
M 6.453125 61.765625 
L 6.453125 71.734375 
L 15.375 71.734375 
L 15.375 61.765625 
z
" id="Helvetica-69"/>
      <path d="M 6.453125 0 
L 6.453125 52.296875 
L 14.796875 52.296875 
L 14.796875 44.875 
Q 18.5 49.46875 22.65625 51.46875 
Q 26.8125 53.46875 31.890625 53.46875 
Q 43.015625 53.46875 46.921875 45.703125 
Q 49.078125 41.453125 49.078125 33.546875 
L 49.078125 0 
L 40.140625 0 
L 40.140625 32.953125 
Q 40.140625 37.75 38.71875 40.671875 
Q 36.375 45.5625 30.21875 45.5625 
Q 27.09375 45.5625 25.09375 44.921875 
Q 21.484375 43.84375 18.75 40.625 
Q 16.546875 38.03125 15.890625 35.265625 
Q 15.234375 32.515625 15.234375 27.390625 
L 15.234375 0 
z
M 27.09375 53.5625 
z
" id="Helvetica-6e"/>
      <path d="M 2.875 24.703125 
Q 2.875 38.484375 9.5625 46.140625 
Q 16.265625 53.8125 26.609375 53.8125 
Q 35.453125 53.8125 40.984375 49.515625 
Q 46.53125 45.21875 47.65625 34.71875 
L 39.109375 34.71875 
Q 38.328125 39.546875 35.546875 42.75 
Q 32.765625 45.953125 26.609375 45.953125 
Q 18.21875 45.953125 14.59375 37.75 
Q 12.25 32.421875 12.25 24.609375 
Q 12.25 16.75 15.5625 11.375 
Q 18.890625 6 26.03125 6 
Q 31.5 6 34.6875 9.34375 
Q 37.890625 12.703125 39.109375 18.5 
L 47.65625 18.5 
Q 46.1875 8.109375 40.328125 3.296875 
Q 34.46875 -1.515625 25.34375 -1.515625 
Q 15.09375 -1.515625 8.984375 5.984375 
Q 2.875 13.484375 2.875 24.703125 
z
M 25.25 53.5625 
z
" id="Helvetica-63"/>
      <path d="M 5.765625 -20.84375 
L 5.765625 52.046875 
L 14.3125 52.046875 
L 14.3125 45.125 
Q 16.9375 48.6875 20.0625 50.640625 
Q 24.515625 53.5625 30.515625 53.5625 
Q 39.40625 53.5625 45.609375 46.75 
Q 51.8125 39.9375 51.8125 27.296875 
Q 51.8125 10.203125 42.875 2.875 
Q 37.203125 -1.765625 29.6875 -1.765625 
Q 23.78125 -1.765625 19.78125 0.828125 
Q 17.4375 2.296875 14.546875 5.859375 
L 14.546875 -20.84375 
z
M 14.203125 24.3125 
Q 14.203125 18.265625 16.015625 14.015625 
Q 19.4375 5.90625 28.515625 5.90625 
Q 34.671875 5.90625 38.75 11.0625 
Q 42.828125 16.21875 42.828125 26.46875 
Q 42.828125 32.71875 41.015625 37.203125 
Q 37.59375 45.84375 28.515625 45.84375 
Q 19.390625 45.84375 16.015625 36.71875 
Q 14.203125 31.84375 14.203125 24.3125 
z
" id="Helvetica-70"/>
      <path d="M 4 13.71875 
Q 4 21 8.546875 25 
Q 13.09375 29 20.453125 29.9375 
L 34.46875 31.6875 
Q 37.5 32.078125 38.53125 34.234375 
Q 39.109375 35.40625 39.109375 37.59375 
Q 39.109375 42.09375 35.90625 44.109375 
Q 32.71875 46.140625 26.765625 46.140625 
Q 19.875 46.140625 17 42.4375 
Q 15.375 40.375 14.890625 36.328125 
L 6.6875 36.328125 
Q 6.9375 46 12.96875 49.78125 
Q 19 53.5625 26.953125 53.5625 
Q 36.1875 53.5625 41.9375 50.046875 
Q 47.65625 46.53125 47.65625 39.109375 
L 47.65625 8.984375 
Q 47.65625 7.625 48.21875 6.78125 
Q 48.78125 5.953125 50.59375 5.953125 
Q 51.171875 5.953125 51.90625 6.03125 
Q 52.640625 6.109375 53.46875 6.25 
L 53.46875 -0.25 
Q 51.421875 -0.828125 50.34375 -0.96875 
Q 49.265625 -1.125 47.40625 -1.125 
Q 42.875 -1.125 40.828125 2.09375 
Q 39.75 3.8125 39.3125 6.9375 
Q 36.625 3.421875 31.59375 0.828125 
Q 26.5625 -1.765625 20.515625 -1.765625 
Q 13.234375 -1.765625 8.609375 2.65625 
Q 4 7.078125 4 13.71875 
z
M 13.1875 13.921875 
Q 13.1875 10.109375 15.96875 7.90625 
Q 18.75 5.71875 22.5625 5.71875 
Q 27.203125 5.71875 31.546875 7.859375 
Q 38.875 11.421875 38.875 19.53125 
L 38.875 26.609375 
Q 37.25 25.59375 34.703125 24.90625 
Q 32.171875 24.21875 29.734375 23.921875 
L 24.421875 23.25 
Q 19.625 22.609375 17.234375 21.234375 
Q 13.1875 18.953125 13.1875 13.921875 
z
M 27.203125 53.5625 
z
" id="Helvetica-61"/>
      <path d="M 6.6875 0 
L 6.6875 71.734375 
L 15.484375 71.734375 
L 15.484375 0 
z
" id="Helvetica-6c"/>
      <path id="Helvetica-20"/>
      <path d="M 4.390625 36.625 
Q 4.390625 52.484375 12.796875 62.640625 
Q 21.875 73.6875 37.84375 73.6875 
Q 51.46875 73.6875 58.984375 66.5 
Q 66.5 59.328125 67.328125 50.203125 
L 57.859375 50.203125 
Q 56.25 57.125 51.4375 61.171875 
Q 46.625 65.234375 37.9375 65.234375 
Q 27.34375 65.234375 20.828125 57.78125 
Q 14.3125 50.34375 14.3125 34.96875 
Q 14.3125 22.359375 20.1875 14.515625 
Q 26.078125 6.6875 37.75 6.6875 
Q 48.484375 6.6875 54.109375 14.9375 
Q 57.078125 19.28125 58.546875 26.375 
L 68.015625 26.375 
Q 66.75 15.046875 59.625 7.375 
Q 51.078125 -1.859375 36.578125 -1.859375 
Q 24.078125 -1.859375 15.578125 5.71875 
Q 4.390625 15.71875 4.390625 36.625 
z
M 35.890625 73.6875 
z
" id="Helvetica-43"/>
      <path d="M 2.875 25 
Q 2.875 38.1875 9.5625 46 
Q 16.265625 53.8125 27.546875 53.8125 
Q 37.640625 53.8125 44.625 47.0625 
Q 51.609375 40.328125 51.609375 27.25 
Q 51.609375 14.59375 45.453125 6.34375 
Q 39.3125 -1.90625 26.375 -1.90625 
Q 15.578125 -1.90625 9.21875 5.390625 
Q 2.875 12.703125 2.875 25 
z
M 11.921875 25.140625 
Q 11.921875 16.796875 15.578125 11.234375 
Q 19.234375 5.671875 27.203125 5.671875 
Q 35.9375 5.671875 39.1875 12.28125 
Q 42.4375 18.890625 42.4375 27 
Q 42.4375 34.328125 40.09375 38.921875 
Q 36.375 46.140625 27.296875 46.140625 
Q 19.234375 46.140625 15.578125 39.984375 
Q 11.921875 33.84375 11.921875 25.140625 
z
M 27.25 53.5625 
z
" id="Helvetica-6f"/>
      <path d="M 6.453125 0 
L 6.453125 52.296875 
L 15.140625 52.296875 
L 15.140625 44.875 
Q 18.265625 48.734375 20.796875 50.484375 
Q 25.140625 53.46875 30.671875 53.46875 
Q 36.921875 53.46875 40.71875 50.390625 
Q 42.875 48.640625 44.625 45.21875 
Q 47.5625 49.421875 51.515625 51.4375 
Q 55.46875 53.46875 60.40625 53.46875 
Q 70.953125 53.46875 74.75 45.84375 
Q 76.8125 41.75 76.8125 34.8125 
L 76.8125 0 
L 67.671875 0 
L 67.671875 36.328125 
Q 67.671875 41.546875 65.0625 43.5 
Q 62.453125 45.453125 58.6875 45.453125 
Q 53.515625 45.453125 49.78125 41.984375 
Q 46.046875 38.53125 46.046875 30.421875 
L 46.046875 0 
L 37.109375 0 
L 37.109375 34.125 
Q 37.109375 39.453125 35.84375 41.890625 
Q 33.84375 45.5625 28.375 45.5625 
Q 23.390625 45.5625 19.3125 41.703125 
Q 15.234375 37.84375 15.234375 27.734375 
L 15.234375 0 
z
" id="Helvetica-6d"/>
      <path d="M 3.515625 25.140625 
Q 3.515625 37.75 10.34375 45.609375 
Q 17.1875 53.46875 28.21875 53.46875 
Q 33.796875 53.46875 39.015625 50.859375 
Q 44.234375 48.25 46.96875 44.09375 
Q 49.609375 40.140625 50.484375 34.859375 
Q 51.265625 31.25 51.265625 23.34375 
L 12.9375 23.34375 
Q 13.1875 15.375 16.703125 10.5625 
Q 20.21875 5.765625 27.59375 5.765625 
Q 34.46875 5.765625 38.578125 10.296875 
Q 40.921875 12.9375 41.890625 16.40625 
L 50.53125 16.40625 
Q 50.203125 13.53125 48.265625 9.984375 
Q 46.34375 6.453125 43.953125 4.203125 
Q 39.9375 0.296875 34.03125 -1.078125 
Q 30.859375 -1.859375 26.859375 -1.859375 
Q 17.09375 -1.859375 10.296875 5.25 
Q 3.515625 12.359375 3.515625 25.140625 
z
M 13.1875 30.328125 
L 42.234375 30.328125 
Q 41.703125 36.03125 39.75 39.453125 
Q 36.140625 45.796875 27.6875 45.796875 
Q 21.625 45.796875 17.515625 41.421875 
Q 13.421875 37.0625 13.1875 30.328125 
z
M 27.390625 53.5625 
z
" id="Helvetica-65"/>
      <path d="M 1.125 45.125 
L 1.125 52.296875 
L 8.203125 52.296875 
L 8.203125 66.890625 
L 17.09375 66.890625 
L 17.09375 52.296875 
L 25.4375 52.296875 
L 25.4375 45.125 
L 17.09375 45.125 
L 17.09375 10.984375 
Q 17.09375 8.25 18.953125 7.328125 
Q 19.96875 6.78125 22.359375 6.78125 
Q 23 6.78125 23.734375 6.8125 
Q 24.46875 6.84375 25.4375 6.9375 
L 25.4375 0 
Q 23.921875 -0.4375 22.28125 -0.625 
Q 20.65625 -0.828125 18.75 -0.828125 
Q 12.59375 -0.828125 10.390625 2.3125 
Q 8.203125 5.46875 8.203125 10.5 
L 8.203125 45.125 
z
" id="Helvetica-74"/>
      <path d="M 9.578125 49.515625 
L 9.578125 56.25 
Q 19.09375 57.171875 22.84375 59.34375 
Q 26.609375 61.53125 28.46875 69.625 
L 35.40625 69.625 
L 35.40625 0 
L 26.03125 0 
L 26.03125 49.515625 
z
" id="Helvetica-31"/>
      <path d="M 6.9375 25.6875 
Q 6.9375 40.140625 11.46875 51.421875 
Q 14.359375 58.59375 23.484375 72.90625 
L 29.59375 72.90625 
Q 21.921875 58.015625 19.625 50.984375 
Q 16.15625 40.28125 16.15625 26.265625 
Q 16.15625 12.109375 20.125 0.390625 
Q 22.5625 -6.84375 29.734375 -20.40625 
L 23.828125 -20.40625 
Q 16.703125 -9.28125 14.984375 -6.203125 
Q 13.28125 -3.125 11.28125 2.15625 
Q 8.546875 9.375 7.46875 17.578125 
Q 6.9375 21.828125 6.9375 25.6875 
z
" id="Helvetica-28"/>
      <path d="M 3.21875 17.828125 
L 12.359375 17.828125 
Q 13.234375 10.296875 19.34375 7.421875 
Q 22.46875 5.953125 26.5625 5.953125 
Q 34.375 5.953125 38.125 10.9375 
Q 41.890625 15.921875 41.890625 21.96875 
Q 41.890625 29.296875 37.421875 33.296875 
Q 32.953125 37.3125 26.703125 37.3125 
Q 22.171875 37.3125 18.921875 35.546875 
Q 15.671875 33.796875 13.375 30.671875 
L 5.765625 31.109375 
L 11.078125 68.75 
L 47.40625 68.75 
L 47.40625 60.25 
L 17.671875 60.25 
L 14.703125 40.828125 
Q 17.140625 42.671875 19.34375 43.609375 
Q 23.25 45.21875 28.375 45.21875 
Q 37.984375 45.21875 44.671875 39.015625 
Q 51.375 32.8125 51.375 23.296875 
Q 51.375 13.375 45.234375 5.796875 
Q 39.109375 -1.765625 25.6875 -1.765625 
Q 17.140625 -1.765625 10.5625 3.046875 
Q 4 7.859375 3.21875 17.828125 
z
" id="Helvetica-35"/>
      <path d="M 3.21875 19.625 
Q 3.21875 25.828125 6.25 30.34375 
Q 9.28125 34.859375 15.234375 37.25 
Q 11.578125 38.8125 9.515625 40.921875 
Q 5.671875 44.828125 5.671875 51.078125 
Q 5.671875 58.890625 11.328125 64.5 
Q 17 70.125 27.390625 70.125 
Q 37.453125 70.125 43.15625 64.8125 
Q 48.875 59.515625 48.875 52.4375 
Q 48.875 45.90625 45.5625 41.84375 
Q 43.703125 39.546875 39.796875 37.359375 
Q 44.140625 35.359375 46.625 32.765625 
Q 51.265625 27.875 51.265625 20.0625 
Q 51.265625 10.84375 45.0625 4.421875 
Q 38.875 -2 27.546875 -2 
Q 17.328125 -2 10.265625 3.53125 
Q 3.21875 9.078125 3.21875 19.625 
z
M 12.84375 19.4375 
Q 12.84375 13.96875 16.484375 9.984375 
Q 20.125 6 27.734375 6 
Q 33.84375 6 37.859375 9.296875 
Q 41.890625 12.59375 41.890625 19.140625 
Q 41.890625 25.921875 37.734375 29.4375 
Q 33.59375 32.953125 27.09375 32.953125 
Q 20.796875 32.953125 16.8125 29.359375 
Q 12.84375 25.78125 12.84375 19.4375 
z
M 14.890625 51.125 
Q 14.890625 46.1875 18.546875 43.40625 
Q 22.21875 40.625 27.203125 40.625 
Q 33.015625 40.625 36.28125 43.875 
Q 39.546875 47.125 39.546875 51.609375 
Q 39.546875 55.515625 36.421875 58.78125 
Q 33.296875 62.0625 26.90625 62.0625 
Q 20.5625 62.0625 17.71875 58.78125 
Q 14.890625 55.515625 14.890625 51.125 
z
" id="Helvetica-38"/>
      <path d="M 8.546875 0 
L 8.546875 10.640625 
L 18.75 10.640625 
L 18.75 0 
z
" id="Helvetica-2e"/>
      <path d="M 3.765625 30.71875 
Q 3.765625 43.75 6.9375 52.828125 
Q 13.03125 70.21875 29.25 70.21875 
Q 40.96875 70.21875 45.578125 64.140625 
Q 50.203125 58.0625 50.203125 51.609375 
L 41.5 51.609375 
Q 40.71875 55.765625 39.015625 58.109375 
Q 35.84375 62.5 29.390625 62.5 
Q 22.015625 62.5 17.671875 55.6875 
Q 13.328125 48.875 12.84375 36.1875 
Q 15.875 40.625 20.453125 42.828125 
Q 24.65625 44.78125 29.828125 44.78125 
Q 38.625 44.78125 45.15625 39.15625 
Q 51.703125 33.546875 51.703125 22.40625 
Q 51.703125 12.890625 45.5 5.53125 
Q 39.3125 -1.8125 27.828125 -1.8125 
Q 18.015625 -1.8125 10.890625 5.640625 
Q 3.765625 13.09375 3.765625 30.71875 
z
M 13.96875 21.6875 
Q 13.96875 15.046875 17.84375 10.515625 
Q 21.734375 6 28.609375 6 
Q 35.546875 6 38.984375 10.65625 
Q 42.4375 15.328125 42.4375 21.6875 
Q 42.4375 27.046875 39.359375 31.90625 
Q 36.28125 36.765625 28.171875 36.765625 
Q 22.515625 36.765625 18.234375 33 
Q 13.96875 29.25 13.96875 21.6875 
z
" id="Helvetica-36"/>
      <path d="M 3.21875 50.78125 
Q 3.21875 57.8125 8.203125 62.8125 
Q 13.1875 67.828125 20.21875 67.828125 
Q 27.296875 67.828125 32.265625 62.8125 
Q 37.25 57.8125 37.25 50.78125 
Q 37.25 43.75 32.265625 38.765625 
Q 27.296875 33.796875 20.21875 33.796875 
Q 13.1875 33.796875 8.203125 38.765625 
Q 3.21875 43.75 3.21875 50.78125 
z
M 10.15625 50.78125 
Q 10.15625 46.625 13.109375 43.671875 
Q 16.0625 40.71875 20.21875 40.71875 
Q 24.421875 40.71875 27.375 43.671875 
Q 30.328125 46.625 30.328125 50.78125 
Q 30.328125 54.9375 27.375 57.890625 
Q 24.421875 60.84375 20.21875 60.84375 
Q 16.0625 60.84375 13.109375 57.90625 
Q 10.15625 54.984375 10.15625 50.78125 
z
M 21.96875 -1.859375 
L 61.078125 69.625 
L 66.5 69.625 
L 27.390625 -1.859375 
z
M 51.125 17 
Q 51.125 24.03125 56.09375 29 
Q 61.078125 33.984375 68.171875 33.984375 
Q 75.203125 33.984375 80.171875 29 
Q 85.15625 24.03125 85.15625 17 
Q 85.15625 9.96875 80.171875 4.984375 
Q 75.203125 0 68.171875 0 
Q 61.078125 0 56.09375 4.984375 
Q 51.125 9.96875 51.125 17 
z
M 58.0625 17 
Q 58.0625 12.84375 61.015625 9.890625 
Q 63.96875 6.9375 68.171875 6.9375 
Q 72.3125 6.9375 75.265625 9.890625 
Q 78.21875 12.84375 78.21875 17 
Q 78.21875 21.140625 75.265625 24.09375 
Q 72.3125 27.046875 68.171875 27.046875 
Q 63.96875 27.046875 61.015625 24.09375 
Q 58.0625 21.140625 58.0625 17 
z
" id="Helvetica-25"/>
      <path d="M 3.328125 72.90625 
L 9.234375 72.90625 
Q 16.75 60.890625 18.328125 58.078125 
Q 19.921875 55.28125 21.78125 50.34375 
Q 24.125 44.234375 25.125 38.28125 
Q 26.125 32.328125 26.125 26.8125 
Q 26.125 12.359375 21.53125 1.03125 
Q 18.65625 -6.25 9.578125 -20.40625 
L 3.46875 -20.40625 
Q 11.234375 -5.28125 13.484375 1.65625 
Q 16.890625 12.15625 16.890625 26.265625 
Q 16.890625 40.375 12.9375 52.09375 
Q 10.5 59.328125 3.328125 72.90625 
z
" id="Helvetica-29"/>
     </defs>
     <g style="fill:#1a1a1a;" transform="translate(190.986328 543.950938)scale(0.15 -0.15)">
      <use xlink:href="#Helvetica-50"/>
      <use x="66.699219" xlink:href="#Helvetica-72"/>
      <use x="100" xlink:href="#Helvetica-69"/>
      <use x="122.216797" xlink:href="#Helvetica-6e"/>
      <use x="177.832031" xlink:href="#Helvetica-63"/>
      <use x="227.832031" xlink:href="#Helvetica-69"/>
      <use x="250.048828" xlink:href="#Helvetica-70"/>
      <use x="305.664062" xlink:href="#Helvetica-61"/>
      <use x="361.279297" xlink:href="#Helvetica-6c"/>
      <use x="383.496094" xlink:href="#Helvetica-20"/>
      <use x="411.279297" xlink:href="#Helvetica-43"/>
      <use x="483.496094" xlink:href="#Helvetica-6f"/>
      <use x="539.111328" xlink:href="#Helvetica-6d"/>
      <use x="622.412109" xlink:href="#Helvetica-70"/>
      <use x="678.027344" xlink:href="#Helvetica-6f"/>
      <use x="733.642578" xlink:href="#Helvetica-6e"/>
      <use x="789.257812" xlink:href="#Helvetica-65"/>
      <use x="844.873047" xlink:href="#Helvetica-6e"/>
      <use x="900.488281" xlink:href="#Helvetica-74"/>
      <use x="928.271484" xlink:href="#Helvetica-20"/>
      <use x="956.054688" xlink:href="#Helvetica-31"/>
      <use x="1011.669922" xlink:href="#Helvetica-20"/>
      <use x="1039.453125" xlink:href="#Helvetica-28"/>
      <use x="1072.753906" xlink:href="#Helvetica-35"/>
      <use x="1128.369141" xlink:href="#Helvetica-38"/>
      <use x="1183.984375" xlink:href="#Helvetica-2e"/>
      <use x="1211.767578" xlink:href="#Helvetica-36"/>
      <use x="1267.382812" xlink:href="#Helvetica-25"/>
      <use x="1356.298828" xlink:href="#Helvetica-29"/>
     </g>
    </g>
   </g>
   <g id="matplotlib.axis_2">
    <g id="ytick_1">
     <g id="line2d_11">
      <path clip-path="url(#pffdb67f950)" d="M 72 496.453871 
L 518.4 496.453871 
" style="fill:none;stroke:#b0b0b0;stroke-linecap:square;stroke-width:0.8;"/>
     </g>
     <g id="line2d_12">
      <defs>
       <path d="M 0 0 
L -3.5 0 
" id="ma045072f59" style="stroke:#1a1a1a;stroke-width:0.8;"/>
      </defs>
      <g>
       <use style="fill:#1a1a1a;stroke:#1a1a1a;stroke-width:0.8;" x="72" xlink:href="#ma045072f59" y="496.453871"/>
      </g>
     </g>
     <g id="text_7">
      <!-- -4 -->
      <g style="fill:#1a1a1a;" transform="translate(56.109375 500.04059)scale(0.1 -0.1)">
       <use xlink:href="#Helvetica-2d"/>
       <use x="33.300781" xlink:href="#Helvetica-34"/>
      </g>
     </g>
    </g>
    <g id="ytick_2">
     <g id="line2d_13">
      <path clip-path="url(#pffdb67f950)" d="M 72 402.693543 
L 518.4 402.693543 
" style="fill:none;stroke:#b0b0b0;stroke-linecap:square;stroke-width:0.8;"/>
     </g>
     <g id="line2d_14">
      <g>
       <use style="fill:#1a1a1a;stroke:#1a1a1a;stroke-width:0.8;" x="72" xlink:href="#ma045072f59" y="402.693543"/>
      </g>
     </g>
     <g id="text_8">
      <!-- -2 -->
      <g style="fill:#1a1a1a;" transform="translate(56.109375 406.280262)scale(0.1 -0.1)">
       <use xlink:href="#Helvetica-2d"/>
       <use x="33.300781" xlink:href="#Helvetica-32"/>
      </g>
     </g>
    </g>
    <g id="ytick_3">
     <g id="line2d_15">
      <path clip-path="url(#pffdb67f950)" d="M 72 308.933216 
L 518.4 308.933216 
" style="fill:none;stroke:#b0b0b0;stroke-linecap:square;stroke-width:0.8;"/>
     </g>
     <g id="line2d_16">
      <g>
       <use style="fill:#1a1a1a;stroke:#1a1a1a;stroke-width:0.8;" x="72" xlink:href="#ma045072f59" y="308.933216"/>
      </g>
     </g>
     <g id="text_9">
      <!-- 0 -->
      <g style="fill:#1a1a1a;" transform="translate(59.439062 312.519934)scale(0.1 -0.1)">
       <use xlink:href="#Helvetica-30"/>
      </g>
     </g>
    </g>
    <g id="ytick_4">
     <g id="line2d_17">
      <path clip-path="url(#pffdb67f950)" d="M 72 215.172888 
L 518.4 215.172888 
" style="fill:none;stroke:#b0b0b0;stroke-linecap:square;stroke-width:0.8;"/>
     </g>
     <g id="line2d_18">
      <g>
       <use style="fill:#1a1a1a;stroke:#1a1a1a;stroke-width:0.8;" x="72" xlink:href="#ma045072f59" y="215.172888"/>
      </g>
     </g>
     <g id="text_10">
      <!-- 2 -->
      <g style="fill:#1a1a1a;" transform="translate(59.439062 218.759607)scale(0.1 -0.1)">
       <use xlink:href="#Helvetica-32"/>
      </g>
     </g>
    </g>
    <g id="ytick_5">
     <g id="line2d_19">
      <path clip-path="url(#pffdb67f950)" d="M 72 121.41256 
L 518.4 121.41256 
" style="fill:none;stroke:#b0b0b0;stroke-linecap:square;stroke-width:0.8;"/>
     </g>
     <g id="line2d_20">
      <g>
       <use style="fill:#1a1a1a;stroke:#1a1a1a;stroke-width:0.8;" x="72" xlink:href="#ma045072f59" y="121.41256"/>
      </g>
     </g>
     <g id="text_11">
      <!-- 4 -->
      <g style="fill:#1a1a1a;" transform="translate(59.439062 124.999279)scale(0.1 -0.1)">
       <use xlink:href="#Helvetica-34"/>
      </g>
     </g>
    </g>
    <g id="text_12">
     <!-- Principal Component 2 (14.3%) -->
     <defs>
      <path d="M 2.390625 21.484375 
L 11.578125 21.484375 
Q 12.15625 14.703125 14.109375 11.625 
Q 17.53125 6.109375 26.46875 6.109375 
Q 33.40625 6.109375 37.59375 9.8125 
Q 41.796875 13.53125 41.796875 19.390625 
Q 41.796875 26.609375 37.375 29.484375 
Q 32.953125 32.375 25.09375 32.375 
Q 24.21875 32.375 23.3125 32.34375 
Q 22.40625 32.328125 21.484375 32.28125 
L 21.484375 40.046875 
Q 22.859375 39.890625 23.78125 39.84375 
Q 24.703125 39.796875 25.78125 39.796875 
Q 30.71875 39.796875 33.890625 41.359375 
Q 39.453125 44.09375 39.453125 51.125 
Q 39.453125 56.34375 35.734375 59.171875 
Q 32.03125 62.015625 27.09375 62.015625 
Q 18.3125 62.015625 14.9375 56.15625 
Q 13.09375 52.9375 12.84375 46.96875 
L 4.15625 46.96875 
Q 4.15625 54.78125 7.28125 60.25 
Q 12.640625 70.015625 26.171875 70.015625 
Q 36.859375 70.015625 42.71875 65.25 
Q 48.578125 60.5 48.578125 51.46875 
Q 48.578125 45.015625 45.125 41.015625 
Q 42.96875 38.53125 39.546875 37.109375 
Q 45.0625 35.59375 48.15625 31.265625 
Q 51.265625 26.953125 51.265625 20.703125 
Q 51.265625 10.6875 44.671875 4.390625 
Q 38.09375 -1.90625 25.984375 -1.90625 
Q 13.578125 -1.90625 7.984375 4.90625 
Q 2.390625 11.71875 2.390625 21.484375 
z
" id="Helvetica-33"/>
     </defs>
     <g style="fill:#1a1a1a;" transform="translate(48.982812 395.093672)rotate(-90)scale(0.15 -0.15)">
      <use xlink:href="#Helvetica-50"/>
      <use x="66.699219" xlink:href="#Helvetica-72"/>
      <use x="100" xlink:href="#Helvetica-69"/>
      <use x="122.216797" xlink:href="#Helvetica-6e"/>
      <use x="177.832031" xlink:href="#Helvetica-63"/>
      <use x="227.832031" xlink:href="#Helvetica-69"/>
      <use x="250.048828" xlink:href="#Helvetica-70"/>
      <use x="305.664062" xlink:href="#Helvetica-61"/>
      <use x="361.279297" xlink:href="#Helvetica-6c"/>
      <use x="383.496094" xlink:href="#Helvetica-20"/>
      <use x="411.279297" xlink:href="#Helvetica-43"/>
      <use x="483.496094" xlink:href="#Helvetica-6f"/>
      <use x="539.111328" xlink:href="#Helvetica-6d"/>
      <use x="622.412109" xlink:href="#Helvetica-70"/>
      <use x="678.027344" xlink:href="#Helvetica-6f"/>
      <use x="733.642578" xlink:href="#Helvetica-6e"/>
      <use x="789.257812" xlink:href="#Helvetica-65"/>
      <use x="844.873047" xlink:href="#Helvetica-6e"/>
      <use x="900.488281" xlink:href="#Helvetica-74"/>
      <use x="928.271484" xlink:href="#Helvetica-20"/>
      <use x="956.054688" xlink:href="#Helvetica-32"/>
      <use x="1011.669922" xlink:href="#Helvetica-20"/>
      <use x="1039.453125" xlink:href="#Helvetica-28"/>
      <use x="1072.753906" xlink:href="#Helvetica-31"/>
      <use x="1128.369141" xlink:href="#Helvetica-34"/>
      <use x="1183.984375" xlink:href="#Helvetica-2e"/>
      <use x="1211.767578" xlink:href="#Helvetica-33"/>
      <use x="1267.382812" xlink:href="#Helvetica-25"/>
      <use x="1356.298828" xlink:href="#Helvetica-29"/>
     </g>
    </g>
   </g>
   <g id="patch_3">
    <path d="M 72 512.64 
L 72 69.12 
" style="fill:none;stroke:#1a1a1a;stroke-linecap:square;stroke-linejoin:miter;stroke-width:0.8;"/>
   </g>
   <g id="patch_4">
    <path d="M 518.4 512.64 
L 518.4 69.12 
" style="fill:none;stroke:#1a1a1a;stroke-linecap:square;stroke-linejoin:miter;stroke-width:0.8;"/>
   </g>
   <g id="patch_5">
    <path d="M 72 512.64 
L 518.4 512.64 
" style="fill:none;stroke:#1a1a1a;stroke-linecap:square;stroke-linejoin:miter;stroke-width:0.8;"/>
   </g>
   <g id="patch_6">
    <path d="M 72 69.12 
L 518.4 69.12 
" style="fill:none;stroke:#1a1a1a;stroke-linecap:square;stroke-linejoin:miter;stroke-width:0.8;"/>
   </g>
   <g id="legend_1">
    <g id="patch_7">
     <path d="M 79 105.830938 
L 135.453125 105.830938 
Q 137.453125 105.830938 137.453125 103.830938 
L 137.453125 76.12 
Q 137.453125 74.12 135.453125 74.12 
L 79 74.12 
Q 77 74.12 77 76.12 
L 77 103.830938 
Q 77 105.830938 79 105.830938 
z
" style="fill:#ffffff;opacity:0.8;stroke:#cccccc;stroke-linejoin:miter;"/>
    </g>
    <g id="PathCollection_3">
     <g>
      <use style="fill:#1f77b4;stroke:#1f77b4;" x="91" xlink:href="#mb5bc082d8f" y="82.668437"/>
     </g>
    </g>
    <g id="text_13">
     <!-- WT -->
     <defs>
      <path d="M 1.8125 71.734375 
L 12.359375 71.734375 
L 25.875 13.375 
L 42.09375 71.734375 
L 52.640625 71.734375 
L 68.84375 13.375 
L 82.375 71.734375 
L 93.015625 71.734375 
L 74.171875 0 
L 63.96875 0 
L 47.40625 59.46875 
L 30.765625 0 
L 20.5625 0 
z
" id="Helvetica-57"/>
      <path d="M 1.609375 63.1875 
L 1.609375 71.734375 
L 59.8125 71.734375 
L 59.8125 63.1875 
L 35.640625 63.1875 
L 35.640625 0 
L 25.78125 0 
L 25.78125 63.1875 
z
" id="Helvetica-54"/>
     </defs>
     <g style="fill:#1a1a1a;" transform="translate(109 85.293437)scale(0.1 -0.1)">
      <use xlink:href="#Helvetica-57"/>
      <use x="94.384766" xlink:href="#Helvetica-54"/>
     </g>
    </g>
    <g id="PathCollection_4">
     <g>
      <use style="fill:#ff7f0e;stroke:#ff7f0e;" x="91" xlink:href="#m711169ef39" y="97.121562"/>
     </g>
    </g>
    <g id="text_14">
     <!-- CcpA -->
     <defs>
      <path d="M 1.46875 0 
L 28.46875 71.734375 
L 39.453125 71.734375 
L 65.484375 0 
L 54.828125 0 
L 47.5625 21.484375 
L 19.1875 21.484375 
L 11.421875 0 
z
M 21.96875 29.390625 
L 44.4375 29.390625 
L 33.546875 61.078125 
z
M 33.5 71.734375 
z
" id="Helvetica-41"/>
     </defs>
     <g style="fill:#1a1a1a;" transform="translate(109 99.746562)scale(0.1 -0.1)">
      <use xlink:href="#Helvetica-43"/>
      <use x="72.216797" xlink:href="#Helvetica-63"/>
      <use x="122.216797" xlink:href="#Helvetica-70"/>
      <use x="177.832031" xlink:href="#Helvetica-41"/>
     </g>
    </g>
   </g>
  </g>
 </g>
 <defs>
  <clipPath id="pffdb67f950">
   <rect height="443.52" width="446.4" x="72" y="69.12"/>
  </clipPath>
 </defs>
</svg>
